G75*
%MOIN*%
%OFA0B0*%
%FSLAX24Y24*%
%IPPOS*%
%LPD*%
%AMOC8*
5,1,8,0,0,1.08239X$1,22.5*
%
%ADD10C,0.0710*%
%ADD11R,0.0720X0.0720*%
%ADD12OC8,0.0720*%
%ADD13R,0.0820X0.0820*%
%ADD14OC8,0.0820*%
%ADD15C,0.0867*%
%ADD16R,0.0474X0.0572*%
%ADD17C,0.0107*%
%ADD18R,0.0513X0.0828*%
%ADD19R,0.0950X0.0320*%
D10*
X002502Y008231D03*
X002502Y009019D03*
D11*
X003902Y001925D03*
D12*
X004902Y001925D03*
X005902Y001925D03*
X006902Y001925D03*
X007902Y001925D03*
X008902Y001925D03*
X009902Y001925D03*
X010902Y001925D03*
X011902Y001925D03*
X012902Y001925D03*
X013902Y001925D03*
X014902Y001925D03*
X014902Y010925D03*
X013902Y010925D03*
X012902Y010925D03*
X011902Y010925D03*
X010902Y010925D03*
X009902Y010925D03*
X008902Y010925D03*
X007902Y010925D03*
X006902Y010925D03*
X005902Y010925D03*
X004902Y010925D03*
X003902Y010925D03*
D13*
X017802Y002925D03*
D14*
X016802Y002925D03*
X016802Y003925D03*
X017802Y003925D03*
X017802Y004925D03*
X016802Y004925D03*
X016802Y005925D03*
X017802Y005925D03*
X017802Y006925D03*
X016802Y006925D03*
X016802Y007925D03*
X017802Y007925D03*
X017802Y008925D03*
X016802Y008925D03*
X016802Y009925D03*
X017802Y009925D03*
D15*
X001752Y001175D03*
X001752Y011675D03*
X017752Y011675D03*
X017752Y001175D03*
D16*
X008197Y009425D03*
X007607Y009425D03*
D17*
X006841Y009264D02*
X006841Y009586D01*
X007163Y009586D01*
X007163Y009264D01*
X006841Y009264D01*
X006841Y009371D02*
X007163Y009371D01*
X007163Y009478D02*
X006841Y009478D01*
X006841Y009585D02*
X007163Y009585D01*
X006841Y008986D02*
X006841Y008664D01*
X006841Y008986D02*
X007163Y008986D01*
X007163Y008664D01*
X006841Y008664D01*
X006841Y008771D02*
X007163Y008771D01*
X007163Y008878D02*
X006841Y008878D01*
X006841Y008985D02*
X007163Y008985D01*
X008741Y008986D02*
X008741Y008664D01*
X008741Y008986D02*
X009063Y008986D01*
X009063Y008664D01*
X008741Y008664D01*
X008741Y008771D02*
X009063Y008771D01*
X009063Y008878D02*
X008741Y008878D01*
X008741Y008985D02*
X009063Y008985D01*
X008741Y009264D02*
X008741Y009586D01*
X009063Y009586D01*
X009063Y009264D01*
X008741Y009264D01*
X008741Y009371D02*
X009063Y009371D01*
X009063Y009478D02*
X008741Y009478D01*
X008741Y009585D02*
X009063Y009585D01*
X006363Y007264D02*
X006041Y007264D01*
X006041Y007586D01*
X006363Y007586D01*
X006363Y007264D01*
X006363Y007371D02*
X006041Y007371D01*
X006041Y007478D02*
X006363Y007478D01*
X006363Y007585D02*
X006041Y007585D01*
X005763Y007264D02*
X005441Y007264D01*
X005441Y007586D01*
X005763Y007586D01*
X005763Y007264D01*
X005763Y007371D02*
X005441Y007371D01*
X005441Y007478D02*
X005763Y007478D01*
X005763Y007585D02*
X005441Y007585D01*
X013141Y008664D02*
X013141Y008986D01*
X013463Y008986D01*
X013463Y008664D01*
X013141Y008664D01*
X013141Y008771D02*
X013463Y008771D01*
X013463Y008878D02*
X013141Y008878D01*
X013141Y008985D02*
X013463Y008985D01*
X013141Y009264D02*
X013141Y009586D01*
X013463Y009586D01*
X013463Y009264D01*
X013141Y009264D01*
X013141Y009371D02*
X013463Y009371D01*
X013463Y009478D02*
X013141Y009478D01*
X013141Y009585D02*
X013463Y009585D01*
D18*
X005855Y009753D03*
X004949Y009753D03*
X004949Y008297D03*
X005855Y008297D03*
D19*
X010272Y008675D03*
X010272Y009175D03*
X010272Y009675D03*
X010272Y010175D03*
X012332Y010175D03*
X012332Y009675D03*
X012332Y009175D03*
X012332Y008675D03*
M02*
