%
M48
M72
T01C0.0140
T02C0.0276
T03C0.0400
T04C0.0787
%
T01
X4002Y725
X6702Y3025
X7802Y2825
X8202Y3725
X7402Y4425
X7902Y5225
X8802Y4625
X11002Y4625
X11802Y5525
X12202Y5825
X13202Y5925
X13502Y6425
X13002Y6625
X12602Y6825
X12102Y6825
X11802Y7125
X9002Y7025
X7302Y6825
X6602Y6225
X5252Y6825
X4002Y7025
X2902Y6325
X5102Y5825
X5102Y5325
X5102Y4725
X5102Y4125
X3302Y3425
X2902Y3425
X5102Y9019
X4202Y9525
X3802Y10025
X2802Y9725
X11002Y9825
X13902Y11625
X14902Y12025
X16002Y11125
X17302Y10625
X18102Y10625
X14902Y8825
X14102Y9025
X16002Y8225
X16002Y7225
X14902Y7125
X16102Y5625
X16102Y5125
X14902Y5125
X14502Y4625
X14002Y4625
X13602Y5025
X13002Y4925
X12802Y3725
X13302Y3225
X13702Y3625
X14502Y3625
X15002Y3225
X15202Y3925
X14002Y2525
X12902Y2625
X12402Y2825
X12402Y2325
X11102Y2925
X11102Y3525
T02
X2502Y8231
X2502Y9019
T03
X3902Y10925
X4902Y10925
X5902Y10925
X6902Y10925
X7902Y10925
X8902Y10925
X9902Y10925
X10902Y10925
X11902Y10925
X12902Y10925
X13902Y10925
X14902Y10925
X16802Y9925
X17802Y9925
X17802Y8925
X16802Y8925
X16802Y7925
X17802Y7925
X17802Y6925
X16802Y6925
X16802Y5925
X17802Y5925
X17802Y4925
X16802Y4925
X16802Y3925
X17802Y3925
X17802Y2925
X16802Y2925
X14902Y1925
X13902Y1925
X12902Y1925
X11902Y1925
X10902Y1925
X9902Y1925
X8902Y1925
X7902Y1925
X6902Y1925
X5902Y1925
X4902Y1925
X3902Y1925
T04
X1752Y1175
X1752Y11675
X17752Y11675
X17752Y1175
M30
