G75*
%MOIN*%
%OFA0B0*%
%FSLAX24Y24*%
%IPPOS*%
%LPD*%
%AMOC8*
5,1,8,0,0,1.08239X$1,22.5*
%
%ADD10C,0.0088*%
%ADD11R,0.0709X0.0394*%
%ADD12R,0.0551X0.0157*%
%ADD13R,0.0748X0.0787*%
%ADD14R,0.0748X0.0866*%
%ADD15R,0.0083X0.0512*%
%ADD16R,0.0512X0.0083*%
%ADD17R,0.0550X0.0550*%
%ADD18R,0.0217X0.0472*%
%ADD19R,0.1811X0.0394*%
%ADD20R,0.1339X0.0630*%
%ADD21C,0.0630*%
%ADD22C,0.0250*%
%ADD23R,0.0640X0.0640*%
%ADD24OC8,0.0640*%
%ADD25C,0.0075*%
%ADD26R,0.0740X0.0740*%
%ADD27OC8,0.0740*%
%ADD28R,0.0200X0.0500*%
%ADD29R,0.0669X0.0394*%
%ADD30R,0.0500X0.0500*%
%ADD31C,0.0100*%
%ADD32C,0.0160*%
%ADD33C,0.0240*%
%ADD34C,0.0340*%
%ADD35C,0.0200*%
%ADD36C,0.0320*%
%ADD37C,0.0120*%
%ADD38C,0.0070*%
D10*
X002271Y001794D02*
X002533Y001794D01*
X002271Y001794D02*
X002271Y002056D01*
X002533Y002056D01*
X002533Y001794D01*
X002533Y001881D02*
X002271Y001881D01*
X002271Y001968D02*
X002533Y001968D01*
X002533Y002055D02*
X002271Y002055D01*
X002871Y001794D02*
X003133Y001794D01*
X002871Y001794D02*
X002871Y002056D01*
X003133Y002056D01*
X003133Y001794D01*
X003133Y001881D02*
X002871Y001881D01*
X002871Y001968D02*
X003133Y001968D01*
X003133Y002055D02*
X002871Y002055D01*
X004133Y002794D02*
X004133Y003056D01*
X004133Y002794D02*
X003871Y002794D01*
X003871Y003056D01*
X004133Y003056D01*
X004133Y002881D02*
X003871Y002881D01*
X003871Y002968D02*
X004133Y002968D01*
X004133Y003055D02*
X003871Y003055D01*
X004133Y003394D02*
X004133Y003656D01*
X004133Y003394D02*
X003871Y003394D01*
X003871Y003656D01*
X004133Y003656D01*
X004133Y003481D02*
X003871Y003481D01*
X003871Y003568D02*
X004133Y003568D01*
X004133Y003655D02*
X003871Y003655D01*
X003871Y003994D02*
X004133Y003994D01*
X003871Y003994D02*
X003871Y004256D01*
X004133Y004256D01*
X004133Y003994D01*
X004133Y004081D02*
X003871Y004081D01*
X003871Y004168D02*
X004133Y004168D01*
X004133Y004255D02*
X003871Y004255D01*
X003871Y004594D02*
X004133Y004594D01*
X003871Y004594D02*
X003871Y004856D01*
X004133Y004856D01*
X004133Y004594D01*
X004133Y004681D02*
X003871Y004681D01*
X003871Y004768D02*
X004133Y004768D01*
X004133Y004855D02*
X003871Y004855D01*
X003871Y005194D02*
X004133Y005194D01*
X003871Y005194D02*
X003871Y005456D01*
X004133Y005456D01*
X004133Y005194D01*
X004133Y005281D02*
X003871Y005281D01*
X003871Y005368D02*
X004133Y005368D01*
X004133Y005455D02*
X003871Y005455D01*
X004471Y005194D02*
X004733Y005194D01*
X004471Y005194D02*
X004471Y005456D01*
X004733Y005456D01*
X004733Y005194D01*
X004733Y005281D02*
X004471Y005281D01*
X004471Y005368D02*
X004733Y005368D01*
X004733Y005455D02*
X004471Y005455D01*
X004471Y004594D02*
X004733Y004594D01*
X004471Y004594D02*
X004471Y004856D01*
X004733Y004856D01*
X004733Y004594D01*
X004733Y004681D02*
X004471Y004681D01*
X004471Y004768D02*
X004733Y004768D01*
X004733Y004855D02*
X004471Y004855D01*
X004471Y003994D02*
X004733Y003994D01*
X004471Y003994D02*
X004471Y004256D01*
X004733Y004256D01*
X004733Y003994D01*
X004733Y004081D02*
X004471Y004081D01*
X004471Y004168D02*
X004733Y004168D01*
X004733Y004255D02*
X004471Y004255D01*
X004733Y003656D02*
X004733Y003394D01*
X004471Y003394D01*
X004471Y003656D01*
X004733Y003656D01*
X004733Y003481D02*
X004471Y003481D01*
X004471Y003568D02*
X004733Y003568D01*
X004733Y003655D02*
X004471Y003655D01*
X005071Y003656D02*
X005071Y003394D01*
X005071Y003656D02*
X005333Y003656D01*
X005333Y003394D01*
X005071Y003394D01*
X005071Y003481D02*
X005333Y003481D01*
X005333Y003568D02*
X005071Y003568D01*
X005071Y003655D02*
X005333Y003655D01*
X005933Y003794D02*
X005933Y004056D01*
X005933Y003794D02*
X005671Y003794D01*
X005671Y004056D01*
X005933Y004056D01*
X005933Y003881D02*
X005671Y003881D01*
X005671Y003968D02*
X005933Y003968D01*
X005933Y004055D02*
X005671Y004055D01*
X005671Y004394D02*
X005671Y004656D01*
X005933Y004656D01*
X005933Y004394D01*
X005671Y004394D01*
X005671Y004481D02*
X005933Y004481D01*
X005933Y004568D02*
X005671Y004568D01*
X005671Y004655D02*
X005933Y004655D01*
X005671Y004994D02*
X005671Y005256D01*
X005933Y005256D01*
X005933Y004994D01*
X005671Y004994D01*
X005671Y005081D02*
X005933Y005081D01*
X005933Y005168D02*
X005671Y005168D01*
X005671Y005255D02*
X005933Y005255D01*
X007933Y004856D02*
X007933Y004594D01*
X007671Y004594D01*
X007671Y004856D01*
X007933Y004856D01*
X007933Y004681D02*
X007671Y004681D01*
X007671Y004768D02*
X007933Y004768D01*
X007933Y004855D02*
X007671Y004855D01*
X007933Y004256D02*
X007933Y003994D01*
X007671Y003994D01*
X007671Y004256D01*
X007933Y004256D01*
X007933Y004081D02*
X007671Y004081D01*
X007671Y004168D02*
X007933Y004168D01*
X007933Y004255D02*
X007671Y004255D01*
X005933Y003456D02*
X005933Y003194D01*
X005671Y003194D01*
X005671Y003456D01*
X005933Y003456D01*
X005933Y003281D02*
X005671Y003281D01*
X005671Y003368D02*
X005933Y003368D01*
X005933Y003455D02*
X005671Y003455D01*
X005071Y003056D02*
X005071Y002794D01*
X005071Y003056D02*
X005333Y003056D01*
X005333Y002794D01*
X005071Y002794D01*
X005071Y002881D02*
X005333Y002881D01*
X005333Y002968D02*
X005071Y002968D01*
X005071Y003055D02*
X005333Y003055D01*
X004733Y003056D02*
X004733Y002794D01*
X004471Y002794D01*
X004471Y003056D01*
X004733Y003056D01*
X004733Y002881D02*
X004471Y002881D01*
X004471Y002968D02*
X004733Y002968D01*
X004733Y003055D02*
X004471Y003055D01*
X004733Y006894D02*
X004733Y007156D01*
X004733Y006894D02*
X004471Y006894D01*
X004471Y007156D01*
X004733Y007156D01*
X004733Y006981D02*
X004471Y006981D01*
X004471Y007068D02*
X004733Y007068D01*
X004733Y007155D02*
X004471Y007155D01*
X004733Y007494D02*
X004733Y007756D01*
X004733Y007494D02*
X004471Y007494D01*
X004471Y007756D01*
X004733Y007756D01*
X004733Y007581D02*
X004471Y007581D01*
X004471Y007668D02*
X004733Y007668D01*
X004733Y007755D02*
X004471Y007755D01*
X006371Y007194D02*
X006633Y007194D01*
X006371Y007194D02*
X006371Y007456D01*
X006633Y007456D01*
X006633Y007194D01*
X006633Y007281D02*
X006371Y007281D01*
X006371Y007368D02*
X006633Y007368D01*
X006633Y007455D02*
X006371Y007455D01*
X006971Y007194D02*
X007233Y007194D01*
X006971Y007194D02*
X006971Y007456D01*
X007233Y007456D01*
X007233Y007194D01*
X007233Y007281D02*
X006971Y007281D01*
X006971Y007368D02*
X007233Y007368D01*
X007233Y007455D02*
X006971Y007455D01*
X007671Y007494D02*
X007671Y007756D01*
X007933Y007756D01*
X007933Y007494D01*
X007671Y007494D01*
X007671Y007581D02*
X007933Y007581D01*
X007933Y007668D02*
X007671Y007668D01*
X007671Y007755D02*
X007933Y007755D01*
X008533Y007756D02*
X008533Y007494D01*
X008271Y007494D01*
X008271Y007756D01*
X008533Y007756D01*
X008533Y007581D02*
X008271Y007581D01*
X008271Y007668D02*
X008533Y007668D01*
X008533Y007755D02*
X008271Y007755D01*
X008533Y008094D02*
X008533Y008356D01*
X008533Y008094D02*
X008271Y008094D01*
X008271Y008356D01*
X008533Y008356D01*
X008533Y008181D02*
X008271Y008181D01*
X008271Y008268D02*
X008533Y008268D01*
X008533Y008355D02*
X008271Y008355D01*
X007671Y008356D02*
X007671Y008094D01*
X007671Y008356D02*
X007933Y008356D01*
X007933Y008094D01*
X007671Y008094D01*
X007671Y008181D02*
X007933Y008181D01*
X007933Y008268D02*
X007671Y008268D01*
X007671Y008355D02*
X007933Y008355D01*
X009133Y008356D02*
X009133Y008094D01*
X008871Y008094D01*
X008871Y008356D01*
X009133Y008356D01*
X009133Y008181D02*
X008871Y008181D01*
X008871Y008268D02*
X009133Y008268D01*
X009133Y008355D02*
X008871Y008355D01*
X009733Y008356D02*
X009733Y008094D01*
X009471Y008094D01*
X009471Y008356D01*
X009733Y008356D01*
X009733Y008181D02*
X009471Y008181D01*
X009471Y008268D02*
X009733Y008268D01*
X009733Y008355D02*
X009471Y008355D01*
X010333Y008356D02*
X010333Y008094D01*
X010071Y008094D01*
X010071Y008356D01*
X010333Y008356D01*
X010333Y008181D02*
X010071Y008181D01*
X010071Y008268D02*
X010333Y008268D01*
X010333Y008355D02*
X010071Y008355D01*
X010933Y008356D02*
X010933Y008094D01*
X010671Y008094D01*
X010671Y008356D01*
X010933Y008356D01*
X010933Y008181D02*
X010671Y008181D01*
X010671Y008268D02*
X010933Y008268D01*
X010933Y008355D02*
X010671Y008355D01*
X010933Y007756D02*
X010933Y007494D01*
X010671Y007494D01*
X010671Y007756D01*
X010933Y007756D01*
X010933Y007581D02*
X010671Y007581D01*
X010671Y007668D02*
X010933Y007668D01*
X010933Y007755D02*
X010671Y007755D01*
X010333Y007756D02*
X010333Y007494D01*
X010071Y007494D01*
X010071Y007756D01*
X010333Y007756D01*
X010333Y007581D02*
X010071Y007581D01*
X010071Y007668D02*
X010333Y007668D01*
X010333Y007755D02*
X010071Y007755D01*
X009733Y007756D02*
X009733Y007494D01*
X009471Y007494D01*
X009471Y007756D01*
X009733Y007756D01*
X009733Y007581D02*
X009471Y007581D01*
X009471Y007668D02*
X009733Y007668D01*
X009733Y007755D02*
X009471Y007755D01*
X009133Y007756D02*
X009133Y007494D01*
X008871Y007494D01*
X008871Y007756D01*
X009133Y007756D01*
X009133Y007581D02*
X008871Y007581D01*
X008871Y007668D02*
X009133Y007668D01*
X009133Y007755D02*
X008871Y007755D01*
X008533Y007156D02*
X008271Y007156D01*
X008533Y007156D02*
X008533Y006894D01*
X008271Y006894D01*
X008271Y007156D01*
X008271Y006981D02*
X008533Y006981D01*
X008533Y007068D02*
X008271Y007068D01*
X008271Y007155D02*
X008533Y007155D01*
X007933Y007156D02*
X007671Y007156D01*
X007933Y007156D02*
X007933Y006894D01*
X007671Y006894D01*
X007671Y007156D01*
X007671Y006981D02*
X007933Y006981D01*
X007933Y007068D02*
X007671Y007068D01*
X007671Y007155D02*
X007933Y007155D01*
X009371Y006894D02*
X009633Y006894D01*
X009371Y006894D02*
X009371Y007156D01*
X009633Y007156D01*
X009633Y006894D01*
X009633Y006981D02*
X009371Y006981D01*
X009371Y007068D02*
X009633Y007068D01*
X009633Y007155D02*
X009371Y007155D01*
X009971Y006894D02*
X010233Y006894D01*
X009971Y006894D02*
X009971Y007156D01*
X010233Y007156D01*
X010233Y006894D01*
X010233Y006981D02*
X009971Y006981D01*
X009971Y007068D02*
X010233Y007068D01*
X010233Y007155D02*
X009971Y007155D01*
X013871Y009394D02*
X014133Y009394D01*
X013871Y009394D02*
X013871Y009656D01*
X014133Y009656D01*
X014133Y009394D01*
X014133Y009481D02*
X013871Y009481D01*
X013871Y009568D02*
X014133Y009568D01*
X014133Y009655D02*
X013871Y009655D01*
X013871Y009994D02*
X014133Y009994D01*
X013871Y009994D02*
X013871Y010256D01*
X014133Y010256D01*
X014133Y009994D01*
X014133Y010081D02*
X013871Y010081D01*
X013871Y010168D02*
X014133Y010168D01*
X014133Y010255D02*
X013871Y010255D01*
X014471Y009994D02*
X014733Y009994D01*
X014471Y009994D02*
X014471Y010256D01*
X014733Y010256D01*
X014733Y009994D01*
X014733Y010081D02*
X014471Y010081D01*
X014471Y010168D02*
X014733Y010168D01*
X014733Y010255D02*
X014471Y010255D01*
X015171Y010256D02*
X015171Y009994D01*
X015171Y010256D02*
X015433Y010256D01*
X015433Y009994D01*
X015171Y009994D01*
X015171Y010081D02*
X015433Y010081D01*
X015433Y010168D02*
X015171Y010168D01*
X015171Y010255D02*
X015433Y010255D01*
X016033Y010156D02*
X016033Y009894D01*
X015771Y009894D01*
X015771Y010156D01*
X016033Y010156D01*
X016033Y009981D02*
X015771Y009981D01*
X015771Y010068D02*
X016033Y010068D01*
X016033Y010155D02*
X015771Y010155D01*
X016033Y009556D02*
X016033Y009294D01*
X015771Y009294D01*
X015771Y009556D01*
X016033Y009556D01*
X016033Y009381D02*
X015771Y009381D01*
X015771Y009468D02*
X016033Y009468D01*
X016033Y009555D02*
X015771Y009555D01*
X015171Y009656D02*
X015171Y009394D01*
X015171Y009656D02*
X015433Y009656D01*
X015433Y009394D01*
X015171Y009394D01*
X015171Y009481D02*
X015433Y009481D01*
X015433Y009568D02*
X015171Y009568D01*
X015171Y009655D02*
X015433Y009655D01*
X014733Y009394D02*
X014471Y009394D01*
X014471Y009656D01*
X014733Y009656D01*
X014733Y009394D01*
X014733Y009481D02*
X014471Y009481D01*
X014471Y009568D02*
X014733Y009568D01*
X014733Y009655D02*
X014471Y009655D01*
X014433Y008356D02*
X014433Y008094D01*
X014171Y008094D01*
X014171Y008356D01*
X014433Y008356D01*
X014433Y008181D02*
X014171Y008181D01*
X014171Y008268D02*
X014433Y008268D01*
X014433Y008355D02*
X014171Y008355D01*
X015033Y008356D02*
X015033Y008094D01*
X014771Y008094D01*
X014771Y008356D01*
X015033Y008356D01*
X015033Y008181D02*
X014771Y008181D01*
X014771Y008268D02*
X015033Y008268D01*
X015033Y008355D02*
X014771Y008355D01*
X015371Y008356D02*
X015371Y008094D01*
X015371Y008356D02*
X015633Y008356D01*
X015633Y008094D01*
X015371Y008094D01*
X015371Y008181D02*
X015633Y008181D01*
X015633Y008268D02*
X015371Y008268D01*
X015371Y008355D02*
X015633Y008355D01*
X015371Y007756D02*
X015371Y007494D01*
X015371Y007756D02*
X015633Y007756D01*
X015633Y007494D01*
X015371Y007494D01*
X015371Y007581D02*
X015633Y007581D01*
X015633Y007668D02*
X015371Y007668D01*
X015371Y007755D02*
X015633Y007755D01*
X015033Y007756D02*
X015033Y007494D01*
X014771Y007494D01*
X014771Y007756D01*
X015033Y007756D01*
X015033Y007581D02*
X014771Y007581D01*
X014771Y007668D02*
X015033Y007668D01*
X015033Y007755D02*
X014771Y007755D01*
X014433Y007756D02*
X014433Y007494D01*
X014171Y007494D01*
X014171Y007756D01*
X014433Y007756D01*
X014433Y007581D02*
X014171Y007581D01*
X014171Y007668D02*
X014433Y007668D01*
X014433Y007755D02*
X014171Y007755D01*
X011233Y004156D02*
X010971Y004156D01*
X011233Y004156D02*
X011233Y003894D01*
X010971Y003894D01*
X010971Y004156D01*
X010971Y003981D02*
X011233Y003981D01*
X011233Y004068D02*
X010971Y004068D01*
X010971Y004155D02*
X011233Y004155D01*
X010633Y004156D02*
X010371Y004156D01*
X010633Y004156D02*
X010633Y003894D01*
X010371Y003894D01*
X010371Y004156D01*
X010371Y003981D02*
X010633Y003981D01*
X010633Y004068D02*
X010371Y004068D01*
X010371Y004155D02*
X010633Y004155D01*
X003133Y010794D02*
X002871Y010794D01*
X002871Y011056D01*
X003133Y011056D01*
X003133Y010794D01*
X003133Y010881D02*
X002871Y010881D01*
X002871Y010968D02*
X003133Y010968D01*
X003133Y011055D02*
X002871Y011055D01*
X002533Y010794D02*
X002271Y010794D01*
X002271Y011056D01*
X002533Y011056D01*
X002533Y010794D01*
X002533Y010881D02*
X002271Y010881D01*
X002271Y010968D02*
X002533Y010968D01*
X002533Y011055D02*
X002271Y011055D01*
D11*
X006602Y006776D03*
X006602Y005674D03*
D12*
X002924Y005137D03*
X002924Y004881D03*
X002924Y004625D03*
X002924Y004369D03*
X002924Y004113D03*
D13*
X001802Y004133D03*
X001802Y005117D03*
D14*
X001802Y006200D03*
X001802Y003050D03*
D15*
X011520Y004293D03*
X011716Y004293D03*
X011913Y004293D03*
X012110Y004293D03*
X012307Y004293D03*
X012504Y004293D03*
X012701Y004293D03*
X012897Y004293D03*
X013094Y004293D03*
X013291Y004293D03*
X013488Y004293D03*
X013685Y004293D03*
X013685Y007757D03*
X013488Y007757D03*
X013291Y007757D03*
X013094Y007757D03*
X012897Y007757D03*
X012701Y007757D03*
X012504Y007757D03*
X012307Y007757D03*
X012110Y007757D03*
X011913Y007757D03*
X011716Y007757D03*
X011520Y007757D03*
D16*
X010870Y007108D03*
X010870Y006911D03*
X010870Y006714D03*
X010870Y006517D03*
X010870Y006320D03*
X010870Y006123D03*
X010870Y005927D03*
X010870Y005730D03*
X010870Y005533D03*
X010870Y005336D03*
X010870Y005139D03*
X010870Y004942D03*
X014334Y004942D03*
X014334Y005139D03*
X014334Y005336D03*
X014334Y005533D03*
X014334Y005730D03*
X014334Y005927D03*
X014334Y006123D03*
X014334Y006320D03*
X014334Y006517D03*
X014334Y006714D03*
X014334Y006911D03*
X014334Y007108D03*
D17*
X005802Y006975D03*
X005802Y007675D03*
X005802Y008975D03*
X005802Y005675D03*
D18*
X006428Y004937D03*
X006802Y004937D03*
X007176Y004937D03*
X007176Y003913D03*
X006428Y003913D03*
X006528Y007913D03*
X007276Y007913D03*
X007276Y008937D03*
X006902Y008937D03*
X006528Y008937D03*
D19*
X003859Y009019D03*
X003859Y008231D03*
D20*
X001812Y007286D03*
X001812Y009964D03*
D21*
X002502Y009019D03*
X002502Y008231D03*
D22*
X001702Y011025D03*
X001702Y001825D03*
X017802Y001825D03*
X017802Y011025D03*
D23*
X003902Y001925D03*
D24*
X004902Y001925D03*
X005902Y001925D03*
X006902Y001925D03*
X007902Y001925D03*
X008902Y001925D03*
X009902Y001925D03*
X010902Y001925D03*
X011902Y001925D03*
X012902Y001925D03*
X013902Y001925D03*
X014902Y001925D03*
X014902Y010925D03*
X013902Y010925D03*
X012902Y010925D03*
X011902Y010925D03*
X010902Y010925D03*
X009902Y010925D03*
X008902Y010925D03*
X007902Y010925D03*
X006902Y010925D03*
X005902Y010925D03*
X004902Y010925D03*
X003902Y010925D03*
D25*
X003315Y011787D02*
X003089Y011787D01*
X003089Y012063D01*
X003315Y012063D01*
X003315Y011787D01*
X003315Y011861D02*
X003089Y011861D01*
X003089Y011935D02*
X003315Y011935D01*
X003315Y012009D02*
X003089Y012009D01*
X002715Y011787D02*
X002489Y011787D01*
X002489Y012063D01*
X002715Y012063D01*
X002715Y011787D01*
X002715Y011861D02*
X002489Y011861D01*
X002489Y011935D02*
X002715Y011935D01*
X002715Y012009D02*
X002489Y012009D01*
X002489Y000787D02*
X002715Y000787D01*
X002489Y000787D02*
X002489Y001063D01*
X002715Y001063D01*
X002715Y000787D01*
X002715Y000861D02*
X002489Y000861D01*
X002489Y000935D02*
X002715Y000935D01*
X002715Y001009D02*
X002489Y001009D01*
X003089Y000787D02*
X003315Y000787D01*
X003089Y000787D02*
X003089Y001063D01*
X003315Y001063D01*
X003315Y000787D01*
X003315Y000861D02*
X003089Y000861D01*
X003089Y000935D02*
X003315Y000935D01*
X003315Y001009D02*
X003089Y001009D01*
D26*
X017802Y002925D03*
D27*
X016802Y002925D03*
X016802Y003925D03*
X017802Y003925D03*
X017802Y004925D03*
X016802Y004925D03*
X016802Y005925D03*
X017802Y005925D03*
X017802Y006925D03*
X016802Y006925D03*
X016802Y007925D03*
X017802Y007925D03*
X017802Y008925D03*
X016802Y008925D03*
X016802Y009925D03*
X017802Y009925D03*
D28*
X008222Y005825D03*
X007902Y005825D03*
X007582Y005825D03*
D29*
X016002Y002273D03*
X016002Y000777D03*
X016002Y010577D03*
X016002Y012073D03*
D30*
X009102Y006125D03*
X009102Y005125D03*
D31*
X002602Y001725D02*
X002602Y000925D01*
X003202Y000925D02*
X003902Y000925D01*
X004002Y000725D01*
X004002Y000605D02*
X004002Y001455D01*
X003902Y001455D02*
X003902Y000605D01*
X003802Y000605D02*
X003802Y001455D01*
X003702Y001455D02*
X003702Y000605D01*
X003602Y000605D02*
X003602Y001455D01*
X003520Y001455D02*
X003432Y001543D01*
X003432Y002307D01*
X003520Y002395D01*
X004022Y002395D01*
X004046Y002425D01*
X003402Y002425D01*
X003402Y001194D01*
X003402Y002425D01*
X003402Y002325D02*
X003450Y002325D01*
X003502Y002377D02*
X003502Y002425D01*
X003602Y002425D02*
X003602Y002395D01*
X003702Y002395D02*
X003702Y002425D01*
X003802Y002425D02*
X003802Y002395D01*
X003902Y002395D02*
X003902Y002425D01*
X004002Y002425D02*
X004002Y002395D01*
X004302Y002425D02*
X003902Y001925D01*
X003432Y001925D02*
X003402Y001925D01*
X003402Y002025D02*
X003432Y002025D01*
X003432Y002125D02*
X003402Y002125D01*
X003402Y002225D02*
X003432Y002225D01*
X003002Y002325D02*
X003002Y001925D01*
X003402Y001825D02*
X003432Y001825D01*
X003432Y001725D02*
X003402Y001725D01*
X003402Y001625D02*
X003432Y001625D01*
X003450Y001525D02*
X003402Y001525D01*
X003402Y001425D02*
X011219Y001425D01*
X011202Y001442D02*
X011202Y000605D01*
X011102Y000605D02*
X011102Y001460D01*
X011097Y001455D02*
X011202Y001560D01*
X011202Y001442D01*
X011302Y001342D01*
X011302Y000605D01*
X011402Y000605D02*
X011402Y001242D01*
X011419Y001225D02*
X003402Y001225D01*
X003402Y001194D02*
X003411Y001189D01*
X003441Y001159D01*
X003461Y001123D01*
X003472Y001083D01*
X003472Y000950D01*
X003402Y000950D01*
X003402Y000900D01*
X003402Y000950D01*
X003402Y000925D02*
X015548Y000925D01*
X015548Y000990D02*
X015548Y000825D01*
X015954Y000825D01*
X003472Y000825D01*
X003472Y000767D02*
X003472Y000900D01*
X003402Y000900D01*
X003472Y001025D02*
X015559Y001025D01*
X015556Y001020D02*
X015548Y000990D01*
X015556Y001020D02*
X015572Y001048D01*
X015594Y001070D01*
X015621Y001086D01*
X015652Y001094D01*
X015954Y001094D01*
X015954Y000825D01*
X015954Y000729D01*
X015548Y000729D01*
X015548Y000605D01*
X003402Y000605D01*
X003402Y000656D01*
X003411Y000661D01*
X003441Y000691D01*
X003461Y000727D01*
X003472Y000767D01*
X003460Y000725D02*
X015548Y000725D01*
X015602Y000729D02*
X015602Y000825D01*
X015702Y000825D02*
X015702Y000729D01*
X015802Y000729D02*
X015802Y000825D01*
X015902Y000825D02*
X015902Y000729D01*
X015954Y000825D02*
X016051Y000825D01*
X016051Y001094D01*
X016302Y001094D01*
X016302Y001926D01*
X015605Y001926D01*
X015518Y002014D01*
X015518Y002325D01*
X015124Y002325D01*
X015342Y002107D01*
X015342Y001975D01*
X014952Y001975D01*
X014952Y001875D01*
X014952Y001485D01*
X015084Y001485D01*
X015342Y001743D01*
X015342Y001875D01*
X014952Y001875D01*
X014852Y001875D01*
X014462Y001875D01*
X014462Y001743D01*
X014720Y001485D01*
X014852Y001485D01*
X014852Y001875D01*
X014852Y001975D01*
X014462Y001975D01*
X014462Y002107D01*
X014680Y002325D01*
X014255Y002325D01*
X014211Y002281D01*
X014372Y002120D01*
X014372Y001730D01*
X014097Y001455D01*
X013708Y001455D01*
X013432Y001730D01*
X013432Y002120D01*
X013708Y002395D01*
X013710Y002395D01*
X013682Y002461D01*
X013682Y002589D01*
X013731Y002706D01*
X013821Y002796D01*
X013939Y002845D01*
X014066Y002845D01*
X014183Y002796D01*
X014255Y002725D01*
X015833Y002725D01*
X015938Y002620D01*
X016302Y002620D01*
X016302Y002690D01*
X016282Y002710D01*
X016282Y002725D01*
X015619Y002725D01*
X014255Y002725D01*
X014302Y002725D02*
X014302Y003372D01*
X014321Y003354D02*
X014439Y003305D01*
X014566Y003305D01*
X014683Y003354D01*
X014702Y003372D01*
X014702Y003337D01*
X014682Y003289D01*
X014682Y003161D01*
X014731Y003044D01*
X014821Y002954D01*
X014939Y002905D01*
X015066Y002905D01*
X015183Y002954D01*
X015273Y003044D01*
X015322Y003161D01*
X015322Y003289D01*
X015273Y003406D01*
X015183Y003496D01*
X015102Y003530D01*
X015102Y003620D01*
X015139Y003605D01*
X015266Y003605D01*
X015383Y003654D01*
X015402Y003672D01*
X015402Y002942D01*
X015402Y002725D01*
X015302Y002725D02*
X015302Y003113D01*
X015307Y003125D02*
X015402Y003125D01*
X015402Y003025D02*
X015255Y003025D01*
X015202Y002972D02*
X015202Y002725D01*
X015102Y002725D02*
X015102Y002920D01*
X015114Y002925D02*
X015419Y002925D01*
X015402Y002942D02*
X015502Y002842D01*
X015502Y002725D01*
X015602Y002725D02*
X015602Y002742D01*
X015619Y002725D02*
X015502Y002842D01*
X015519Y002825D02*
X014114Y002825D01*
X014102Y002830D02*
X014102Y003425D01*
X014002Y003425D02*
X014002Y002845D01*
X013902Y002830D02*
X013902Y003372D01*
X013883Y003354D02*
X013955Y003425D01*
X014250Y003425D01*
X014321Y003354D01*
X014390Y003325D02*
X013814Y003325D01*
X013802Y003320D02*
X013802Y002778D01*
X013750Y002725D02*
X013207Y002725D01*
X013202Y002737D02*
X013202Y002920D01*
X013190Y002925D02*
X013102Y002925D01*
X013121Y002954D02*
X013239Y002905D01*
X013366Y002905D01*
X013483Y002954D01*
X013573Y003044D01*
X013622Y003161D01*
X013622Y003289D01*
X013611Y003317D01*
X013639Y003305D01*
X013766Y003305D01*
X013883Y003354D01*
X013702Y003305D02*
X013702Y002637D01*
X013697Y002625D02*
X013222Y002625D01*
X013222Y002561D02*
X013222Y002689D01*
X013173Y002806D01*
X013102Y002878D01*
X013102Y002972D01*
X013102Y002878D01*
X013155Y002825D02*
X013890Y002825D01*
X014202Y002778D02*
X014202Y003425D01*
X014402Y003320D02*
X014402Y002725D01*
X014502Y002725D02*
X014502Y003305D01*
X014602Y003320D02*
X014602Y002725D01*
X014702Y002725D02*
X014702Y003113D01*
X014697Y003125D02*
X013607Y003125D01*
X013602Y003113D02*
X013602Y002290D01*
X013638Y002325D02*
X013167Y002325D01*
X013202Y002290D02*
X013202Y002513D01*
X013207Y002525D02*
X013682Y002525D01*
X013697Y002425D02*
X013155Y002425D01*
X013173Y002444D02*
X013222Y002561D01*
X013173Y002444D02*
X013111Y002381D01*
X013372Y002120D01*
X013372Y001730D01*
X013097Y001455D01*
X012715Y001455D01*
X012485Y001225D01*
X016302Y001225D01*
X016302Y001125D02*
X003460Y001125D01*
X003402Y001325D02*
X011319Y001325D01*
X011302Y001342D02*
X011419Y001225D01*
X012485Y001225D01*
X012502Y001242D02*
X012502Y000605D01*
X012402Y000605D02*
X012402Y001225D01*
X012302Y001225D02*
X012302Y000605D01*
X012202Y000605D02*
X012202Y001225D01*
X012102Y001225D02*
X012102Y000605D01*
X012002Y000605D02*
X012002Y001225D01*
X011902Y001225D02*
X011902Y000605D01*
X011802Y000605D02*
X011802Y001225D01*
X011702Y001225D02*
X011702Y000605D01*
X011602Y000605D02*
X011602Y001225D01*
X011502Y001225D02*
X011502Y000605D01*
X011002Y000605D02*
X011002Y001455D01*
X011097Y001455D02*
X010708Y001455D01*
X010432Y001730D01*
X010432Y002120D01*
X010708Y002395D01*
X011097Y002395D01*
X011202Y002290D01*
X011202Y002308D01*
X011202Y002620D01*
X011214Y002625D02*
X011516Y002625D01*
X011516Y002622D02*
X011319Y002425D01*
X011202Y002308D01*
X011219Y002325D02*
X011167Y002325D01*
X011102Y002390D02*
X011102Y002605D01*
X011039Y002605D02*
X011166Y002605D01*
X011283Y002654D01*
X011373Y002744D01*
X011422Y002861D01*
X011422Y002989D01*
X011373Y003106D01*
X011283Y003196D01*
X011214Y003225D01*
X011516Y003225D01*
X011516Y003125D02*
X011355Y003125D01*
X011302Y003178D02*
X011302Y003272D01*
X011283Y003254D02*
X011373Y003344D01*
X011422Y003461D01*
X011422Y003589D01*
X011373Y003706D01*
X011347Y003733D01*
X011427Y003813D01*
X011427Y003815D01*
X011516Y003815D01*
X011516Y002622D01*
X011502Y002608D02*
X011502Y003815D01*
X011516Y003725D02*
X011355Y003725D01*
X011402Y003788D02*
X011402Y003637D01*
X011407Y003625D02*
X011516Y003625D01*
X011516Y003525D02*
X011422Y003525D01*
X011407Y003425D02*
X011516Y003425D01*
X011516Y003325D02*
X011355Y003325D01*
X011402Y003413D02*
X011402Y003037D01*
X011407Y003025D02*
X011516Y003025D01*
X011516Y002925D02*
X011422Y002925D01*
X011407Y002825D02*
X011516Y002825D01*
X011516Y002725D02*
X011355Y002725D01*
X011302Y002672D02*
X011302Y002408D01*
X011319Y002425D02*
X009685Y002425D01*
X009702Y002442D02*
X009702Y002390D01*
X009708Y002395D02*
X009432Y002120D01*
X009432Y001730D01*
X009708Y001455D01*
X010097Y001455D01*
X010372Y001730D01*
X010372Y002120D01*
X010097Y002395D01*
X009708Y002395D01*
X009802Y002395D02*
X009802Y002542D01*
X009785Y002525D02*
X011419Y002525D01*
X011402Y002508D02*
X011402Y002813D01*
X011102Y002925D02*
X009902Y002925D01*
X008902Y001925D01*
X009372Y001925D02*
X009432Y001925D01*
X009432Y002025D02*
X009372Y002025D01*
X009372Y002112D02*
X009985Y002725D01*
X010850Y002725D01*
X010921Y002654D01*
X011039Y002605D01*
X011002Y002620D02*
X011002Y002395D01*
X010902Y002395D02*
X010902Y002672D01*
X010990Y002625D02*
X009885Y002625D01*
X009902Y002642D02*
X009902Y002395D01*
X010002Y002395D02*
X010002Y002725D01*
X010102Y002725D02*
X010102Y002390D01*
X010167Y002325D02*
X010638Y002325D01*
X010602Y002290D02*
X010602Y002725D01*
X010502Y002725D02*
X010502Y002190D01*
X010538Y002225D02*
X010267Y002225D01*
X010302Y002190D02*
X010302Y002725D01*
X010202Y002725D02*
X010202Y002290D01*
X010367Y002125D02*
X010438Y002125D01*
X010432Y002025D02*
X010372Y002025D01*
X010372Y001925D02*
X010432Y001925D01*
X010432Y001825D02*
X010372Y001825D01*
X010367Y001725D02*
X010438Y001725D01*
X010502Y001660D02*
X010502Y000605D01*
X010402Y000605D02*
X010402Y002725D01*
X010702Y002725D02*
X010702Y002390D01*
X010802Y002395D02*
X010802Y002725D01*
X010802Y003125D02*
X010802Y003225D01*
X010885Y003225D02*
X010990Y003225D01*
X010921Y003196D01*
X010850Y003125D01*
X009985Y003125D01*
X010085Y003225D01*
X010885Y003225D01*
X010917Y003257D01*
X010921Y003254D01*
X010990Y003225D01*
X010902Y003242D02*
X010902Y003178D01*
X010850Y003125D02*
X009985Y003125D01*
X010002Y003125D02*
X010002Y003142D01*
X010102Y003125D02*
X010102Y003225D01*
X010202Y003225D02*
X010202Y003125D01*
X010302Y003125D02*
X010302Y003225D01*
X010402Y003225D02*
X010402Y003125D01*
X010502Y003125D02*
X010502Y003225D01*
X010602Y003225D02*
X010602Y003125D01*
X010702Y003125D02*
X010702Y003225D01*
X010802Y003425D02*
X010002Y003425D01*
X009102Y002525D01*
X008502Y002525D01*
X007902Y001925D01*
X008372Y001925D02*
X008432Y001925D01*
X008432Y002025D02*
X008372Y002025D01*
X008372Y002112D02*
X008585Y002325D01*
X008638Y002325D01*
X008432Y002120D01*
X008432Y001730D01*
X008708Y001455D01*
X009097Y001455D01*
X009372Y001730D01*
X009372Y002112D01*
X009385Y002125D02*
X009438Y002125D01*
X009402Y002142D02*
X009402Y000605D01*
X009302Y000605D02*
X009302Y001660D01*
X009267Y001625D02*
X009538Y001625D01*
X009502Y001660D02*
X009502Y000605D01*
X009602Y000605D02*
X009602Y001560D01*
X009638Y001525D02*
X009167Y001525D01*
X009202Y001560D02*
X009202Y000605D01*
X009102Y000605D02*
X009102Y001460D01*
X009002Y001455D02*
X009002Y000605D01*
X008902Y000605D02*
X008902Y001455D01*
X008802Y001455D02*
X008802Y000605D01*
X008702Y000605D02*
X008702Y001460D01*
X008638Y001525D02*
X008167Y001525D01*
X008202Y001560D02*
X008202Y000605D01*
X008102Y000605D02*
X008102Y001460D01*
X008097Y001455D02*
X008372Y001730D01*
X008372Y002112D01*
X008385Y002125D02*
X008438Y002125D01*
X008402Y002142D02*
X008402Y000605D01*
X008302Y000605D02*
X008302Y001660D01*
X008267Y001625D02*
X008538Y001625D01*
X008502Y001660D02*
X008502Y000605D01*
X008602Y000605D02*
X008602Y001560D01*
X008438Y001725D02*
X008367Y001725D01*
X008372Y001825D02*
X008432Y001825D01*
X008502Y002190D02*
X008502Y002242D01*
X008485Y002225D02*
X008538Y002225D01*
X008602Y002290D02*
X008602Y002325D01*
X008202Y002725D02*
X009002Y002725D01*
X009902Y003625D01*
X010702Y003625D01*
X010802Y003725D01*
X010802Y004225D01*
X010902Y004325D01*
X011202Y004325D01*
X011302Y004425D01*
X011302Y004725D01*
X011502Y004925D01*
X012602Y004925D01*
X012702Y004825D01*
X012702Y004294D01*
X012701Y004293D01*
X012897Y004293D02*
X012897Y003820D01*
X012802Y003725D01*
X013094Y003833D02*
X013202Y003725D01*
X013202Y003325D01*
X013302Y003225D01*
X012982Y003225D02*
X012885Y003225D01*
X012902Y003208D02*
X012902Y003420D01*
X012914Y003425D02*
X013002Y003425D01*
X012983Y003454D02*
X013002Y003472D01*
X013002Y003337D01*
X012982Y003289D01*
X012982Y003161D01*
X013006Y003104D01*
X012985Y003125D01*
X012997Y003125D01*
X012985Y003125D02*
X012704Y003406D01*
X012704Y003419D01*
X012739Y003405D01*
X012866Y003405D01*
X012983Y003454D01*
X012997Y003325D02*
X012785Y003325D01*
X012802Y003308D02*
X012802Y003405D01*
X012504Y003323D02*
X012902Y002925D01*
X012902Y002625D01*
X013302Y002905D02*
X013302Y002190D01*
X013267Y002225D02*
X013538Y002225D01*
X013502Y002190D02*
X013502Y002972D01*
X013555Y003025D02*
X014750Y003025D01*
X014802Y002972D02*
X014802Y002725D01*
X014902Y002725D02*
X014902Y002920D01*
X014890Y002925D02*
X013414Y002925D01*
X013402Y002920D02*
X013402Y000605D01*
X013302Y000605D02*
X013302Y001660D01*
X013267Y001625D02*
X013538Y001625D01*
X013502Y001660D02*
X013502Y000605D01*
X013602Y000605D02*
X013602Y001560D01*
X013638Y001525D02*
X013167Y001525D01*
X013202Y001560D02*
X013202Y000605D01*
X013102Y000605D02*
X013102Y001460D01*
X013002Y001455D02*
X013002Y000605D01*
X012902Y000605D02*
X012902Y001455D01*
X012802Y001455D02*
X012802Y000605D01*
X012702Y000605D02*
X012702Y001442D01*
X012685Y001425D02*
X016302Y001425D01*
X016302Y001525D02*
X015124Y001525D01*
X015102Y001503D02*
X015102Y000605D01*
X015002Y000605D02*
X015002Y001485D01*
X014952Y001525D02*
X014852Y001525D01*
X014802Y001485D02*
X014802Y000605D01*
X014702Y000605D02*
X014702Y001503D01*
X014680Y001525D02*
X014167Y001525D01*
X014202Y001560D02*
X014202Y000605D01*
X014102Y000605D02*
X014102Y001460D01*
X014002Y001455D02*
X014002Y000605D01*
X013902Y000605D02*
X013902Y001455D01*
X013802Y001455D02*
X013802Y000605D01*
X013702Y000605D02*
X013702Y001460D01*
X013438Y001725D02*
X013367Y001725D01*
X013372Y001825D02*
X013432Y001825D01*
X013432Y001925D02*
X013372Y001925D01*
X013372Y002025D02*
X013432Y002025D01*
X013438Y002125D02*
X013367Y002125D01*
X013702Y002390D02*
X013702Y002413D01*
X014002Y002525D02*
X015750Y002525D01*
X016002Y002273D01*
X016002Y001926D02*
X016002Y000825D01*
X015954Y000925D02*
X016051Y000925D01*
X016051Y001025D02*
X015954Y001025D01*
X015902Y001094D02*
X015902Y001926D01*
X015802Y001926D02*
X015802Y001094D01*
X015702Y001094D02*
X015702Y001926D01*
X015602Y001929D02*
X015602Y001075D01*
X016102Y001094D02*
X016102Y001926D01*
X016202Y001926D02*
X016202Y001094D01*
X016302Y001325D02*
X012585Y001325D01*
X012602Y001342D02*
X012602Y000605D01*
X012402Y001425D02*
X011502Y001425D01*
X011402Y001525D01*
X011402Y002225D01*
X011716Y002539D01*
X011716Y004293D01*
X011913Y004293D02*
X011913Y001936D01*
X011902Y001925D01*
X012372Y001925D02*
X012432Y001925D01*
X012432Y002005D02*
X012432Y001738D01*
X012319Y001625D01*
X012267Y001625D01*
X012319Y001625D01*
X012302Y001625D02*
X012302Y001660D01*
X012267Y001625D02*
X012372Y001730D01*
X012372Y002005D01*
X012432Y002005D01*
X012402Y002005D02*
X012402Y001708D01*
X012419Y001725D02*
X012367Y001725D01*
X012372Y001825D02*
X012432Y001825D01*
X012402Y001425D02*
X012902Y001925D01*
X012402Y002325D02*
X012110Y002617D01*
X012110Y004293D01*
X012307Y004293D02*
X012307Y003020D01*
X012402Y002825D01*
X013002Y003108D02*
X013002Y003113D01*
X013102Y002972D02*
X013121Y002954D01*
X013622Y003225D02*
X014682Y003225D01*
X014697Y003325D02*
X014614Y003325D01*
X014902Y003325D02*
X015002Y003225D01*
X014902Y003325D02*
X014902Y003925D01*
X014702Y004125D01*
X014402Y004125D01*
X014234Y004293D01*
X013685Y004293D01*
X013876Y004093D02*
X014152Y004093D01*
X014202Y004042D01*
X014202Y003825D01*
X014250Y003825D02*
X013955Y003825D01*
X013883Y003896D01*
X013823Y003921D01*
X013876Y003975D01*
X013876Y004093D01*
X013902Y004093D02*
X013902Y003878D01*
X013955Y003825D02*
X014250Y003825D01*
X014321Y003896D01*
X014390Y003925D01*
X014319Y003925D01*
X013827Y003925D01*
X013876Y004025D02*
X014219Y004025D01*
X014202Y004042D02*
X014319Y003925D01*
X014302Y003942D02*
X014302Y003878D01*
X014102Y003825D02*
X014102Y004093D01*
X014002Y004093D02*
X014002Y003825D01*
X013702Y003625D02*
X014502Y003625D01*
X014623Y003921D02*
X014614Y003925D01*
X014619Y003925D01*
X014623Y003921D01*
X014967Y004143D02*
X014785Y004325D01*
X014614Y004325D01*
X014683Y004354D01*
X014773Y004444D01*
X014822Y004561D01*
X014822Y004689D01*
X014773Y004806D01*
X014740Y004839D01*
X014740Y004846D01*
X014839Y004805D01*
X014966Y004805D01*
X015002Y004820D01*
X015002Y004178D01*
X014967Y004143D01*
X015002Y004225D02*
X014885Y004225D01*
X014902Y004208D02*
X014902Y004805D01*
X014802Y004820D02*
X014802Y004737D01*
X014807Y004725D02*
X015002Y004725D01*
X015002Y004625D02*
X014822Y004625D01*
X014807Y004525D02*
X015002Y004525D01*
X015002Y004425D02*
X014755Y004425D01*
X014702Y004372D02*
X014702Y004325D01*
X014614Y004325D02*
X015002Y004325D01*
X014802Y004308D02*
X014802Y004513D01*
X014502Y004625D02*
X014334Y004793D01*
X014334Y004942D01*
X014349Y005125D02*
X014334Y005139D01*
X014349Y005125D02*
X014902Y005125D01*
X015202Y005425D02*
X015202Y003925D01*
X015202Y003605D02*
X015202Y003478D01*
X015255Y003425D02*
X015402Y003425D01*
X015402Y003325D02*
X015307Y003325D01*
X015302Y003337D02*
X015302Y003620D01*
X015314Y003625D02*
X015402Y003625D01*
X015402Y003525D02*
X015114Y003525D01*
X015102Y003530D02*
X015102Y003620D01*
X015322Y003225D02*
X015402Y003225D01*
X015602Y003025D02*
X015702Y002925D01*
X016802Y002925D01*
X016302Y003160D02*
X016302Y003225D01*
X015819Y003225D01*
X015802Y003225D01*
X015802Y003242D02*
X015802Y003125D01*
X016282Y003125D01*
X015802Y003125D01*
X015802Y003242D01*
X015819Y003225D01*
X015902Y003225D02*
X015902Y003125D01*
X016002Y003125D02*
X016002Y003225D01*
X016102Y003225D02*
X016102Y003125D01*
X016202Y003125D02*
X016202Y003225D01*
X016282Y003140D02*
X016282Y003125D01*
X016282Y003140D02*
X016302Y003160D01*
X015902Y003425D02*
X017302Y003425D01*
X017802Y002925D01*
X016302Y002625D02*
X015933Y002625D01*
X015902Y002656D02*
X015902Y002725D01*
X015802Y002725D02*
X015802Y002725D01*
X015702Y002725D02*
X015702Y002725D01*
X016002Y002725D02*
X016002Y002620D01*
X016102Y002620D02*
X016102Y002725D01*
X016202Y002725D02*
X016202Y002620D01*
X015602Y003025D02*
X015602Y004125D01*
X015402Y004325D01*
X015402Y005825D01*
X015301Y005927D01*
X014334Y005927D01*
X014334Y005730D02*
X014007Y005730D01*
X013902Y005625D01*
X013902Y004725D01*
X014002Y004625D01*
X013694Y004717D02*
X013686Y004699D01*
X013581Y004699D01*
X013385Y004699D01*
X013353Y004667D01*
X013348Y004669D01*
X013291Y004669D01*
X013234Y004669D01*
X013229Y004667D01*
X013198Y004699D01*
X012902Y004699D01*
X012902Y005025D01*
X012802Y005025D02*
X012802Y005008D01*
X012785Y005025D02*
X012785Y005025D01*
X013282Y005025D01*
X013282Y004961D01*
X013331Y004844D01*
X013421Y004754D01*
X013539Y004705D01*
X013666Y004705D01*
X013694Y004717D01*
X013602Y004705D02*
X013602Y004699D01*
X013502Y004699D02*
X013502Y004720D01*
X013490Y004725D02*
X012902Y004725D01*
X012902Y004699D02*
X012902Y004908D01*
X012785Y005025D01*
X012885Y004925D02*
X013297Y004925D01*
X013302Y004913D02*
X013302Y004669D01*
X013291Y004669D02*
X013291Y004379D01*
X013291Y004669D01*
X013291Y004625D02*
X013291Y004625D01*
X013291Y004525D02*
X013291Y004525D01*
X013291Y004425D02*
X013291Y004425D01*
X013291Y004379D02*
X013291Y004379D01*
X013291Y004293D02*
X013291Y004836D01*
X013202Y004925D01*
X013002Y004925D01*
X013002Y005025D02*
X013002Y004699D01*
X013102Y004699D02*
X013102Y005025D01*
X013202Y005025D02*
X013202Y004694D01*
X013350Y004825D02*
X012902Y004825D01*
X012502Y004725D02*
X012502Y004699D01*
X012400Y004699D01*
X011559Y004699D01*
X011585Y004725D01*
X012502Y004725D01*
X012402Y004725D02*
X012402Y004699D01*
X012302Y004699D02*
X012302Y004725D01*
X012202Y004725D02*
X012202Y004699D01*
X012102Y004699D02*
X012102Y004725D01*
X012002Y004725D02*
X012002Y004699D01*
X011902Y004699D02*
X011902Y004725D01*
X011802Y004725D02*
X011802Y004699D01*
X011702Y004699D02*
X011702Y004725D01*
X011602Y004725D02*
X011602Y004699D01*
X011102Y004725D02*
X010385Y004725D01*
X010402Y004742D02*
X010402Y004320D01*
X010349Y004320D02*
X010308Y004309D01*
X010302Y004306D01*
X010302Y004642D01*
X010402Y004742D01*
X010953Y004742D01*
X010961Y004751D01*
X011102Y004751D01*
X011102Y004525D01*
X010302Y004525D01*
X010302Y004425D02*
X010719Y004425D01*
X010702Y004408D02*
X010702Y004742D01*
X010602Y004742D02*
X010602Y004320D01*
X010614Y004320D02*
X010540Y004320D01*
X010540Y004063D01*
X010465Y004063D01*
X010465Y004320D01*
X010349Y004320D01*
X010302Y004325D02*
X010619Y004325D01*
X010614Y004320D02*
X010702Y004408D01*
X010819Y004525D01*
X011102Y004525D01*
X011002Y004525D02*
X011002Y004751D01*
X010902Y004742D02*
X010902Y004525D01*
X010802Y004508D02*
X010802Y004742D01*
X010870Y004942D02*
X010320Y004942D01*
X010102Y004725D01*
X010102Y004125D01*
X008902Y002925D01*
X007802Y002925D01*
X007802Y002825D01*
X007502Y002713D02*
X007502Y002625D01*
X007531Y002644D02*
X007550Y002625D01*
X007385Y002625D01*
X007494Y002734D01*
X007531Y002644D01*
X007550Y002625D02*
X007385Y002625D01*
X007402Y002625D02*
X007402Y002642D01*
X007485Y002725D02*
X007497Y002725D01*
X007402Y002425D02*
X007902Y002425D01*
X008202Y002725D01*
X007602Y003125D02*
X006902Y002425D01*
X004302Y002425D01*
X004398Y002225D02*
X004538Y002225D01*
X004432Y002120D01*
X004432Y001730D01*
X004708Y001455D01*
X005097Y001455D01*
X005372Y001730D01*
X005372Y002120D01*
X005267Y002225D01*
X005538Y002225D01*
X005432Y002120D01*
X005432Y001730D01*
X005708Y001455D01*
X006097Y001455D01*
X006372Y001730D01*
X006372Y002120D01*
X006267Y002225D01*
X006538Y002225D01*
X006432Y002120D01*
X006432Y001730D01*
X006708Y001455D01*
X007097Y001455D01*
X007372Y001730D01*
X007372Y002112D01*
X007485Y002225D01*
X007538Y002225D01*
X007432Y002120D01*
X007432Y001730D01*
X007708Y001455D01*
X008097Y001455D01*
X008002Y001455D02*
X008002Y000605D01*
X007902Y000605D02*
X007902Y001455D01*
X007802Y001455D02*
X007802Y000605D01*
X007702Y000605D02*
X007702Y001460D01*
X007638Y001525D02*
X007167Y001525D01*
X007202Y001560D02*
X007202Y000605D01*
X007102Y000605D02*
X007102Y001460D01*
X007002Y001455D02*
X007002Y000605D01*
X006902Y000605D02*
X006902Y001455D01*
X006802Y001455D02*
X006802Y000605D01*
X006702Y000605D02*
X006702Y001460D01*
X006638Y001525D02*
X006167Y001525D01*
X006202Y001560D02*
X006202Y000605D01*
X006102Y000605D02*
X006102Y001460D01*
X006002Y001455D02*
X006002Y000605D01*
X005902Y000605D02*
X005902Y001455D01*
X005802Y001455D02*
X005802Y000605D01*
X005702Y000605D02*
X005702Y001460D01*
X005638Y001525D02*
X005167Y001525D01*
X005202Y001560D02*
X005202Y000605D01*
X005102Y000605D02*
X005102Y001460D01*
X005002Y001455D02*
X005002Y000605D01*
X004902Y000605D02*
X004902Y001455D01*
X004802Y001455D02*
X004802Y000605D01*
X004702Y000605D02*
X004702Y001460D01*
X004638Y001525D02*
X004354Y001525D01*
X004372Y001543D02*
X004372Y002192D01*
X004398Y002225D01*
X004402Y002225D02*
X004402Y000605D01*
X004302Y000605D02*
X004302Y001473D01*
X004284Y001455D02*
X004372Y001543D01*
X004372Y001625D02*
X004538Y001625D01*
X004502Y001660D02*
X004502Y000605D01*
X004602Y000605D02*
X004602Y001560D01*
X004438Y001725D02*
X004372Y001725D01*
X004372Y001825D02*
X004432Y001825D01*
X004432Y001925D02*
X004372Y001925D01*
X004372Y002025D02*
X004432Y002025D01*
X004438Y002125D02*
X004372Y002125D01*
X004502Y002190D02*
X004502Y002225D01*
X005302Y002190D02*
X005302Y002225D01*
X005402Y002225D02*
X005402Y000605D01*
X005302Y000605D02*
X005302Y001660D01*
X005267Y001625D02*
X005538Y001625D01*
X005502Y001660D02*
X005502Y000605D01*
X005602Y000605D02*
X005602Y001560D01*
X005438Y001725D02*
X005367Y001725D01*
X005372Y001825D02*
X005432Y001825D01*
X005432Y001925D02*
X005372Y001925D01*
X005372Y002025D02*
X005432Y002025D01*
X005438Y002125D02*
X005367Y002125D01*
X005502Y002190D02*
X005502Y002225D01*
X006302Y002190D02*
X006302Y002225D01*
X006402Y002225D02*
X006402Y000605D01*
X006302Y000605D02*
X006302Y001660D01*
X006267Y001625D02*
X006538Y001625D01*
X006502Y001660D02*
X006502Y000605D01*
X006602Y000605D02*
X006602Y001560D01*
X006438Y001725D02*
X006367Y001725D01*
X006372Y001825D02*
X006432Y001825D01*
X006432Y001925D02*
X006372Y001925D01*
X006372Y002025D02*
X006432Y002025D01*
X006438Y002125D02*
X006367Y002125D01*
X006502Y002190D02*
X006502Y002225D01*
X006902Y001925D02*
X007402Y002425D01*
X007502Y002225D02*
X007502Y002190D01*
X007438Y002125D02*
X007385Y002125D01*
X007402Y002142D02*
X007402Y000605D01*
X007302Y000605D02*
X007302Y001660D01*
X007267Y001625D02*
X007538Y001625D01*
X007502Y001660D02*
X007502Y000605D01*
X007602Y000605D02*
X007602Y001560D01*
X007438Y001725D02*
X007367Y001725D01*
X007372Y001825D02*
X007432Y001825D01*
X007432Y001925D02*
X007372Y001925D01*
X007372Y002025D02*
X007432Y002025D01*
X006802Y002625D02*
X007502Y003325D01*
X008702Y003325D01*
X009702Y004325D01*
X009702Y005225D01*
X009813Y005336D01*
X010870Y005336D01*
X010870Y005139D02*
X010016Y005139D01*
X009902Y005025D01*
X009902Y004225D01*
X008802Y003125D01*
X007602Y003125D01*
X007249Y003355D02*
X007072Y003178D01*
X007072Y003473D01*
X007073Y003472D01*
X007149Y003396D01*
X007248Y003355D01*
X007249Y003355D01*
X007219Y003325D02*
X007072Y003325D01*
X007072Y003425D02*
X007120Y003425D01*
X007102Y003443D02*
X007102Y003208D01*
X007119Y003225D02*
X007072Y003225D01*
X007202Y003308D02*
X007202Y003374D01*
X007073Y003472D02*
X007073Y003472D01*
X007472Y003895D02*
X007472Y003941D01*
X007434Y004032D01*
X007434Y004212D01*
X007347Y004299D01*
X007006Y004299D01*
X006918Y004212D01*
X006918Y004157D01*
X006811Y004157D01*
X006711Y004116D01*
X006686Y004091D01*
X006686Y004212D01*
X006599Y004299D01*
X006258Y004299D01*
X006170Y004212D01*
X006170Y003995D01*
X006158Y003967D01*
X006158Y003595D01*
X006069Y003595D01*
X006014Y003650D01*
X006012Y003650D01*
X006034Y003663D01*
X006064Y003693D01*
X006086Y003731D01*
X006097Y003772D01*
X006097Y003887D01*
X005840Y003887D01*
X005840Y003963D01*
X005765Y003963D01*
X005765Y004220D01*
X005649Y004220D01*
X005608Y004209D01*
X005570Y004187D01*
X005540Y004157D01*
X005518Y004119D01*
X005507Y004078D01*
X005507Y003963D01*
X005765Y003963D01*
X005765Y003887D01*
X005507Y003887D01*
X005507Y003772D01*
X005518Y003731D01*
X005540Y003693D01*
X005570Y003663D01*
X005592Y003650D01*
X005591Y003650D01*
X005477Y003537D01*
X005477Y003487D01*
X005240Y003487D01*
X005240Y003563D01*
X005165Y003563D01*
X005165Y003805D01*
X005166Y003805D01*
X005283Y003854D01*
X005373Y003944D01*
X005422Y004061D01*
X005422Y004189D01*
X005373Y004306D01*
X005283Y004396D01*
X005214Y004425D01*
X005283Y004454D01*
X005373Y004544D01*
X005422Y004661D01*
X005422Y004789D01*
X005373Y004906D01*
X005283Y004996D01*
X005214Y005025D01*
X005477Y005025D01*
X005477Y004925D02*
X005355Y004925D01*
X005302Y004978D02*
X005302Y005072D01*
X005283Y005054D02*
X005373Y005144D01*
X005422Y005261D01*
X005422Y005293D01*
X005465Y005250D01*
X005477Y005250D01*
X005477Y004913D01*
X005591Y004800D01*
X005592Y004800D01*
X005570Y004787D01*
X005540Y004757D01*
X005518Y004719D01*
X005507Y004678D01*
X005507Y004563D01*
X005765Y004563D01*
X005765Y004487D01*
X005840Y004487D01*
X005840Y004230D01*
X005955Y004230D01*
X005997Y004241D01*
X006034Y004263D01*
X006064Y004293D01*
X006086Y004331D01*
X006097Y004372D01*
X006097Y004487D01*
X005840Y004487D01*
X005840Y004563D01*
X006097Y004563D01*
X006097Y004678D01*
X006086Y004719D01*
X006064Y004757D01*
X006034Y004787D01*
X006012Y004800D01*
X006014Y004800D01*
X006069Y004855D01*
X006168Y004855D01*
X006170Y004850D01*
X006170Y004638D01*
X006258Y004551D01*
X006599Y004551D01*
X006641Y004593D01*
X006648Y004589D01*
X006678Y004581D01*
X006798Y004581D01*
X006798Y004933D01*
X006806Y004933D01*
X006806Y004581D01*
X006926Y004581D01*
X006957Y004589D01*
X006964Y004593D01*
X007006Y004551D01*
X007347Y004551D01*
X007434Y004638D01*
X007434Y004855D01*
X007446Y004883D01*
X007446Y005255D01*
X007456Y005255D01*
X007555Y005296D01*
X007607Y005348D01*
X007582Y005289D01*
X007582Y005161D01*
X007628Y005050D01*
X007591Y005050D01*
X007477Y004937D01*
X007477Y004513D01*
X007591Y004400D01*
X007592Y004400D01*
X007570Y004387D01*
X007540Y004357D01*
X007518Y004319D01*
X007507Y004278D01*
X007507Y004163D01*
X007765Y004163D01*
X007765Y004087D01*
X007507Y004087D01*
X007507Y003972D01*
X007518Y003931D01*
X007539Y003895D01*
X007472Y003895D01*
X007472Y003925D02*
X007522Y003925D01*
X007502Y003895D02*
X007502Y004488D01*
X007477Y004525D02*
X005840Y004525D01*
X005802Y004487D02*
X005802Y003963D01*
X005840Y003963D02*
X005840Y004220D01*
X005955Y004220D01*
X005997Y004209D01*
X006034Y004187D01*
X006064Y004157D01*
X006086Y004119D01*
X006097Y004078D01*
X006097Y003963D01*
X005840Y003963D01*
X005840Y003925D02*
X006158Y003925D01*
X006158Y003825D02*
X006097Y003825D01*
X006083Y003725D02*
X006158Y003725D01*
X006158Y003625D02*
X006039Y003625D01*
X006102Y003595D02*
X006102Y004855D01*
X006039Y004825D02*
X006170Y004825D01*
X006170Y004725D02*
X006083Y004725D01*
X006097Y004625D02*
X006183Y004625D01*
X006202Y004606D02*
X006202Y004244D01*
X006183Y004225D02*
X005407Y004225D01*
X005402Y004237D02*
X005402Y004613D01*
X005407Y004625D02*
X005507Y004625D01*
X005522Y004725D02*
X005422Y004725D01*
X005407Y004825D02*
X005566Y004825D01*
X005502Y004888D02*
X005502Y003562D01*
X005497Y003563D02*
X005497Y003678D01*
X005486Y003719D01*
X005464Y003757D01*
X005434Y003787D01*
X005397Y003809D01*
X005355Y003820D01*
X005240Y003820D01*
X005240Y003563D01*
X005497Y003563D01*
X005477Y003525D02*
X005240Y003525D01*
X005202Y003563D02*
X005202Y003820D01*
X005214Y003825D02*
X005507Y003825D01*
X005522Y003725D02*
X005483Y003725D01*
X005497Y003625D02*
X005566Y003625D01*
X005402Y003563D02*
X005402Y003487D01*
X005302Y003487D02*
X005302Y003563D01*
X005240Y003625D02*
X005165Y003625D01*
X005165Y003563D02*
X004907Y003563D01*
X004907Y003678D01*
X004918Y003719D01*
X004940Y003757D01*
X004970Y003787D01*
X005008Y003809D01*
X005021Y003812D01*
X004921Y003854D01*
X004894Y003880D01*
X004814Y003800D01*
X004812Y003800D01*
X004834Y003787D01*
X004864Y003757D01*
X004886Y003719D01*
X004897Y003678D01*
X004897Y003563D01*
X004640Y003563D01*
X004640Y003487D01*
X004897Y003487D01*
X004897Y003372D01*
X004886Y003331D01*
X004864Y003293D01*
X004834Y003263D01*
X004812Y003250D01*
X004814Y003250D01*
X004902Y003162D01*
X004902Y003872D01*
X004839Y003825D02*
X004990Y003825D01*
X005002Y003820D02*
X005002Y003806D01*
X004922Y003725D02*
X004883Y003725D01*
X004897Y003625D02*
X004907Y003625D01*
X005002Y003563D02*
X005002Y003487D01*
X004907Y003487D02*
X004907Y003372D01*
X004918Y003331D01*
X004940Y003293D01*
X004970Y003263D01*
X004992Y003250D01*
X004991Y003250D01*
X004902Y003162D01*
X004839Y003225D02*
X004966Y003225D01*
X004922Y003325D02*
X004883Y003325D01*
X004897Y003425D02*
X004907Y003425D01*
X004907Y003487D02*
X005165Y003487D01*
X005165Y003563D01*
X005165Y003525D02*
X004640Y003525D01*
X004702Y003487D02*
X004702Y003563D01*
X004802Y003563D02*
X004802Y003487D01*
X004565Y003487D02*
X004307Y003487D01*
X004307Y003372D01*
X004318Y003331D01*
X004340Y003293D01*
X004370Y003263D01*
X004392Y003250D01*
X004391Y003250D01*
X004336Y003195D01*
X004269Y003195D01*
X004214Y003250D01*
X004212Y003250D01*
X004234Y003263D01*
X004264Y003293D01*
X004286Y003331D01*
X004297Y003372D01*
X004297Y003487D01*
X004040Y003487D01*
X004040Y003563D01*
X004297Y003563D01*
X004297Y003678D01*
X004286Y003719D01*
X004264Y003757D01*
X004234Y003787D01*
X004212Y003800D01*
X004214Y003800D01*
X004302Y003888D01*
X004302Y003195D01*
X004239Y003225D02*
X004366Y003225D01*
X004322Y003325D02*
X004283Y003325D01*
X004297Y003425D02*
X004307Y003425D01*
X004402Y003487D02*
X004402Y003563D01*
X004307Y003563D02*
X004565Y003563D01*
X004565Y003487D01*
X004565Y003525D02*
X004040Y003525D01*
X004102Y003487D02*
X004102Y003563D01*
X004202Y003563D02*
X004202Y003487D01*
X004307Y003563D02*
X004307Y003678D01*
X004318Y003719D01*
X004340Y003757D01*
X004370Y003787D01*
X004392Y003800D01*
X004391Y003800D01*
X004302Y003888D01*
X004239Y003825D02*
X004366Y003825D01*
X004322Y003725D02*
X004283Y003725D01*
X004297Y003625D02*
X004307Y003625D01*
X003965Y003563D02*
X003965Y003487D01*
X003707Y003487D01*
X003707Y003372D01*
X003718Y003331D01*
X003740Y003293D01*
X003770Y003263D01*
X003792Y003250D01*
X003791Y003250D01*
X003736Y003195D01*
X003402Y003195D01*
X003402Y003985D01*
X003453Y003949D01*
X003507Y003895D01*
X003529Y003895D01*
X003547Y003882D01*
X003622Y003895D01*
X003696Y003895D01*
X003791Y003800D01*
X003792Y003800D01*
X003770Y003787D01*
X003740Y003757D01*
X003718Y003719D01*
X003707Y003678D01*
X003707Y003563D01*
X003965Y003563D01*
X003965Y003525D02*
X003402Y003525D01*
X003402Y003425D02*
X003707Y003425D01*
X003722Y003325D02*
X003402Y003325D01*
X003402Y003225D02*
X003766Y003225D01*
X003702Y003195D02*
X003702Y003888D01*
X003766Y003825D02*
X003402Y003825D01*
X003402Y003925D02*
X003477Y003925D01*
X003502Y003900D02*
X003502Y003195D01*
X003402Y003195D02*
X003402Y003985D01*
X003602Y003892D02*
X003602Y003195D01*
X003802Y003487D02*
X003802Y003563D01*
X003902Y003563D02*
X003902Y003487D01*
X003707Y003625D02*
X003402Y003625D01*
X003402Y003725D02*
X003722Y003725D01*
X003696Y004355D02*
X003736Y004395D01*
X003619Y004395D01*
X003675Y004355D01*
X003696Y004355D01*
X003702Y004362D02*
X003702Y004395D01*
X004239Y004425D02*
X004366Y004425D01*
X004302Y004362D01*
X004302Y004488D01*
X004366Y004425D01*
X004302Y004488D02*
X004239Y004425D01*
X004302Y004362D01*
X004602Y004125D02*
X005102Y004125D01*
X005422Y004125D02*
X005522Y004125D01*
X005507Y004025D02*
X005407Y004025D01*
X005402Y004013D02*
X005402Y003806D01*
X005302Y003820D02*
X005302Y003872D01*
X005355Y003925D02*
X005765Y003925D01*
X005702Y003887D02*
X005702Y003963D01*
X005765Y004025D02*
X005840Y004025D01*
X005902Y003963D02*
X005902Y003887D01*
X006002Y003887D02*
X006002Y003963D01*
X006097Y004025D02*
X006170Y004025D01*
X006170Y004125D02*
X006083Y004125D01*
X006002Y004206D02*
X006002Y004244D01*
X005902Y004230D02*
X005902Y004220D01*
X005840Y004125D02*
X005765Y004125D01*
X005765Y004230D02*
X005765Y004487D01*
X005507Y004487D01*
X005507Y004372D01*
X005518Y004331D01*
X005540Y004293D01*
X005570Y004263D01*
X005608Y004241D01*
X005649Y004230D01*
X005765Y004230D01*
X005702Y004220D02*
X005702Y004230D01*
X005602Y004244D02*
X005602Y004206D01*
X005522Y004325D02*
X005355Y004325D01*
X005302Y004378D02*
X005302Y004472D01*
X005355Y004525D02*
X005765Y004525D01*
X005702Y004487D02*
X005702Y004563D01*
X005602Y004563D02*
X005602Y004487D01*
X005507Y004425D02*
X005214Y004425D01*
X004990Y004425D02*
X004921Y004454D01*
X004894Y004480D01*
X004839Y004425D01*
X004990Y004425D01*
X004921Y004396D01*
X004894Y004370D01*
X004839Y004425D01*
X004902Y004378D02*
X004902Y004472D01*
X005102Y004725D02*
X004602Y004725D01*
X004894Y004970D02*
X004839Y005025D01*
X004990Y005025D01*
X004921Y004996D01*
X004894Y004970D01*
X004902Y004978D02*
X004902Y005072D01*
X004894Y005080D02*
X004921Y005054D01*
X004990Y005025D01*
X004894Y005080D02*
X004839Y005025D01*
X005214Y005025D02*
X005283Y005054D01*
X005355Y005125D02*
X005477Y005125D01*
X005477Y005225D02*
X005407Y005225D01*
X005402Y005213D02*
X005402Y004837D01*
X005902Y004563D02*
X005902Y004487D01*
X005840Y004425D02*
X005765Y004425D01*
X005765Y004325D02*
X005840Y004325D01*
X006083Y004325D02*
X007522Y004325D01*
X007507Y004225D02*
X007421Y004225D01*
X007402Y004244D02*
X007402Y004606D01*
X007421Y004625D02*
X007477Y004625D01*
X007477Y004725D02*
X007434Y004725D01*
X007434Y004825D02*
X007477Y004825D01*
X007477Y004925D02*
X007446Y004925D01*
X007502Y004962D02*
X007502Y005274D01*
X007446Y005225D02*
X007582Y005225D01*
X007584Y005325D02*
X007597Y005325D01*
X007602Y005337D02*
X007602Y005343D01*
X007597Y005125D02*
X007446Y005125D01*
X007446Y005025D02*
X007566Y005025D01*
X007602Y005050D02*
X007602Y005113D01*
X006906Y005293D02*
X006806Y005293D01*
X006806Y004941D01*
X006798Y004941D01*
X006798Y005293D01*
X006698Y005293D01*
X006698Y005327D01*
X006906Y005327D01*
X006906Y005293D01*
X006902Y005293D02*
X006902Y005327D01*
X006906Y005325D02*
X006698Y005325D01*
X006702Y005327D02*
X006702Y005293D01*
X006802Y005327D02*
X006802Y004941D01*
X006802Y004933D02*
X006802Y004154D01*
X006733Y004125D02*
X006686Y004125D01*
X006702Y004107D02*
X006702Y004581D01*
X006602Y004554D02*
X006602Y004296D01*
X006502Y004299D02*
X006502Y004551D01*
X006402Y004551D02*
X006402Y004299D01*
X006302Y004299D02*
X006302Y004551D01*
X006097Y004425D02*
X007566Y004425D01*
X007602Y004163D02*
X007602Y004087D01*
X007702Y004087D02*
X007702Y004163D01*
X007765Y004125D02*
X007434Y004125D01*
X007437Y004025D02*
X007507Y004025D01*
X007302Y004299D02*
X007302Y004551D01*
X007202Y004551D02*
X007202Y004299D01*
X007102Y004299D02*
X007102Y004551D01*
X007002Y004554D02*
X007002Y004296D01*
X006931Y004225D02*
X006673Y004225D01*
X006902Y004157D02*
X006902Y004581D01*
X006806Y004625D02*
X006798Y004625D01*
X006798Y004725D02*
X006806Y004725D01*
X006798Y004825D02*
X006806Y004825D01*
X006798Y004925D02*
X006806Y004925D01*
X006798Y005025D02*
X006806Y005025D01*
X006798Y005125D02*
X006806Y005125D01*
X006798Y005225D02*
X006806Y005225D01*
X007302Y005807D02*
X007255Y005854D01*
X007156Y005895D01*
X007107Y005895D01*
X007107Y005933D01*
X007019Y006021D01*
X006912Y006021D01*
X006912Y006137D01*
X006922Y006161D01*
X006922Y006289D01*
X006873Y006406D01*
X006850Y006429D01*
X007019Y006429D01*
X007107Y006517D01*
X007107Y007035D01*
X007065Y007077D01*
X007065Y007287D01*
X007140Y007287D01*
X007140Y007030D01*
X007255Y007030D01*
X007297Y007041D01*
X007334Y007063D01*
X007364Y007093D01*
X007386Y007131D01*
X007397Y007172D01*
X007397Y007287D01*
X007140Y007287D01*
X007140Y007363D01*
X007397Y007363D01*
X007397Y007434D01*
X007401Y007430D01*
X007435Y007396D01*
X007440Y007394D01*
X007444Y007390D01*
X007490Y007374D01*
X007534Y007355D01*
X007536Y007355D01*
X007566Y007325D01*
X007477Y007237D01*
X007477Y006813D01*
X007591Y006700D01*
X007795Y006700D01*
X007749Y006654D01*
X007673Y006578D01*
X007632Y006479D01*
X007632Y006225D01*
X006922Y006225D01*
X006912Y006125D02*
X007332Y006125D01*
X007332Y006137D02*
X007332Y005927D01*
X007312Y005879D01*
X007312Y005817D01*
X007302Y005807D01*
X007302Y007044D01*
X007202Y007030D02*
X007202Y005876D01*
X007284Y005825D02*
X007312Y005825D01*
X007331Y005925D02*
X007107Y005925D01*
X007102Y005937D02*
X007102Y006513D01*
X007107Y006525D02*
X007651Y006525D01*
X007702Y006607D02*
X007702Y006700D01*
X007720Y006625D02*
X007107Y006625D01*
X007107Y006725D02*
X007566Y006725D01*
X007602Y006700D02*
X007602Y006225D01*
X007632Y006225D02*
X007420Y006225D01*
X007332Y006137D01*
X007402Y006207D02*
X007402Y007429D01*
X007406Y007425D02*
X007397Y007425D01*
X007302Y007363D02*
X007302Y007287D01*
X007202Y007287D02*
X007202Y007363D01*
X007140Y007325D02*
X007566Y007325D01*
X007502Y007368D02*
X007502Y007262D01*
X007477Y007225D02*
X007397Y007225D01*
X007383Y007125D02*
X007477Y007125D01*
X007477Y007025D02*
X007107Y007025D01*
X007102Y007039D02*
X007102Y007287D01*
X007065Y007225D02*
X007140Y007225D01*
X007140Y007125D02*
X007065Y007125D01*
X007107Y006925D02*
X007477Y006925D01*
X007477Y006825D02*
X007107Y006825D01*
X007502Y006788D02*
X007502Y006225D01*
X007632Y006325D02*
X006907Y006325D01*
X006902Y006337D02*
X006902Y006429D01*
X006855Y006425D02*
X007632Y006425D01*
X007332Y006025D02*
X006912Y006025D01*
X007002Y006021D02*
X007002Y006429D01*
X006354Y006429D02*
X006331Y006406D01*
X006282Y006289D01*
X006282Y006161D01*
X006292Y006137D01*
X006292Y006021D01*
X006219Y006021D01*
X006139Y006100D01*
X006072Y006100D01*
X006072Y006279D01*
X006031Y006378D01*
X005955Y006454D01*
X005943Y006466D01*
X006149Y006466D01*
X006186Y006429D01*
X006354Y006429D01*
X006350Y006425D02*
X005984Y006425D01*
X006002Y006407D02*
X006002Y006466D01*
X006102Y006466D02*
X006102Y006100D01*
X006072Y006125D02*
X006292Y006125D01*
X006292Y006025D02*
X006214Y006025D01*
X006202Y006037D02*
X006202Y006429D01*
X006302Y006429D02*
X006302Y006337D01*
X006297Y006325D02*
X006053Y006325D01*
X006072Y006225D02*
X006282Y006225D01*
X005420Y006055D02*
X005372Y006055D01*
X005372Y006008D01*
X005373Y006006D01*
X005377Y005997D01*
X005377Y006012D01*
X005420Y006055D01*
X005402Y006055D02*
X005402Y006037D01*
X005390Y006025D02*
X005372Y006025D01*
X005377Y005653D02*
X005377Y005497D01*
X005373Y005506D01*
X005305Y005575D01*
X005373Y005644D01*
X005377Y005653D01*
X005377Y005625D02*
X005355Y005625D01*
X005355Y005525D02*
X005377Y005525D01*
X005102Y005325D02*
X004602Y005325D01*
X004894Y005570D02*
X004814Y005650D01*
X004391Y005650D01*
X004302Y005562D01*
X004302Y006043D01*
X004314Y006055D02*
X004832Y006055D01*
X004832Y006008D01*
X004831Y006006D01*
X004782Y005889D01*
X004782Y005761D01*
X004831Y005644D01*
X004900Y005575D01*
X004894Y005570D01*
X004850Y005625D02*
X004839Y005625D01*
X004802Y005650D02*
X004802Y005713D01*
X004797Y005725D02*
X003984Y005725D01*
X004002Y005743D02*
X004002Y005650D01*
X003955Y005696D02*
X004314Y006055D01*
X004284Y006025D02*
X004832Y006025D01*
X004802Y006055D02*
X004802Y005937D01*
X004797Y005925D02*
X004184Y005925D01*
X004202Y005943D02*
X004202Y005650D01*
X004214Y005650D02*
X003791Y005650D01*
X003677Y005537D01*
X003677Y005459D01*
X003646Y005449D01*
X003570Y005436D01*
X003558Y005419D01*
X003539Y005413D01*
X003504Y005344D01*
X003402Y005200D01*
X003402Y005655D01*
X003856Y005655D01*
X003955Y005696D01*
X003902Y005674D02*
X003902Y005650D01*
X003802Y005650D02*
X003802Y005655D01*
X003766Y005625D02*
X003402Y005625D01*
X003402Y005655D02*
X003402Y005200D01*
X003402Y005225D02*
X003420Y005225D01*
X003402Y005325D02*
X003491Y005325D01*
X003502Y005341D02*
X003502Y005655D01*
X003602Y005655D02*
X003602Y005441D01*
X003562Y005425D02*
X003402Y005425D01*
X003402Y005525D02*
X003677Y005525D01*
X003702Y005562D02*
X003702Y005655D01*
X004102Y005650D02*
X004102Y005843D01*
X004084Y005825D02*
X004782Y005825D01*
X004702Y005650D02*
X004702Y006055D01*
X004602Y006055D02*
X004602Y005650D01*
X004502Y005650D02*
X004502Y006055D01*
X004402Y006055D02*
X004402Y005650D01*
X004366Y005625D02*
X004239Y005625D01*
X004214Y005650D02*
X004302Y005562D01*
X004302Y005088D02*
X004366Y005025D01*
X004302Y004962D01*
X004302Y005088D01*
X004239Y005025D01*
X004366Y005025D01*
X004302Y004962D02*
X004239Y005025D01*
X005602Y003963D02*
X005602Y003887D01*
X005240Y003725D02*
X005165Y003725D01*
X005102Y003563D02*
X005102Y003487D01*
X005412Y003250D02*
X005434Y003263D01*
X005464Y003293D01*
X005477Y003315D01*
X005477Y003195D01*
X005469Y003195D01*
X005414Y003250D01*
X005412Y003250D01*
X005439Y003225D02*
X005477Y003225D01*
X004502Y003487D02*
X004502Y003563D01*
X003202Y002625D02*
X006802Y002625D01*
X008455Y003525D02*
X008473Y003544D01*
X008522Y003661D01*
X008522Y003789D01*
X008473Y003906D01*
X008472Y003908D01*
X008472Y004713D01*
X008631Y004872D01*
X008672Y004971D01*
X008672Y005079D01*
X008672Y005479D01*
X008631Y005578D01*
X008572Y005637D01*
X008572Y005779D01*
X008531Y005878D01*
X008472Y005937D01*
X008472Y006137D01*
X008384Y006225D01*
X008172Y006225D01*
X008702Y006225D01*
X008702Y006125D02*
X008472Y006125D01*
X008472Y006025D02*
X008702Y006025D01*
X008702Y005925D02*
X008484Y005925D01*
X008502Y005907D02*
X008502Y006643D01*
X008484Y006625D02*
X008832Y006625D01*
X008832Y006725D02*
X008639Y006725D01*
X008614Y006700D02*
X008669Y006755D01*
X008820Y006755D01*
X008821Y006754D01*
X008832Y006749D01*
X008832Y006525D01*
X008384Y006525D01*
X008402Y006543D02*
X008402Y006207D01*
X008302Y006225D02*
X008302Y006443D01*
X008284Y006425D02*
X008702Y006425D01*
X008702Y006437D02*
X008702Y006755D01*
X008802Y006755D02*
X008802Y006525D01*
X008790Y006525D02*
X008702Y006437D01*
X008702Y005813D01*
X008702Y003608D01*
X008719Y003625D02*
X008507Y003625D01*
X008502Y003613D02*
X008502Y003525D01*
X008455Y003525D02*
X008619Y003525D01*
X008455Y003525D01*
X008602Y003525D02*
X008602Y004843D01*
X008584Y004825D02*
X008743Y004825D01*
X008740Y004829D02*
X008756Y004801D01*
X008779Y004779D01*
X008806Y004763D01*
X008836Y004755D01*
X009052Y004755D01*
X009052Y005075D01*
X008732Y005075D01*
X008732Y004859D01*
X008740Y004829D01*
X008802Y004765D02*
X008802Y003708D01*
X008819Y003725D02*
X008522Y003725D01*
X008507Y003825D02*
X008919Y003825D01*
X008902Y003808D02*
X008902Y004755D01*
X009002Y004755D02*
X009002Y003908D01*
X009019Y003925D02*
X008472Y003925D01*
X008502Y003837D02*
X008502Y004743D01*
X008484Y004725D02*
X009502Y004725D01*
X009426Y004779D02*
X009448Y004801D01*
X009464Y004829D01*
X009472Y004859D01*
X009472Y005075D01*
X009152Y005075D01*
X009152Y004755D01*
X009368Y004755D01*
X009399Y004763D01*
X009426Y004779D01*
X009402Y004765D02*
X009402Y004308D01*
X009419Y004325D02*
X008472Y004325D01*
X008472Y004225D02*
X009319Y004225D01*
X009302Y004208D02*
X009302Y004755D01*
X009202Y004755D02*
X009202Y004108D01*
X009219Y004125D02*
X008472Y004125D01*
X008472Y004025D02*
X009119Y004025D01*
X009102Y004008D02*
X009102Y005075D01*
X009052Y005075D02*
X009152Y005075D01*
X009152Y005175D01*
X009052Y005175D01*
X009052Y005075D01*
X009002Y005075D02*
X009002Y005175D01*
X009052Y005175D02*
X008732Y005175D01*
X008732Y005391D01*
X008740Y005421D01*
X008756Y005449D01*
X008779Y005471D01*
X008806Y005487D01*
X008836Y005495D01*
X009052Y005495D01*
X009052Y005175D01*
X009052Y005125D02*
X008672Y005125D01*
X008672Y005025D02*
X008732Y005025D01*
X008802Y005075D02*
X008802Y005175D01*
X008732Y005225D02*
X008672Y005225D01*
X008672Y005325D02*
X008732Y005325D01*
X008743Y005425D02*
X008672Y005425D01*
X008653Y005525D02*
X009719Y005525D01*
X009730Y005536D02*
X009619Y005425D01*
X009502Y005308D01*
X009502Y006700D01*
X009402Y006700D02*
X009402Y006525D01*
X009414Y006525D02*
X009372Y006525D01*
X009619Y006525D01*
X009602Y006542D02*
X009602Y005408D01*
X009619Y005425D02*
X009462Y005425D01*
X009464Y005421D02*
X009448Y005449D01*
X009426Y005471D01*
X009399Y005487D01*
X009368Y005495D01*
X009152Y005495D01*
X009152Y005175D01*
X009472Y005175D01*
X009472Y005391D01*
X009464Y005421D01*
X009402Y005485D02*
X009402Y005725D01*
X009414Y005725D02*
X010464Y005725D01*
X010464Y005625D02*
X008584Y005625D01*
X008602Y005607D02*
X008602Y006700D01*
X008614Y006700D02*
X008559Y006700D01*
X008172Y006313D01*
X008172Y006225D01*
X008202Y006225D02*
X008202Y006343D01*
X008184Y006325D02*
X008702Y006325D01*
X008790Y006525D02*
X008832Y006525D01*
X009372Y006525D02*
X009372Y006700D01*
X009602Y006700D01*
X009602Y006542D01*
X009719Y006425D01*
X009502Y006425D01*
X009502Y006437D02*
X009414Y006525D01*
X009372Y006625D02*
X009602Y006625D01*
X009802Y006625D02*
X009910Y006517D01*
X010870Y006517D01*
X010870Y006714D02*
X010513Y006714D01*
X010402Y006825D01*
X010970Y006911D02*
X010970Y006911D01*
X011246Y006911D01*
X011246Y006968D01*
X011245Y006973D01*
X011276Y007004D01*
X011276Y007211D01*
X011188Y007299D01*
X011025Y007299D01*
X011019Y007305D01*
X011127Y007413D01*
X011127Y007837D01*
X011014Y007950D01*
X011012Y007950D01*
X011034Y007963D01*
X011064Y007993D01*
X011086Y008031D01*
X011097Y008072D01*
X011097Y008187D01*
X010840Y008187D01*
X010840Y008263D01*
X011097Y008263D01*
X011097Y008325D01*
X011219Y008325D01*
X011399Y008146D01*
X011328Y008075D01*
X011328Y007849D01*
X011320Y007840D01*
X011320Y007325D01*
X011039Y007325D01*
X011102Y007299D02*
X011102Y007388D01*
X011127Y007425D02*
X011320Y007425D01*
X011320Y007525D02*
X011127Y007525D01*
X011127Y007625D02*
X011320Y007625D01*
X011320Y007725D02*
X011127Y007725D01*
X011127Y007825D02*
X011320Y007825D01*
X011328Y007925D02*
X011039Y007925D01*
X011102Y007862D02*
X011102Y008325D01*
X011202Y008325D02*
X011202Y007285D01*
X011262Y007225D02*
X011391Y007225D01*
X011386Y007240D02*
X011402Y007193D01*
X011402Y007142D01*
X011402Y006323D01*
X011302Y006323D02*
X011302Y008242D01*
X011319Y008225D02*
X010840Y008225D01*
X010902Y008187D02*
X010902Y008263D01*
X011002Y008263D02*
X011002Y008187D01*
X011097Y008125D02*
X011378Y008125D01*
X011328Y008025D02*
X011083Y008025D01*
X010765Y008187D02*
X010507Y008187D01*
X010507Y008072D01*
X010518Y008031D01*
X010540Y007993D01*
X010570Y007963D01*
X010592Y007950D01*
X010591Y007950D01*
X010502Y007862D01*
X010502Y008325D01*
X010497Y008325D02*
X010507Y008325D01*
X010507Y008263D01*
X010765Y008263D01*
X010765Y008187D01*
X010765Y008225D02*
X010240Y008225D01*
X010240Y008263D02*
X010497Y008263D01*
X010497Y008325D01*
X010402Y008263D02*
X010402Y008187D01*
X010497Y008187D02*
X010240Y008187D01*
X010240Y008263D01*
X010302Y008263D02*
X010302Y008187D01*
X010165Y008187D02*
X009907Y008187D01*
X009907Y008072D01*
X009918Y008031D01*
X009940Y007993D01*
X009970Y007963D01*
X009992Y007950D01*
X009991Y007950D01*
X009902Y007862D01*
X009902Y008325D01*
X009897Y008325D02*
X009907Y008325D01*
X009907Y008263D01*
X010165Y008263D01*
X010165Y008187D01*
X010165Y008225D02*
X009640Y008225D01*
X009640Y008263D02*
X009897Y008263D01*
X009897Y008325D01*
X009802Y008263D02*
X009802Y008187D01*
X009897Y008187D02*
X009640Y008187D01*
X009640Y008263D01*
X009702Y008263D02*
X009702Y008187D01*
X009565Y008187D02*
X009307Y008187D01*
X009307Y008072D01*
X009318Y008031D01*
X009340Y007993D01*
X009370Y007963D01*
X009392Y007950D01*
X009391Y007950D01*
X009302Y007862D01*
X009302Y008325D01*
X009297Y008325D02*
X009307Y008325D01*
X009307Y008263D01*
X009565Y008263D01*
X009565Y008187D01*
X009565Y008225D02*
X009040Y008225D01*
X009040Y008263D02*
X009297Y008263D01*
X009297Y008325D01*
X009202Y008263D02*
X009202Y008187D01*
X009297Y008187D02*
X009040Y008187D01*
X009040Y008263D01*
X009102Y008263D02*
X009102Y008187D01*
X008965Y008187D02*
X008707Y008187D01*
X008707Y008072D01*
X008718Y008031D01*
X008740Y007993D01*
X008770Y007963D01*
X008792Y007950D01*
X008791Y007950D01*
X008736Y007895D01*
X008669Y007895D01*
X008614Y007950D01*
X008612Y007950D01*
X008634Y007963D01*
X008664Y007993D01*
X008686Y008031D01*
X008697Y008072D01*
X008697Y008187D01*
X008440Y008187D01*
X008440Y008263D01*
X008697Y008263D01*
X008697Y008325D01*
X008707Y008325D01*
X008707Y008263D01*
X008965Y008263D01*
X008965Y008187D01*
X008965Y008225D02*
X008440Y008225D01*
X008502Y008187D02*
X008502Y008263D01*
X008602Y008263D02*
X008602Y008187D01*
X008697Y008125D02*
X008707Y008125D01*
X008722Y008025D02*
X008683Y008025D01*
X008639Y007925D02*
X008766Y007925D01*
X008702Y007895D02*
X008702Y008325D01*
X008802Y008263D02*
X008802Y008187D01*
X008902Y008187D02*
X008902Y008263D01*
X009297Y008187D02*
X009297Y008072D01*
X009286Y008031D01*
X009264Y007993D01*
X009234Y007963D01*
X009212Y007950D01*
X009214Y007950D01*
X009302Y007862D01*
X009239Y007925D02*
X009366Y007925D01*
X009322Y008025D02*
X009283Y008025D01*
X009297Y008125D02*
X009307Y008125D01*
X009402Y008187D02*
X009402Y008263D01*
X009502Y008263D02*
X009502Y008187D01*
X009812Y007950D02*
X009834Y007963D01*
X009864Y007993D01*
X009886Y008031D01*
X009897Y008072D01*
X009897Y008187D01*
X009897Y008125D02*
X009907Y008125D01*
X009922Y008025D02*
X009883Y008025D01*
X009814Y007950D02*
X009812Y007950D01*
X009814Y007950D02*
X009902Y007862D01*
X009839Y007925D02*
X009966Y007925D01*
X010002Y008187D02*
X010002Y008263D01*
X010102Y008263D02*
X010102Y008187D01*
X010412Y007950D02*
X010434Y007963D01*
X010464Y007993D01*
X010486Y008031D01*
X010497Y008072D01*
X010497Y008187D01*
X010497Y008125D02*
X010507Y008125D01*
X010522Y008025D02*
X010483Y008025D01*
X010414Y007950D02*
X010412Y007950D01*
X010414Y007950D02*
X010502Y007862D01*
X010439Y007925D02*
X010566Y007925D01*
X010602Y008187D02*
X010602Y008263D01*
X010702Y008263D02*
X010702Y008187D01*
X011302Y008525D02*
X011716Y008111D01*
X011716Y007757D01*
X011520Y007757D02*
X011520Y007408D01*
X011602Y007325D01*
X011602Y007225D01*
X011802Y007125D01*
X011502Y007013D02*
X011502Y006323D01*
X011602Y006323D02*
X011602Y006872D01*
X011621Y006854D02*
X011531Y006944D01*
X011482Y007061D01*
X011482Y007061D01*
X011439Y007083D01*
X011427Y007117D01*
X011402Y007142D01*
X011419Y007125D02*
X011276Y007125D01*
X011276Y007025D02*
X011497Y007025D01*
X011550Y006925D02*
X011246Y006925D01*
X011246Y006911D02*
X010970Y006911D01*
X011002Y006911D02*
X011002Y006911D01*
X011102Y006911D02*
X011102Y006911D01*
X011202Y006911D02*
X011202Y006911D01*
X011246Y006911D02*
X011246Y006854D01*
X011245Y006849D01*
X011276Y006817D01*
X011276Y006414D01*
X011245Y006382D01*
X011246Y006377D01*
X011246Y006323D01*
X011918Y006323D01*
X012019Y006425D01*
X012750Y006425D01*
X012731Y006444D01*
X012700Y006519D01*
X012666Y006505D01*
X012539Y006505D01*
X012421Y006554D01*
X012352Y006622D01*
X012283Y006554D01*
X012166Y006505D01*
X012039Y006505D01*
X011921Y006554D01*
X011831Y006644D01*
X011782Y006761D01*
X011782Y006805D01*
X011739Y006805D01*
X011621Y006854D01*
X011690Y006825D02*
X011268Y006825D01*
X011276Y006725D02*
X011797Y006725D01*
X011802Y006713D02*
X011802Y006323D01*
X011702Y006323D02*
X011702Y006820D01*
X011850Y006625D02*
X011276Y006625D01*
X011276Y006525D02*
X011990Y006525D01*
X012002Y006520D02*
X012002Y006408D01*
X012102Y006425D02*
X012102Y006505D01*
X012202Y006520D02*
X012202Y006425D01*
X012302Y006425D02*
X012302Y006572D01*
X012214Y006525D02*
X012490Y006525D01*
X012502Y006520D02*
X012502Y006425D01*
X012402Y006425D02*
X012402Y006572D01*
X012602Y006505D02*
X012602Y006425D01*
X012702Y006425D02*
X012702Y006513D01*
X012750Y006425D02*
X011276Y006425D01*
X011246Y006325D02*
X011919Y006325D01*
X011902Y006323D02*
X011902Y006572D01*
X012102Y006225D02*
X012001Y006123D01*
X010870Y006123D01*
X010870Y005927D02*
X012101Y005927D01*
X012202Y005825D01*
X012522Y005825D02*
X012897Y005825D01*
X012902Y005813D02*
X012902Y005425D01*
X012802Y005425D02*
X012802Y006025D01*
X012819Y006025D02*
X012882Y005962D01*
X012882Y005861D01*
X012931Y005744D01*
X013021Y005654D01*
X013139Y005605D01*
X013266Y005605D01*
X013383Y005654D01*
X013473Y005744D01*
X013522Y005861D01*
X013522Y005989D01*
X013474Y006105D01*
X013566Y006105D01*
X013683Y006154D01*
X013773Y006244D01*
X013822Y006361D01*
X013822Y006462D01*
X013874Y006514D01*
X013929Y006514D01*
X013929Y005930D01*
X013924Y005930D01*
X013807Y005813D01*
X013807Y005813D01*
X013702Y005708D01*
X013702Y006172D01*
X013755Y006225D02*
X013929Y006225D01*
X013929Y006125D02*
X013614Y006125D01*
X013602Y006120D02*
X013602Y005345D01*
X013565Y005345D02*
X013485Y005425D01*
X012107Y005425D01*
X013702Y005425D01*
X013666Y005345D02*
X013702Y005330D01*
X013702Y005708D01*
X013719Y005725D02*
X013455Y005725D01*
X013402Y005672D02*
X013402Y005425D01*
X013302Y005425D02*
X013302Y005620D01*
X013314Y005625D02*
X013702Y005625D01*
X013702Y005525D02*
X012314Y005525D01*
X012302Y005520D02*
X012302Y005425D01*
X012266Y005505D02*
X012139Y005505D01*
X012122Y005512D01*
X012122Y005461D01*
X012107Y005425D01*
X012202Y005425D02*
X012202Y005505D01*
X012266Y005505D02*
X012383Y005554D01*
X012473Y005644D01*
X012522Y005761D01*
X012522Y005889D01*
X012473Y006006D01*
X012455Y006025D01*
X012819Y006025D01*
X012702Y006025D02*
X012702Y005425D01*
X012602Y005425D02*
X012602Y006025D01*
X012502Y006025D02*
X012502Y005937D01*
X012507Y005925D02*
X012882Y005925D01*
X012950Y005725D02*
X012507Y005725D01*
X012502Y005713D02*
X012502Y005425D01*
X012402Y005425D02*
X012402Y005572D01*
X012455Y005625D02*
X013090Y005625D01*
X013102Y005620D02*
X013102Y005425D01*
X013002Y005425D02*
X013002Y005672D01*
X013202Y005605D02*
X013202Y005425D01*
X013402Y005225D02*
X013602Y005025D01*
X013402Y005225D02*
X011602Y005225D01*
X011502Y005325D01*
X011502Y005425D01*
X011394Y005533D01*
X010870Y005533D01*
X010870Y005730D02*
X011597Y005730D01*
X011802Y005525D01*
X011302Y005333D02*
X011302Y005242D01*
X011302Y005008D01*
X011276Y004981D01*
X011276Y005046D01*
X011276Y005333D01*
X011302Y005333D01*
X011302Y005325D02*
X011276Y005325D01*
X011302Y005242D02*
X011402Y005142D01*
X011402Y005108D01*
X011419Y005125D02*
X011276Y005125D01*
X011276Y005025D02*
X011319Y005025D01*
X011302Y005008D02*
X011419Y005125D01*
X011419Y005125D01*
X011402Y005142D01*
X011319Y005225D02*
X011276Y005225D01*
X010502Y004742D02*
X010502Y004063D01*
X010465Y004125D02*
X010540Y004125D01*
X010540Y004225D02*
X010465Y004225D01*
X010302Y004306D02*
X010302Y004642D01*
X010302Y004625D02*
X011102Y004625D01*
X010207Y003947D02*
X010207Y003872D01*
X010218Y003831D01*
X010222Y003825D01*
X010085Y003825D01*
X010185Y003925D01*
X010185Y003925D01*
X010207Y003925D01*
X010202Y003942D02*
X010202Y003825D01*
X010222Y003825D02*
X010085Y003825D01*
X010102Y003825D02*
X010102Y003842D01*
X010185Y003925D02*
X010207Y003947D01*
X010802Y003425D02*
X010902Y003525D01*
X011102Y003525D01*
X011214Y003225D02*
X011283Y003254D01*
X012504Y003323D02*
X012504Y004293D01*
X013094Y004293D02*
X013094Y003833D01*
X013294Y003916D02*
X013294Y003917D01*
X013348Y003917D01*
X013353Y003918D01*
X013385Y003887D01*
X013511Y003887D01*
X013431Y003806D01*
X013402Y003737D01*
X013402Y003887D01*
X013385Y003825D02*
X013450Y003825D01*
X013402Y003808D02*
X013294Y003916D01*
X013302Y003917D02*
X013302Y003908D01*
X013402Y003808D02*
X013402Y003737D01*
X013502Y003878D02*
X013502Y003887D01*
X013402Y004699D02*
X013402Y004772D01*
X013565Y005345D02*
X013666Y005345D01*
X013502Y005408D02*
X013502Y005813D01*
X013507Y005825D02*
X013819Y005825D01*
X013802Y005808D02*
X013802Y006313D01*
X013807Y006325D02*
X013929Y006325D01*
X013929Y006425D02*
X013822Y006425D01*
X013902Y006514D02*
X013902Y005908D01*
X013919Y005925D02*
X013522Y005925D01*
X013507Y006025D02*
X013929Y006025D01*
X014334Y006123D02*
X015504Y006123D01*
X015602Y006025D01*
X015602Y004425D01*
X015802Y004225D01*
X015802Y003525D01*
X015902Y003425D01*
X016002Y003625D02*
X016002Y004308D01*
X015885Y004425D01*
X016302Y004425D01*
X016302Y004325D02*
X015985Y004325D01*
X016002Y004225D02*
X016302Y004225D01*
X016302Y004160D02*
X016302Y004525D01*
X015819Y004525D01*
X015802Y004525D01*
X015802Y004508D02*
X015802Y004542D01*
X015819Y004525D01*
X015802Y004508D02*
X015802Y004542D01*
X015802Y004508D02*
X015885Y004425D01*
X015902Y004408D02*
X015902Y004525D01*
X016002Y004525D02*
X016002Y003625D01*
X016302Y003625D01*
X016002Y003625D01*
X016002Y003725D02*
X016282Y003725D01*
X016282Y003710D02*
X016302Y003690D01*
X016302Y003625D01*
X016282Y003710D02*
X016282Y004140D01*
X016302Y004160D01*
X016282Y004125D02*
X016002Y004125D01*
X016002Y004025D02*
X016282Y004025D01*
X016282Y003925D02*
X016002Y003925D01*
X016002Y003825D02*
X016282Y003825D01*
X016202Y003625D02*
X016202Y004525D01*
X016102Y004525D02*
X016102Y003625D01*
X015002Y002905D02*
X015002Y002725D01*
X015202Y002325D02*
X015202Y002247D01*
X015224Y002225D02*
X015518Y002225D01*
X015518Y002125D02*
X015324Y002125D01*
X015302Y002147D02*
X015302Y002325D01*
X015402Y002325D02*
X015402Y000605D01*
X015302Y000605D02*
X015302Y001703D01*
X015324Y001725D02*
X016302Y001725D01*
X016302Y001625D02*
X015224Y001625D01*
X015202Y001603D02*
X015202Y000605D01*
X015502Y000605D02*
X015502Y002325D01*
X015518Y002025D02*
X015342Y002025D01*
X015302Y001975D02*
X015302Y001875D01*
X015342Y001825D02*
X016302Y001825D01*
X016302Y001925D02*
X014952Y001925D01*
X014902Y001875D02*
X014902Y000605D01*
X014602Y000605D02*
X014602Y001603D01*
X014580Y001625D02*
X014267Y001625D01*
X014302Y001660D02*
X014302Y000605D01*
X014402Y000605D02*
X014402Y002325D01*
X014302Y002325D02*
X014302Y002190D01*
X014267Y002225D02*
X014580Y002225D01*
X014602Y002247D02*
X014602Y002325D01*
X014502Y002325D02*
X014502Y002147D01*
X014480Y002125D02*
X014367Y002125D01*
X014372Y002025D02*
X014462Y002025D01*
X014502Y001975D02*
X014502Y001875D01*
X014462Y001825D02*
X014372Y001825D01*
X014372Y001925D02*
X014852Y001925D01*
X014802Y001875D02*
X014802Y001975D01*
X014702Y001975D02*
X014702Y001875D01*
X014602Y001875D02*
X014602Y001975D01*
X014480Y001725D02*
X014367Y001725D01*
X014502Y001703D02*
X014502Y000605D01*
X015548Y000625D02*
X003402Y000625D01*
X003402Y000605D02*
X003402Y000656D01*
X003502Y000605D02*
X003502Y001473D01*
X003520Y001455D02*
X004284Y001455D01*
X004202Y001455D02*
X004202Y000605D01*
X004102Y000605D02*
X004102Y001455D01*
X003002Y002325D02*
X003202Y002625D01*
X002402Y001925D02*
X002602Y001725D01*
X006002Y004487D02*
X006002Y004563D01*
X008472Y004525D02*
X009502Y004525D01*
X009502Y004425D02*
X008472Y004425D01*
X008472Y004625D02*
X009502Y004625D01*
X009502Y004825D02*
X009462Y004825D01*
X009472Y004925D02*
X009502Y004925D01*
X009502Y005025D02*
X009472Y005025D01*
X009402Y005075D02*
X009402Y005175D01*
X009472Y005225D02*
X009502Y005225D01*
X009502Y005308D02*
X009502Y004408D01*
X008619Y003525D01*
X009602Y002342D02*
X009602Y002290D01*
X009585Y002325D02*
X009638Y002325D01*
X009538Y002225D02*
X009485Y002225D01*
X009502Y002242D02*
X009502Y002190D01*
X009432Y001825D02*
X009372Y001825D01*
X009367Y001725D02*
X009438Y001725D01*
X009702Y001460D02*
X009702Y000605D01*
X009802Y000605D02*
X009802Y001455D01*
X009902Y001455D02*
X009902Y000605D01*
X010002Y000605D02*
X010002Y001455D01*
X010102Y001460D02*
X010102Y000605D01*
X010202Y000605D02*
X010202Y001560D01*
X010167Y001525D02*
X010638Y001525D01*
X010602Y001560D02*
X010602Y000605D01*
X010702Y000605D02*
X010702Y001460D01*
X010802Y001455D02*
X010802Y000605D01*
X010902Y000605D02*
X010902Y001455D01*
X011167Y001525D02*
X011202Y001525D01*
X010538Y001625D02*
X010267Y001625D01*
X010302Y001660D02*
X010302Y000605D01*
X014852Y001625D02*
X014952Y001625D01*
X014952Y001725D02*
X014852Y001725D01*
X014852Y001825D02*
X014952Y001825D01*
X015002Y001875D02*
X015002Y001975D01*
X015102Y001975D02*
X015102Y001875D01*
X015202Y001875D02*
X015202Y001975D01*
X015902Y004725D02*
X016602Y004725D01*
X016802Y004925D01*
X016402Y005425D02*
X016102Y005125D01*
X016402Y005425D02*
X017202Y005425D01*
X017302Y005525D01*
X017302Y006425D01*
X017802Y006925D01*
X016302Y006690D02*
X016302Y006160D01*
X016282Y006140D01*
X016282Y005897D01*
X016202Y005930D01*
X016202Y006972D01*
X016273Y007044D01*
X016282Y007065D01*
X016282Y006710D01*
X016302Y006690D01*
X016282Y006725D02*
X016202Y006725D01*
X016202Y006625D02*
X016302Y006625D01*
X016302Y006525D02*
X016202Y006525D01*
X016202Y006425D02*
X016302Y006425D01*
X016302Y006325D02*
X016202Y006325D01*
X016202Y006225D02*
X016302Y006225D01*
X016282Y006125D02*
X016202Y006125D01*
X016202Y006025D02*
X016282Y006025D01*
X016282Y005925D02*
X016214Y005925D01*
X016202Y005930D02*
X016202Y006972D01*
X016202Y006925D02*
X016282Y006925D01*
X016282Y006825D02*
X016202Y006825D01*
X016255Y007025D02*
X016282Y007025D01*
X016002Y007225D02*
X016002Y005725D01*
X016102Y005625D01*
X015802Y006225D02*
X015802Y004825D01*
X015902Y004725D01*
X015202Y005425D02*
X015094Y005533D01*
X014334Y005533D01*
X015183Y005727D02*
X015202Y005708D01*
X015202Y005727D01*
X015183Y005727D01*
X015185Y005725D02*
X015202Y005725D01*
X015707Y006320D02*
X015802Y006225D01*
X015707Y006320D02*
X014334Y006320D01*
X014334Y006517D02*
X015094Y006517D01*
X015202Y006625D01*
X015202Y007525D01*
X015302Y007625D01*
X015202Y007625D02*
X015202Y008625D01*
X015302Y008725D01*
X015302Y009525D01*
X014602Y009525D01*
X014602Y010125D01*
X014927Y010125D02*
X014977Y010125D01*
X014977Y010025D02*
X014927Y010025D01*
X014927Y009925D02*
X014977Y009925D01*
X014977Y009913D02*
X015066Y009825D01*
X014839Y009825D01*
X014927Y009913D01*
X014927Y010225D01*
X014977Y010225D01*
X014977Y009913D01*
X015002Y009888D02*
X015002Y009762D01*
X014977Y009737D02*
X015066Y009825D01*
X014977Y009737D02*
X014977Y009725D01*
X014927Y009725D01*
X014927Y009737D01*
X014839Y009825D01*
X014902Y009762D02*
X014902Y009888D01*
X014927Y009725D02*
X014977Y009725D01*
X014977Y009325D02*
X014977Y009313D01*
X015091Y009200D01*
X015102Y009200D01*
X015102Y008808D01*
X015002Y008708D01*
X015002Y009288D01*
X014977Y009325D02*
X014927Y009325D01*
X014927Y009313D01*
X014814Y009200D01*
X014702Y009200D01*
X014702Y008808D01*
X014702Y008642D01*
X014602Y008542D01*
X014541Y008481D01*
X014564Y008457D01*
X014586Y008419D01*
X014597Y008378D01*
X014597Y008263D01*
X014340Y008263D01*
X014340Y008187D01*
X014597Y008187D01*
X014597Y008072D01*
X014586Y008031D01*
X014564Y007993D01*
X014534Y007963D01*
X014512Y007950D01*
X014514Y007950D01*
X014529Y007935D01*
X014676Y007935D01*
X014691Y007950D01*
X014692Y007950D01*
X014670Y007963D01*
X014640Y007993D01*
X014618Y008031D01*
X014607Y008072D01*
X014607Y008187D01*
X014865Y008187D01*
X014865Y008263D01*
X014865Y008520D01*
X014749Y008520D01*
X014708Y008509D01*
X014670Y008487D01*
X014640Y008457D01*
X014618Y008419D01*
X014607Y008378D01*
X014607Y008263D01*
X014865Y008263D01*
X014940Y008263D01*
X014940Y008520D01*
X015002Y008520D01*
X015002Y008708D01*
X015019Y008725D02*
X014702Y008725D01*
X014702Y008825D02*
X015102Y008825D01*
X015102Y008925D02*
X014702Y008925D01*
X014702Y009025D02*
X015102Y009025D01*
X015102Y009125D02*
X014702Y009125D01*
X014702Y009200D02*
X014702Y008506D01*
X014802Y008520D02*
X014802Y009200D01*
X014839Y009225D02*
X015066Y009225D01*
X014902Y009288D02*
X014902Y008263D01*
X014865Y008225D02*
X014340Y008225D01*
X014402Y008187D02*
X014402Y008263D01*
X014502Y008263D02*
X014502Y008187D01*
X014597Y008125D02*
X014607Y008125D01*
X014622Y008025D02*
X014583Y008025D01*
X014602Y007935D02*
X014602Y008542D01*
X014585Y008525D02*
X015002Y008525D01*
X015002Y008625D02*
X014685Y008625D01*
X014502Y008725D02*
X014402Y008625D01*
X014002Y008625D01*
X013902Y008525D01*
X013902Y007425D01*
X014002Y007325D01*
X014802Y007325D01*
X014902Y007225D01*
X014902Y007125D01*
X014902Y006805D02*
X014902Y006717D01*
X014802Y006717D02*
X014802Y006820D01*
X014790Y006825D02*
X014740Y006825D01*
X014740Y006846D02*
X014839Y006805D01*
X014966Y006805D01*
X015002Y006820D01*
X015002Y006717D01*
X014740Y006717D01*
X014740Y006846D01*
X014740Y006725D02*
X015002Y006725D01*
X015402Y006725D02*
X015802Y006725D01*
X015802Y006625D02*
X015402Y006625D01*
X015402Y006542D02*
X015402Y007300D01*
X015687Y007300D01*
X015682Y007289D01*
X015682Y007161D01*
X015731Y007044D01*
X015802Y006972D01*
X015802Y006508D01*
X015790Y006520D01*
X015380Y006520D01*
X015402Y006542D01*
X015402Y006520D02*
X015402Y007300D01*
X015402Y007225D02*
X015682Y007225D01*
X015697Y007125D02*
X015402Y007125D01*
X015402Y007025D02*
X015750Y007025D01*
X015702Y007113D02*
X015702Y006520D01*
X015602Y006520D02*
X015602Y007300D01*
X015502Y007300D02*
X015502Y006520D01*
X015385Y006525D02*
X015802Y006525D01*
X015802Y006825D02*
X015402Y006825D01*
X015402Y006925D02*
X015802Y006925D01*
X015827Y007499D02*
X015901Y007529D01*
X015892Y007538D01*
X015892Y007915D01*
X015749Y007915D01*
X015827Y007837D01*
X015827Y007499D01*
X015827Y007525D02*
X015890Y007525D01*
X015892Y007625D02*
X015827Y007625D01*
X015827Y007725D02*
X015892Y007725D01*
X015892Y007825D02*
X015827Y007825D01*
X015802Y007862D02*
X015802Y007915D01*
X016066Y008545D02*
X016179Y008498D01*
X016192Y008512D01*
X016192Y008512D01*
X016302Y008622D01*
X016302Y008690D01*
X016282Y008710D01*
X016282Y009140D01*
X016302Y009160D01*
X016302Y010230D01*
X016180Y010230D01*
X016186Y010219D01*
X016197Y010178D01*
X016197Y010063D01*
X015940Y010063D01*
X015940Y009987D01*
X016197Y009987D01*
X016197Y009872D01*
X016186Y009831D01*
X016164Y009793D01*
X016134Y009763D01*
X016112Y009750D01*
X016114Y009750D01*
X016227Y009637D01*
X016227Y009213D01*
X016114Y009100D01*
X015691Y009100D01*
X015577Y009213D01*
X015577Y009225D01*
X015539Y009225D01*
X015514Y009200D01*
X015502Y009200D01*
X015502Y008642D01*
X015410Y008550D01*
X015714Y008550D01*
X015729Y008535D01*
X015914Y008535D01*
X015939Y008545D01*
X016066Y008545D01*
X016102Y008530D02*
X016102Y009100D01*
X016139Y009125D02*
X016282Y009125D01*
X016282Y009025D02*
X015502Y009025D01*
X015502Y008925D02*
X016282Y008925D01*
X016282Y008825D02*
X015502Y008825D01*
X015502Y008725D02*
X016282Y008725D01*
X016302Y008625D02*
X015485Y008625D01*
X015502Y008550D02*
X015502Y009200D01*
X015502Y009125D02*
X015666Y009125D01*
X015702Y009100D02*
X015702Y008550D01*
X015602Y008550D02*
X015602Y009188D01*
X015802Y009100D02*
X015802Y008535D01*
X015902Y008535D02*
X015902Y009100D01*
X016002Y009100D02*
X016002Y008545D01*
X016114Y008525D02*
X016205Y008525D01*
X016202Y008522D02*
X016202Y009188D01*
X016227Y009225D02*
X016302Y009225D01*
X016302Y009325D02*
X016227Y009325D01*
X016227Y009425D02*
X016302Y009425D01*
X016302Y009525D02*
X016227Y009525D01*
X016227Y009625D02*
X016302Y009625D01*
X016302Y009725D02*
X016139Y009725D01*
X016202Y009662D02*
X016202Y010230D01*
X016183Y010225D02*
X016302Y010225D01*
X016302Y010125D02*
X016197Y010125D01*
X016102Y010063D02*
X016102Y009987D01*
X016002Y009987D02*
X016002Y010063D01*
X015940Y010025D02*
X016302Y010025D01*
X016302Y009925D02*
X016197Y009925D01*
X016183Y009825D02*
X016302Y009825D01*
X015902Y009425D02*
X015602Y009425D01*
X015602Y009925D01*
X015502Y010025D01*
X015302Y010125D01*
X015302Y010425D01*
X014402Y010425D01*
X014302Y010325D01*
X014302Y009325D01*
X014502Y009125D01*
X014502Y008725D01*
X014583Y008425D02*
X014622Y008425D01*
X014607Y008325D02*
X014597Y008325D01*
X014702Y008263D02*
X014702Y008187D01*
X014802Y008187D02*
X014802Y008263D01*
X014865Y008325D02*
X014940Y008325D01*
X014940Y008425D02*
X014865Y008425D01*
X014102Y009025D02*
X014002Y009225D01*
X014002Y009525D01*
X013702Y009288D02*
X013702Y008608D01*
X013702Y008163D01*
X013688Y008163D01*
X013688Y009303D01*
X013791Y009200D01*
X013802Y009178D01*
X013802Y009142D01*
X013802Y009137D01*
X013804Y009141D02*
X013782Y009089D01*
X013782Y008961D01*
X013831Y008844D01*
X013885Y008790D01*
X013702Y008608D01*
X013688Y008625D02*
X013719Y008625D01*
X013702Y008525D02*
X013688Y008525D01*
X013688Y008425D02*
X013702Y008425D01*
X013688Y008325D02*
X013702Y008325D01*
X013688Y008225D02*
X013702Y008225D01*
X013802Y008708D02*
X013802Y008913D01*
X013797Y008925D02*
X013688Y008925D01*
X013688Y009025D02*
X013782Y009025D01*
X013797Y009125D02*
X013688Y009125D01*
X013688Y009225D02*
X013766Y009225D01*
X013791Y009200D02*
X013791Y009200D01*
X013802Y009142D02*
X013804Y009141D01*
X013850Y008825D02*
X013688Y008825D01*
X013688Y008725D02*
X013819Y008725D01*
X013094Y009233D02*
X012402Y009925D01*
X011502Y009925D01*
X011202Y010225D01*
X010002Y010225D01*
X009902Y010325D01*
X009902Y010925D01*
X009432Y010925D02*
X009372Y010925D01*
X009372Y010825D02*
X009432Y010825D01*
X009432Y010730D02*
X009702Y010460D01*
X009702Y010242D01*
X009702Y009725D01*
X009602Y009725D02*
X009602Y010560D01*
X009638Y010525D02*
X009167Y010525D01*
X009202Y010560D02*
X009202Y009808D01*
X009185Y009825D02*
X010682Y009825D01*
X010682Y009889D02*
X010682Y009761D01*
X010697Y009725D01*
X009285Y009725D01*
X009102Y009908D01*
X009102Y010460D01*
X009372Y010730D01*
X009372Y011120D01*
X009097Y011395D01*
X008708Y011395D01*
X008432Y011120D01*
X008432Y010730D01*
X008702Y010460D01*
X008702Y009742D01*
X008702Y009525D01*
X008919Y009525D01*
X008702Y009525D01*
X008702Y010108D01*
X008585Y010225D01*
X008702Y010225D01*
X008702Y010325D02*
X008485Y010325D01*
X008502Y010308D02*
X008502Y010660D01*
X008538Y010625D02*
X008267Y010625D01*
X008302Y010660D02*
X008302Y010508D01*
X008285Y010525D02*
X008638Y010525D01*
X008602Y010560D02*
X008602Y010208D01*
X008585Y010225D02*
X008226Y010584D01*
X008372Y010730D01*
X008372Y011120D01*
X008097Y011395D01*
X007708Y011395D01*
X007432Y011120D01*
X007432Y010730D01*
X007708Y010455D01*
X007789Y010455D01*
X007819Y010425D01*
X007102Y010425D01*
X007102Y010460D01*
X007372Y010730D01*
X007372Y011120D01*
X007097Y011395D01*
X006708Y011395D01*
X006432Y011120D01*
X006432Y010730D01*
X006702Y010460D01*
X006702Y010242D01*
X006702Y010225D01*
X006702Y010242D02*
X006719Y010225D01*
X006102Y010225D01*
X006102Y010460D01*
X006372Y010730D01*
X006372Y011120D01*
X006097Y011395D01*
X005708Y011395D01*
X005432Y011120D01*
X005432Y010730D01*
X005702Y010460D01*
X005702Y010042D01*
X005702Y010025D01*
X005702Y010042D02*
X005719Y010025D01*
X005285Y010025D01*
X005102Y010208D01*
X005102Y010460D01*
X005372Y010730D01*
X005372Y011120D01*
X005097Y011395D01*
X004708Y011395D01*
X004432Y011120D01*
X004432Y010878D01*
X004385Y010925D01*
X004372Y010925D01*
X004432Y010925D01*
X004402Y010908D02*
X004402Y012245D01*
X004302Y012245D02*
X004302Y011190D01*
X004267Y011225D02*
X004538Y011225D01*
X004502Y011190D02*
X004502Y012245D01*
X004602Y012245D02*
X004602Y011290D01*
X004638Y011325D02*
X004167Y011325D01*
X004202Y011290D02*
X004202Y012245D01*
X004102Y012245D02*
X004102Y011390D01*
X004097Y011395D02*
X003708Y011395D01*
X003432Y011120D01*
X003432Y010730D01*
X003538Y010625D01*
X003402Y010625D01*
X003402Y011610D01*
X003402Y010625D01*
X003538Y010625D01*
X003502Y010625D02*
X003502Y010660D01*
X003438Y010725D02*
X003402Y010725D01*
X003402Y010825D02*
X003432Y010825D01*
X003432Y010925D02*
X003402Y010925D01*
X003402Y011025D02*
X003432Y011025D01*
X003438Y011125D02*
X003402Y011125D01*
X003402Y011225D02*
X003538Y011225D01*
X003502Y011190D02*
X003502Y012245D01*
X003417Y012225D02*
X015548Y012225D01*
X015548Y012245D02*
X015548Y012121D01*
X015954Y012121D01*
X015954Y012025D01*
X003502Y012025D01*
X003502Y011925D02*
X013790Y011925D01*
X013802Y011930D02*
X013802Y012245D01*
X013702Y012245D02*
X013702Y011878D01*
X013721Y011896D02*
X013631Y011806D01*
X013582Y011689D01*
X013582Y011561D01*
X013631Y011444D01*
X013694Y011381D01*
X013602Y011290D01*
X013602Y011513D01*
X013597Y011525D02*
X013485Y011525D01*
X013502Y011508D02*
X013502Y012245D01*
X013402Y012245D02*
X013402Y011608D01*
X013285Y011725D01*
X011919Y011725D01*
X011819Y011625D01*
X011702Y011508D01*
X011702Y012245D01*
X011602Y012245D02*
X011602Y011290D01*
X011638Y011325D02*
X011167Y011325D01*
X011202Y011290D02*
X011202Y012245D01*
X011102Y012245D02*
X011102Y011390D01*
X011097Y011395D02*
X010708Y011395D01*
X010432Y011120D01*
X010432Y010730D01*
X010708Y010455D01*
X011097Y010455D01*
X011372Y010730D01*
X011372Y011120D01*
X011097Y011395D01*
X011002Y011395D02*
X011002Y012245D01*
X010902Y012245D02*
X010902Y011395D01*
X010802Y011395D02*
X010802Y012245D01*
X010702Y012245D02*
X010702Y011390D01*
X010638Y011325D02*
X010167Y011325D01*
X010202Y011290D02*
X010202Y012245D01*
X010102Y012245D02*
X010102Y011390D01*
X010097Y011395D02*
X009708Y011395D01*
X009432Y011120D01*
X009432Y010730D01*
X009438Y010725D02*
X009367Y010725D01*
X009302Y010660D02*
X009302Y009725D01*
X009285Y009725D02*
X010697Y009725D01*
X010602Y009725D02*
X010602Y010025D01*
X010502Y010025D02*
X010502Y009725D01*
X010402Y009725D02*
X010402Y010025D01*
X010302Y010025D02*
X010302Y009725D01*
X010202Y009725D02*
X010202Y010025D01*
X010102Y010025D02*
X010102Y009725D01*
X010002Y009725D02*
X010002Y010025D01*
X009919Y010025D02*
X009819Y010125D01*
X009102Y010125D01*
X009102Y010025D02*
X009919Y010025D01*
X010750Y010025D01*
X010731Y010006D01*
X010682Y009889D01*
X010697Y009925D02*
X009102Y009925D01*
X009102Y009908D02*
X009102Y010460D01*
X009102Y010425D02*
X009702Y010425D01*
X009702Y010325D02*
X009102Y010325D01*
X009102Y010225D02*
X009719Y010225D01*
X009702Y010242D02*
X009819Y010125D01*
X009802Y010142D02*
X009802Y009725D01*
X009902Y009725D02*
X009902Y010042D01*
X009502Y009725D02*
X009502Y010660D01*
X009538Y010625D02*
X009267Y010625D01*
X008902Y010925D02*
X008902Y009825D01*
X009202Y009525D01*
X012002Y009525D01*
X012701Y008827D01*
X012701Y007757D01*
X012897Y007757D02*
X012897Y009030D01*
X012202Y009725D01*
X011002Y009725D01*
X011002Y009825D01*
X010702Y009937D02*
X010702Y010025D01*
X010702Y010425D02*
X010702Y010460D01*
X010638Y010525D02*
X010167Y010525D01*
X010202Y010560D02*
X010202Y010425D01*
X010102Y010425D02*
X010102Y010460D01*
X010372Y010730D01*
X010372Y011120D01*
X010097Y011395D01*
X010002Y011395D02*
X010002Y012245D01*
X009902Y012245D02*
X009902Y011395D01*
X009802Y011395D02*
X009802Y012245D01*
X009702Y012245D02*
X009702Y011390D01*
X009638Y011325D02*
X009167Y011325D01*
X009202Y011290D02*
X009202Y012245D01*
X009102Y012245D02*
X009102Y011390D01*
X009002Y011395D02*
X009002Y012245D01*
X008902Y012245D02*
X008902Y011395D01*
X008802Y011395D02*
X008802Y012245D01*
X008702Y012245D02*
X008702Y011390D01*
X008638Y011325D02*
X008167Y011325D01*
X008202Y011290D02*
X008202Y012245D01*
X008102Y012245D02*
X008102Y011390D01*
X008002Y011395D02*
X008002Y012245D01*
X007902Y012245D02*
X007902Y011395D01*
X007802Y011395D02*
X007802Y012245D01*
X007702Y012245D02*
X007702Y011390D01*
X007638Y011325D02*
X007167Y011325D01*
X007202Y011290D02*
X007202Y012245D01*
X007102Y012245D02*
X007102Y011390D01*
X007002Y011395D02*
X007002Y012245D01*
X006902Y012245D02*
X006902Y011395D01*
X006802Y011395D02*
X006802Y012245D01*
X006702Y012245D02*
X006702Y011390D01*
X006638Y011325D02*
X006167Y011325D01*
X006202Y011290D02*
X006202Y012245D01*
X006102Y012245D02*
X006102Y011390D01*
X006002Y011395D02*
X006002Y012245D01*
X005902Y012245D02*
X005902Y011395D01*
X005802Y011395D02*
X005802Y012245D01*
X005702Y012245D02*
X005702Y011390D01*
X005638Y011325D02*
X005167Y011325D01*
X005202Y011290D02*
X005202Y012245D01*
X005102Y012245D02*
X005102Y011390D01*
X005002Y011395D02*
X005002Y012245D01*
X004902Y012245D02*
X004902Y011395D01*
X004802Y011395D02*
X004802Y012245D01*
X004702Y012245D02*
X004702Y011390D01*
X004438Y011125D02*
X004367Y011125D01*
X004372Y011120D02*
X004097Y011395D01*
X004002Y011395D02*
X004002Y012245D01*
X003902Y012245D02*
X003902Y011395D01*
X003802Y011395D02*
X003802Y012245D01*
X003702Y012245D02*
X003702Y011390D01*
X003638Y011325D02*
X003402Y011325D01*
X003402Y011425D02*
X011702Y011425D01*
X011702Y011390D02*
X011432Y011120D01*
X011432Y010730D01*
X011708Y010455D01*
X012097Y010455D01*
X012372Y010730D01*
X012372Y011120D01*
X012167Y011325D01*
X012638Y011325D01*
X012432Y011120D01*
X012432Y010730D01*
X012708Y010455D01*
X013089Y010455D01*
X013091Y010453D01*
X013091Y009519D01*
X012602Y010008D01*
X012485Y010125D01*
X011585Y010125D01*
X013091Y010125D01*
X013091Y010025D02*
X012585Y010025D01*
X012602Y010008D02*
X012602Y010560D01*
X012638Y010525D02*
X012167Y010525D01*
X012202Y010560D02*
X012202Y010125D01*
X012102Y010125D02*
X012102Y010460D01*
X012002Y010455D02*
X012002Y010125D01*
X011902Y010125D02*
X011902Y010455D01*
X011802Y010455D02*
X011802Y010125D01*
X011702Y010125D02*
X011702Y010460D01*
X011638Y010525D02*
X011167Y010525D01*
X011202Y010560D02*
X011202Y010425D01*
X011285Y010425D02*
X010102Y010425D01*
X013091Y010425D01*
X013002Y010455D02*
X013002Y009608D01*
X012985Y009625D02*
X013091Y009625D01*
X013091Y009725D02*
X012885Y009725D01*
X012902Y009708D02*
X012902Y010455D01*
X012802Y010455D02*
X012802Y009808D01*
X012785Y009825D02*
X013091Y009825D01*
X013091Y009925D02*
X012685Y009925D01*
X012702Y009908D02*
X012702Y010460D01*
X012538Y010625D02*
X012267Y010625D01*
X012302Y010660D02*
X012302Y010125D01*
X012402Y010125D02*
X012402Y011325D01*
X012302Y011325D02*
X012302Y011190D01*
X012267Y011225D02*
X012538Y011225D01*
X012502Y011190D02*
X012502Y011325D01*
X012602Y011325D02*
X012602Y011290D01*
X012438Y011125D02*
X012367Y011125D01*
X012372Y011025D02*
X012432Y011025D01*
X012432Y010925D02*
X012372Y010925D01*
X012372Y010825D02*
X012432Y010825D01*
X012438Y010725D02*
X012367Y010725D01*
X012502Y010660D02*
X012502Y010108D01*
X013091Y010225D02*
X011485Y010225D01*
X011502Y010208D02*
X011502Y010660D01*
X011538Y010625D02*
X011267Y010625D01*
X011302Y010660D02*
X011302Y010408D01*
X011285Y010425D02*
X011402Y010308D01*
X011585Y010125D01*
X011602Y010125D02*
X011602Y010560D01*
X011385Y010325D02*
X013091Y010325D01*
X013291Y010536D02*
X012902Y010925D01*
X013402Y010725D02*
X013402Y011325D01*
X013202Y011525D01*
X012002Y011525D01*
X011902Y011425D01*
X011902Y010925D01*
X011502Y011190D02*
X011502Y012245D01*
X011402Y012245D02*
X011402Y010308D01*
X011102Y010425D02*
X011102Y010460D01*
X011002Y010455D02*
X011002Y010425D01*
X010902Y010425D02*
X010902Y010455D01*
X010802Y010455D02*
X010802Y010425D01*
X010602Y010425D02*
X010602Y010560D01*
X010538Y010625D02*
X010267Y010625D01*
X010302Y010660D02*
X010302Y010425D01*
X010402Y010425D02*
X010402Y012245D01*
X010302Y012245D02*
X010302Y011190D01*
X010267Y011225D02*
X010538Y011225D01*
X010502Y011190D02*
X010502Y012245D01*
X010602Y012245D02*
X010602Y011290D01*
X010438Y011125D02*
X010367Y011125D01*
X010372Y011025D02*
X010432Y011025D01*
X010432Y010925D02*
X010372Y010925D01*
X010372Y010825D02*
X010432Y010825D01*
X010438Y010725D02*
X010367Y010725D01*
X010502Y010660D02*
X010502Y010425D01*
X010102Y010425D02*
X010102Y010460D01*
X009432Y011025D02*
X009372Y011025D01*
X009367Y011125D02*
X009438Y011125D01*
X009502Y011190D02*
X009502Y012245D01*
X009402Y012245D02*
X009402Y009725D01*
X008919Y009525D02*
X008819Y009625D01*
X008702Y009625D01*
X008702Y009725D02*
X008719Y009725D01*
X008702Y009742D02*
X008819Y009625D01*
X008802Y009642D02*
X008802Y009525D01*
X008902Y009525D02*
X008902Y009542D01*
X008602Y009325D02*
X011802Y009325D01*
X012504Y008623D01*
X012504Y007757D01*
X012307Y007757D02*
X012307Y008520D01*
X011702Y009125D01*
X008502Y009125D01*
X008302Y009325D01*
X008302Y009925D01*
X008002Y010225D01*
X007002Y010225D01*
X006902Y010325D01*
X006902Y010925D01*
X006432Y010925D02*
X006372Y010925D01*
X006372Y010825D02*
X006432Y010825D01*
X006438Y010725D02*
X006367Y010725D01*
X006302Y010660D02*
X006302Y010225D01*
X006202Y010225D02*
X006202Y010560D01*
X006167Y010525D02*
X006638Y010525D01*
X006602Y010560D02*
X006602Y010225D01*
X006502Y010225D02*
X006502Y010660D01*
X006538Y010625D02*
X006267Y010625D01*
X006102Y010460D02*
X006102Y010225D01*
X006719Y010225D01*
X006702Y010325D02*
X006102Y010325D01*
X006102Y010425D02*
X006702Y010425D01*
X006402Y010225D02*
X006402Y012245D01*
X006302Y012245D02*
X006302Y011190D01*
X006267Y011225D02*
X006538Y011225D01*
X006502Y011190D02*
X006502Y012245D01*
X006602Y012245D02*
X006602Y011290D01*
X006438Y011125D02*
X006367Y011125D01*
X006372Y011025D02*
X006432Y011025D01*
X005902Y010925D02*
X005902Y010125D01*
X006002Y010025D01*
X007702Y010025D01*
X008102Y009625D01*
X008102Y009225D01*
X008402Y008925D01*
X011602Y008925D01*
X012110Y008417D01*
X012110Y007757D01*
X011913Y007757D02*
X011913Y008214D01*
X011402Y008725D01*
X008302Y008725D01*
X007902Y009125D01*
X007902Y009425D01*
X007502Y009825D01*
X005202Y009825D01*
X004902Y010125D01*
X004902Y010925D01*
X005372Y010925D02*
X005432Y010925D01*
X005432Y010825D02*
X005372Y010825D01*
X005367Y010725D02*
X005438Y010725D01*
X005502Y010660D02*
X005502Y010025D01*
X005402Y010025D02*
X005402Y012245D01*
X005302Y012245D02*
X005302Y011190D01*
X005267Y011225D02*
X005538Y011225D01*
X005502Y011190D02*
X005502Y012245D01*
X005602Y012245D02*
X005602Y011290D01*
X005438Y011125D02*
X005367Y011125D01*
X005372Y011025D02*
X005432Y011025D01*
X005302Y010660D02*
X005302Y010025D01*
X005285Y010025D02*
X005719Y010025D01*
X005702Y010125D02*
X005185Y010125D01*
X005202Y010108D02*
X005202Y010560D01*
X005167Y010525D02*
X005638Y010525D01*
X005602Y010560D02*
X005602Y010025D01*
X005702Y010225D02*
X005102Y010225D01*
X005102Y010208D02*
X005102Y010460D01*
X005102Y010425D02*
X005702Y010425D01*
X005702Y010325D02*
X005102Y010325D01*
X005267Y010625D02*
X005538Y010625D01*
X004602Y010425D02*
X004602Y010025D01*
X005002Y009625D01*
X007302Y009625D01*
X007602Y009325D01*
X007602Y008925D01*
X007802Y008725D01*
X008002Y008725D01*
X008202Y008525D01*
X011302Y008525D01*
X011320Y007325D02*
X011392Y007252D01*
X011386Y007240D01*
X012028Y007351D02*
X012232Y007351D01*
X012192Y007312D01*
X012192Y007295D01*
X012119Y007197D01*
X012073Y007306D01*
X012028Y007351D01*
X012055Y007325D02*
X012205Y007325D01*
X012202Y007322D02*
X012202Y007351D01*
X012102Y007351D02*
X012102Y007237D01*
X012107Y007225D02*
X012140Y007225D01*
X012602Y006825D02*
X012802Y007025D01*
X013602Y007025D01*
X013685Y007108D01*
X014334Y007108D01*
X014334Y006911D02*
X013788Y006911D01*
X013602Y006825D01*
X013202Y006825D01*
X013002Y006625D01*
X013114Y006325D02*
X013197Y006325D01*
X013202Y006313D02*
X013202Y006245D01*
X013230Y006245D02*
X013185Y006355D01*
X013183Y006354D01*
X013094Y006316D01*
X013165Y006245D01*
X013230Y006245D01*
X013102Y006308D02*
X013102Y006320D01*
X012902Y006225D02*
X013202Y005925D01*
X013502Y006037D02*
X013502Y006105D01*
X013502Y006425D02*
X013791Y006714D01*
X014334Y006714D01*
X013488Y007757D02*
X013488Y010125D01*
X014002Y010125D01*
X013702Y009888D02*
X013702Y009762D01*
X013688Y009747D02*
X013688Y009903D01*
X013766Y009825D01*
X013688Y009825D01*
X013766Y009825D02*
X013688Y009747D01*
X013488Y010125D02*
X013488Y010639D01*
X013402Y010725D01*
X013291Y010536D02*
X013291Y007757D01*
X013094Y007757D02*
X013094Y009233D01*
X013085Y009525D02*
X013091Y009525D01*
X013688Y010347D02*
X013688Y010474D01*
X013708Y010455D01*
X014097Y010455D01*
X014372Y010730D01*
X014372Y011120D01*
X014177Y011315D01*
X014474Y011315D01*
X014527Y011262D01*
X014591Y011236D01*
X014462Y011107D01*
X014462Y010975D01*
X014852Y010975D01*
X014852Y010875D01*
X014462Y010875D01*
X014462Y010743D01*
X014580Y010625D01*
X014319Y010625D01*
X014219Y010525D01*
X014144Y010450D01*
X013791Y010450D01*
X013688Y010347D01*
X013702Y010362D02*
X013702Y010460D01*
X013688Y010425D02*
X013766Y010425D01*
X013802Y010450D02*
X013802Y010455D01*
X013902Y010450D02*
X013902Y010455D01*
X014002Y010450D02*
X014002Y010455D01*
X014102Y010450D02*
X014102Y010460D01*
X014167Y010525D02*
X014219Y010525D01*
X014202Y010508D02*
X014202Y010560D01*
X014267Y010625D02*
X014580Y010625D01*
X014502Y010625D02*
X014502Y010703D01*
X014480Y010725D02*
X014367Y010725D01*
X014302Y010660D02*
X014302Y010608D01*
X014402Y010625D02*
X014402Y011315D01*
X014302Y011315D02*
X014302Y011190D01*
X014267Y011225D02*
X014580Y011225D01*
X014502Y011287D02*
X014502Y011147D01*
X014480Y011125D02*
X014367Y011125D01*
X014372Y011025D02*
X014462Y011025D01*
X014502Y010975D02*
X014502Y010875D01*
X014462Y010825D02*
X014372Y010825D01*
X014372Y010925D02*
X014852Y010925D01*
X014802Y010875D02*
X014802Y010975D01*
X014702Y010975D02*
X014702Y010875D01*
X014602Y010875D02*
X014602Y010975D01*
X014952Y010975D02*
X014952Y010875D01*
X015342Y010875D01*
X015342Y010748D01*
X015371Y010777D01*
X015518Y010777D01*
X015518Y010836D01*
X015605Y010924D01*
X015751Y010924D01*
X015731Y010944D01*
X015721Y010968D01*
X015474Y011215D01*
X015234Y011215D01*
X015342Y011107D01*
X015342Y010975D01*
X014952Y010975D01*
X014952Y010925D02*
X015750Y010925D01*
X015702Y010924D02*
X015702Y010987D01*
X015664Y011025D02*
X015342Y011025D01*
X015302Y010975D02*
X015302Y010875D01*
X015342Y010825D02*
X015518Y010825D01*
X015502Y010777D02*
X015502Y011187D01*
X015564Y011125D02*
X015324Y011125D01*
X015302Y011147D02*
X015302Y011215D01*
X015402Y011215D02*
X015402Y010777D01*
X015454Y010577D02*
X015302Y010425D01*
X015454Y010577D02*
X016002Y010577D01*
X016050Y010625D01*
X017302Y010625D01*
X018102Y010625D02*
X018302Y010425D01*
X018302Y005125D01*
X018102Y004925D01*
X017802Y004925D01*
X014790Y004825D02*
X014755Y004825D01*
X012902Y006225D02*
X012102Y006225D01*
X010495Y006258D02*
X010464Y006227D01*
X010464Y005536D01*
X009730Y005536D01*
X009702Y005508D02*
X009702Y006442D01*
X009719Y006425D02*
X009827Y006317D01*
X010494Y006317D01*
X010494Y006263D01*
X010495Y006258D01*
X010464Y006225D02*
X009502Y006225D01*
X009502Y006125D02*
X010464Y006125D01*
X010464Y006025D02*
X009502Y006025D01*
X009502Y005925D02*
X010464Y005925D01*
X010464Y005825D02*
X009502Y005825D01*
X009502Y005813D02*
X009502Y006437D01*
X009502Y006325D02*
X009819Y006325D01*
X009802Y006342D02*
X009802Y005536D01*
X009902Y005536D02*
X009902Y006317D01*
X010002Y006317D02*
X010002Y005536D01*
X010102Y005536D02*
X010102Y006317D01*
X010202Y006317D02*
X010202Y005536D01*
X010302Y005536D02*
X010302Y006317D01*
X010402Y006317D02*
X010402Y005536D01*
X009519Y005325D02*
X009472Y005325D01*
X009502Y005125D02*
X009152Y005125D01*
X009102Y005175D02*
X009102Y005725D01*
X009002Y005725D02*
X009002Y005495D01*
X009052Y005425D02*
X009152Y005425D01*
X009202Y005495D02*
X009202Y005725D01*
X009302Y005725D02*
X009302Y005495D01*
X009414Y005725D02*
X009502Y005813D01*
X009414Y005725D02*
X008790Y005725D01*
X008572Y005725D01*
X008553Y005825D02*
X008702Y005825D01*
X008702Y005813D02*
X008790Y005725D01*
X008802Y005725D02*
X008802Y005485D01*
X008902Y005495D02*
X008902Y005725D01*
X009052Y005325D02*
X009152Y005325D01*
X009152Y005225D02*
X009052Y005225D01*
X008902Y005175D02*
X008902Y005075D01*
X009052Y005025D02*
X009152Y005025D01*
X009202Y005075D02*
X009202Y005175D01*
X009302Y005175D02*
X009302Y005075D01*
X009152Y004925D02*
X009052Y004925D01*
X009052Y004825D02*
X009152Y004825D01*
X008732Y004925D02*
X008653Y004925D01*
X009802Y006625D02*
X009802Y007325D01*
X009302Y007325D01*
X009002Y007625D01*
X008830Y007300D02*
X008791Y007300D01*
X008736Y007355D01*
X008669Y007355D01*
X008639Y007325D01*
X008766Y007325D01*
X008802Y007300D02*
X008802Y007295D01*
X008820Y007295D02*
X008669Y007295D01*
X008639Y007325D01*
X008702Y007295D02*
X008702Y007355D01*
X008821Y007296D02*
X008820Y007295D01*
X008821Y007296D02*
X008830Y007300D01*
X008191Y007950D02*
X008102Y007862D01*
X008102Y008342D01*
X008097Y008347D02*
X008107Y008337D01*
X008107Y008263D01*
X008365Y008263D01*
X008365Y008187D01*
X008107Y008187D01*
X008107Y008072D01*
X008118Y008031D01*
X008140Y007993D01*
X008170Y007963D01*
X008192Y007950D01*
X008191Y007950D01*
X008166Y007925D02*
X008039Y007925D01*
X008014Y007950D02*
X008012Y007950D01*
X008034Y007963D01*
X008064Y007993D01*
X008086Y008031D01*
X008097Y008072D01*
X008097Y008187D01*
X007840Y008187D01*
X007840Y008263D01*
X007765Y008263D01*
X007765Y008520D01*
X007649Y008520D01*
X007608Y008509D01*
X007570Y008487D01*
X007540Y008457D01*
X007518Y008419D01*
X007507Y008378D01*
X007507Y008263D01*
X007765Y008263D01*
X007765Y008187D01*
X007534Y008187D01*
X007534Y008212D01*
X007447Y008299D01*
X007106Y008299D01*
X007018Y008212D01*
X007018Y007993D01*
X007004Y007956D01*
X007009Y007849D01*
X007018Y007828D01*
X007018Y007620D01*
X006949Y007620D01*
X006908Y007609D01*
X006870Y007587D01*
X006840Y007557D01*
X006827Y007535D01*
X006827Y007537D01*
X006798Y007566D01*
X006798Y007967D01*
X006786Y007995D01*
X006786Y008212D01*
X006699Y008299D01*
X006443Y008299D01*
X006371Y008359D01*
X006344Y008387D01*
X006333Y008391D01*
X006325Y008398D01*
X006288Y008410D01*
X006252Y008425D01*
X006241Y008425D01*
X006230Y008428D01*
X006191Y008425D01*
X005354Y008425D01*
X006191Y008425D01*
X006202Y008426D02*
X006202Y008613D01*
X006214Y008625D02*
X006283Y008625D01*
X006270Y008638D02*
X006270Y008688D01*
X006227Y008712D01*
X006227Y008638D01*
X006139Y008550D01*
X005465Y008550D01*
X005377Y008638D01*
X005377Y008709D01*
X005190Y008709D01*
X005166Y008699D01*
X005039Y008699D01*
X005014Y008709D01*
X004863Y008709D01*
X004827Y008672D01*
X003402Y008672D01*
X003402Y008548D01*
X003402Y008672D01*
X003402Y008625D02*
X005390Y008625D01*
X005402Y008613D02*
X005402Y008425D01*
X005354Y008425D02*
X005306Y008445D01*
X005198Y008445D01*
X005099Y008404D01*
X005023Y008328D01*
X004982Y008229D01*
X004982Y007008D01*
X004981Y007006D01*
X004932Y006889D01*
X004932Y006761D01*
X004981Y006644D01*
X004982Y006642D01*
X004982Y006595D01*
X004148Y006595D01*
X004049Y006554D01*
X003973Y006478D01*
X003690Y006195D01*
X003402Y006195D01*
X003402Y007914D01*
X003810Y007914D01*
X003810Y008183D01*
X003907Y008183D01*
X003907Y007914D01*
X004429Y007914D01*
X004408Y007909D01*
X004370Y007887D01*
X004340Y007857D01*
X004318Y007819D01*
X004307Y007778D01*
X004307Y007663D01*
X004565Y007663D01*
X004565Y007587D01*
X004307Y007587D01*
X004307Y007472D01*
X004318Y007431D01*
X004340Y007393D01*
X004370Y007363D01*
X004392Y007350D01*
X004391Y007350D01*
X004336Y007295D01*
X004185Y007295D01*
X004183Y007296D01*
X004066Y007345D01*
X003939Y007345D01*
X003821Y007296D01*
X003731Y007206D01*
X003682Y007089D01*
X003682Y006961D01*
X003731Y006844D01*
X003821Y006754D01*
X003939Y006705D01*
X004066Y006705D01*
X004183Y006754D01*
X004185Y006755D01*
X004336Y006755D01*
X004391Y006700D01*
X004814Y006700D01*
X004927Y006813D01*
X004927Y007237D01*
X004814Y007350D01*
X004812Y007350D01*
X004834Y007363D01*
X004864Y007393D01*
X004886Y007431D01*
X004897Y007472D01*
X004897Y007587D01*
X004640Y007587D01*
X004640Y007663D01*
X004897Y007663D01*
X004897Y007778D01*
X004886Y007819D01*
X004864Y007857D01*
X004834Y007887D01*
X004797Y007909D01*
X004776Y007914D01*
X004780Y007914D01*
X004811Y007923D01*
X004838Y007938D01*
X004860Y007961D01*
X004876Y007988D01*
X004884Y008019D01*
X004884Y008183D01*
X003907Y008183D01*
X003907Y008280D01*
X003810Y008280D01*
X003810Y008548D01*
X003402Y008548D01*
X003502Y008548D02*
X003502Y008672D01*
X003602Y008672D02*
X003602Y008548D01*
X003702Y008548D02*
X003702Y008672D01*
X003802Y008672D02*
X003802Y008548D01*
X003810Y008525D02*
X003907Y008525D01*
X003907Y008548D02*
X003907Y008280D01*
X004884Y008280D01*
X004884Y008444D01*
X004876Y008474D01*
X004860Y008502D01*
X004838Y008524D01*
X004811Y008540D01*
X004780Y008548D01*
X003907Y008548D01*
X004002Y008548D02*
X004002Y008672D01*
X003902Y008672D02*
X003902Y008280D01*
X003907Y008325D02*
X003810Y008325D01*
X003810Y008425D02*
X003907Y008425D01*
X004002Y008280D02*
X004002Y008183D01*
X003902Y008183D02*
X003902Y007330D01*
X003890Y007325D02*
X003402Y007325D01*
X003402Y007225D02*
X003750Y007225D01*
X003802Y007278D02*
X003802Y007914D01*
X003810Y007925D02*
X003907Y007925D01*
X004002Y007914D02*
X004002Y007345D01*
X004102Y007330D02*
X004102Y007914D01*
X004202Y007914D02*
X004202Y007295D01*
X004114Y007325D02*
X004366Y007325D01*
X004302Y007295D02*
X004302Y007914D01*
X004322Y007825D02*
X003402Y007825D01*
X003402Y007914D02*
X003402Y006195D01*
X003402Y006225D02*
X003720Y006225D01*
X003702Y006207D02*
X003702Y006913D01*
X003697Y006925D02*
X003402Y006925D01*
X003402Y006825D02*
X003750Y006825D01*
X003802Y006772D02*
X003802Y006307D01*
X003820Y006325D02*
X003402Y006325D01*
X003402Y006425D02*
X003920Y006425D01*
X003902Y006407D02*
X003902Y006720D01*
X003890Y006725D02*
X003402Y006725D01*
X003402Y006625D02*
X004982Y006625D01*
X004902Y006595D02*
X004902Y006788D01*
X004927Y006825D02*
X004932Y006825D01*
X004927Y006925D02*
X004947Y006925D01*
X004927Y007025D02*
X004982Y007025D01*
X004982Y007125D02*
X004927Y007125D01*
X004927Y007225D02*
X004982Y007225D01*
X004902Y007262D02*
X004902Y008709D01*
X005002Y008709D02*
X005002Y008277D01*
X005022Y008325D02*
X004884Y008325D01*
X004802Y008280D02*
X004802Y008183D01*
X004702Y008183D02*
X004702Y008280D01*
X004602Y008280D02*
X004602Y008183D01*
X004502Y008183D02*
X004502Y008280D01*
X004402Y008280D02*
X004402Y008183D01*
X004302Y008183D02*
X004302Y008280D01*
X004202Y008280D02*
X004202Y008183D01*
X004102Y008183D02*
X004102Y008280D01*
X003907Y008225D02*
X004982Y008225D01*
X004982Y008125D02*
X004884Y008125D01*
X004884Y008025D02*
X004982Y008025D01*
X004982Y007925D02*
X004815Y007925D01*
X004802Y007920D02*
X004802Y007906D01*
X004883Y007825D02*
X004982Y007825D01*
X004982Y007725D02*
X004897Y007725D01*
X004802Y007663D02*
X004802Y007587D01*
X004702Y007587D02*
X004702Y007663D01*
X004640Y007625D02*
X004982Y007625D01*
X004982Y007525D02*
X004897Y007525D01*
X004883Y007425D02*
X004982Y007425D01*
X004982Y007325D02*
X004839Y007325D01*
X004565Y007625D02*
X003402Y007625D01*
X003402Y007525D02*
X004307Y007525D01*
X004322Y007425D02*
X003402Y007425D01*
X003402Y007725D02*
X004307Y007725D01*
X004402Y007663D02*
X004402Y007587D01*
X004502Y007587D02*
X004502Y007663D01*
X004402Y007906D02*
X004402Y007914D01*
X003907Y008025D02*
X003810Y008025D01*
X003810Y008125D02*
X003907Y008125D01*
X003702Y007914D02*
X003702Y007137D01*
X003697Y007125D02*
X003402Y007125D01*
X003402Y007025D02*
X003682Y007025D01*
X004002Y006705D02*
X004002Y006507D01*
X004020Y006525D02*
X003402Y006525D01*
X003502Y006195D02*
X003502Y007914D01*
X003602Y007914D02*
X003602Y006195D01*
X003973Y006478D02*
X003973Y006478D01*
X004102Y006576D02*
X004102Y006720D01*
X004114Y006725D02*
X004366Y006725D01*
X004402Y006700D02*
X004402Y006595D01*
X004302Y006595D02*
X004302Y006755D01*
X004202Y006755D02*
X004202Y006595D01*
X004502Y006595D02*
X004502Y006700D01*
X004602Y006700D02*
X004602Y006595D01*
X004702Y006595D02*
X004702Y006700D01*
X004802Y006700D02*
X004802Y006595D01*
X004839Y006725D02*
X004947Y006725D01*
X006227Y007587D02*
X006258Y007617D01*
X006258Y007802D01*
X006227Y007828D01*
X006227Y007587D01*
X006227Y007625D02*
X006258Y007625D01*
X006258Y007725D02*
X006227Y007725D01*
X006227Y007825D02*
X006230Y007825D01*
X006798Y007825D02*
X007018Y007825D01*
X007018Y007725D02*
X006798Y007725D01*
X006798Y007625D02*
X007018Y007625D01*
X007002Y007620D02*
X007002Y008581D01*
X007026Y008581D02*
X007057Y008589D01*
X007064Y008593D01*
X007106Y008551D01*
X007447Y008551D01*
X007534Y008638D01*
X007534Y008710D01*
X007602Y008642D01*
X007602Y008506D01*
X007702Y008520D02*
X007702Y008542D01*
X007719Y008525D02*
X004837Y008525D01*
X004802Y008542D02*
X004802Y008672D01*
X004702Y008672D02*
X004702Y008548D01*
X004602Y008548D02*
X004602Y008672D01*
X004502Y008672D02*
X004502Y008548D01*
X004402Y008548D02*
X004402Y008672D01*
X004302Y008672D02*
X004302Y008548D01*
X004202Y008548D02*
X004202Y008672D01*
X004102Y008672D02*
X004102Y008548D01*
X004884Y008425D02*
X005150Y008425D01*
X005102Y008405D02*
X005102Y008699D01*
X005202Y008709D02*
X005202Y008445D01*
X005302Y008445D02*
X005302Y008709D01*
X005502Y008550D02*
X005502Y008425D01*
X005602Y008425D02*
X005602Y008550D01*
X005702Y008550D02*
X005702Y008425D01*
X005802Y008425D02*
X005802Y008550D01*
X005902Y008550D02*
X005902Y008425D01*
X006002Y008425D02*
X006002Y008550D01*
X006102Y008550D02*
X006102Y008425D01*
X006241Y008425D02*
X007522Y008425D01*
X007507Y008325D02*
X006412Y008325D01*
X006402Y008334D02*
X006402Y008551D01*
X006358Y008551D02*
X006699Y008551D01*
X006741Y008593D01*
X006748Y008589D01*
X006778Y008581D01*
X006898Y008581D01*
X006898Y008933D01*
X006906Y008933D01*
X006906Y008581D01*
X007026Y008581D01*
X007102Y008554D02*
X007102Y008296D01*
X007031Y008225D02*
X006773Y008225D01*
X006702Y008296D02*
X006702Y008554D01*
X006602Y008551D02*
X006602Y008299D01*
X006502Y008299D02*
X006502Y008551D01*
X006358Y008551D02*
X006270Y008638D01*
X006302Y008606D02*
X006302Y008406D01*
X006802Y008581D02*
X006802Y007562D01*
X006902Y007606D02*
X006902Y008933D01*
X006898Y008925D02*
X006906Y008925D01*
X006898Y008825D02*
X006906Y008825D01*
X006898Y008725D02*
X006906Y008725D01*
X006898Y008625D02*
X006906Y008625D01*
X007202Y008551D02*
X007202Y008299D01*
X007302Y008299D02*
X007302Y008551D01*
X007402Y008551D02*
X007402Y008299D01*
X007502Y008244D02*
X007502Y008606D01*
X007521Y008625D02*
X007619Y008625D01*
X007602Y008642D02*
X007719Y008525D01*
X007919Y008525D01*
X007924Y008520D01*
X007840Y008520D01*
X007840Y008263D01*
X008097Y008263D01*
X008097Y008347D01*
X008097Y008325D02*
X008107Y008325D01*
X008202Y008263D02*
X008202Y008187D01*
X008302Y008187D02*
X008302Y008263D01*
X008365Y008225D02*
X007840Y008225D01*
X007802Y008263D02*
X007802Y008525D01*
X007902Y008520D02*
X007902Y008525D01*
X007840Y008425D02*
X007765Y008425D01*
X007765Y008325D02*
X007840Y008325D01*
X007902Y008263D02*
X007902Y008187D01*
X008002Y008187D02*
X008002Y008263D01*
X008097Y008125D02*
X008107Y008125D01*
X008122Y008025D02*
X008083Y008025D01*
X008014Y007950D02*
X008102Y007862D01*
X007765Y008225D02*
X007521Y008225D01*
X007602Y008187D02*
X007602Y008263D01*
X007702Y008263D02*
X007702Y008187D01*
X007018Y008125D02*
X006786Y008125D01*
X006786Y008025D02*
X007018Y008025D01*
X007006Y007925D02*
X006798Y007925D01*
X007276Y008937D02*
X007302Y008963D01*
X007202Y009225D01*
X007002Y009425D01*
X004802Y009425D01*
X004302Y009925D01*
X004302Y010325D01*
X004202Y010425D01*
X003302Y010425D01*
X003102Y010625D01*
X002702Y010625D01*
X002402Y010925D01*
X002402Y011325D02*
X002202Y011325D01*
X002102Y011225D01*
X002102Y010525D01*
X002202Y010425D01*
X002902Y010425D01*
X003102Y010225D01*
X003302Y010225D01*
X003402Y010125D01*
X003702Y010125D01*
X003802Y010025D01*
X004102Y009913D02*
X004102Y009842D01*
X004102Y009366D01*
X004002Y009366D02*
X004002Y009772D01*
X003983Y009754D02*
X004073Y009844D01*
X004102Y009913D01*
X004102Y009842D02*
X004579Y009366D01*
X003402Y009366D01*
X003402Y009925D01*
X003497Y009925D01*
X003531Y009844D01*
X003621Y009754D01*
X003739Y009705D01*
X003866Y009705D01*
X003983Y009754D01*
X003914Y009725D02*
X004219Y009725D01*
X004202Y009742D02*
X004202Y009366D01*
X004302Y009366D02*
X004302Y009642D01*
X004319Y009625D02*
X003402Y009625D01*
X003402Y009525D02*
X004419Y009525D01*
X004402Y009542D02*
X004402Y009366D01*
X004502Y009366D02*
X004502Y009442D01*
X004519Y009425D02*
X003402Y009425D01*
X003402Y009366D02*
X003402Y009925D01*
X003402Y009825D02*
X003550Y009825D01*
X003602Y009772D02*
X003602Y009366D01*
X003502Y009366D02*
X003502Y009913D01*
X003402Y009725D02*
X003690Y009725D01*
X003702Y009720D02*
X003702Y009366D01*
X003802Y009366D02*
X003802Y009705D01*
X003902Y009720D02*
X003902Y009366D01*
X004055Y009825D02*
X004119Y009825D01*
X004102Y010137D02*
X004073Y010206D01*
X004055Y010225D01*
X004102Y010225D01*
X004102Y010137D01*
X004602Y010425D02*
X004302Y010725D01*
X004102Y010725D01*
X003902Y010925D01*
X004372Y010925D02*
X004372Y011120D01*
X004372Y011025D02*
X004432Y011025D01*
X003602Y011290D02*
X003602Y012245D01*
X003502Y012140D02*
X003402Y012240D01*
X003402Y012245D01*
X015548Y012245D01*
X015502Y012245D02*
X015502Y011835D01*
X015548Y011860D02*
X015554Y011835D01*
X014831Y011835D01*
X014778Y011888D01*
X014664Y011935D01*
X013990Y011935D01*
X013966Y011945D01*
X013839Y011945D01*
X013721Y011896D01*
X013650Y011825D02*
X003502Y011825D01*
X003502Y011725D02*
X013597Y011725D01*
X013602Y011737D02*
X013602Y012245D01*
X013302Y012245D02*
X013302Y011708D01*
X013202Y011725D02*
X013202Y012245D01*
X013102Y012245D02*
X013102Y011725D01*
X013002Y011725D02*
X013002Y012245D01*
X012902Y012245D02*
X012902Y011725D01*
X012802Y011725D02*
X012802Y012245D01*
X012702Y012245D02*
X012702Y011725D01*
X012602Y011725D02*
X012602Y012245D01*
X012502Y012245D02*
X012502Y011725D01*
X012402Y011725D02*
X012402Y012245D01*
X012302Y012245D02*
X012302Y011725D01*
X012202Y011725D02*
X012202Y012245D01*
X012102Y012245D02*
X012102Y011725D01*
X012002Y011725D02*
X012002Y012245D01*
X011902Y012245D02*
X011902Y011708D01*
X011819Y011625D02*
X003417Y011625D01*
X003402Y011610D02*
X003502Y011710D01*
X003502Y012140D01*
X003502Y012125D02*
X015548Y012125D01*
X015602Y012121D02*
X015602Y012025D01*
X015548Y012025D02*
X015548Y011860D01*
X015548Y011925D02*
X014688Y011925D01*
X014702Y011919D02*
X014702Y012245D01*
X014602Y012245D02*
X014602Y011935D01*
X014502Y011935D02*
X014502Y012245D01*
X014402Y012245D02*
X014402Y011935D01*
X014302Y011935D02*
X014302Y012245D01*
X014202Y012245D02*
X014202Y011935D01*
X014102Y011935D02*
X014102Y012245D01*
X014002Y012245D02*
X014002Y011935D01*
X013902Y011945D02*
X013902Y012245D01*
X014802Y012245D02*
X014802Y011863D01*
X014902Y011835D02*
X014902Y012245D01*
X015002Y012245D02*
X015002Y011835D01*
X015102Y011835D02*
X015102Y012245D01*
X015202Y012245D02*
X015202Y011835D01*
X015302Y011835D02*
X015302Y012245D01*
X015402Y012245D02*
X015402Y011835D01*
X015548Y012025D02*
X015954Y012025D01*
X016051Y012025D01*
X016051Y011756D01*
X016302Y011756D01*
X016302Y011237D01*
X016273Y011306D01*
X016183Y011396D01*
X016159Y011406D01*
X015809Y011756D01*
X015954Y011756D01*
X015954Y012025D01*
X016002Y012025D02*
X016002Y011563D01*
X016041Y011525D02*
X016302Y011525D01*
X016302Y011625D02*
X015941Y011625D01*
X015902Y011663D02*
X015902Y011756D01*
X015841Y011725D02*
X016302Y011725D01*
X016202Y011756D02*
X016202Y011378D01*
X016255Y011325D02*
X016302Y011325D01*
X016302Y011425D02*
X016141Y011425D01*
X016102Y011463D02*
X016102Y011756D01*
X016051Y011825D02*
X015954Y011825D01*
X015954Y011925D02*
X016051Y011925D01*
X015902Y012025D02*
X015902Y012121D01*
X015802Y012121D02*
X015802Y012025D01*
X015702Y012025D02*
X015702Y012121D01*
X015602Y011087D02*
X015602Y010921D01*
X015202Y010875D02*
X015202Y010975D01*
X015102Y010975D02*
X015102Y010875D01*
X015002Y010875D02*
X015002Y010975D01*
X014202Y011290D02*
X014202Y011315D01*
X013650Y011425D02*
X013585Y011425D01*
X013602Y011408D02*
X013402Y011608D01*
X013385Y011625D02*
X013582Y011625D01*
X013602Y011408D02*
X013602Y011290D01*
X013602Y011325D02*
X013638Y011325D01*
X012202Y011290D02*
X012202Y011325D01*
X011802Y011608D02*
X011802Y012245D01*
X011302Y012245D02*
X011302Y011190D01*
X011267Y011225D02*
X011538Y011225D01*
X011438Y011125D02*
X011367Y011125D01*
X011372Y011025D02*
X011432Y011025D01*
X011432Y010925D02*
X011372Y010925D01*
X011372Y010825D02*
X011432Y010825D01*
X011438Y010725D02*
X011367Y010725D01*
X011702Y011390D02*
X011702Y011508D01*
X011719Y011525D02*
X003402Y011525D01*
X003002Y011725D02*
X003202Y011925D01*
X003002Y011725D02*
X003002Y010925D01*
X002602Y011525D02*
X002402Y011325D01*
X002602Y011525D02*
X002602Y011925D01*
X003402Y012240D02*
X003402Y012245D01*
X007102Y010460D02*
X007102Y010425D01*
X007819Y010425D01*
X007802Y010425D02*
X007802Y010442D01*
X007702Y010425D02*
X007702Y010460D01*
X007638Y010525D02*
X007167Y010525D01*
X007202Y010560D02*
X007202Y010425D01*
X007302Y010425D02*
X007302Y010660D01*
X007267Y010625D02*
X007538Y010625D01*
X007502Y010660D02*
X007502Y010425D01*
X007402Y010425D02*
X007402Y012245D01*
X007302Y012245D02*
X007302Y011190D01*
X007267Y011225D02*
X007538Y011225D01*
X007502Y011190D02*
X007502Y012245D01*
X007602Y012245D02*
X007602Y011290D01*
X007438Y011125D02*
X007367Y011125D01*
X007372Y011025D02*
X007432Y011025D01*
X007432Y010925D02*
X007372Y010925D01*
X007372Y010825D02*
X007432Y010825D01*
X007438Y010725D02*
X007367Y010725D01*
X007602Y010560D02*
X007602Y010425D01*
X007902Y010625D02*
X008502Y010025D01*
X008502Y009425D01*
X008602Y009325D01*
X008702Y009825D02*
X008702Y009825D01*
X008702Y009925D02*
X008702Y009925D01*
X008702Y010025D02*
X008702Y010025D01*
X008702Y010125D02*
X008685Y010125D01*
X008702Y010425D02*
X008385Y010425D01*
X008402Y010408D02*
X008402Y012245D01*
X008302Y012245D02*
X008302Y011190D01*
X008267Y011225D02*
X008538Y011225D01*
X008502Y011190D02*
X008502Y012245D01*
X008602Y012245D02*
X008602Y011290D01*
X008438Y011125D02*
X008367Y011125D01*
X008372Y011025D02*
X008432Y011025D01*
X008432Y010925D02*
X008372Y010925D01*
X008372Y010825D02*
X008432Y010825D01*
X008438Y010725D02*
X008367Y010725D01*
X007902Y010625D02*
X007902Y010925D01*
X009267Y011225D02*
X009538Y011225D01*
X009602Y011290D02*
X009602Y012245D01*
X009302Y012245D02*
X009302Y011190D01*
X016254Y010924D02*
X016273Y010944D01*
X016302Y011013D01*
X016302Y010924D01*
X016254Y010924D01*
X016255Y010925D02*
X016302Y010925D01*
D32*
X016002Y012073D02*
X014950Y012073D01*
X014902Y012025D01*
X011102Y008225D02*
X010802Y008225D01*
X011102Y008225D02*
X011202Y008125D01*
X011202Y007425D01*
X011402Y007225D01*
X011402Y006925D01*
X011402Y006325D01*
X010402Y006825D02*
X010402Y007025D01*
X010102Y007025D01*
X010402Y007025D02*
X010402Y007425D01*
X010202Y007625D01*
X009602Y007625D01*
X007302Y007125D02*
X007302Y006825D01*
X007302Y007125D02*
X007102Y007325D01*
X004002Y005325D02*
X003702Y005225D01*
X003458Y004881D01*
X002924Y004881D01*
X002924Y004625D02*
X003902Y004625D01*
X004002Y004725D01*
X003602Y004125D02*
X003258Y004369D01*
X002924Y004369D01*
X002924Y004113D02*
X003114Y004113D01*
X003302Y003925D01*
X003602Y004125D02*
X004002Y004125D01*
X001802Y003050D02*
X001277Y003050D01*
X001202Y003125D01*
X001202Y006025D01*
X001302Y006125D01*
X001727Y006125D01*
D33*
X001802Y006200D01*
X002902Y006325D02*
X002902Y008225D01*
X002509Y008225D01*
X002502Y008231D01*
X002902Y008225D02*
X003853Y008225D01*
X003859Y008231D01*
X003865Y008225D01*
X004602Y008225D01*
X004852Y008475D01*
X005002Y008475D01*
X005252Y008175D02*
X005252Y006825D01*
X005252Y006375D01*
X005202Y006325D01*
X005702Y006325D01*
X005802Y006225D01*
X005802Y005675D01*
X005102Y005825D02*
X005102Y006325D01*
X005202Y006325D01*
X005102Y006325D02*
X004202Y006325D01*
X003802Y005925D01*
X003002Y005925D01*
X002924Y005847D01*
X002924Y005225D01*
X003302Y003925D02*
X003302Y003425D01*
X002902Y003425D01*
X002027Y002825D02*
X001802Y003050D01*
X001927Y002925D01*
X004002Y002925D01*
X004602Y002925D01*
X005202Y002925D02*
X006502Y002925D01*
X006702Y003025D01*
X006802Y003125D01*
X006802Y003825D01*
X006864Y003887D01*
X007202Y003887D01*
X007176Y003913D01*
X007202Y003887D02*
X007202Y003725D01*
X007302Y003625D01*
X008102Y003625D01*
X008202Y003725D01*
X008202Y004825D01*
X008402Y005025D01*
X008402Y005425D01*
X008302Y005525D01*
X008302Y005725D01*
X008222Y005805D01*
X008222Y005825D01*
X007902Y005825D02*
X007902Y006425D01*
X008402Y006925D01*
X008402Y007025D01*
X009002Y007025D01*
X009102Y006925D01*
X009102Y006125D01*
X007902Y005825D02*
X007902Y005225D01*
X007582Y005705D02*
X007402Y005525D01*
X007202Y005525D01*
X007176Y005551D01*
X007102Y005625D01*
X006451Y005625D01*
X006602Y005674D01*
X006428Y005600D01*
X006428Y004937D01*
X006416Y005125D01*
X005802Y005125D01*
X005802Y004525D02*
X005902Y004425D01*
X006802Y004425D01*
X007402Y004425D01*
X007702Y004125D01*
X007802Y004125D01*
X006802Y004425D02*
X006802Y004937D01*
X007176Y004937D02*
X007176Y005551D01*
X007582Y005705D02*
X007582Y005825D01*
X009102Y005125D02*
X009102Y004725D01*
X009002Y004625D01*
X008802Y004625D01*
X010502Y004525D02*
X010502Y004025D01*
X010502Y004525D02*
X010602Y004625D01*
X011002Y004625D01*
X009502Y007025D02*
X009002Y007025D01*
X009002Y007625D02*
X008402Y007625D01*
X007802Y007025D01*
X007802Y007625D02*
X007588Y007625D01*
X007276Y007913D01*
X006902Y007625D02*
X006902Y008475D01*
X007652Y008475D01*
X007802Y008425D01*
X007802Y008225D01*
X006902Y007625D02*
X007102Y007325D01*
X006528Y007399D02*
X006502Y007325D01*
X006528Y007399D02*
X006528Y007913D01*
X004602Y007625D02*
X004602Y008225D01*
X003859Y009019D02*
X002502Y009019D01*
X002802Y009725D02*
X003402Y009725D01*
X003602Y009525D01*
X004202Y009525D01*
X004002Y007025D02*
X004602Y007025D01*
X005802Y004525D02*
X005802Y003925D01*
X005602Y003825D01*
X005302Y003525D01*
X005202Y003525D01*
X004602Y003525D01*
X004002Y003525D01*
X005802Y003325D02*
X006402Y003325D01*
X006428Y003351D01*
X006428Y003913D01*
X014902Y001925D02*
X014902Y001525D01*
X015002Y001425D01*
X015802Y001425D01*
X016002Y001225D01*
X016002Y000777D01*
D34*
X014002Y002525D03*
X013302Y003225D03*
X013702Y003625D03*
X014502Y003625D03*
X015002Y003225D03*
X015202Y003925D03*
X014502Y004625D03*
X014002Y004625D03*
X013602Y005025D03*
X013002Y004925D03*
X012202Y005825D03*
X011802Y005525D03*
X011002Y004625D03*
X011102Y003525D03*
X011102Y002925D03*
X012402Y002825D03*
X012902Y002625D03*
X012402Y002325D03*
X012802Y003725D03*
X014902Y005125D03*
X016102Y005125D03*
X016102Y005625D03*
X014902Y007125D03*
X016002Y007225D03*
X016002Y008225D03*
X014902Y008825D03*
X014102Y009025D03*
X011802Y007125D03*
X012102Y006825D03*
X012602Y006825D03*
X013002Y006625D03*
X013502Y006425D03*
X013202Y005925D03*
X009002Y007025D03*
X007302Y006825D03*
X006602Y006225D03*
X005252Y006825D03*
X004002Y007025D03*
X002902Y006325D03*
X005102Y005825D03*
X005102Y005325D03*
X005102Y004725D03*
X005102Y004125D03*
X006702Y003025D03*
X007802Y002825D03*
X008202Y003725D03*
X007402Y004425D03*
X007902Y005225D03*
X008802Y004625D03*
X003302Y003425D03*
X002902Y003425D03*
X004002Y000725D03*
X005102Y009019D03*
X004202Y009525D03*
X003802Y010025D03*
X002802Y009725D03*
X011002Y009825D03*
X013902Y011625D03*
X014902Y012025D03*
X016002Y011125D03*
X017302Y010625D03*
X018102Y010625D03*
D35*
X006902Y008937D02*
X006902Y008475D01*
X005002Y008475D01*
X005252Y008175D02*
X006202Y008175D01*
X006514Y007913D01*
X006528Y007913D01*
D36*
X005802Y007675D02*
X005802Y006975D01*
X005801Y006776D01*
X006602Y006776D01*
X006602Y006225D02*
X006602Y005674D01*
X007802Y008225D02*
X008402Y008225D01*
X009002Y008225D01*
X009602Y008225D01*
X010202Y008225D01*
X010802Y008225D01*
X014302Y008225D02*
X014902Y008225D01*
X014902Y008825D01*
X015502Y008225D02*
X016002Y008225D01*
X015502Y007625D02*
X015302Y007625D01*
X015202Y007625D01*
X014902Y007625D01*
X014302Y007625D01*
X016702Y010025D02*
X016802Y009925D01*
X016702Y010025D02*
X015902Y010025D01*
X016002Y011125D02*
X015602Y011525D01*
X014702Y011525D01*
X014602Y011625D01*
X013902Y011625D01*
X006528Y008937D02*
X006528Y008899D01*
X006302Y009025D01*
X005852Y009025D01*
X005802Y008975D01*
X005559Y009019D01*
X005102Y009019D01*
X003859Y009019D01*
D37*
X010802Y007625D02*
X010802Y007225D01*
X010870Y007157D01*
X010870Y007108D01*
X010870Y006911D02*
X011388Y006911D01*
X011402Y006925D01*
X012102Y006825D02*
X012402Y007225D01*
X013502Y007225D01*
X013685Y007408D01*
X013685Y007757D01*
X011402Y006325D02*
X011397Y006320D01*
X010870Y006320D01*
X011520Y004293D02*
X011520Y004042D01*
X011502Y004025D01*
X011102Y004025D01*
X016102Y007625D02*
X016302Y007425D01*
X017402Y007425D01*
X017802Y007825D01*
X017802Y007925D01*
X017602Y008125D01*
X017602Y008225D01*
X017402Y008425D01*
X016402Y008425D01*
X016202Y008225D01*
X016002Y008225D01*
X016102Y008125D01*
X016102Y007625D01*
D38*
X007902Y005225D02*
X007862Y005115D01*
X007862Y004765D01*
X007802Y004725D01*
X002962Y005115D02*
X002924Y005225D01*
X002924Y005137D02*
X002962Y005115D01*
M02*
