G75*
%MOIN*%
%OFA0B0*%
%FSLAX24Y24*%
%IPPOS*%
%LPD*%
%AMOC8*
5,1,8,0,0,1.08239X$1,22.5*
%
%ADD10C,0.0060*%
%ADD11C,0.0000*%
D10*
X001002Y001125D02*
X001002Y011725D01*
X001004Y011775D01*
X001009Y011825D01*
X001018Y011874D01*
X001030Y011922D01*
X001046Y011970D01*
X001065Y012016D01*
X001088Y012060D01*
X001113Y012103D01*
X001142Y012144D01*
X001173Y012183D01*
X001207Y012220D01*
X001244Y012254D01*
X001283Y012285D01*
X001324Y012314D01*
X001367Y012339D01*
X001411Y012362D01*
X001457Y012381D01*
X001505Y012397D01*
X001553Y012409D01*
X001602Y012418D01*
X001652Y012423D01*
X001702Y012425D01*
X018502Y012425D01*
X018502Y001125D01*
X018500Y001075D01*
X018495Y001025D01*
X018486Y000976D01*
X018474Y000928D01*
X018458Y000880D01*
X018439Y000834D01*
X018416Y000790D01*
X018391Y000747D01*
X018362Y000706D01*
X018331Y000667D01*
X018297Y000630D01*
X018260Y000596D01*
X018221Y000565D01*
X018180Y000536D01*
X018137Y000511D01*
X018093Y000488D01*
X018047Y000469D01*
X017999Y000453D01*
X017951Y000441D01*
X017902Y000432D01*
X017852Y000427D01*
X017802Y000425D01*
X001702Y000425D01*
X001652Y000427D01*
X001602Y000432D01*
X001553Y000441D01*
X001505Y000453D01*
X001457Y000469D01*
X001411Y000488D01*
X001367Y000511D01*
X001324Y000536D01*
X001283Y000565D01*
X001244Y000596D01*
X001207Y000630D01*
X001173Y000667D01*
X001142Y000706D01*
X001113Y000747D01*
X001088Y000790D01*
X001065Y000834D01*
X001046Y000880D01*
X001030Y000928D01*
X001018Y000976D01*
X001009Y001025D01*
X001004Y001075D01*
X001002Y001125D01*
D11*
X001358Y001175D02*
X001360Y001214D01*
X001366Y001253D01*
X001376Y001291D01*
X001389Y001328D01*
X001406Y001363D01*
X001426Y001397D01*
X001450Y001428D01*
X001477Y001457D01*
X001506Y001483D01*
X001538Y001506D01*
X001572Y001526D01*
X001608Y001542D01*
X001645Y001554D01*
X001684Y001563D01*
X001723Y001568D01*
X001762Y001569D01*
X001801Y001566D01*
X001840Y001559D01*
X001877Y001548D01*
X001914Y001534D01*
X001949Y001516D01*
X001982Y001495D01*
X002013Y001470D01*
X002041Y001443D01*
X002066Y001413D01*
X002088Y001380D01*
X002107Y001346D01*
X002122Y001310D01*
X002134Y001272D01*
X002142Y001234D01*
X002146Y001195D01*
X002146Y001155D01*
X002142Y001116D01*
X002134Y001078D01*
X002122Y001040D01*
X002107Y001004D01*
X002088Y000970D01*
X002066Y000937D01*
X002041Y000907D01*
X002013Y000880D01*
X001982Y000855D01*
X001949Y000834D01*
X001914Y000816D01*
X001877Y000802D01*
X001840Y000791D01*
X001801Y000784D01*
X001762Y000781D01*
X001723Y000782D01*
X001684Y000787D01*
X001645Y000796D01*
X001608Y000808D01*
X001572Y000824D01*
X001538Y000844D01*
X001506Y000867D01*
X001477Y000893D01*
X001450Y000922D01*
X001426Y000953D01*
X001406Y000987D01*
X001389Y001022D01*
X001376Y001059D01*
X001366Y001097D01*
X001360Y001136D01*
X001358Y001175D01*
X001358Y011675D02*
X001360Y011714D01*
X001366Y011753D01*
X001376Y011791D01*
X001389Y011828D01*
X001406Y011863D01*
X001426Y011897D01*
X001450Y011928D01*
X001477Y011957D01*
X001506Y011983D01*
X001538Y012006D01*
X001572Y012026D01*
X001608Y012042D01*
X001645Y012054D01*
X001684Y012063D01*
X001723Y012068D01*
X001762Y012069D01*
X001801Y012066D01*
X001840Y012059D01*
X001877Y012048D01*
X001914Y012034D01*
X001949Y012016D01*
X001982Y011995D01*
X002013Y011970D01*
X002041Y011943D01*
X002066Y011913D01*
X002088Y011880D01*
X002107Y011846D01*
X002122Y011810D01*
X002134Y011772D01*
X002142Y011734D01*
X002146Y011695D01*
X002146Y011655D01*
X002142Y011616D01*
X002134Y011578D01*
X002122Y011540D01*
X002107Y011504D01*
X002088Y011470D01*
X002066Y011437D01*
X002041Y011407D01*
X002013Y011380D01*
X001982Y011355D01*
X001949Y011334D01*
X001914Y011316D01*
X001877Y011302D01*
X001840Y011291D01*
X001801Y011284D01*
X001762Y011281D01*
X001723Y011282D01*
X001684Y011287D01*
X001645Y011296D01*
X001608Y011308D01*
X001572Y011324D01*
X001538Y011344D01*
X001506Y011367D01*
X001477Y011393D01*
X001450Y011422D01*
X001426Y011453D01*
X001406Y011487D01*
X001389Y011522D01*
X001376Y011559D01*
X001366Y011597D01*
X001360Y011636D01*
X001358Y011675D01*
X017358Y011675D02*
X017360Y011714D01*
X017366Y011753D01*
X017376Y011791D01*
X017389Y011828D01*
X017406Y011863D01*
X017426Y011897D01*
X017450Y011928D01*
X017477Y011957D01*
X017506Y011983D01*
X017538Y012006D01*
X017572Y012026D01*
X017608Y012042D01*
X017645Y012054D01*
X017684Y012063D01*
X017723Y012068D01*
X017762Y012069D01*
X017801Y012066D01*
X017840Y012059D01*
X017877Y012048D01*
X017914Y012034D01*
X017949Y012016D01*
X017982Y011995D01*
X018013Y011970D01*
X018041Y011943D01*
X018066Y011913D01*
X018088Y011880D01*
X018107Y011846D01*
X018122Y011810D01*
X018134Y011772D01*
X018142Y011734D01*
X018146Y011695D01*
X018146Y011655D01*
X018142Y011616D01*
X018134Y011578D01*
X018122Y011540D01*
X018107Y011504D01*
X018088Y011470D01*
X018066Y011437D01*
X018041Y011407D01*
X018013Y011380D01*
X017982Y011355D01*
X017949Y011334D01*
X017914Y011316D01*
X017877Y011302D01*
X017840Y011291D01*
X017801Y011284D01*
X017762Y011281D01*
X017723Y011282D01*
X017684Y011287D01*
X017645Y011296D01*
X017608Y011308D01*
X017572Y011324D01*
X017538Y011344D01*
X017506Y011367D01*
X017477Y011393D01*
X017450Y011422D01*
X017426Y011453D01*
X017406Y011487D01*
X017389Y011522D01*
X017376Y011559D01*
X017366Y011597D01*
X017360Y011636D01*
X017358Y011675D01*
X017358Y001175D02*
X017360Y001214D01*
X017366Y001253D01*
X017376Y001291D01*
X017389Y001328D01*
X017406Y001363D01*
X017426Y001397D01*
X017450Y001428D01*
X017477Y001457D01*
X017506Y001483D01*
X017538Y001506D01*
X017572Y001526D01*
X017608Y001542D01*
X017645Y001554D01*
X017684Y001563D01*
X017723Y001568D01*
X017762Y001569D01*
X017801Y001566D01*
X017840Y001559D01*
X017877Y001548D01*
X017914Y001534D01*
X017949Y001516D01*
X017982Y001495D01*
X018013Y001470D01*
X018041Y001443D01*
X018066Y001413D01*
X018088Y001380D01*
X018107Y001346D01*
X018122Y001310D01*
X018134Y001272D01*
X018142Y001234D01*
X018146Y001195D01*
X018146Y001155D01*
X018142Y001116D01*
X018134Y001078D01*
X018122Y001040D01*
X018107Y001004D01*
X018088Y000970D01*
X018066Y000937D01*
X018041Y000907D01*
X018013Y000880D01*
X017982Y000855D01*
X017949Y000834D01*
X017914Y000816D01*
X017877Y000802D01*
X017840Y000791D01*
X017801Y000784D01*
X017762Y000781D01*
X017723Y000782D01*
X017684Y000787D01*
X017645Y000796D01*
X017608Y000808D01*
X017572Y000824D01*
X017538Y000844D01*
X017506Y000867D01*
X017477Y000893D01*
X017450Y000922D01*
X017426Y000953D01*
X017406Y000987D01*
X017389Y001022D01*
X017376Y001059D01*
X017366Y001097D01*
X017360Y001136D01*
X017358Y001175D01*
M02*
