G75*
%MOIN*%
%OFA0B0*%
%FSLAX24Y24*%
%IPPOS*%
%LPD*%
%AMOC8*
5,1,8,0,0,1.08239X$1,22.5*
%
%ADD10C,0.0050*%
%ADD11C,0.0040*%
%ADD12C,0.0060*%
%ADD13C,0.0080*%
%ADD14C,0.0100*%
%ADD15C,0.0030*%
%ADD16C,0.0079*%
%ADD17C,0.0100*%
%ADD18C,0.0000*%
D10*
X002377Y000675D02*
X002377Y001175D01*
X003427Y001175D01*
X003427Y000675D01*
X002377Y000675D01*
X002852Y000775D02*
X002852Y001075D01*
X002902Y001000D01*
X002902Y000850D01*
X002952Y000925D01*
X002902Y001000D01*
X002877Y001025D02*
X002877Y000825D01*
X002902Y000850D02*
X002852Y000775D01*
X003252Y001675D02*
X002152Y001675D01*
X002152Y002175D01*
X003252Y002175D01*
X003252Y001675D01*
X001997Y002245D02*
X001952Y002200D01*
X001817Y002200D01*
X001817Y002470D01*
X001952Y002470D01*
X001997Y002425D01*
X001997Y002380D01*
X001952Y002335D01*
X001817Y002335D01*
X001702Y002290D02*
X001702Y002245D01*
X001657Y002200D01*
X001567Y002200D01*
X001522Y002245D01*
X001567Y002335D02*
X001657Y002335D01*
X001702Y002290D01*
X001567Y002335D02*
X001522Y002380D01*
X001522Y002425D01*
X001567Y002470D01*
X001657Y002470D01*
X001702Y002425D01*
X001952Y002335D02*
X001997Y002290D01*
X001997Y002245D01*
X001407Y002245D02*
X001407Y002470D01*
X001227Y002470D02*
X001227Y002245D01*
X001272Y002200D01*
X001362Y002200D01*
X001407Y002245D01*
X003752Y002675D02*
X004252Y002675D01*
X004252Y003775D01*
X003752Y003775D01*
X003752Y002675D01*
X004352Y002675D02*
X004852Y002675D01*
X004852Y003775D01*
X004352Y003775D01*
X004352Y002675D01*
X004952Y002675D02*
X004952Y003775D01*
X005452Y003775D01*
X005452Y002675D01*
X004952Y002675D01*
X005552Y003075D02*
X006052Y003075D01*
X006052Y004175D01*
X005552Y004175D01*
X005552Y003075D01*
X004852Y003875D02*
X003752Y003875D01*
X003752Y004375D01*
X004852Y004375D01*
X004852Y003875D01*
X005552Y004275D02*
X005552Y005375D01*
X006052Y005375D01*
X006052Y004275D01*
X005552Y004275D01*
X004852Y004475D02*
X003752Y004475D01*
X003752Y004975D01*
X004852Y004975D01*
X004852Y004475D01*
X004852Y005075D02*
X003752Y005075D01*
X003752Y005575D01*
X004852Y005575D01*
X004852Y005075D01*
X005452Y005875D02*
X005452Y006775D01*
X005802Y006475D02*
X006002Y006175D01*
X005602Y006225D01*
X005802Y006425D01*
X005952Y006175D01*
X005652Y006225D01*
X005802Y006375D01*
X005902Y006225D01*
X005852Y006225D01*
X005752Y006275D01*
X005802Y006275D01*
X005752Y006275D02*
X005802Y006325D01*
X005852Y006225D01*
X005702Y006225D01*
X005752Y006275D01*
X005802Y006475D02*
X005552Y006175D01*
X005952Y006175D01*
X006002Y006175D01*
X006052Y006175D01*
X005802Y006475D01*
X006152Y006775D02*
X006152Y005875D01*
X004852Y006775D02*
X004352Y006775D01*
X004352Y007875D01*
X004852Y007875D01*
X004852Y006775D01*
X005452Y007875D02*
X005452Y008775D01*
X005552Y008475D02*
X005602Y008475D01*
X006002Y008425D01*
X005802Y008225D01*
X005652Y008475D01*
X005952Y008425D01*
X005802Y008275D01*
X005702Y008425D01*
X005752Y008425D01*
X005852Y008375D01*
X005802Y008375D01*
X005802Y008325D02*
X005752Y008425D01*
X005902Y008425D01*
X005852Y008375D01*
X005802Y008325D01*
X005802Y008175D02*
X005602Y008475D01*
X005652Y008475D01*
X006052Y008475D01*
X005802Y008175D01*
X005552Y008475D01*
X006152Y008775D02*
X006152Y007875D01*
X006252Y007575D02*
X006252Y007075D01*
X007352Y007075D01*
X007352Y007575D01*
X006252Y007575D01*
X007552Y007375D02*
X007552Y008475D01*
X008052Y008475D01*
X008052Y007375D01*
X007552Y007375D01*
X007552Y007275D02*
X008652Y007275D01*
X008652Y006775D01*
X007552Y006775D01*
X007552Y007275D01*
X008152Y007375D02*
X008652Y007375D01*
X008652Y008475D01*
X008152Y008475D01*
X008152Y007375D01*
X008752Y007375D02*
X009252Y007375D01*
X009252Y008475D01*
X008752Y008475D01*
X008752Y007375D01*
X009252Y007275D02*
X009252Y006775D01*
X010352Y006775D01*
X010352Y007275D01*
X009252Y007275D01*
X009352Y007375D02*
X009852Y007375D01*
X009852Y008475D01*
X009352Y008475D01*
X009352Y007375D01*
X009952Y007375D02*
X010452Y007375D01*
X010452Y008475D01*
X009952Y008475D01*
X009952Y007375D01*
X010552Y007375D02*
X011052Y007375D01*
X011052Y008475D01*
X010552Y008475D01*
X010552Y007375D01*
X009427Y006450D02*
X008777Y006450D01*
X008777Y004800D01*
X009427Y004800D01*
X009427Y006450D01*
X009102Y005800D02*
X009102Y005600D01*
X009002Y005700D02*
X009202Y005700D01*
X008052Y004975D02*
X008052Y003875D01*
X007552Y003875D01*
X007552Y004975D01*
X008052Y004975D01*
X010238Y004695D02*
X010238Y004470D01*
X010283Y004425D01*
X010373Y004425D01*
X010418Y004470D01*
X010418Y004695D01*
X010533Y004650D02*
X010578Y004695D01*
X010668Y004695D01*
X010713Y004650D01*
X010713Y004605D01*
X010668Y004560D01*
X010713Y004515D01*
X010713Y004470D01*
X010668Y004425D01*
X010578Y004425D01*
X010533Y004470D01*
X010623Y004560D02*
X010668Y004560D01*
X010252Y004275D02*
X011352Y004275D01*
X011352Y003775D01*
X010252Y003775D01*
X010252Y004275D01*
X013727Y001290D02*
X013772Y001336D01*
X013817Y001336D01*
X013862Y001290D01*
X013907Y001336D01*
X013952Y001336D01*
X013997Y001290D01*
X013997Y001200D01*
X013952Y001155D01*
X013907Y001041D02*
X013727Y001041D01*
X013772Y001155D02*
X013727Y001200D01*
X013727Y001290D01*
X013862Y001290D02*
X013862Y001245D01*
X013907Y001041D02*
X013997Y000951D01*
X013907Y000861D01*
X013727Y000861D01*
X013772Y000746D02*
X013817Y000746D01*
X013862Y000701D01*
X013907Y000746D01*
X013952Y000746D01*
X013997Y000701D01*
X013997Y000611D01*
X013952Y000566D01*
X013862Y000656D02*
X013862Y000701D01*
X013772Y000746D02*
X013727Y000701D01*
X013727Y000611D01*
X013772Y000566D01*
X014727Y000611D02*
X014772Y000566D01*
X014952Y000566D01*
X014997Y000611D01*
X014997Y000701D01*
X014952Y000746D01*
X014862Y000746D01*
X014862Y000656D01*
X014772Y000746D02*
X014727Y000701D01*
X014727Y000611D01*
X014727Y000861D02*
X014997Y001041D01*
X014727Y001041D01*
X014727Y001155D02*
X014727Y001290D01*
X014772Y001336D01*
X014952Y001336D01*
X014997Y001290D01*
X014997Y001155D01*
X014727Y001155D01*
X014727Y000861D02*
X014997Y000861D01*
X015510Y000934D02*
X015510Y002116D01*
X015530Y002116D02*
X015609Y002116D01*
X016494Y002116D02*
X016494Y000934D01*
X016475Y000934D02*
X016396Y000934D01*
X015609Y000934D02*
X015530Y000934D01*
X015752Y007375D02*
X015252Y007375D01*
X015252Y008475D01*
X015752Y008475D01*
X015752Y007375D01*
X015152Y007375D02*
X014652Y007375D01*
X014652Y008475D01*
X015152Y008475D01*
X015152Y007375D01*
X014552Y007375D02*
X014052Y007375D01*
X014052Y008475D01*
X014552Y008475D01*
X014552Y007375D01*
X014852Y009275D02*
X013752Y009275D01*
X013752Y009775D01*
X014852Y009775D01*
X014852Y009275D01*
X015052Y009275D02*
X015052Y010375D01*
X015552Y010375D01*
X015552Y009275D01*
X015052Y009275D01*
X015652Y009175D02*
X016152Y009175D01*
X016152Y010275D01*
X015652Y010275D01*
X015652Y009175D01*
X014852Y009875D02*
X013752Y009875D01*
X013752Y010375D01*
X014852Y010375D01*
X014852Y009875D01*
X015510Y010734D02*
X015510Y011916D01*
X015530Y011916D02*
X015609Y011916D01*
X014897Y011941D02*
X014627Y011941D01*
X014627Y012055D02*
X014627Y012190D01*
X014672Y012236D01*
X014852Y012236D01*
X014897Y012190D01*
X014897Y012055D01*
X014627Y012055D01*
X014897Y011941D02*
X014627Y011761D01*
X014897Y011761D01*
X014852Y011646D02*
X014762Y011646D01*
X014762Y011556D01*
X014672Y011466D02*
X014852Y011466D01*
X014897Y011511D01*
X014897Y011601D01*
X014852Y011646D01*
X014672Y011646D02*
X014627Y011601D01*
X014627Y011511D01*
X014672Y011466D01*
X013997Y011611D02*
X013952Y011566D01*
X013997Y011611D02*
X013997Y011701D01*
X013952Y011746D01*
X013862Y011746D01*
X013817Y011701D01*
X013817Y011656D01*
X013862Y011566D01*
X013727Y011566D01*
X013727Y011746D01*
X013727Y011861D02*
X013907Y011861D01*
X013997Y011951D01*
X013907Y012041D01*
X013727Y012041D01*
X013772Y012155D02*
X013727Y012200D01*
X013727Y012290D01*
X013772Y012336D01*
X013952Y012155D01*
X013997Y012200D01*
X013997Y012290D01*
X013952Y012336D01*
X013772Y012336D01*
X013772Y012155D02*
X013952Y012155D01*
X016396Y011916D02*
X016475Y011916D01*
X016494Y011916D02*
X016494Y010734D01*
X016475Y010734D02*
X016396Y010734D01*
X003427Y011675D02*
X002377Y011675D01*
X002377Y012175D01*
X003427Y012175D01*
X003427Y011675D01*
X002952Y011925D02*
X002902Y012000D01*
X002902Y011850D01*
X002952Y011925D01*
X002902Y011850D02*
X002852Y011775D01*
X002852Y012075D01*
X002902Y012000D01*
X002877Y012025D02*
X002877Y011825D01*
X003252Y011175D02*
X002152Y011175D01*
X002152Y010675D01*
X003252Y010675D01*
X003252Y011175D01*
D11*
X003169Y011295D02*
X003035Y011295D01*
X003169Y011428D01*
X003169Y011462D01*
X003135Y011495D01*
X003069Y011495D01*
X003035Y011462D01*
X002948Y011462D02*
X002948Y011328D01*
X002914Y011295D01*
X002814Y011295D01*
X002814Y011495D01*
X002914Y011495D01*
X002948Y011462D01*
X002727Y011495D02*
X002593Y011495D01*
X002593Y011295D01*
X002727Y011295D01*
X002660Y011395D02*
X002593Y011395D01*
X002506Y011295D02*
X002372Y011295D01*
X002372Y011495D01*
X002285Y012145D02*
X002219Y012145D01*
X002185Y012178D01*
X002185Y012312D01*
X002219Y012345D01*
X002285Y012345D01*
X002319Y012312D01*
X002319Y012245D02*
X002252Y012245D01*
X002319Y012245D02*
X002319Y012178D01*
X002285Y012145D01*
X002098Y012145D02*
X002031Y012212D01*
X002064Y012212D02*
X001964Y012212D01*
X001964Y012145D02*
X001964Y012345D01*
X002064Y012345D01*
X002098Y012312D01*
X002098Y012245D01*
X002064Y012212D01*
X001877Y012245D02*
X001743Y012245D01*
X001743Y012145D02*
X001743Y012345D01*
X001656Y012312D02*
X001622Y012345D01*
X001556Y012345D01*
X001522Y012312D01*
X001522Y012178D01*
X001556Y012145D01*
X001622Y012145D01*
X001656Y012178D01*
X001877Y012145D02*
X001877Y012345D01*
X003822Y012257D02*
X003822Y012124D01*
X003822Y012257D02*
X003855Y012257D01*
X003989Y012124D01*
X004022Y012124D01*
X004056Y012036D02*
X004056Y011903D01*
X003989Y011815D02*
X003855Y011815D01*
X003989Y011682D01*
X004022Y011715D01*
X004022Y011782D01*
X003989Y011815D01*
X003989Y011682D02*
X003855Y011682D01*
X003822Y011715D01*
X003822Y011782D01*
X003855Y011815D01*
X003855Y011594D02*
X003922Y011594D01*
X003955Y011561D01*
X003955Y011461D01*
X004022Y011461D02*
X003822Y011461D01*
X003822Y011561D01*
X003855Y011594D01*
X004202Y011525D02*
X004202Y011893D01*
X004282Y011833D02*
X004282Y011766D01*
X004282Y011799D02*
X004482Y011799D01*
X004482Y011766D02*
X004482Y011833D01*
X004482Y011678D02*
X004415Y011612D01*
X004415Y011645D02*
X004415Y011545D01*
X004482Y011545D02*
X004282Y011545D01*
X004282Y011645D01*
X004315Y011678D01*
X004382Y011678D01*
X004415Y011645D01*
X004822Y011715D02*
X004855Y011682D01*
X004989Y011682D01*
X004855Y011815D01*
X004989Y011815D01*
X005022Y011782D01*
X005022Y011715D01*
X004989Y011682D01*
X004922Y011594D02*
X004955Y011561D01*
X004955Y011461D01*
X005022Y011461D02*
X004822Y011461D01*
X004822Y011561D01*
X004855Y011594D01*
X004922Y011594D01*
X004822Y011715D02*
X004822Y011782D01*
X004855Y011815D01*
X005056Y011903D02*
X005056Y012036D01*
X004989Y012124D02*
X005022Y012157D01*
X005022Y012224D01*
X004989Y012257D01*
X004955Y012257D01*
X004922Y012224D01*
X004922Y012124D01*
X004989Y012124D01*
X004922Y012124D02*
X004855Y012191D01*
X004822Y012257D01*
X005202Y012188D02*
X005202Y011525D01*
X005282Y011545D02*
X005282Y011645D01*
X005315Y011678D01*
X005449Y011678D01*
X005482Y011645D01*
X005482Y011545D01*
X005282Y011545D01*
X005315Y011766D02*
X005449Y011766D01*
X005482Y011799D01*
X005482Y011866D01*
X005449Y011899D01*
X005482Y011987D02*
X005282Y011987D01*
X005282Y012087D01*
X005315Y012120D01*
X005449Y012120D01*
X005482Y012087D01*
X005482Y011987D01*
X005315Y011899D02*
X005282Y011866D01*
X005282Y011799D01*
X005315Y011766D01*
X005822Y011782D02*
X005855Y011815D01*
X005989Y011682D01*
X006022Y011715D01*
X006022Y011782D01*
X005989Y011815D01*
X005855Y011815D01*
X005822Y011782D02*
X005822Y011715D01*
X005855Y011682D01*
X005989Y011682D01*
X005922Y011594D02*
X005955Y011561D01*
X005955Y011461D01*
X006022Y011461D02*
X005822Y011461D01*
X005822Y011561D01*
X005855Y011594D01*
X005922Y011594D01*
X006202Y011525D02*
X006202Y012188D01*
X006282Y012087D02*
X006315Y012120D01*
X006382Y012120D01*
X006415Y012087D01*
X006415Y011987D01*
X006415Y012054D02*
X006482Y012120D01*
X006482Y011987D02*
X006282Y011987D01*
X006282Y012087D01*
X006315Y011899D02*
X006282Y011866D01*
X006282Y011799D01*
X006315Y011766D01*
X006349Y011766D01*
X006382Y011799D01*
X006382Y011866D01*
X006415Y011899D01*
X006449Y011899D01*
X006482Y011866D01*
X006482Y011799D01*
X006449Y011766D01*
X006449Y011678D02*
X006315Y011678D01*
X006282Y011645D01*
X006282Y011545D01*
X006482Y011545D01*
X006482Y011645D01*
X006449Y011678D01*
X006822Y011715D02*
X006855Y011682D01*
X006989Y011682D01*
X006855Y011815D01*
X006989Y011815D01*
X007022Y011782D01*
X007022Y011715D01*
X006989Y011682D01*
X006922Y011594D02*
X006955Y011561D01*
X006955Y011461D01*
X007022Y011461D02*
X006822Y011461D01*
X006822Y011561D01*
X006855Y011594D01*
X006922Y011594D01*
X006822Y011715D02*
X006822Y011782D01*
X006855Y011815D01*
X007056Y011903D02*
X007056Y012036D01*
X006922Y012124D02*
X006922Y012257D01*
X006822Y012224D02*
X006922Y012124D01*
X007022Y012224D02*
X006822Y012224D01*
X007202Y012188D02*
X007202Y011525D01*
X007282Y011545D02*
X007282Y011645D01*
X007315Y011678D01*
X007449Y011678D01*
X007482Y011645D01*
X007482Y011545D01*
X007282Y011545D01*
X007282Y011766D02*
X007282Y011899D01*
X007282Y011833D02*
X007482Y011833D01*
X007482Y011987D02*
X007282Y011987D01*
X007282Y012087D01*
X007315Y012120D01*
X007382Y012120D01*
X007415Y012087D01*
X007415Y011987D01*
X007415Y012054D02*
X007482Y012120D01*
X007822Y012157D02*
X007822Y012224D01*
X007855Y012257D01*
X007889Y012257D01*
X007922Y012224D01*
X007955Y012257D01*
X007989Y012257D01*
X008022Y012224D01*
X008022Y012157D01*
X007989Y012124D01*
X007922Y012191D02*
X007922Y012224D01*
X007855Y012124D02*
X007822Y012157D01*
X008056Y012036D02*
X008056Y011903D01*
X007989Y011815D02*
X007855Y011815D01*
X007989Y011682D01*
X008022Y011715D01*
X008022Y011782D01*
X007989Y011815D01*
X007989Y011682D02*
X007855Y011682D01*
X007822Y011715D01*
X007822Y011782D01*
X007855Y011815D01*
X007855Y011594D02*
X007922Y011594D01*
X007955Y011561D01*
X007955Y011461D01*
X008022Y011461D02*
X007822Y011461D01*
X007822Y011561D01*
X007855Y011594D01*
X008202Y011525D02*
X008202Y012188D01*
X008282Y012087D02*
X008282Y012020D01*
X008315Y011987D01*
X008349Y011987D01*
X008382Y012020D01*
X008382Y012087D01*
X008415Y012120D01*
X008449Y012120D01*
X008482Y012087D01*
X008482Y012020D01*
X008449Y011987D01*
X008282Y011899D02*
X008282Y011766D01*
X008282Y011833D02*
X008482Y011833D01*
X008482Y011678D02*
X008415Y011612D01*
X008415Y011645D02*
X008415Y011545D01*
X008482Y011545D02*
X008282Y011545D01*
X008282Y011645D01*
X008315Y011678D01*
X008382Y011678D01*
X008415Y011645D01*
X008822Y011715D02*
X008855Y011682D01*
X008989Y011682D01*
X008855Y011815D01*
X008989Y011815D01*
X009022Y011782D01*
X009022Y011715D01*
X008989Y011682D01*
X008922Y011594D02*
X008955Y011561D01*
X008955Y011461D01*
X009022Y011461D02*
X008822Y011461D01*
X008822Y011561D01*
X008855Y011594D01*
X008922Y011594D01*
X008822Y011715D02*
X008822Y011782D01*
X008855Y011815D01*
X009056Y011903D02*
X009056Y012036D01*
X009022Y012124D02*
X008889Y012257D01*
X008855Y012257D01*
X008822Y012224D01*
X008822Y012157D01*
X008855Y012124D01*
X009022Y012124D02*
X009022Y012257D01*
X009202Y012188D02*
X009202Y011525D01*
X009282Y011578D02*
X009315Y011545D01*
X009449Y011545D01*
X009482Y011578D01*
X009482Y011645D01*
X009449Y011678D01*
X009315Y011678D02*
X009282Y011645D01*
X009282Y011578D01*
X009282Y011766D02*
X009282Y011899D01*
X009282Y011833D02*
X009482Y011833D01*
X009449Y011987D02*
X009482Y012020D01*
X009482Y012087D01*
X009449Y012120D01*
X009415Y012120D01*
X009382Y012087D01*
X009382Y012020D01*
X009349Y011987D01*
X009315Y011987D01*
X009282Y012020D01*
X009282Y012087D01*
X009315Y012120D01*
X009822Y012157D02*
X009822Y012224D01*
X009855Y012257D01*
X009989Y012124D01*
X010022Y012157D01*
X010022Y012224D01*
X009989Y012257D01*
X009855Y012257D01*
X009822Y012157D02*
X009855Y012124D01*
X009989Y012124D01*
X010056Y012036D02*
X010056Y011903D01*
X009989Y011815D02*
X009855Y011815D01*
X009989Y011682D01*
X010022Y011715D01*
X010022Y011782D01*
X009989Y011815D01*
X009989Y011682D02*
X009855Y011682D01*
X009822Y011715D01*
X009822Y011782D01*
X009855Y011815D01*
X009855Y011594D02*
X009922Y011594D01*
X009955Y011561D01*
X009955Y011461D01*
X010022Y011461D02*
X009822Y011461D01*
X009822Y011561D01*
X009855Y011594D01*
X010182Y011545D02*
X010182Y011645D01*
X010215Y011678D01*
X010282Y011678D01*
X010315Y011645D01*
X010315Y011545D01*
X010315Y011612D02*
X010382Y011678D01*
X010382Y011766D02*
X010182Y011899D01*
X010182Y011987D02*
X010182Y012087D01*
X010215Y012120D01*
X010349Y012120D01*
X010382Y012087D01*
X010382Y011987D01*
X010182Y011987D01*
X010382Y011899D02*
X010182Y011766D01*
X010182Y011545D02*
X010382Y011545D01*
X010822Y011561D02*
X010855Y011594D01*
X010922Y011594D01*
X010955Y011561D01*
X010955Y011461D01*
X011022Y011461D02*
X010822Y011461D01*
X010822Y011561D01*
X010855Y011682D02*
X010822Y011715D01*
X010822Y011782D01*
X010855Y011815D01*
X010989Y011682D01*
X011022Y011715D01*
X011022Y011782D01*
X010989Y011815D01*
X010855Y011815D01*
X010855Y011682D02*
X010989Y011682D01*
X011182Y011678D02*
X011182Y011545D01*
X011182Y011612D02*
X011382Y011612D01*
X011382Y011766D02*
X011182Y011899D01*
X011182Y011987D02*
X011182Y012087D01*
X011215Y012120D01*
X011349Y012120D01*
X011382Y012087D01*
X011382Y011987D01*
X011182Y011987D01*
X011056Y012036D02*
X011056Y011903D01*
X011182Y011766D02*
X011382Y011899D01*
X011022Y012124D02*
X011022Y012257D01*
X011022Y012191D02*
X010822Y012191D01*
X010889Y012124D01*
X011822Y012157D02*
X011822Y012224D01*
X011855Y012257D01*
X011989Y012124D01*
X012022Y012157D01*
X012022Y012224D01*
X011989Y012257D01*
X011855Y012257D01*
X011822Y012157D02*
X011855Y012124D01*
X011989Y012124D01*
X012056Y012036D02*
X012056Y011903D01*
X012182Y011866D02*
X012182Y011799D01*
X012215Y011766D01*
X012349Y011766D01*
X012382Y011799D01*
X012382Y011866D01*
X012349Y011899D01*
X012382Y011987D02*
X012182Y011987D01*
X012215Y011899D02*
X012182Y011866D01*
X011989Y011682D02*
X011855Y011815D01*
X011822Y011815D01*
X011822Y011682D01*
X011855Y011594D02*
X011922Y011594D01*
X011955Y011561D01*
X011955Y011461D01*
X012022Y011461D02*
X011822Y011461D01*
X011822Y011561D01*
X011855Y011594D01*
X011989Y011682D02*
X012022Y011682D01*
X012182Y011645D02*
X012182Y011578D01*
X012215Y011545D01*
X012249Y011545D01*
X012282Y011578D01*
X012282Y011645D01*
X012315Y011678D01*
X012349Y011678D01*
X012382Y011645D01*
X012382Y011578D01*
X012349Y011545D01*
X012215Y011678D02*
X012182Y011645D01*
X012382Y011987D02*
X012382Y012120D01*
X012822Y012191D02*
X013022Y012191D01*
X013022Y012257D02*
X013022Y012124D01*
X013056Y012036D02*
X013056Y011903D01*
X013182Y011866D02*
X013182Y011766D01*
X013382Y011766D01*
X013382Y011866D01*
X013349Y011899D01*
X013215Y011899D01*
X013182Y011866D01*
X013249Y011987D02*
X013182Y012054D01*
X013249Y012120D01*
X013382Y012120D01*
X013282Y012120D02*
X013282Y011987D01*
X013249Y011987D02*
X013382Y011987D01*
X013349Y011678D02*
X013382Y011645D01*
X013382Y011578D01*
X013349Y011545D01*
X013282Y011578D02*
X013282Y011645D01*
X013315Y011678D01*
X013349Y011678D01*
X013282Y011578D02*
X013249Y011545D01*
X013215Y011545D01*
X013182Y011578D01*
X013182Y011645D01*
X013215Y011678D01*
X013022Y011682D02*
X012989Y011682D01*
X012855Y011815D01*
X012822Y011815D01*
X012822Y011682D01*
X012855Y011594D02*
X012922Y011594D01*
X012955Y011561D01*
X012955Y011461D01*
X013022Y011461D02*
X012822Y011461D01*
X012822Y011561D01*
X012855Y011594D01*
X012889Y012124D02*
X012822Y012191D01*
X014072Y010645D02*
X014172Y010645D01*
X014206Y010612D01*
X014206Y010545D01*
X014172Y010512D01*
X014072Y010512D01*
X014139Y010512D02*
X014206Y010445D01*
X014293Y010445D02*
X014427Y010445D01*
X014360Y010445D02*
X014360Y010645D01*
X014293Y010578D01*
X014514Y010612D02*
X014514Y010478D01*
X014648Y010612D01*
X014648Y010478D01*
X014614Y010445D01*
X014548Y010445D01*
X014514Y010478D01*
X014514Y010612D02*
X014548Y010645D01*
X014614Y010645D01*
X014648Y010612D01*
X014972Y010645D02*
X014972Y010445D01*
X014972Y010512D02*
X015072Y010512D01*
X015106Y010545D01*
X015106Y010612D01*
X015072Y010645D01*
X014972Y010645D01*
X015039Y010512D02*
X015106Y010445D01*
X015193Y010445D02*
X015327Y010445D01*
X015260Y010445D02*
X015260Y010645D01*
X015193Y010578D01*
X015414Y010578D02*
X015481Y010645D01*
X015481Y010445D01*
X015414Y010445D02*
X015548Y010445D01*
X014072Y010445D02*
X014072Y010645D01*
X014430Y009205D02*
X014530Y009205D01*
X014564Y009172D01*
X014564Y009105D01*
X014530Y009072D01*
X014430Y009072D01*
X014497Y009072D02*
X014564Y009005D01*
X014651Y009038D02*
X014685Y009005D01*
X014751Y009005D01*
X014785Y009038D01*
X014785Y009172D01*
X014751Y009205D01*
X014685Y009205D01*
X014651Y009172D01*
X014651Y009138D01*
X014685Y009105D01*
X014785Y009105D01*
X014430Y009005D02*
X014430Y009205D01*
X014360Y008745D02*
X014360Y008545D01*
X014293Y008545D02*
X014427Y008545D01*
X014514Y008645D02*
X014614Y008745D01*
X014614Y008545D01*
X014648Y008645D02*
X014514Y008645D01*
X014360Y008745D02*
X014293Y008678D01*
X014206Y008712D02*
X014172Y008745D01*
X014106Y008745D01*
X014072Y008712D01*
X014072Y008578D01*
X014106Y008545D01*
X014172Y008545D01*
X014206Y008578D01*
X014772Y008578D02*
X014806Y008545D01*
X014872Y008545D01*
X014906Y008578D01*
X014993Y008545D02*
X015127Y008545D01*
X015060Y008545D02*
X015060Y008745D01*
X014993Y008678D01*
X014906Y008712D02*
X014872Y008745D01*
X014806Y008745D01*
X014772Y008712D01*
X014772Y008578D01*
X015214Y008578D02*
X015248Y008545D01*
X015314Y008545D01*
X015348Y008578D01*
X015348Y008645D01*
X015314Y008678D01*
X015281Y008678D01*
X015214Y008645D01*
X015214Y008745D01*
X015348Y008745D01*
X015522Y008928D02*
X015556Y008895D01*
X015622Y008895D01*
X015656Y008928D01*
X015743Y008895D02*
X015877Y008895D01*
X015810Y008895D02*
X015810Y009095D01*
X015743Y009028D01*
X015656Y009062D02*
X015622Y009095D01*
X015556Y009095D01*
X015522Y009062D01*
X015522Y008928D01*
X015964Y008928D02*
X015998Y008895D01*
X016064Y008895D01*
X016098Y008928D01*
X016098Y008962D01*
X016064Y008995D01*
X015964Y008995D01*
X015964Y008928D01*
X015964Y008995D02*
X016031Y009062D01*
X016098Y009095D01*
X015651Y007255D02*
X015685Y007222D01*
X015685Y007188D01*
X015651Y007155D01*
X015685Y007122D01*
X015685Y007088D01*
X015651Y007055D01*
X015585Y007055D01*
X015551Y007088D01*
X015464Y007055D02*
X015330Y007055D01*
X015330Y007255D01*
X015551Y007222D02*
X015585Y007255D01*
X015651Y007255D01*
X015651Y007155D02*
X015618Y007155D01*
X011248Y008578D02*
X011214Y008545D01*
X011148Y008545D01*
X011114Y008578D01*
X011027Y008545D02*
X010893Y008545D01*
X010960Y008545D02*
X010960Y008745D01*
X010893Y008678D01*
X010806Y008712D02*
X010772Y008745D01*
X010706Y008745D01*
X010672Y008712D01*
X010672Y008578D01*
X010706Y008545D01*
X010772Y008545D01*
X010806Y008578D01*
X010548Y008545D02*
X010414Y008545D01*
X010481Y008545D02*
X010481Y008745D01*
X010414Y008678D01*
X010327Y008545D02*
X010193Y008545D01*
X010260Y008545D02*
X010260Y008745D01*
X010193Y008678D01*
X010106Y008712D02*
X010072Y008745D01*
X010006Y008745D01*
X009972Y008712D01*
X009972Y008578D01*
X010006Y008545D01*
X010072Y008545D01*
X010106Y008578D01*
X009848Y008578D02*
X009848Y008712D01*
X009714Y008578D01*
X009748Y008545D01*
X009814Y008545D01*
X009848Y008578D01*
X009848Y008712D02*
X009814Y008745D01*
X009748Y008745D01*
X009714Y008712D01*
X009714Y008578D01*
X009627Y008545D02*
X009493Y008545D01*
X009560Y008545D02*
X009560Y008745D01*
X009493Y008678D01*
X009406Y008712D02*
X009372Y008745D01*
X009306Y008745D01*
X009272Y008712D01*
X009272Y008578D01*
X009306Y008545D01*
X009372Y008545D01*
X009406Y008578D01*
X009127Y008578D02*
X009127Y008712D01*
X009093Y008745D01*
X009027Y008745D01*
X008993Y008712D01*
X008993Y008678D01*
X009027Y008645D01*
X009127Y008645D01*
X009127Y008578D02*
X009093Y008545D01*
X009027Y008545D01*
X008993Y008578D01*
X008906Y008578D02*
X008872Y008545D01*
X008806Y008545D01*
X008772Y008578D01*
X008772Y008712D01*
X008806Y008745D01*
X008872Y008745D01*
X008906Y008712D01*
X008527Y008712D02*
X008527Y008678D01*
X008493Y008645D01*
X008427Y008645D01*
X008393Y008678D01*
X008393Y008712D01*
X008427Y008745D01*
X008493Y008745D01*
X008527Y008712D01*
X008493Y008645D02*
X008527Y008612D01*
X008527Y008578D01*
X008493Y008545D01*
X008427Y008545D01*
X008393Y008578D01*
X008393Y008612D01*
X008427Y008645D01*
X008306Y008578D02*
X008272Y008545D01*
X008206Y008545D01*
X008172Y008578D01*
X008172Y008712D01*
X008206Y008745D01*
X008272Y008745D01*
X008306Y008712D01*
X007927Y008712D02*
X007927Y008678D01*
X007893Y008645D01*
X007827Y008645D01*
X007793Y008678D01*
X007793Y008712D01*
X007827Y008745D01*
X007893Y008745D01*
X007927Y008712D01*
X007893Y008645D02*
X007927Y008612D01*
X007927Y008578D01*
X007893Y008545D01*
X007827Y008545D01*
X007793Y008578D01*
X007793Y008612D01*
X007827Y008645D01*
X007706Y008645D02*
X007672Y008612D01*
X007572Y008612D01*
X007639Y008612D02*
X007706Y008545D01*
X007706Y008645D02*
X007706Y008712D01*
X007672Y008745D01*
X007572Y008745D01*
X007572Y008545D01*
X007564Y008955D02*
X007630Y008955D01*
X007664Y008988D01*
X007664Y009155D01*
X007751Y009122D02*
X007785Y009155D01*
X007851Y009155D01*
X007885Y009122D01*
X007885Y009088D01*
X007751Y008955D01*
X007885Y008955D01*
X007564Y008955D02*
X007530Y008988D01*
X007530Y009155D01*
X005332Y008549D02*
X005332Y008416D01*
X005199Y008549D01*
X005165Y008549D01*
X005132Y008516D01*
X005132Y008449D01*
X005165Y008416D01*
X005165Y008328D02*
X005132Y008295D01*
X005132Y008195D01*
X005332Y008195D01*
X005332Y008295D01*
X005299Y008328D01*
X005165Y008328D01*
X007022Y006962D02*
X007022Y006828D01*
X007056Y006795D01*
X007122Y006795D01*
X007156Y006828D01*
X007243Y006828D02*
X007277Y006795D01*
X007343Y006795D01*
X007377Y006828D01*
X007377Y006862D01*
X007343Y006895D01*
X007243Y006895D01*
X007243Y006828D01*
X007243Y006895D02*
X007310Y006962D01*
X007377Y006995D01*
X007156Y006962D02*
X007122Y006995D01*
X007056Y006995D01*
X007022Y006962D01*
X007222Y006557D02*
X007222Y006424D01*
X007222Y006491D02*
X007022Y006491D01*
X007089Y006424D01*
X007022Y006336D02*
X007022Y006203D01*
X007222Y006203D01*
X007122Y006203D02*
X007122Y006270D01*
X008272Y006495D02*
X008406Y006495D01*
X008493Y006495D02*
X008627Y006495D01*
X008560Y006495D02*
X008560Y006695D01*
X008493Y006628D01*
X008272Y006695D02*
X008272Y006495D01*
X008256Y005345D02*
X008256Y005212D01*
X008189Y005145D01*
X008122Y005212D01*
X008122Y005345D01*
X008343Y005312D02*
X008343Y005178D01*
X008377Y005145D01*
X008443Y005145D01*
X008477Y005178D01*
X008564Y005178D02*
X008598Y005145D01*
X008664Y005145D01*
X008698Y005178D01*
X008698Y005312D02*
X008664Y005345D01*
X008598Y005345D01*
X008564Y005312D01*
X008564Y005178D01*
X008477Y005312D02*
X008443Y005345D01*
X008377Y005345D01*
X008343Y005312D01*
X009072Y004612D02*
X009072Y004478D01*
X009106Y004445D01*
X009172Y004445D01*
X009206Y004478D01*
X009293Y004445D02*
X009427Y004445D01*
X009360Y004445D02*
X009360Y004645D01*
X009293Y004578D01*
X009206Y004612D02*
X009172Y004645D01*
X009106Y004645D01*
X009072Y004612D01*
X009514Y004645D02*
X009648Y004645D01*
X009648Y004612D01*
X009514Y004478D01*
X009514Y004445D01*
X010243Y003705D02*
X010209Y003672D01*
X010209Y003538D01*
X010243Y003505D01*
X010309Y003505D01*
X010343Y003538D01*
X010430Y003505D02*
X010564Y003505D01*
X010497Y003505D02*
X010497Y003705D01*
X010430Y003638D01*
X010343Y003672D02*
X010309Y003705D01*
X010243Y003705D01*
X010651Y003672D02*
X010685Y003705D01*
X010751Y003705D01*
X010785Y003672D01*
X010785Y003638D01*
X010651Y003505D01*
X010785Y003505D01*
X007977Y003762D02*
X007843Y003628D01*
X007843Y003595D01*
X007756Y003628D02*
X007722Y003595D01*
X007656Y003595D01*
X007622Y003628D01*
X007622Y003762D01*
X007656Y003795D01*
X007722Y003795D01*
X007756Y003762D01*
X007843Y003795D02*
X007977Y003795D01*
X007977Y003762D01*
X006985Y003755D02*
X006851Y003755D01*
X006918Y003755D02*
X006918Y003955D01*
X006851Y003888D01*
X006764Y003955D02*
X006764Y003788D01*
X006730Y003755D01*
X006664Y003755D01*
X006630Y003788D01*
X006630Y003955D01*
X005901Y003055D02*
X005801Y002955D01*
X005935Y002955D01*
X005901Y002855D02*
X005901Y003055D01*
X005714Y003022D02*
X005680Y003055D01*
X005614Y003055D01*
X005580Y003022D01*
X005580Y002888D01*
X005614Y002855D01*
X005680Y002855D01*
X005714Y002888D01*
X005335Y002522D02*
X005301Y002555D01*
X005235Y002555D01*
X005201Y002522D01*
X005114Y002522D02*
X005080Y002555D01*
X005014Y002555D01*
X004980Y002522D01*
X004980Y002388D01*
X005014Y002355D01*
X005080Y002355D01*
X005114Y002388D01*
X005201Y002388D02*
X005235Y002355D01*
X005301Y002355D01*
X005335Y002388D01*
X005335Y002422D01*
X005301Y002455D01*
X005268Y002455D01*
X005301Y002455D02*
X005335Y002488D01*
X005335Y002522D01*
X004777Y002395D02*
X004643Y002395D01*
X004710Y002395D02*
X004710Y002595D01*
X004643Y002528D01*
X004556Y002562D02*
X004522Y002595D01*
X004456Y002595D01*
X004422Y002562D01*
X004422Y002428D01*
X004456Y002395D01*
X004522Y002395D01*
X004556Y002428D01*
X003202Y001495D02*
X003135Y001428D01*
X003048Y001462D02*
X003014Y001495D01*
X002914Y001495D01*
X002914Y001295D01*
X003014Y001295D01*
X003048Y001328D01*
X003048Y001462D01*
X003202Y001495D02*
X003202Y001295D01*
X003135Y001295D02*
X003269Y001295D01*
X003622Y001357D02*
X003622Y001224D01*
X003722Y001224D01*
X003689Y001291D01*
X003689Y001324D01*
X003722Y001357D01*
X003789Y001357D01*
X003822Y001324D01*
X003822Y001257D01*
X003789Y001224D01*
X003856Y001136D02*
X003856Y001003D01*
X003822Y000915D02*
X003822Y000782D01*
X003822Y000849D02*
X003622Y000849D01*
X003689Y000782D01*
X003722Y000694D02*
X003755Y000661D01*
X003755Y000561D01*
X003822Y000561D02*
X003622Y000561D01*
X003622Y000661D01*
X003655Y000694D01*
X003722Y000694D01*
X004082Y000845D02*
X004082Y000912D01*
X004082Y000878D02*
X004282Y000878D01*
X004282Y000845D02*
X004282Y000912D01*
X004249Y000992D02*
X004282Y001026D01*
X004282Y001092D01*
X004249Y001126D01*
X004115Y001126D01*
X004082Y001092D01*
X004082Y001026D01*
X004115Y000992D01*
X004249Y000992D01*
X004282Y001213D02*
X004149Y001347D01*
X004115Y001347D01*
X004082Y001313D01*
X004082Y001247D01*
X004115Y001213D01*
X004282Y001213D02*
X004282Y001347D01*
X004622Y001357D02*
X004655Y001291D01*
X004722Y001224D01*
X004722Y001324D01*
X004755Y001357D01*
X004789Y001357D01*
X004822Y001324D01*
X004822Y001257D01*
X004789Y001224D01*
X004722Y001224D01*
X004856Y001136D02*
X004856Y001003D01*
X004822Y000915D02*
X004822Y000782D01*
X004822Y000849D02*
X004622Y000849D01*
X004689Y000782D01*
X004722Y000694D02*
X004655Y000694D01*
X004622Y000661D01*
X004622Y000561D01*
X004822Y000561D01*
X004755Y000561D02*
X004755Y000661D01*
X004722Y000694D01*
X004982Y000745D02*
X004982Y000812D01*
X004982Y000778D02*
X005182Y000778D01*
X005182Y000745D02*
X005182Y000812D01*
X005149Y000892D02*
X005015Y000892D01*
X004982Y000926D01*
X004982Y000992D01*
X005015Y001026D01*
X005149Y001026D01*
X005182Y000992D01*
X005182Y000926D01*
X005149Y000892D01*
X005182Y001113D02*
X005182Y001247D01*
X005182Y001180D02*
X004982Y001180D01*
X005049Y001113D01*
X005622Y001324D02*
X005722Y001224D01*
X005722Y001357D01*
X005822Y001324D02*
X005622Y001324D01*
X005856Y001136D02*
X005856Y001003D01*
X005822Y000915D02*
X005822Y000782D01*
X005689Y000915D01*
X005655Y000915D01*
X005622Y000882D01*
X005622Y000815D01*
X005655Y000782D01*
X005655Y000694D02*
X005622Y000661D01*
X005622Y000561D01*
X005822Y000561D01*
X005755Y000561D02*
X005755Y000661D01*
X005722Y000694D01*
X005655Y000694D01*
X005982Y000678D02*
X006015Y000645D01*
X006049Y000645D01*
X006082Y000678D01*
X006082Y000745D01*
X006115Y000778D01*
X006149Y000778D01*
X006182Y000745D01*
X006182Y000678D01*
X006149Y000645D01*
X005982Y000678D02*
X005982Y000745D01*
X006015Y000778D01*
X006015Y000866D02*
X006049Y000866D01*
X006082Y000899D01*
X006082Y000966D01*
X006115Y000999D01*
X006149Y000999D01*
X006182Y000966D01*
X006182Y000899D01*
X006149Y000866D01*
X006015Y000866D02*
X005982Y000899D01*
X005982Y000966D01*
X006015Y000999D01*
X006015Y001087D02*
X005982Y001120D01*
X005982Y001187D01*
X006015Y001220D01*
X006049Y001220D01*
X006182Y001087D01*
X006182Y001220D01*
X006622Y001224D02*
X006722Y001224D01*
X006689Y001291D01*
X006689Y001324D01*
X006722Y001357D01*
X006789Y001357D01*
X006822Y001324D01*
X006822Y001257D01*
X006789Y001224D01*
X006856Y001136D02*
X006856Y001003D01*
X006822Y000915D02*
X006822Y000782D01*
X006689Y000915D01*
X006655Y000915D01*
X006622Y000882D01*
X006622Y000815D01*
X006655Y000782D01*
X006655Y000694D02*
X006722Y000694D01*
X006755Y000661D01*
X006755Y000561D01*
X006822Y000561D02*
X006622Y000561D01*
X006622Y000661D01*
X006655Y000694D01*
X006982Y000678D02*
X007015Y000645D01*
X007049Y000645D01*
X007082Y000678D01*
X007082Y000745D01*
X007115Y000778D01*
X007149Y000778D01*
X007182Y000745D01*
X007182Y000678D01*
X007149Y000645D01*
X006982Y000678D02*
X006982Y000745D01*
X007015Y000778D01*
X007015Y000866D02*
X007049Y000866D01*
X007082Y000899D01*
X007082Y000966D01*
X007115Y000999D01*
X007149Y000999D01*
X007182Y000966D01*
X007182Y000899D01*
X007149Y000866D01*
X007015Y000866D02*
X006982Y000899D01*
X006982Y000966D01*
X007015Y000999D01*
X007049Y001087D02*
X006982Y001154D01*
X007182Y001154D01*
X007182Y001220D02*
X007182Y001087D01*
X007622Y000882D02*
X007622Y000815D01*
X007655Y000782D01*
X007655Y000694D02*
X007722Y000694D01*
X007755Y000661D01*
X007755Y000561D01*
X007822Y000561D02*
X007622Y000561D01*
X007622Y000661D01*
X007655Y000694D01*
X007822Y000782D02*
X007689Y000915D01*
X007655Y000915D01*
X007622Y000882D01*
X007822Y000915D02*
X007822Y000782D01*
X008002Y000725D02*
X008002Y001314D01*
X008082Y001213D02*
X008115Y001247D01*
X008249Y001247D01*
X008282Y001213D01*
X008282Y001147D01*
X008249Y001113D01*
X008115Y001113D01*
X008082Y001147D01*
X008082Y001213D01*
X008215Y001180D02*
X008282Y001247D01*
X008282Y001026D02*
X008215Y000959D01*
X008215Y000992D02*
X008215Y000892D01*
X008282Y000892D02*
X008082Y000892D01*
X008082Y000992D01*
X008115Y001026D01*
X008182Y001026D01*
X008215Y000992D01*
X008282Y000812D02*
X008282Y000745D01*
X008282Y000778D02*
X008082Y000778D01*
X008082Y000745D02*
X008082Y000812D01*
X007856Y001003D02*
X007856Y001136D01*
X007789Y001224D02*
X007822Y001257D01*
X007822Y001324D01*
X007789Y001357D01*
X007755Y001357D01*
X007722Y001324D01*
X007722Y001224D01*
X007789Y001224D01*
X007722Y001224D02*
X007655Y001291D01*
X007622Y001357D01*
X006622Y001357D02*
X006622Y001224D01*
X008622Y001224D02*
X008622Y001357D01*
X008655Y001357D01*
X008789Y001224D01*
X008822Y001224D01*
X008856Y001136D02*
X008856Y001003D01*
X008822Y000915D02*
X008822Y000782D01*
X008689Y000915D01*
X008655Y000915D01*
X008622Y000882D01*
X008622Y000815D01*
X008655Y000782D01*
X008655Y000694D02*
X008622Y000661D01*
X008622Y000561D01*
X008822Y000561D01*
X008755Y000561D02*
X008755Y000661D01*
X008722Y000694D01*
X008655Y000694D01*
X009002Y000625D02*
X009002Y001288D01*
X009082Y001220D02*
X009282Y001220D01*
X009082Y001087D01*
X009282Y001087D01*
X009282Y000933D02*
X009082Y000933D01*
X009082Y000999D02*
X009082Y000866D01*
X009149Y000778D02*
X009282Y000778D01*
X009182Y000778D02*
X009182Y000645D01*
X009149Y000645D02*
X009082Y000712D01*
X009149Y000778D01*
X009149Y000645D02*
X009282Y000645D01*
X009622Y000661D02*
X009622Y000561D01*
X009822Y000561D01*
X009755Y000561D02*
X009755Y000661D01*
X009722Y000694D01*
X009655Y000694D01*
X009622Y000661D01*
X009655Y000782D02*
X009622Y000815D01*
X009622Y000882D01*
X009655Y000915D01*
X009689Y000915D01*
X009822Y000782D01*
X009822Y000915D01*
X009856Y001003D02*
X009856Y001136D01*
X009789Y001224D02*
X009822Y001257D01*
X009822Y001324D01*
X009789Y001357D01*
X009755Y001357D01*
X009722Y001324D01*
X009722Y001291D01*
X009722Y001324D02*
X009689Y001357D01*
X009655Y001357D01*
X009622Y001324D01*
X009622Y001257D01*
X009655Y001224D01*
X010002Y001409D02*
X010002Y000525D01*
X010082Y000578D02*
X010115Y000545D01*
X010149Y000545D01*
X010182Y000578D01*
X010182Y000645D01*
X010215Y000678D01*
X010249Y000678D01*
X010282Y000645D01*
X010282Y000578D01*
X010249Y000545D01*
X010082Y000578D02*
X010082Y000645D01*
X010115Y000678D01*
X010115Y000766D02*
X010149Y000766D01*
X010182Y000799D01*
X010182Y000866D01*
X010215Y000899D01*
X010249Y000899D01*
X010282Y000866D01*
X010282Y000799D01*
X010249Y000766D01*
X010115Y000766D02*
X010082Y000799D01*
X010082Y000866D01*
X010115Y000899D01*
X010082Y000987D02*
X010282Y000987D01*
X010282Y001120D01*
X010282Y001208D02*
X010082Y001208D01*
X010082Y001120D02*
X010082Y000987D01*
X010182Y000987D02*
X010182Y001054D01*
X010282Y001208D02*
X010282Y001341D01*
X010622Y001324D02*
X010622Y001257D01*
X010655Y001224D01*
X010622Y001324D02*
X010655Y001357D01*
X010689Y001357D01*
X010822Y001224D01*
X010822Y001357D01*
X010982Y001220D02*
X011115Y001087D01*
X011082Y001120D02*
X011182Y001220D01*
X011182Y001087D02*
X010982Y001087D01*
X011015Y000999D02*
X010982Y000966D01*
X010982Y000899D01*
X011015Y000866D01*
X011149Y000866D01*
X011182Y000899D01*
X011182Y000966D01*
X011149Y000999D01*
X011149Y000778D02*
X011182Y000745D01*
X011182Y000678D01*
X011149Y000645D01*
X011082Y000678D02*
X011082Y000745D01*
X011115Y000778D01*
X011149Y000778D01*
X011082Y000678D02*
X011049Y000645D01*
X011015Y000645D01*
X010982Y000678D01*
X010982Y000745D01*
X011015Y000778D01*
X010822Y000782D02*
X010689Y000915D01*
X010655Y000915D01*
X010622Y000882D01*
X010622Y000815D01*
X010655Y000782D01*
X010655Y000694D02*
X010722Y000694D01*
X010755Y000661D01*
X010755Y000561D01*
X010822Y000561D02*
X010622Y000561D01*
X010622Y000661D01*
X010655Y000694D01*
X010822Y000782D02*
X010822Y000915D01*
X010856Y001003D02*
X010856Y001136D01*
X011622Y001291D02*
X011822Y001291D01*
X011822Y001357D02*
X011822Y001224D01*
X011856Y001136D02*
X011856Y001003D01*
X011822Y000915D02*
X011822Y000782D01*
X011689Y000915D01*
X011655Y000915D01*
X011622Y000882D01*
X011622Y000815D01*
X011655Y000782D01*
X011655Y000694D02*
X011622Y000661D01*
X011622Y000561D01*
X011822Y000561D01*
X011755Y000561D02*
X011755Y000661D01*
X011722Y000694D01*
X011655Y000694D01*
X011982Y000678D02*
X012182Y000678D01*
X012182Y000766D02*
X012182Y000833D01*
X012182Y000799D02*
X011982Y000799D01*
X011982Y000766D02*
X011982Y000833D01*
X012015Y000913D02*
X011982Y000947D01*
X011982Y001013D01*
X012015Y001047D01*
X012082Y001013D02*
X012115Y001047D01*
X012149Y001047D01*
X012182Y001013D01*
X012182Y000947D01*
X012149Y000913D01*
X012082Y000947D02*
X012082Y001013D01*
X012082Y000947D02*
X012049Y000913D01*
X012015Y000913D01*
X012015Y001134D02*
X012149Y001134D01*
X012182Y001168D01*
X012182Y001234D01*
X012149Y001268D01*
X012015Y001268D01*
X011982Y001234D01*
X011982Y001168D01*
X012015Y001134D01*
X011689Y001224D02*
X011622Y001291D01*
X011982Y000678D02*
X012049Y000612D01*
X011982Y000545D01*
X012182Y000545D01*
X012622Y000561D02*
X012622Y000661D01*
X012655Y000694D01*
X012722Y000694D01*
X012755Y000661D01*
X012755Y000561D01*
X012822Y000561D02*
X012622Y000561D01*
X012655Y000782D02*
X012622Y000815D01*
X012622Y000882D01*
X012655Y000915D01*
X012689Y000915D01*
X012822Y000782D01*
X012822Y000915D01*
X012856Y001003D02*
X012856Y001136D01*
X012789Y001224D02*
X012655Y001224D01*
X012622Y001257D01*
X012622Y001324D01*
X012655Y001357D01*
X012789Y001224D01*
X012822Y001257D01*
X012822Y001324D01*
X012789Y001357D01*
X012655Y001357D01*
X012982Y001275D02*
X012982Y001208D01*
X012982Y001241D02*
X013182Y001241D01*
X013182Y001208D02*
X013182Y001275D01*
X013149Y001120D02*
X013115Y001120D01*
X013082Y001087D01*
X013082Y001020D01*
X013049Y000987D01*
X013015Y000987D01*
X012982Y001020D01*
X012982Y001087D01*
X013015Y001120D01*
X013149Y001120D02*
X013182Y001087D01*
X013182Y001020D01*
X013149Y000987D01*
X013149Y000899D02*
X013015Y000899D01*
X012982Y000866D01*
X012982Y000799D01*
X013015Y000766D01*
X013149Y000766D01*
X013182Y000799D01*
X013182Y000866D01*
X013149Y000899D01*
X013182Y000678D02*
X012982Y000678D01*
X013049Y000612D01*
X012982Y000545D01*
X013182Y000545D01*
X016982Y001145D02*
X016982Y001245D01*
X017015Y001278D01*
X017082Y001278D01*
X017115Y001245D01*
X017115Y001145D01*
X017182Y001145D02*
X016982Y001145D01*
X017015Y001366D02*
X016982Y001399D01*
X016982Y001466D01*
X017015Y001499D01*
X017049Y001499D01*
X017082Y001466D01*
X017115Y001499D01*
X017149Y001499D01*
X017182Y001466D01*
X017182Y001399D01*
X017149Y001366D01*
X017082Y001433D02*
X017082Y001466D01*
X017216Y001587D02*
X017216Y001720D01*
X017082Y001808D02*
X016982Y001908D01*
X017182Y001908D01*
X017082Y001941D02*
X017082Y001808D01*
X017815Y002045D02*
X017949Y002178D01*
X017949Y002112D02*
X017815Y002112D01*
X017815Y002178D02*
X017949Y002045D01*
X017882Y002045D02*
X017882Y002178D01*
X017849Y002266D02*
X017782Y002333D01*
X017982Y002333D01*
X017982Y002399D02*
X017982Y002266D01*
X018232Y002341D02*
X018265Y002308D01*
X018399Y002308D01*
X018432Y002341D01*
X018432Y002408D01*
X018399Y002441D01*
X018332Y002441D01*
X018332Y002375D01*
X018265Y002441D02*
X018232Y002408D01*
X018232Y002341D01*
X018299Y002220D02*
X018432Y002220D01*
X018332Y002220D02*
X018332Y002087D01*
X018299Y002087D02*
X018232Y002154D01*
X018299Y002220D01*
X018299Y002087D02*
X018432Y002087D01*
X018432Y001933D02*
X018232Y001933D01*
X018232Y001999D02*
X018232Y001866D01*
X018232Y001778D02*
X018232Y001712D01*
X018232Y001745D02*
X018399Y001745D01*
X018432Y001712D01*
X018432Y001678D01*
X018399Y001645D01*
X011248Y008578D02*
X011248Y008612D01*
X011214Y008645D01*
X011181Y008645D01*
X011214Y008645D02*
X011248Y008678D01*
X011248Y008712D01*
X011214Y008745D01*
X011148Y008745D01*
X011114Y008712D01*
X008282Y012087D02*
X008315Y012120D01*
X006056Y012036D02*
X006056Y011903D01*
X005989Y012124D02*
X006022Y012157D01*
X006022Y012224D01*
X005989Y012257D01*
X005922Y012257D01*
X005889Y012224D01*
X005889Y012191D01*
X005922Y012124D01*
X005822Y012124D01*
X005822Y012257D01*
X002166Y010445D02*
X002166Y010378D01*
X002133Y010345D01*
X002066Y010345D01*
X002032Y010378D01*
X002032Y010445D01*
X002066Y010478D01*
X002133Y010478D01*
X002166Y010445D01*
X001945Y010445D02*
X001912Y010412D01*
X001812Y010412D01*
X001812Y010345D02*
X001812Y010545D01*
X001912Y010545D01*
X001945Y010512D01*
X001945Y010445D01*
X001985Y010605D02*
X001851Y010605D01*
X001985Y010738D01*
X001985Y010772D01*
X001951Y010805D01*
X001885Y010805D01*
X001851Y010772D01*
X001764Y010772D02*
X001764Y010705D01*
X001730Y010672D01*
X001630Y010672D01*
X001697Y010672D02*
X001764Y010605D01*
X001630Y010605D02*
X001630Y010805D01*
X001730Y010805D01*
X001764Y010772D01*
X001724Y010445D02*
X001591Y010445D01*
X001477Y010478D02*
X001477Y010345D01*
X001510Y010345D02*
X001443Y010345D01*
X001356Y010345D02*
X001222Y010345D01*
X001222Y010545D01*
X001443Y010478D02*
X001477Y010478D01*
X001477Y010545D02*
X001477Y010579D01*
X001415Y009404D02*
X001382Y009404D01*
X001415Y009404D02*
X001482Y009338D01*
X001582Y009338D01*
X001482Y009338D02*
X001415Y009271D01*
X001382Y009271D01*
X001415Y009183D02*
X001482Y009183D01*
X001515Y009150D01*
X001515Y009050D01*
X001515Y009117D02*
X001582Y009183D01*
X001582Y009050D02*
X001382Y009050D01*
X001382Y009150D01*
X001415Y009183D01*
X001382Y008962D02*
X001382Y008829D01*
X001582Y008829D01*
X001582Y008962D01*
X001482Y008896D02*
X001482Y008829D01*
X001382Y008741D02*
X001382Y008608D01*
X001382Y008675D02*
X001582Y008675D01*
X001582Y008454D02*
X001382Y008454D01*
X001382Y008520D02*
X001382Y008387D01*
X001449Y008299D02*
X001582Y008299D01*
X001482Y008299D02*
X001482Y008166D01*
X001449Y008166D02*
X001382Y008233D01*
X001449Y008299D01*
X001449Y008166D02*
X001582Y008166D01*
X001549Y008078D02*
X001582Y008045D01*
X001582Y007945D01*
X001382Y007945D01*
X001382Y008045D01*
X001415Y008078D01*
X001449Y008078D01*
X001482Y008045D01*
X001482Y007945D01*
X001482Y008045D02*
X001515Y008078D01*
X001549Y008078D01*
X005132Y006583D02*
X005332Y006583D01*
X005332Y006649D02*
X005332Y006516D01*
X005299Y006428D02*
X005165Y006428D01*
X005132Y006395D01*
X005132Y006295D01*
X005332Y006295D01*
X005332Y006395D01*
X005299Y006428D01*
X005199Y006516D02*
X005132Y006583D01*
X003682Y005516D02*
X003649Y005549D01*
X003615Y005549D01*
X003582Y005516D01*
X003582Y005416D01*
X003649Y005416D01*
X003682Y005449D01*
X003682Y005516D01*
X003582Y005416D02*
X003515Y005483D01*
X003482Y005549D01*
X003515Y005328D02*
X003582Y005328D01*
X003615Y005295D01*
X003615Y005195D01*
X003615Y005262D02*
X003682Y005328D01*
X003682Y005195D02*
X003482Y005195D01*
X003482Y005295D01*
X003515Y005328D01*
X003482Y004949D02*
X003482Y004816D01*
X003582Y004816D01*
X003549Y004883D01*
X003549Y004916D01*
X003582Y004949D01*
X003649Y004949D01*
X003682Y004916D01*
X003682Y004849D01*
X003649Y004816D01*
X003682Y004728D02*
X003615Y004662D01*
X003615Y004695D02*
X003615Y004595D01*
X003682Y004595D02*
X003482Y004595D01*
X003482Y004695D01*
X003515Y004728D01*
X003582Y004728D01*
X003615Y004695D01*
X003582Y004349D02*
X003582Y004216D01*
X003482Y004316D01*
X003682Y004316D01*
X003682Y004128D02*
X003615Y004062D01*
X003615Y004095D02*
X003615Y003995D01*
X003682Y003995D02*
X003482Y003995D01*
X003482Y004095D01*
X003515Y004128D01*
X003582Y004128D01*
X003615Y004095D01*
X005232Y004578D02*
X005265Y004545D01*
X005399Y004545D01*
X005432Y004578D01*
X005432Y004645D01*
X005399Y004678D01*
X005399Y004766D02*
X005432Y004799D01*
X005432Y004866D01*
X005399Y004899D01*
X005332Y004899D01*
X005299Y004866D01*
X005299Y004833D01*
X005332Y004766D01*
X005232Y004766D01*
X005232Y004899D01*
X005265Y004678D02*
X005232Y004645D01*
X005232Y004578D01*
X002618Y002505D02*
X002618Y002305D01*
X002551Y002305D02*
X002685Y002305D01*
X002551Y002438D02*
X002618Y002505D01*
X002464Y002472D02*
X002464Y002405D01*
X002430Y002372D01*
X002330Y002372D01*
X002397Y002372D02*
X002464Y002305D01*
X002330Y002305D02*
X002330Y002505D01*
X002430Y002505D01*
X002464Y002472D01*
X002472Y001495D02*
X002472Y001295D01*
X002606Y001295D01*
X002693Y001295D02*
X002693Y001495D01*
X002827Y001495D01*
X002760Y001395D02*
X002693Y001395D01*
X002693Y001295D02*
X002827Y001295D01*
X002285Y000745D02*
X002185Y000645D01*
X002319Y000645D01*
X002285Y000545D02*
X002285Y000745D01*
X002098Y000512D02*
X001964Y000512D01*
X001877Y000545D02*
X001743Y000545D01*
X001810Y000545D02*
X001810Y000745D01*
X001743Y000678D01*
X001656Y000645D02*
X001622Y000612D01*
X001522Y000612D01*
X001522Y000545D02*
X001522Y000745D01*
X001622Y000745D01*
X001656Y000712D01*
X001656Y000645D01*
X017002Y011025D02*
X017002Y011909D01*
X017082Y011808D02*
X017082Y011741D01*
X017115Y011708D01*
X017149Y011708D01*
X017182Y011741D01*
X017182Y011808D01*
X017215Y011841D01*
X017249Y011841D01*
X017282Y011808D01*
X017282Y011741D01*
X017249Y011708D01*
X017282Y011620D02*
X017282Y011487D01*
X017082Y011487D01*
X017082Y011620D01*
X017182Y011554D02*
X017182Y011487D01*
X017182Y011399D02*
X017215Y011366D01*
X017215Y011266D01*
X017215Y011333D02*
X017282Y011399D01*
X017182Y011399D02*
X017115Y011399D01*
X017082Y011366D01*
X017082Y011266D01*
X017282Y011266D01*
X017282Y011178D02*
X017082Y011045D01*
X017082Y011178D02*
X017282Y011045D01*
X017082Y011808D02*
X017115Y011841D01*
D12*
X001002Y011725D02*
X001002Y001125D01*
X001004Y001075D01*
X001009Y001025D01*
X001018Y000976D01*
X001030Y000928D01*
X001046Y000880D01*
X001065Y000834D01*
X001088Y000790D01*
X001113Y000747D01*
X001142Y000706D01*
X001173Y000667D01*
X001207Y000630D01*
X001244Y000596D01*
X001283Y000565D01*
X001324Y000536D01*
X001367Y000511D01*
X001411Y000488D01*
X001457Y000469D01*
X001505Y000453D01*
X001553Y000441D01*
X001602Y000432D01*
X001652Y000427D01*
X001702Y000425D01*
X017802Y000425D01*
X017852Y000427D01*
X017902Y000432D01*
X017951Y000441D01*
X017999Y000453D01*
X018047Y000469D01*
X018093Y000488D01*
X018137Y000511D01*
X018180Y000536D01*
X018221Y000565D01*
X018260Y000596D01*
X018297Y000630D01*
X018331Y000667D01*
X018362Y000706D01*
X018391Y000747D01*
X018416Y000790D01*
X018439Y000834D01*
X018458Y000880D01*
X018474Y000928D01*
X018486Y000976D01*
X018495Y001025D01*
X018500Y001075D01*
X018502Y001125D01*
X018502Y012425D01*
X001702Y012425D01*
X001652Y012423D01*
X001602Y012418D01*
X001553Y012409D01*
X001505Y012397D01*
X001457Y012381D01*
X001411Y012362D01*
X001367Y012339D01*
X001324Y012314D01*
X001283Y012285D01*
X001244Y012254D01*
X001207Y012220D01*
X001173Y012183D01*
X001142Y012144D01*
X001113Y012103D01*
X001088Y012060D01*
X001065Y012016D01*
X001046Y011970D01*
X001030Y011922D01*
X001018Y011874D01*
X001009Y011825D01*
X001004Y011775D01*
X001002Y011725D01*
X005082Y010295D02*
X005082Y009955D01*
X005082Y010068D02*
X005252Y010068D01*
X005309Y010125D01*
X005309Y010239D01*
X005252Y010295D01*
X005082Y010295D01*
X005507Y010182D02*
X005620Y010182D01*
X005677Y010125D01*
X005677Y009955D01*
X005507Y009955D01*
X005450Y010012D01*
X005507Y010068D01*
X005677Y010068D01*
X005818Y010182D02*
X005932Y010182D01*
X005875Y010239D02*
X005875Y010012D01*
X005932Y009955D01*
X006121Y010012D02*
X006177Y009955D01*
X006121Y010012D02*
X006121Y010239D01*
X006177Y010182D02*
X006064Y010182D01*
X006309Y010125D02*
X006366Y010182D01*
X006480Y010182D01*
X006536Y010125D01*
X006536Y010068D01*
X006309Y010068D01*
X006309Y010012D02*
X006309Y010125D01*
X006309Y010012D02*
X006366Y009955D01*
X006480Y009955D01*
X006678Y009955D02*
X006678Y010182D01*
X006791Y010182D02*
X006678Y010068D01*
X006791Y010182D02*
X006848Y010182D01*
X006985Y010182D02*
X007155Y010182D01*
X007212Y010125D01*
X007212Y009955D01*
X007353Y009955D02*
X007353Y010182D01*
X007466Y010295D01*
X007580Y010182D01*
X007580Y009955D01*
X007721Y010012D02*
X007721Y010125D01*
X007778Y010182D01*
X007948Y010182D01*
X007948Y009898D01*
X007891Y009842D01*
X007835Y009842D01*
X007778Y009955D02*
X007948Y009955D01*
X008090Y010012D02*
X008090Y010125D01*
X008146Y010182D01*
X008260Y010182D01*
X008317Y010125D01*
X008317Y010068D01*
X008090Y010068D01*
X008090Y010012D02*
X008146Y009955D01*
X008260Y009955D01*
X008458Y009955D02*
X008458Y010182D01*
X008628Y010182D01*
X008685Y010125D01*
X008685Y009955D01*
X008883Y010012D02*
X008940Y009955D01*
X008883Y010012D02*
X008883Y010239D01*
X008826Y010182D02*
X008940Y010182D01*
X009072Y010125D02*
X009129Y010182D01*
X009299Y010182D01*
X009242Y010068D02*
X009129Y010068D01*
X009072Y010125D01*
X009072Y009955D02*
X009242Y009955D01*
X009299Y010012D01*
X009242Y010068D01*
X009242Y009695D02*
X009186Y009639D01*
X009186Y009412D01*
X009242Y009355D01*
X009356Y009355D01*
X009413Y009412D01*
X009554Y009298D02*
X009781Y009298D01*
X009922Y009355D02*
X009922Y009695D01*
X010092Y009695D01*
X010149Y009639D01*
X010149Y009525D01*
X010092Y009468D01*
X009922Y009468D01*
X010291Y009412D02*
X010347Y009355D01*
X010461Y009355D01*
X010517Y009412D01*
X010517Y009468D01*
X010461Y009525D01*
X010347Y009525D01*
X010291Y009582D01*
X010291Y009639D01*
X010347Y009695D01*
X010461Y009695D01*
X010517Y009639D01*
X010659Y009639D02*
X010659Y009412D01*
X010716Y009355D01*
X010829Y009355D01*
X010886Y009412D01*
X010886Y009639D01*
X010829Y009695D01*
X010716Y009695D01*
X010659Y009639D01*
X011027Y009639D02*
X011027Y009412D01*
X011084Y009355D01*
X011197Y009355D01*
X011254Y009412D01*
X011396Y009525D02*
X011622Y009525D01*
X011566Y009355D02*
X011566Y009695D01*
X011396Y009525D01*
X011254Y009639D02*
X011197Y009695D01*
X011084Y009695D01*
X011027Y009639D01*
X011150Y009842D02*
X011206Y009842D01*
X011263Y009898D01*
X011263Y010182D01*
X011093Y010182D01*
X011036Y010125D01*
X011036Y010012D01*
X011093Y009955D01*
X011263Y009955D01*
X011404Y010012D02*
X011461Y009955D01*
X011575Y009955D01*
X011631Y010012D01*
X011631Y010068D01*
X011575Y010125D01*
X011461Y010125D01*
X011404Y010182D01*
X011404Y010239D01*
X011461Y010295D01*
X011575Y010295D01*
X011631Y010239D01*
X011773Y010125D02*
X011773Y010012D01*
X011830Y009955D01*
X011943Y009955D01*
X012000Y010012D01*
X012000Y010125D01*
X011943Y010182D01*
X011830Y010182D01*
X011773Y010125D01*
X012141Y010012D02*
X012198Y009955D01*
X012311Y009955D01*
X012368Y010012D01*
X012509Y010012D02*
X012509Y009955D01*
X012509Y010125D02*
X012509Y010352D01*
X012368Y010239D02*
X012311Y010295D01*
X012198Y010295D01*
X012141Y010239D01*
X012141Y010012D01*
X011764Y009695D02*
X011764Y009355D01*
X011991Y009355D01*
X010895Y009955D02*
X010895Y010125D01*
X010838Y010182D01*
X010668Y010182D01*
X010668Y009955D01*
X010536Y009955D02*
X010422Y009955D01*
X010479Y009955D02*
X010479Y010182D01*
X010422Y010182D01*
X010479Y010295D02*
X010479Y010352D01*
X010281Y010125D02*
X010224Y010182D01*
X010111Y010182D01*
X010054Y010125D01*
X009922Y010182D02*
X009808Y010182D01*
X009865Y010239D02*
X009865Y010012D01*
X009922Y009955D01*
X010054Y009955D02*
X010054Y010295D01*
X010281Y010125D02*
X010281Y009955D01*
X009413Y009639D02*
X009356Y009695D01*
X009242Y009695D01*
X009044Y009639D02*
X008988Y009695D01*
X008874Y009695D01*
X008817Y009639D01*
X008817Y009412D01*
X008874Y009355D01*
X008988Y009355D01*
X009044Y009412D01*
X009044Y009639D01*
X008676Y009639D02*
X008619Y009695D01*
X008506Y009695D01*
X008449Y009639D01*
X008449Y009582D01*
X008506Y009525D01*
X008619Y009525D01*
X008676Y009468D01*
X008676Y009412D01*
X008619Y009355D01*
X008506Y009355D01*
X008449Y009412D01*
X008194Y009355D02*
X008194Y009695D01*
X008081Y009695D02*
X008308Y009695D01*
X007778Y009955D02*
X007721Y010012D01*
X007580Y010125D02*
X007353Y010125D01*
X006985Y010182D02*
X006985Y009955D01*
X006773Y009695D02*
X006773Y009355D01*
X006603Y009355D01*
X006546Y009412D01*
X006546Y009525D01*
X006603Y009582D01*
X006773Y009582D01*
X006914Y009525D02*
X006971Y009582D01*
X007085Y009582D01*
X007141Y009525D01*
X007141Y009468D01*
X006914Y009468D01*
X006914Y009412D02*
X006914Y009525D01*
X006914Y009412D02*
X006971Y009355D01*
X007085Y009355D01*
X007283Y009355D02*
X007396Y009355D01*
X007339Y009355D02*
X007339Y009695D01*
X007283Y009695D01*
X007528Y009582D02*
X007528Y009525D01*
X007585Y009525D01*
X007585Y009582D01*
X007528Y009582D01*
X007528Y009412D02*
X007528Y009355D01*
X007585Y009355D01*
X007585Y009412D01*
X007528Y009412D01*
X006405Y009412D02*
X006405Y009525D01*
X006348Y009582D01*
X006234Y009582D01*
X006178Y009525D01*
X006178Y009412D01*
X006234Y009355D01*
X006348Y009355D01*
X006405Y009412D01*
X006036Y009355D02*
X006036Y009695D01*
X005923Y009582D01*
X005809Y009695D01*
X005809Y009355D01*
X009150Y003295D02*
X009094Y003239D01*
X009094Y003012D01*
X009150Y002955D01*
X009264Y002955D01*
X009320Y003012D01*
X009320Y003239D02*
X009264Y003295D01*
X009150Y003295D01*
X009462Y003295D02*
X009462Y003239D01*
X009575Y003125D01*
X009575Y002955D01*
X009575Y003125D02*
X009689Y003239D01*
X009689Y003295D01*
X009830Y003239D02*
X009830Y003182D01*
X009887Y003125D01*
X010000Y003125D01*
X010057Y003068D01*
X010057Y003012D01*
X010000Y002955D01*
X009887Y002955D01*
X009830Y003012D01*
X009830Y003068D01*
X009887Y003125D01*
X010000Y003125D02*
X010057Y003182D01*
X010057Y003239D01*
X010000Y003295D01*
X009887Y003295D01*
X009830Y003239D01*
X010199Y003239D02*
X010199Y003012D01*
X010255Y002955D01*
X010369Y002955D01*
X010425Y003012D01*
X010567Y003125D02*
X010794Y003125D01*
X010737Y002955D02*
X010737Y003295D01*
X010567Y003125D01*
X010425Y003239D02*
X010369Y003295D01*
X010255Y003295D01*
X010199Y003239D01*
X010935Y003239D02*
X010992Y003295D01*
X011105Y003295D01*
X011162Y003239D01*
X011162Y003182D01*
X010935Y002955D01*
X011162Y002955D01*
X011304Y003125D02*
X011530Y003125D01*
X011474Y002955D02*
X011474Y003295D01*
X011304Y003125D01*
X011672Y003012D02*
X011672Y002955D01*
X011672Y003012D02*
X011899Y003239D01*
X011899Y003295D01*
X011672Y003295D01*
X012040Y003182D02*
X012040Y002955D01*
X012040Y003125D02*
X012267Y003125D01*
X012267Y003182D02*
X012154Y003295D01*
X012040Y003182D01*
X012267Y003182D02*
X012267Y002955D01*
X012408Y002955D02*
X012635Y002955D01*
X012777Y002955D02*
X012890Y002955D01*
X012833Y002955D02*
X012833Y003295D01*
X012777Y003295D02*
X012890Y003295D01*
X013022Y003125D02*
X013249Y003125D01*
X013391Y002955D02*
X013617Y002955D01*
X013759Y003125D02*
X013986Y003125D01*
X013929Y002955D02*
X013929Y003295D01*
X013759Y003125D01*
X014127Y003012D02*
X014184Y002955D01*
X014297Y002955D01*
X014354Y003012D01*
X014354Y003068D01*
X014297Y003125D01*
X014241Y003125D01*
X014297Y003125D02*
X014354Y003182D01*
X014354Y003239D01*
X014297Y003295D01*
X014184Y003295D01*
X014127Y003239D01*
X014496Y003239D02*
X014552Y003295D01*
X014666Y003295D01*
X014722Y003239D01*
X014722Y003182D01*
X014666Y003125D01*
X014722Y003068D01*
X014722Y003012D01*
X014666Y002955D01*
X014552Y002955D01*
X014496Y003012D01*
X014609Y003125D02*
X014666Y003125D01*
X013391Y003295D02*
X013391Y002955D01*
X012635Y003239D02*
X012408Y003012D01*
X012408Y002955D01*
X012408Y003295D02*
X012635Y003295D01*
X012635Y003239D01*
X016302Y003175D02*
X016302Y002675D01*
X016552Y002425D01*
X018052Y002425D01*
X018302Y002675D01*
X018302Y003175D01*
X018052Y003425D01*
X016552Y003425D01*
X016302Y003675D01*
X016302Y004175D01*
X016552Y004425D01*
X018052Y004425D01*
X018302Y004675D01*
X018302Y005175D01*
X018052Y005425D01*
X016552Y005425D01*
X016302Y005675D01*
X016302Y006175D01*
X016552Y006425D01*
X018052Y006425D01*
X018302Y006675D01*
X018302Y007175D01*
X018052Y007425D01*
X016552Y007425D01*
X016302Y007675D01*
X016302Y008175D01*
X016552Y008425D01*
X018052Y008425D01*
X018302Y008675D01*
X018302Y009175D01*
X018052Y009425D01*
X016552Y009425D01*
X016302Y009675D01*
X016302Y010175D01*
X016552Y010425D01*
X018052Y010425D01*
X018302Y010175D01*
X018302Y009675D01*
X018052Y009425D01*
X018052Y008425D02*
X018302Y008175D01*
X018302Y007675D01*
X018052Y007425D01*
X018052Y006425D02*
X018302Y006175D01*
X018302Y005675D01*
X018052Y005425D01*
X018052Y004425D02*
X018302Y004175D01*
X018302Y003675D01*
X018052Y003425D01*
X016552Y003425D02*
X016302Y003175D01*
X016666Y002042D02*
X016753Y002042D01*
X016796Y001999D01*
X016796Y001869D01*
X016796Y001956D02*
X016883Y002042D01*
X016883Y001869D02*
X016623Y001869D01*
X016623Y001999D01*
X016666Y002042D01*
X016623Y001748D02*
X016623Y001574D01*
X016883Y001574D01*
X016883Y001748D01*
X016753Y001661D02*
X016753Y001574D01*
X016796Y001453D02*
X016839Y001453D01*
X016883Y001410D01*
X016883Y001323D01*
X016839Y001280D01*
X016753Y001323D02*
X016753Y001410D01*
X016796Y001453D01*
X016666Y001453D02*
X016623Y001410D01*
X016623Y001323D01*
X016666Y001280D01*
X016709Y001280D01*
X016753Y001323D01*
X016839Y001159D02*
X016623Y001159D01*
X016839Y001159D02*
X016883Y001115D01*
X016883Y001028D01*
X016839Y000985D01*
X016623Y000985D01*
X016552Y004425D02*
X016302Y004675D01*
X016302Y005175D01*
X016552Y005425D01*
X016552Y006425D02*
X016302Y006675D01*
X016302Y007175D01*
X016552Y007425D01*
X016552Y008425D02*
X016302Y008675D01*
X016302Y009175D01*
X016552Y009425D01*
X016623Y010690D02*
X016623Y010821D01*
X016666Y010864D01*
X016753Y010864D01*
X016796Y010821D01*
X016796Y010690D01*
X016883Y010690D02*
X016623Y010690D01*
X016796Y010777D02*
X016883Y010864D01*
X016883Y010985D02*
X016883Y011159D01*
X016839Y011280D02*
X016883Y011323D01*
X016883Y011410D01*
X016839Y011453D01*
X016796Y011453D01*
X016753Y011410D01*
X016753Y011323D01*
X016709Y011280D01*
X016666Y011280D01*
X016623Y011323D01*
X016623Y011410D01*
X016666Y011453D01*
X016623Y011574D02*
X016883Y011574D01*
X016883Y011748D01*
X016753Y011661D02*
X016753Y011574D01*
X016623Y011574D02*
X016623Y011748D01*
X016623Y011869D02*
X016623Y012042D01*
X016623Y011956D02*
X016883Y011956D01*
X016623Y011159D02*
X016623Y010985D01*
X016883Y010985D01*
X016753Y010985D02*
X016753Y011072D01*
D13*
X008502Y006125D02*
X008502Y005525D01*
X008500Y005508D01*
X008496Y005491D01*
X008489Y005475D01*
X008479Y005461D01*
X008466Y005448D01*
X008452Y005438D01*
X008436Y005431D01*
X008419Y005427D01*
X008402Y005425D01*
X008302Y005425D01*
X008052Y005425D02*
X007402Y005425D01*
X007385Y005427D01*
X007368Y005431D01*
X007352Y005438D01*
X007338Y005448D01*
X007325Y005461D01*
X007315Y005475D01*
X007308Y005491D01*
X007304Y005508D01*
X007302Y005525D01*
X007302Y006125D01*
X007304Y006142D01*
X007308Y006159D01*
X007315Y006175D01*
X007325Y006189D01*
X007338Y006202D01*
X007352Y006212D01*
X007368Y006219D01*
X007385Y006223D01*
X007402Y006225D01*
X008052Y006225D01*
X008302Y006225D02*
X008402Y006225D01*
X008419Y006223D01*
X008436Y006219D01*
X008452Y006212D01*
X008466Y006202D01*
X008479Y006189D01*
X008489Y006175D01*
X008496Y006159D01*
X008500Y006142D01*
X008502Y006125D01*
X006902Y005975D02*
X006902Y006475D01*
X006302Y006475D02*
X006302Y005975D01*
X006242Y004594D02*
X006242Y004256D01*
X006697Y004106D02*
X006908Y004106D01*
X007362Y004256D02*
X007362Y004594D01*
X004174Y007050D02*
X004174Y007365D01*
X003190Y007365D01*
X003190Y007838D01*
X002796Y007050D02*
X004174Y007050D01*
X006402Y008256D02*
X006402Y008594D01*
X006797Y008146D02*
X007008Y008146D01*
X007402Y008256D02*
X007402Y008594D01*
X004174Y009885D02*
X004174Y010200D01*
X002796Y010200D01*
X003190Y009885D02*
X004174Y009885D01*
X003190Y009885D02*
X003190Y009412D01*
X001221Y009412D02*
X001221Y007838D01*
D14*
X001330Y006239D02*
X001054Y006239D01*
X002275Y006239D02*
X002983Y006239D01*
X002983Y005334D01*
X002983Y003916D02*
X002983Y003011D01*
X002275Y003011D01*
X001330Y003011D02*
X001054Y003011D01*
D15*
X003825Y002610D02*
X003825Y002400D01*
X003825Y002470D02*
X003930Y002470D01*
X003965Y002505D01*
X003965Y002575D01*
X003930Y002610D01*
X003825Y002610D01*
X003895Y002470D02*
X003965Y002400D01*
X004046Y002435D02*
X004081Y002400D01*
X004151Y002400D01*
X004186Y002435D01*
X004186Y002470D01*
X004151Y002505D01*
X004116Y002505D01*
X004151Y002505D02*
X004186Y002540D01*
X004186Y002575D01*
X004151Y002610D01*
X004081Y002610D01*
X004046Y002575D01*
X009967Y006490D02*
X009967Y006700D01*
X009967Y006490D02*
X010107Y006490D01*
X010188Y006490D02*
X010328Y006630D01*
X010328Y006665D01*
X010293Y006700D01*
X010223Y006700D01*
X010188Y006665D01*
X010188Y006490D02*
X010328Y006490D01*
X004277Y007533D02*
X004242Y007498D01*
X004102Y007498D01*
X004067Y007533D01*
X004067Y007603D01*
X004102Y007638D01*
X004102Y007719D02*
X004067Y007754D01*
X004067Y007824D01*
X004102Y007859D01*
X004137Y007859D01*
X004277Y007719D01*
X004277Y007859D01*
X004242Y007638D02*
X004277Y007603D01*
X004277Y007533D01*
D16*
X011205Y004686D02*
X011207Y004701D01*
X011212Y004714D01*
X011221Y004726D01*
X011232Y004736D01*
X011246Y004742D01*
X011260Y004745D01*
X011275Y004744D01*
X011289Y004739D01*
X011302Y004731D01*
X011312Y004721D01*
X011319Y004708D01*
X011323Y004693D01*
X011323Y004679D01*
X011319Y004664D01*
X011312Y004651D01*
X011302Y004641D01*
X011289Y004633D01*
X011275Y004628D01*
X011260Y004627D01*
X011246Y004630D01*
X011232Y004636D01*
X011221Y004646D01*
X011212Y004658D01*
X011207Y004671D01*
X011205Y004686D01*
X011515Y005080D02*
X011517Y005103D01*
X011523Y005126D01*
X011532Y005148D01*
X011545Y005167D01*
X011561Y005184D01*
X011579Y005199D01*
X011600Y005210D01*
X011622Y005218D01*
X011645Y005222D01*
X011669Y005222D01*
X011692Y005218D01*
X011714Y005210D01*
X011735Y005199D01*
X011753Y005184D01*
X011769Y005167D01*
X011782Y005148D01*
X011791Y005126D01*
X011797Y005103D01*
X011799Y005080D01*
X011797Y005057D01*
X011791Y005034D01*
X011782Y005012D01*
X011769Y004993D01*
X011753Y004976D01*
X011735Y004961D01*
X011714Y004950D01*
X011692Y004942D01*
X011669Y004938D01*
X011645Y004938D01*
X011622Y004942D01*
X011600Y004950D01*
X011579Y004961D01*
X011561Y004976D01*
X011545Y004993D01*
X011532Y005012D01*
X011523Y005034D01*
X011517Y005057D01*
X011515Y005080D01*
D17*
X007532Y008825D03*
D18*
X001358Y011675D02*
X001360Y011714D01*
X001366Y011753D01*
X001376Y011791D01*
X001389Y011828D01*
X001406Y011863D01*
X001426Y011897D01*
X001450Y011928D01*
X001477Y011957D01*
X001506Y011983D01*
X001538Y012006D01*
X001572Y012026D01*
X001608Y012042D01*
X001645Y012054D01*
X001684Y012063D01*
X001723Y012068D01*
X001762Y012069D01*
X001801Y012066D01*
X001840Y012059D01*
X001877Y012048D01*
X001914Y012034D01*
X001949Y012016D01*
X001982Y011995D01*
X002013Y011970D01*
X002041Y011943D01*
X002066Y011913D01*
X002088Y011880D01*
X002107Y011846D01*
X002122Y011810D01*
X002134Y011772D01*
X002142Y011734D01*
X002146Y011695D01*
X002146Y011655D01*
X002142Y011616D01*
X002134Y011578D01*
X002122Y011540D01*
X002107Y011504D01*
X002088Y011470D01*
X002066Y011437D01*
X002041Y011407D01*
X002013Y011380D01*
X001982Y011355D01*
X001949Y011334D01*
X001914Y011316D01*
X001877Y011302D01*
X001840Y011291D01*
X001801Y011284D01*
X001762Y011281D01*
X001723Y011282D01*
X001684Y011287D01*
X001645Y011296D01*
X001608Y011308D01*
X001572Y011324D01*
X001538Y011344D01*
X001506Y011367D01*
X001477Y011393D01*
X001450Y011422D01*
X001426Y011453D01*
X001406Y011487D01*
X001389Y011522D01*
X001376Y011559D01*
X001366Y011597D01*
X001360Y011636D01*
X001358Y011675D01*
X001358Y001175D02*
X001360Y001214D01*
X001366Y001253D01*
X001376Y001291D01*
X001389Y001328D01*
X001406Y001363D01*
X001426Y001397D01*
X001450Y001428D01*
X001477Y001457D01*
X001506Y001483D01*
X001538Y001506D01*
X001572Y001526D01*
X001608Y001542D01*
X001645Y001554D01*
X001684Y001563D01*
X001723Y001568D01*
X001762Y001569D01*
X001801Y001566D01*
X001840Y001559D01*
X001877Y001548D01*
X001914Y001534D01*
X001949Y001516D01*
X001982Y001495D01*
X002013Y001470D01*
X002041Y001443D01*
X002066Y001413D01*
X002088Y001380D01*
X002107Y001346D01*
X002122Y001310D01*
X002134Y001272D01*
X002142Y001234D01*
X002146Y001195D01*
X002146Y001155D01*
X002142Y001116D01*
X002134Y001078D01*
X002122Y001040D01*
X002107Y001004D01*
X002088Y000970D01*
X002066Y000937D01*
X002041Y000907D01*
X002013Y000880D01*
X001982Y000855D01*
X001949Y000834D01*
X001914Y000816D01*
X001877Y000802D01*
X001840Y000791D01*
X001801Y000784D01*
X001762Y000781D01*
X001723Y000782D01*
X001684Y000787D01*
X001645Y000796D01*
X001608Y000808D01*
X001572Y000824D01*
X001538Y000844D01*
X001506Y000867D01*
X001477Y000893D01*
X001450Y000922D01*
X001426Y000953D01*
X001406Y000987D01*
X001389Y001022D01*
X001376Y001059D01*
X001366Y001097D01*
X001360Y001136D01*
X001358Y001175D01*
X017358Y001175D02*
X017360Y001214D01*
X017366Y001253D01*
X017376Y001291D01*
X017389Y001328D01*
X017406Y001363D01*
X017426Y001397D01*
X017450Y001428D01*
X017477Y001457D01*
X017506Y001483D01*
X017538Y001506D01*
X017572Y001526D01*
X017608Y001542D01*
X017645Y001554D01*
X017684Y001563D01*
X017723Y001568D01*
X017762Y001569D01*
X017801Y001566D01*
X017840Y001559D01*
X017877Y001548D01*
X017914Y001534D01*
X017949Y001516D01*
X017982Y001495D01*
X018013Y001470D01*
X018041Y001443D01*
X018066Y001413D01*
X018088Y001380D01*
X018107Y001346D01*
X018122Y001310D01*
X018134Y001272D01*
X018142Y001234D01*
X018146Y001195D01*
X018146Y001155D01*
X018142Y001116D01*
X018134Y001078D01*
X018122Y001040D01*
X018107Y001004D01*
X018088Y000970D01*
X018066Y000937D01*
X018041Y000907D01*
X018013Y000880D01*
X017982Y000855D01*
X017949Y000834D01*
X017914Y000816D01*
X017877Y000802D01*
X017840Y000791D01*
X017801Y000784D01*
X017762Y000781D01*
X017723Y000782D01*
X017684Y000787D01*
X017645Y000796D01*
X017608Y000808D01*
X017572Y000824D01*
X017538Y000844D01*
X017506Y000867D01*
X017477Y000893D01*
X017450Y000922D01*
X017426Y000953D01*
X017406Y000987D01*
X017389Y001022D01*
X017376Y001059D01*
X017366Y001097D01*
X017360Y001136D01*
X017358Y001175D01*
X017358Y011675D02*
X017360Y011714D01*
X017366Y011753D01*
X017376Y011791D01*
X017389Y011828D01*
X017406Y011863D01*
X017426Y011897D01*
X017450Y011928D01*
X017477Y011957D01*
X017506Y011983D01*
X017538Y012006D01*
X017572Y012026D01*
X017608Y012042D01*
X017645Y012054D01*
X017684Y012063D01*
X017723Y012068D01*
X017762Y012069D01*
X017801Y012066D01*
X017840Y012059D01*
X017877Y012048D01*
X017914Y012034D01*
X017949Y012016D01*
X017982Y011995D01*
X018013Y011970D01*
X018041Y011943D01*
X018066Y011913D01*
X018088Y011880D01*
X018107Y011846D01*
X018122Y011810D01*
X018134Y011772D01*
X018142Y011734D01*
X018146Y011695D01*
X018146Y011655D01*
X018142Y011616D01*
X018134Y011578D01*
X018122Y011540D01*
X018107Y011504D01*
X018088Y011470D01*
X018066Y011437D01*
X018041Y011407D01*
X018013Y011380D01*
X017982Y011355D01*
X017949Y011334D01*
X017914Y011316D01*
X017877Y011302D01*
X017840Y011291D01*
X017801Y011284D01*
X017762Y011281D01*
X017723Y011282D01*
X017684Y011287D01*
X017645Y011296D01*
X017608Y011308D01*
X017572Y011324D01*
X017538Y011344D01*
X017506Y011367D01*
X017477Y011393D01*
X017450Y011422D01*
X017426Y011453D01*
X017406Y011487D01*
X017389Y011522D01*
X017376Y011559D01*
X017366Y011597D01*
X017360Y011636D01*
X017358Y011675D01*
M02*
