G75*
%MOIN*%
%OFA0B0*%
%FSLAX24Y24*%
%IPPOS*%
%LPD*%
%AMOC8*
5,1,8,0,0,1.08239X$1,22.5*
%
%ADD10C,0.0050*%
%ADD11R,0.6500X0.1000*%
%ADD12C,0.0080*%
%ADD13C,0.0060*%
%ADD14C,0.0040*%
%ADD15R,0.0013X0.0003*%
%ADD16R,0.0018X0.0003*%
%ADD17R,0.0022X0.0003*%
%ADD18R,0.0027X0.0003*%
%ADD19R,0.0032X0.0003*%
%ADD20R,0.0037X0.0003*%
%ADD21R,0.0043X0.0003*%
%ADD22R,0.0047X0.0003*%
%ADD23R,0.0053X0.0003*%
%ADD24R,0.0057X0.0003*%
%ADD25R,0.0060X0.0003*%
%ADD26R,0.0065X0.0003*%
%ADD27R,0.0067X0.0003*%
%ADD28R,0.0070X0.0003*%
%ADD29R,0.0035X0.0003*%
%ADD30R,0.0063X0.0003*%
%ADD31R,0.0040X0.0003*%
%ADD32R,0.0045X0.0003*%
%ADD33R,0.0050X0.0003*%
%ADD34R,0.0055X0.0003*%
%ADD35R,0.0005X0.0003*%
%ADD36R,0.0073X0.0003*%
%ADD37R,0.0075X0.0003*%
%ADD38R,0.0077X0.0003*%
%ADD39R,0.0080X0.0003*%
%ADD40R,0.0083X0.0003*%
%ADD41R,0.0010X0.0003*%
%ADD42R,0.0015X0.0003*%
%ADD43R,0.0020X0.0003*%
%ADD44R,0.0025X0.0003*%
%ADD45R,0.0030X0.0003*%
%ADD46R,0.0008X0.0003*%
%ADD47R,0.0088X0.0003*%
%ADD48R,0.0095X0.0003*%
%ADD49R,0.0105X0.0003*%
%ADD50R,0.0113X0.0003*%
%ADD51R,0.0085X0.0003*%
%ADD52R,0.0120X0.0003*%
%ADD53R,0.0098X0.0003*%
%ADD54R,0.0103X0.0003*%
%ADD55R,0.0107X0.0003*%
%ADD56R,0.0115X0.0003*%
%ADD57R,0.0118X0.0003*%
%ADD58R,0.0100X0.0003*%
%ADD59R,0.0123X0.0003*%
%ADD60R,0.0127X0.0003*%
%ADD61R,0.0092X0.0003*%
%ADD62R,0.0147X0.0003*%
%ADD63R,0.0125X0.0003*%
%ADD64R,0.0145X0.0003*%
%ADD65R,0.0143X0.0003*%
%ADD66R,0.0133X0.0003*%
%ADD67R,0.0130X0.0003*%
%ADD68R,0.0090X0.0003*%
%ADD69R,0.0003X0.0003*%
%ADD70R,0.0050X0.0010*%
%ADD71R,0.0070X0.0010*%
%ADD72R,0.0090X0.0010*%
%ADD73R,0.0110X0.0010*%
%ADD74R,0.0130X0.0010*%
%ADD75R,0.0150X0.0010*%
%ADD76R,0.0170X0.0010*%
%ADD77R,0.0190X0.0010*%
%ADD78R,0.0210X0.0010*%
%ADD79R,0.0230X0.0010*%
%ADD80R,0.0240X0.0010*%
%ADD81R,0.0260X0.0010*%
%ADD82R,0.0270X0.0010*%
%ADD83R,0.0280X0.0010*%
%ADD84R,0.0140X0.0010*%
%ADD85R,0.0250X0.0010*%
%ADD86R,0.0160X0.0010*%
%ADD87R,0.0180X0.0010*%
%ADD88R,0.0200X0.0010*%
%ADD89R,0.0220X0.0010*%
%ADD90R,0.0020X0.0010*%
%ADD91R,0.0290X0.0010*%
%ADD92R,0.0300X0.0010*%
%ADD93R,0.0310X0.0010*%
%ADD94R,0.0320X0.0010*%
%ADD95R,0.0330X0.0010*%
%ADD96R,0.0040X0.0010*%
%ADD97R,0.0060X0.0010*%
%ADD98R,0.0080X0.0010*%
%ADD99R,0.0100X0.0010*%
%ADD100R,0.0120X0.0010*%
%ADD101R,0.0030X0.0010*%
%ADD102R,0.0350X0.0010*%
%ADD103R,0.0380X0.0010*%
%ADD104R,0.0420X0.0010*%
%ADD105R,0.0450X0.0010*%
%ADD106R,0.0340X0.0010*%
%ADD107R,0.0480X0.0010*%
%ADD108R,0.0390X0.0010*%
%ADD109R,0.0410X0.0010*%
%ADD110R,0.0430X0.0010*%
%ADD111R,0.0460X0.0010*%
%ADD112R,0.0470X0.0010*%
%ADD113R,0.0400X0.0010*%
%ADD114R,0.0490X0.0010*%
%ADD115R,0.0510X0.0010*%
%ADD116R,0.0370X0.0010*%
%ADD117R,0.0590X0.0010*%
%ADD118R,0.0500X0.0010*%
%ADD119R,0.0580X0.0010*%
%ADD120R,0.0570X0.0010*%
%ADD121R,0.0530X0.0010*%
%ADD122R,0.0520X0.0010*%
%ADD123R,0.0360X0.0010*%
%ADD124R,0.0010X0.0010*%
%ADD125C,0.0000*%
D10*
X005592Y003930D02*
X005772Y003930D01*
X005592Y004110D01*
X005592Y004155D01*
X005637Y004200D01*
X005727Y004200D01*
X005772Y004155D01*
X005874Y003975D02*
X005874Y003930D01*
X005919Y003930D01*
X005919Y003975D01*
X005874Y003975D01*
X006034Y003930D02*
X006214Y003930D01*
X006124Y003930D02*
X006124Y004200D01*
X006214Y004110D01*
X006611Y003975D02*
X006611Y003930D01*
X006656Y003930D01*
X006656Y003975D01*
X006611Y003975D01*
X006770Y004110D02*
X006860Y003930D01*
X006950Y004110D01*
X007065Y004065D02*
X007110Y004110D01*
X007200Y004110D01*
X007245Y004065D01*
X007245Y003975D01*
X007200Y003930D01*
X007110Y003930D01*
X007065Y004020D02*
X007245Y004020D01*
X007360Y004065D02*
X007360Y004155D01*
X007405Y004200D01*
X007540Y004200D01*
X007540Y003930D01*
X007540Y004020D02*
X007405Y004020D01*
X007360Y004065D01*
X007450Y004020D02*
X007360Y003930D01*
X007065Y004020D02*
X007065Y004065D01*
X008379Y004065D02*
X008425Y004065D01*
X008425Y004110D01*
X008379Y004110D01*
X008379Y004065D01*
X008379Y003975D02*
X008379Y003930D01*
X008425Y003930D01*
X008425Y003975D01*
X008379Y003975D01*
X008535Y004110D02*
X008580Y004110D01*
X008670Y004020D01*
X008670Y003930D02*
X008670Y004110D01*
X008785Y004065D02*
X008785Y004020D01*
X008965Y004020D01*
X008965Y003975D02*
X008965Y004065D01*
X008920Y004110D01*
X008830Y004110D01*
X008785Y004065D01*
X008830Y003930D02*
X008920Y003930D01*
X008965Y003975D01*
X009079Y003975D02*
X009124Y003930D01*
X009259Y003930D01*
X009259Y004200D01*
X009259Y004110D02*
X009124Y004110D01*
X009079Y004065D01*
X009079Y003975D01*
X009374Y003930D02*
X009374Y004065D01*
X009419Y004110D01*
X009464Y004065D01*
X009464Y003930D01*
X009554Y003930D02*
X009554Y004110D01*
X009509Y004110D01*
X009464Y004065D01*
X009669Y004110D02*
X009669Y003930D01*
X009804Y003930D01*
X009849Y003975D01*
X009849Y004110D01*
X009963Y004200D02*
X009963Y003930D01*
X010143Y004200D01*
X010143Y003930D01*
X010544Y003930D02*
X010634Y003930D01*
X010589Y003930D02*
X010589Y004200D01*
X010634Y004200D01*
X010749Y004065D02*
X010794Y004110D01*
X010884Y004110D01*
X010884Y004020D02*
X010749Y004020D01*
X010749Y004065D02*
X010749Y003930D01*
X010884Y003930D01*
X010929Y003975D01*
X010884Y004020D01*
X011035Y003930D02*
X011126Y003930D01*
X011080Y003930D02*
X011080Y004110D01*
X011126Y004110D01*
X011080Y004200D02*
X011080Y004245D01*
X011236Y004110D02*
X011281Y004110D01*
X011371Y004020D01*
X011371Y003930D02*
X011371Y004110D01*
X011486Y004065D02*
X011486Y004020D01*
X011666Y004020D01*
X011666Y003975D02*
X011666Y004065D01*
X011621Y004110D01*
X011531Y004110D01*
X011486Y004065D01*
X011531Y003930D02*
X011621Y003930D01*
X011666Y003975D01*
X011780Y003975D02*
X011825Y003930D01*
X011915Y003930D01*
X011960Y003975D01*
X011915Y004065D02*
X011825Y004065D01*
X011780Y004020D01*
X011780Y003975D01*
X011915Y004065D02*
X011960Y004110D01*
X011960Y004155D01*
X011915Y004200D01*
X011825Y004200D01*
X011780Y004155D01*
X013752Y001336D02*
X013707Y001290D01*
X013707Y001200D01*
X013752Y001155D01*
X013797Y001041D02*
X013977Y001041D01*
X013932Y001155D02*
X013977Y001200D01*
X013977Y001290D01*
X013932Y001336D01*
X013887Y001336D01*
X013842Y001290D01*
X013797Y001336D01*
X013752Y001336D01*
X013842Y001290D02*
X013842Y001245D01*
X013797Y001041D02*
X013707Y000951D01*
X013797Y000861D01*
X013977Y000861D01*
X013932Y000746D02*
X013887Y000746D01*
X013842Y000701D01*
X013797Y000746D01*
X013752Y000746D01*
X013707Y000701D01*
X013707Y000611D01*
X013752Y000566D01*
X013842Y000656D02*
X013842Y000701D01*
X013932Y000746D02*
X013977Y000701D01*
X013977Y000611D01*
X013932Y000566D01*
X014807Y000611D02*
X014807Y000701D01*
X014852Y000746D01*
X014942Y000746D01*
X014942Y000656D01*
X014852Y000566D02*
X014807Y000611D01*
X014852Y000566D02*
X015032Y000566D01*
X015077Y000611D01*
X015077Y000701D01*
X015032Y000746D01*
X015077Y000861D02*
X014807Y001041D01*
X015077Y001041D01*
X015077Y001155D02*
X015077Y001290D01*
X015032Y001336D01*
X014852Y001336D01*
X014807Y001290D01*
X014807Y001155D01*
X015077Y001155D01*
X015077Y000861D02*
X014807Y000861D01*
X006452Y007175D02*
X005352Y007175D01*
X005352Y007675D01*
X006452Y007675D01*
X006452Y007175D01*
X006658Y007850D02*
X006595Y007913D01*
X006595Y007977D01*
X006658Y008040D01*
X006747Y007977D02*
X006779Y007977D01*
X006842Y007913D01*
X006842Y007850D02*
X006842Y007977D01*
X006937Y007945D02*
X006968Y007977D01*
X007032Y007977D01*
X007063Y007945D01*
X007063Y007882D01*
X007032Y007850D01*
X006968Y007850D01*
X006937Y007882D01*
X006937Y007945D01*
X007147Y007977D02*
X007211Y007977D01*
X007179Y008008D02*
X007179Y007882D01*
X007147Y007850D01*
X007305Y007850D02*
X007400Y007850D01*
X007432Y007882D01*
X007400Y007913D01*
X007305Y007913D01*
X007305Y007945D02*
X007305Y007850D01*
X007305Y007945D02*
X007337Y007977D01*
X007400Y007977D01*
X007547Y008040D02*
X007547Y007850D01*
X007516Y007850D02*
X007579Y007850D01*
X007663Y007850D02*
X007726Y007850D01*
X007695Y007850D02*
X007695Y008040D01*
X007726Y008040D01*
X007842Y008040D02*
X007842Y008072D01*
X007842Y007977D02*
X007842Y007850D01*
X007874Y007850D02*
X007810Y007850D01*
X007842Y007977D02*
X007874Y007977D01*
X007968Y007977D02*
X008063Y007977D01*
X008095Y007945D01*
X008095Y007882D01*
X008063Y007850D01*
X007968Y007850D01*
X008189Y007882D02*
X008221Y007913D01*
X008284Y007913D01*
X008316Y007945D01*
X008284Y007977D01*
X008189Y007977D01*
X008189Y007882D02*
X008221Y007850D01*
X008316Y007850D01*
X008410Y007882D02*
X008410Y008008D01*
X008442Y008040D01*
X008505Y008040D01*
X008537Y008008D01*
X008537Y007882D01*
X008505Y007850D01*
X008442Y007850D01*
X008410Y007882D01*
X008842Y007882D02*
X008873Y007882D01*
X008873Y007850D01*
X008842Y007850D01*
X008842Y007882D01*
X008842Y007850D02*
X008905Y007787D01*
X008989Y007850D02*
X009052Y007850D01*
X009021Y007850D02*
X009021Y008040D01*
X009052Y008040D01*
X009147Y007945D02*
X009147Y007850D01*
X009242Y007850D01*
X009273Y007882D01*
X009242Y007913D01*
X009147Y007913D01*
X009147Y007945D02*
X009178Y007977D01*
X009242Y007977D01*
X009357Y007977D02*
X009421Y007977D01*
X009389Y008008D02*
X009389Y007882D01*
X009357Y007850D01*
X009515Y007882D02*
X009547Y007913D01*
X009610Y007913D01*
X009642Y007945D01*
X009610Y007977D01*
X009515Y007977D01*
X009515Y007882D02*
X009547Y007850D01*
X009642Y007850D01*
X009736Y007850D02*
X009831Y007850D01*
X009863Y007882D01*
X009863Y007977D01*
X009952Y007977D02*
X009983Y007977D01*
X010047Y007913D01*
X010047Y007850D02*
X010047Y007977D01*
X010141Y008008D02*
X010173Y008040D01*
X010236Y008040D01*
X010268Y008008D01*
X010268Y007882D01*
X010236Y007850D01*
X010173Y007850D01*
X010141Y007882D01*
X009799Y007787D02*
X009768Y007787D01*
X009736Y007818D01*
X009736Y007977D01*
X010250Y008282D02*
X010377Y008408D01*
X010377Y008345D02*
X010250Y008345D01*
X010250Y008408D02*
X010377Y008282D01*
X010314Y008282D02*
X010314Y008408D01*
X010730Y008040D02*
X010730Y007850D01*
X010636Y007787D02*
X010573Y007850D01*
X010604Y007850D01*
X010604Y007882D01*
X010573Y007882D01*
X010573Y007850D01*
X010730Y008040D02*
X010794Y007977D01*
X010857Y008040D01*
X010857Y007850D01*
X010951Y007850D02*
X010951Y007977D01*
X011015Y008040D01*
X011078Y007977D01*
X011078Y007850D01*
X011172Y007850D02*
X011236Y007913D01*
X011204Y007913D02*
X011299Y007913D01*
X011299Y007850D02*
X011299Y008040D01*
X011204Y008040D01*
X011172Y008008D01*
X011172Y007945D01*
X011204Y007913D01*
X011078Y007945D02*
X010951Y007945D01*
X011393Y007913D02*
X011393Y007882D01*
X011425Y007850D01*
X011488Y007850D01*
X011520Y007882D01*
X011488Y007945D02*
X011425Y007945D01*
X011393Y007913D01*
X011393Y008008D02*
X011425Y008040D01*
X011488Y008040D01*
X011520Y008008D01*
X011520Y007977D01*
X011488Y007945D01*
X011614Y007913D02*
X011614Y008040D01*
X011614Y007913D02*
X011678Y007850D01*
X011741Y007913D01*
X011741Y008040D01*
X011835Y008040D02*
X011835Y007850D01*
X011962Y008040D01*
X011962Y007850D01*
X012267Y007850D02*
X012330Y007850D01*
X012299Y007850D02*
X012299Y008040D01*
X012330Y008040D01*
X012425Y007945D02*
X012425Y007850D01*
X012520Y007850D01*
X012551Y007882D01*
X012520Y007913D01*
X012425Y007913D01*
X012425Y007945D02*
X012456Y007977D01*
X012520Y007977D01*
X012645Y007945D02*
X012645Y007850D01*
X012645Y007945D02*
X012677Y007977D01*
X012772Y007977D01*
X012772Y007850D01*
X012866Y007882D02*
X012866Y007945D01*
X012898Y007977D01*
X012962Y007977D01*
X012993Y007945D01*
X012993Y007882D01*
X012962Y007850D01*
X012898Y007850D01*
X012866Y007882D01*
X013077Y007850D02*
X013141Y007850D01*
X013109Y007850D02*
X013109Y007977D01*
X013141Y007977D01*
X013109Y008040D02*
X013109Y008072D01*
X013225Y007977D02*
X013288Y007977D01*
X013256Y008008D02*
X013256Y007882D01*
X013225Y007850D01*
X013382Y007882D02*
X013382Y007945D01*
X013414Y007977D01*
X013509Y007977D01*
X013509Y007787D01*
X013509Y007850D02*
X013414Y007850D01*
X013382Y007882D01*
X013603Y007882D02*
X013603Y008008D01*
X013635Y008040D01*
X013698Y008040D01*
X013730Y008008D01*
X013730Y007882D01*
X013698Y007850D01*
X013635Y007850D01*
X013603Y007882D01*
X013814Y007850D02*
X013877Y007913D01*
X013877Y007977D01*
X013814Y008040D01*
X013552Y008575D02*
X013052Y008575D01*
X013052Y009675D01*
X013552Y009675D01*
X013552Y008575D01*
X013852Y011366D02*
X013807Y011411D01*
X013807Y011501D01*
X013852Y011546D01*
X013942Y011546D01*
X013987Y011501D01*
X013987Y011456D01*
X013942Y011366D01*
X014077Y011366D01*
X014077Y011546D01*
X014077Y011661D02*
X013897Y011661D01*
X013807Y011751D01*
X013897Y011841D01*
X014077Y011841D01*
X014032Y011955D02*
X014077Y012000D01*
X014077Y012090D01*
X014032Y012136D01*
X013852Y011955D01*
X013807Y012000D01*
X013807Y012090D01*
X013852Y012136D01*
X014032Y012136D01*
X014032Y011955D02*
X013852Y011955D01*
X014807Y011955D02*
X014807Y012090D01*
X014852Y012136D01*
X015032Y012136D01*
X015077Y012090D01*
X015077Y011955D01*
X014807Y011955D01*
X014807Y011841D02*
X015077Y011841D01*
X015077Y011661D02*
X014807Y011661D01*
X014852Y011546D02*
X014807Y011501D01*
X014807Y011411D01*
X014852Y011366D01*
X015032Y011366D01*
X015077Y011411D01*
X015077Y011501D01*
X015032Y011546D01*
X014942Y011546D02*
X014942Y011456D01*
X014942Y011546D02*
X014852Y011546D01*
X015077Y011661D02*
X014807Y011841D01*
X009152Y009675D02*
X009152Y008575D01*
X008652Y008575D01*
X008652Y009675D01*
X009152Y009675D01*
X007981Y009661D02*
X007823Y009661D01*
X007981Y009661D01*
X007981Y009189D02*
X007823Y009189D01*
X007252Y009675D02*
X006752Y009675D01*
X006752Y008575D01*
X007252Y008575D01*
X007252Y009675D01*
X007277Y008470D02*
X007277Y008425D01*
X007187Y008335D01*
X007187Y008200D01*
X007187Y008335D02*
X007097Y008425D01*
X007097Y008470D01*
X006983Y008380D02*
X006892Y008470D01*
X006892Y008200D01*
X006802Y008200D02*
X006983Y008200D01*
X006688Y008245D02*
X006688Y008425D01*
X006643Y008470D01*
X006553Y008470D01*
X006508Y008425D01*
X006688Y008245D01*
X006643Y008200D01*
X006553Y008200D01*
X006508Y008245D01*
X006508Y008425D01*
X006393Y008380D02*
X006303Y008470D01*
X006303Y008200D01*
X006393Y008200D02*
X006213Y008200D01*
X006250Y008008D02*
X006377Y007882D01*
X006377Y007945D02*
X006250Y007945D01*
X006250Y007882D02*
X006377Y008008D01*
X006314Y008008D02*
X006314Y007882D01*
X007547Y008040D02*
X007579Y008040D01*
D11*
X008752Y003225D03*
D12*
X009805Y005795D02*
X010085Y005795D01*
X010265Y005935D02*
X010335Y005865D01*
X010475Y005865D01*
X010545Y005935D01*
X010545Y006215D01*
X010475Y006285D01*
X010335Y006285D01*
X010265Y006215D01*
X010726Y006215D02*
X010726Y005935D01*
X010796Y005865D01*
X010936Y005865D01*
X011006Y005935D01*
X011006Y006215D01*
X010936Y006285D01*
X010796Y006285D01*
X010726Y006215D01*
X011186Y006215D02*
X011256Y006285D01*
X011396Y006285D01*
X011466Y006215D01*
X011466Y006145D01*
X011396Y006075D01*
X011256Y006075D01*
X011186Y006005D01*
X011186Y005935D01*
X011256Y005865D01*
X011396Y005865D01*
X011466Y005935D01*
X011786Y005865D02*
X011786Y006285D01*
X011646Y006285D02*
X011927Y006285D01*
X009625Y006285D02*
X009625Y005865D01*
X009625Y006005D02*
X009414Y006005D01*
X009344Y006075D01*
X009344Y006215D01*
X009414Y006285D01*
X009625Y006285D01*
X009164Y006215D02*
X009164Y006145D01*
X009094Y006075D01*
X008954Y006075D01*
X008884Y006005D01*
X008884Y005935D01*
X008954Y005865D01*
X009094Y005865D01*
X009164Y005935D01*
X009164Y006215D02*
X009094Y006285D01*
X008954Y006285D01*
X008884Y006215D01*
X008704Y006215D02*
X008634Y006285D01*
X008494Y006285D01*
X008424Y006215D01*
X008424Y005935D01*
X008494Y005865D01*
X008634Y005865D01*
X008704Y005935D01*
X008704Y006215D01*
X008243Y006215D02*
X008243Y005935D01*
X008173Y005865D01*
X008033Y005865D01*
X007963Y005935D01*
X007783Y006075D02*
X007503Y006075D01*
X007573Y005865D02*
X007573Y006285D01*
X007783Y006075D01*
X007963Y006215D02*
X008033Y006285D01*
X008173Y006285D01*
X008243Y006215D01*
X007323Y006285D02*
X007323Y005865D01*
X007042Y005865D01*
X005520Y008041D02*
X005284Y008041D01*
X004772Y008789D02*
X004772Y009261D01*
X005284Y010009D02*
X005520Y010009D01*
X006032Y009261D02*
X006032Y008789D01*
X010480Y008340D02*
X010482Y008355D01*
X010488Y008368D01*
X010497Y008380D01*
X010508Y008389D01*
X010522Y008395D01*
X010537Y008397D01*
X010552Y008395D01*
X010565Y008389D01*
X010577Y008380D01*
X010586Y008369D01*
X010592Y008355D01*
X010594Y008340D01*
X010592Y008325D01*
X010586Y008312D01*
X010577Y008300D01*
X010566Y008291D01*
X010552Y008285D01*
X010537Y008283D01*
X010522Y008285D01*
X010509Y008291D01*
X010497Y008300D01*
X010488Y008311D01*
X010482Y008325D01*
X010480Y008340D01*
D13*
X001002Y011725D02*
X001002Y001125D01*
X001004Y001075D01*
X001009Y001025D01*
X001018Y000976D01*
X001030Y000928D01*
X001046Y000880D01*
X001065Y000834D01*
X001088Y000790D01*
X001113Y000747D01*
X001142Y000706D01*
X001173Y000667D01*
X001207Y000630D01*
X001244Y000596D01*
X001283Y000565D01*
X001324Y000536D01*
X001367Y000511D01*
X001411Y000488D01*
X001457Y000469D01*
X001505Y000453D01*
X001553Y000441D01*
X001602Y000432D01*
X001652Y000427D01*
X001702Y000425D01*
X017802Y000425D01*
X017852Y000427D01*
X017902Y000432D01*
X017951Y000441D01*
X017999Y000453D01*
X018047Y000469D01*
X018093Y000488D01*
X018137Y000511D01*
X018180Y000536D01*
X018221Y000565D01*
X018260Y000596D01*
X018297Y000630D01*
X018331Y000667D01*
X018362Y000706D01*
X018391Y000747D01*
X018416Y000790D01*
X018439Y000834D01*
X018458Y000880D01*
X018474Y000928D01*
X018486Y000976D01*
X018495Y001025D01*
X018500Y001075D01*
X018502Y001125D01*
X018502Y012425D01*
X001702Y012425D01*
X001652Y012423D01*
X001602Y012418D01*
X001553Y012409D01*
X001505Y012397D01*
X001457Y012381D01*
X001411Y012362D01*
X001367Y012339D01*
X001324Y012314D01*
X001283Y012285D01*
X001244Y012254D01*
X001207Y012220D01*
X001173Y012183D01*
X001142Y012144D01*
X001113Y012103D01*
X001088Y012060D01*
X001065Y012016D01*
X001046Y011970D01*
X001030Y011922D01*
X001018Y011874D01*
X001009Y011825D01*
X001004Y011775D01*
X001002Y011725D01*
X001256Y009334D02*
X001342Y009334D01*
X001386Y009290D01*
X001386Y009204D01*
X001342Y009160D01*
X001256Y009160D01*
X001212Y009204D01*
X001212Y009290D01*
X001256Y009334D01*
X001342Y009039D02*
X001299Y008996D01*
X001299Y008866D01*
X001212Y008866D02*
X001472Y008866D01*
X001472Y008996D01*
X001429Y009039D01*
X001342Y009039D01*
X001745Y009025D02*
X001972Y009025D01*
X001859Y008912D02*
X001859Y009139D01*
X001342Y008745D02*
X001342Y008571D01*
X001386Y008418D02*
X001212Y008418D01*
X001212Y008375D02*
X001212Y008461D01*
X001386Y008418D02*
X001386Y008375D01*
X001472Y008418D02*
X001516Y008418D01*
X001745Y008225D02*
X001972Y008225D01*
X001472Y008080D02*
X001212Y008080D01*
X001212Y008253D01*
X001756Y004934D02*
X001712Y004890D01*
X001712Y004760D01*
X001972Y004760D01*
X001972Y004890D01*
X001929Y004934D01*
X001886Y004934D01*
X001842Y004890D01*
X001842Y004760D01*
X001799Y004639D02*
X001756Y004639D01*
X001712Y004596D01*
X001712Y004509D01*
X001756Y004466D01*
X001842Y004509D02*
X001842Y004596D01*
X001799Y004639D01*
X001929Y004639D02*
X001972Y004596D01*
X001972Y004509D01*
X001929Y004466D01*
X001886Y004466D01*
X001842Y004509D01*
X001756Y004345D02*
X001972Y004345D01*
X001756Y004345D02*
X001712Y004301D01*
X001712Y004214D01*
X001756Y004171D01*
X001972Y004171D01*
X001842Y004890D02*
X001799Y004934D01*
X001756Y004934D01*
X007514Y006712D02*
X007570Y006768D01*
X007684Y006768D01*
X007741Y006825D01*
X007684Y006882D01*
X007514Y006882D01*
X007873Y006882D02*
X007986Y006882D01*
X007929Y006939D02*
X007929Y006712D01*
X007873Y006655D01*
X007741Y006655D02*
X007570Y006655D01*
X007514Y006712D01*
X008128Y006655D02*
X008128Y006825D01*
X008184Y006882D01*
X008354Y006882D01*
X008354Y006655D01*
X008496Y006768D02*
X008723Y006768D01*
X008723Y006712D02*
X008723Y006825D01*
X008666Y006882D01*
X008553Y006882D01*
X008496Y006825D01*
X008496Y006768D01*
X008553Y006655D02*
X008666Y006655D01*
X008723Y006712D01*
X008864Y006655D02*
X009034Y006655D01*
X009091Y006712D01*
X009091Y006825D01*
X009034Y006882D01*
X008864Y006882D01*
X008864Y006598D01*
X008921Y006542D01*
X008978Y006542D01*
X009232Y006655D02*
X009232Y006882D01*
X009346Y006995D01*
X009459Y006882D01*
X009459Y006655D01*
X009601Y006655D02*
X009601Y006825D01*
X009657Y006882D01*
X009828Y006882D01*
X009828Y006655D01*
X009964Y006882D02*
X010021Y006882D01*
X010135Y006768D01*
X010135Y006655D02*
X010135Y006882D01*
X010276Y006825D02*
X010276Y006768D01*
X010503Y006768D01*
X010503Y006712D02*
X010503Y006825D01*
X010446Y006882D01*
X010333Y006882D01*
X010276Y006825D01*
X010333Y006655D02*
X010446Y006655D01*
X010503Y006712D01*
X010635Y006655D02*
X010692Y006712D01*
X010692Y006939D01*
X010748Y006882D02*
X010635Y006882D01*
X010881Y006882D02*
X010994Y006882D01*
X010937Y006939D02*
X010937Y006712D01*
X010881Y006655D01*
X011135Y006655D02*
X011135Y006825D01*
X011192Y006882D01*
X011306Y006882D01*
X011306Y006768D02*
X011135Y006768D01*
X011135Y006655D02*
X011306Y006655D01*
X011362Y006712D01*
X011306Y006768D01*
X011504Y006825D02*
X011504Y006939D01*
X011560Y006995D01*
X011731Y006995D01*
X011731Y006655D01*
X011731Y006768D02*
X011560Y006768D01*
X011504Y006825D01*
X009459Y006825D02*
X009232Y006825D01*
X010592Y008495D02*
X012012Y008495D01*
X012012Y010355D02*
X010592Y010355D01*
D14*
X009382Y009962D02*
X009382Y009828D01*
X009349Y009795D01*
X009282Y009795D01*
X009249Y009828D01*
X009161Y009795D02*
X009028Y009795D01*
X009094Y009795D02*
X009094Y009995D01*
X009161Y009928D01*
X009249Y009962D02*
X009282Y009995D01*
X009349Y009995D01*
X009382Y009962D01*
X008940Y009962D02*
X008940Y009828D01*
X008807Y009962D01*
X008807Y009828D01*
X008840Y009795D01*
X008907Y009795D01*
X008940Y009828D01*
X008940Y009962D02*
X008907Y009995D01*
X008840Y009995D01*
X008807Y009962D01*
X008719Y009928D02*
X008653Y009995D01*
X008653Y009795D01*
X008719Y009795D02*
X008586Y009795D01*
X008332Y009962D02*
X008265Y009895D01*
X008265Y009795D01*
X008265Y009895D02*
X008199Y009962D01*
X008199Y009995D01*
X008111Y009928D02*
X008044Y009995D01*
X008044Y009795D01*
X007978Y009795D02*
X008111Y009795D01*
X007890Y009828D02*
X007757Y009962D01*
X007757Y009828D01*
X007790Y009795D01*
X007857Y009795D01*
X007890Y009828D01*
X007890Y009962D01*
X007857Y009995D01*
X007790Y009995D01*
X007757Y009962D01*
X007669Y009962D02*
X007669Y009828D01*
X007536Y009962D01*
X007536Y009828D01*
X007569Y009795D01*
X007636Y009795D01*
X007669Y009828D01*
X007669Y009962D02*
X007636Y009995D01*
X007569Y009995D01*
X007536Y009962D01*
X007282Y009962D02*
X007282Y009828D01*
X007249Y009795D01*
X007182Y009795D01*
X007149Y009828D01*
X007061Y009795D02*
X006928Y009795D01*
X006994Y009795D02*
X006994Y009995D01*
X007061Y009928D01*
X007149Y009962D02*
X007182Y009995D01*
X007249Y009995D01*
X007282Y009962D01*
X006840Y009962D02*
X006840Y009828D01*
X006707Y009962D01*
X006707Y009828D01*
X006740Y009795D01*
X006807Y009795D01*
X006840Y009828D01*
X006840Y009962D02*
X006807Y009995D01*
X006740Y009995D01*
X006707Y009962D01*
X006619Y009962D02*
X006586Y009995D01*
X006519Y009995D01*
X006486Y009962D01*
X006619Y009828D01*
X006586Y009795D01*
X006519Y009795D01*
X006486Y009828D01*
X006486Y009962D01*
X006619Y009962D02*
X006619Y009828D01*
X008332Y009962D02*
X008332Y009995D01*
X008082Y011361D02*
X007882Y011361D01*
X007949Y011361D02*
X007949Y011461D01*
X007982Y011494D01*
X008049Y011494D01*
X008082Y011461D01*
X008082Y011361D01*
X008049Y011582D02*
X008082Y011615D01*
X008082Y011682D01*
X008049Y011715D01*
X007916Y011582D01*
X007882Y011615D01*
X007882Y011682D01*
X007916Y011715D01*
X008049Y011715D01*
X008049Y011582D02*
X007916Y011582D01*
X007762Y011462D02*
X007762Y012125D01*
X007882Y012124D02*
X007882Y012057D01*
X007916Y012024D01*
X007982Y012091D02*
X007982Y012124D01*
X007949Y012157D01*
X007916Y012157D01*
X007882Y012124D01*
X007982Y012124D02*
X008016Y012157D01*
X008049Y012157D01*
X008082Y012124D01*
X008082Y012057D01*
X008049Y012024D01*
X007849Y011936D02*
X007849Y011803D01*
X007682Y011770D02*
X007482Y011770D01*
X007482Y011615D02*
X007549Y011549D01*
X007549Y011582D02*
X007549Y011482D01*
X007482Y011482D02*
X007682Y011482D01*
X007682Y011582D01*
X007649Y011615D01*
X007582Y011615D01*
X007549Y011582D01*
X007682Y011703D02*
X007682Y011836D01*
X007649Y011924D02*
X007616Y011924D01*
X007582Y011957D01*
X007582Y012024D01*
X007549Y012057D01*
X007516Y012057D01*
X007482Y012024D01*
X007482Y011957D01*
X007516Y011924D01*
X007649Y011924D02*
X007682Y011957D01*
X007682Y012024D01*
X007649Y012057D01*
X007082Y012124D02*
X006982Y012024D01*
X006982Y012157D01*
X006882Y012124D02*
X007082Y012124D01*
X006762Y012125D02*
X006762Y011462D01*
X006682Y011482D02*
X006682Y011582D01*
X006649Y011615D01*
X006516Y011615D01*
X006482Y011582D01*
X006482Y011482D01*
X006682Y011482D01*
X006682Y011703D02*
X006682Y011836D01*
X006682Y011770D02*
X006482Y011770D01*
X006482Y011924D02*
X006682Y011924D01*
X006682Y012024D01*
X006649Y012057D01*
X006582Y012057D01*
X006549Y012024D01*
X006549Y011924D01*
X006549Y011991D02*
X006482Y012057D01*
X006849Y011936D02*
X006849Y011803D01*
X006916Y011715D02*
X006882Y011682D01*
X006882Y011615D01*
X006916Y011582D01*
X007049Y011715D01*
X006916Y011715D01*
X006916Y011582D02*
X007049Y011582D01*
X007082Y011615D01*
X007082Y011682D01*
X007049Y011715D01*
X007049Y011494D02*
X006982Y011494D01*
X006949Y011461D01*
X006949Y011361D01*
X006882Y011361D02*
X007082Y011361D01*
X007082Y011461D01*
X007049Y011494D01*
X006082Y011461D02*
X006082Y011361D01*
X005882Y011361D01*
X005949Y011361D02*
X005949Y011461D01*
X005982Y011494D01*
X006049Y011494D01*
X006082Y011461D01*
X006049Y011582D02*
X005916Y011582D01*
X006049Y011715D01*
X005916Y011715D01*
X005882Y011682D01*
X005882Y011615D01*
X005916Y011582D01*
X006049Y011582D02*
X006082Y011615D01*
X006082Y011682D01*
X006049Y011715D01*
X005849Y011803D02*
X005849Y011936D01*
X005916Y012024D02*
X005882Y012057D01*
X005882Y012124D01*
X005916Y012157D01*
X005982Y012157D01*
X006016Y012124D01*
X006016Y012091D01*
X005982Y012024D01*
X006082Y012024D01*
X006082Y012157D01*
X005762Y012025D02*
X005762Y011362D01*
X005682Y011382D02*
X005682Y011482D01*
X005649Y011515D01*
X005516Y011515D01*
X005482Y011482D01*
X005482Y011382D01*
X005682Y011382D01*
X005649Y011603D02*
X005616Y011603D01*
X005582Y011636D01*
X005582Y011703D01*
X005549Y011736D01*
X005516Y011736D01*
X005482Y011703D01*
X005482Y011636D01*
X005516Y011603D01*
X005649Y011603D02*
X005682Y011636D01*
X005682Y011703D01*
X005649Y011736D01*
X005682Y011824D02*
X005682Y011924D01*
X005649Y011957D01*
X005582Y011957D01*
X005549Y011924D01*
X005549Y011824D01*
X005549Y011891D02*
X005482Y011957D01*
X005482Y011824D02*
X005682Y011824D01*
X005082Y011682D02*
X005049Y011715D01*
X004916Y011582D01*
X004882Y011615D01*
X004882Y011682D01*
X004916Y011715D01*
X005049Y011715D01*
X005082Y011682D02*
X005082Y011615D01*
X005049Y011582D01*
X004916Y011582D01*
X004982Y011494D02*
X004949Y011461D01*
X004949Y011361D01*
X004882Y011361D02*
X005082Y011361D01*
X005082Y011461D01*
X005049Y011494D01*
X004982Y011494D01*
X004762Y011462D02*
X004762Y012125D01*
X004882Y012124D02*
X004882Y012057D01*
X004916Y012024D01*
X004982Y012024D01*
X004982Y012124D01*
X004949Y012157D01*
X004916Y012157D01*
X004882Y012124D01*
X004982Y012024D02*
X005049Y012091D01*
X005082Y012157D01*
X004849Y011936D02*
X004849Y011803D01*
X004682Y011803D02*
X004649Y011836D01*
X004682Y011803D02*
X004682Y011736D01*
X004649Y011703D01*
X004516Y011703D01*
X004482Y011736D01*
X004482Y011803D01*
X004516Y011836D01*
X004482Y011924D02*
X004682Y011924D01*
X004682Y012024D01*
X004649Y012057D01*
X004516Y012057D01*
X004482Y012024D01*
X004482Y011924D01*
X004516Y011615D02*
X004482Y011582D01*
X004482Y011482D01*
X004682Y011482D01*
X004682Y011582D01*
X004649Y011615D01*
X004516Y011615D01*
X004082Y011615D02*
X004082Y011682D01*
X004049Y011715D01*
X003916Y011582D01*
X003882Y011615D01*
X003882Y011682D01*
X003916Y011715D01*
X004049Y011715D01*
X004082Y011615D02*
X004049Y011582D01*
X003916Y011582D01*
X003982Y011494D02*
X003949Y011461D01*
X003949Y011361D01*
X003882Y011361D02*
X004082Y011361D01*
X004082Y011461D01*
X004049Y011494D01*
X003982Y011494D01*
X003762Y011557D02*
X003762Y011925D01*
X003849Y011936D02*
X003849Y011803D01*
X003682Y011798D02*
X003682Y011864D01*
X003682Y011831D02*
X003482Y011831D01*
X003482Y011798D02*
X003482Y011864D01*
X003482Y011710D02*
X003549Y011643D01*
X003549Y011677D02*
X003549Y011577D01*
X003482Y011577D02*
X003682Y011577D01*
X003682Y011677D01*
X003649Y011710D01*
X003582Y011710D01*
X003549Y011677D01*
X003882Y012024D02*
X003916Y012024D01*
X004049Y012157D01*
X004082Y012157D01*
X004082Y012024D01*
X008482Y012024D02*
X008482Y011957D01*
X008516Y011924D01*
X008582Y011957D02*
X008582Y012024D01*
X008549Y012057D01*
X008516Y012057D01*
X008482Y012024D01*
X008582Y011957D02*
X008616Y011924D01*
X008649Y011924D01*
X008682Y011957D01*
X008682Y012024D01*
X008649Y012057D01*
X008762Y012125D02*
X008762Y011462D01*
X008682Y011515D02*
X008649Y011482D01*
X008516Y011482D01*
X008482Y011515D01*
X008482Y011582D01*
X008516Y011615D01*
X008649Y011615D02*
X008682Y011582D01*
X008682Y011515D01*
X008682Y011703D02*
X008682Y011836D01*
X008682Y011770D02*
X008482Y011770D01*
X008849Y011803D02*
X008849Y011936D01*
X008882Y012024D02*
X009016Y012157D01*
X009049Y012157D01*
X009082Y012124D01*
X009082Y012057D01*
X009049Y012024D01*
X008882Y012024D02*
X008882Y012157D01*
X008916Y011715D02*
X008882Y011682D01*
X008882Y011615D01*
X008916Y011582D01*
X009049Y011715D01*
X008916Y011715D01*
X008916Y011582D02*
X009049Y011582D01*
X009082Y011615D01*
X009082Y011682D01*
X009049Y011715D01*
X009049Y011494D02*
X008982Y011494D01*
X008949Y011461D01*
X008949Y011361D01*
X008882Y011361D02*
X009082Y011361D01*
X009082Y011461D01*
X009049Y011494D01*
X009482Y011482D02*
X009682Y011482D01*
X009682Y011582D01*
X009649Y011615D01*
X009582Y011615D01*
X009549Y011582D01*
X009549Y011482D01*
X009549Y011549D02*
X009482Y011615D01*
X009482Y011703D02*
X009682Y011836D01*
X009682Y011924D02*
X009682Y012024D01*
X009649Y012057D01*
X009516Y012057D01*
X009482Y012024D01*
X009482Y011924D01*
X009682Y011924D01*
X009849Y011936D02*
X009849Y011803D01*
X009916Y011715D02*
X009882Y011682D01*
X009882Y011615D01*
X009916Y011582D01*
X010049Y011715D01*
X009916Y011715D01*
X009916Y011582D02*
X010049Y011582D01*
X010082Y011615D01*
X010082Y011682D01*
X010049Y011715D01*
X010049Y011494D02*
X009982Y011494D01*
X009949Y011461D01*
X009949Y011361D01*
X009882Y011361D02*
X010082Y011361D01*
X010082Y011461D01*
X010049Y011494D01*
X009682Y011703D02*
X009482Y011836D01*
X009882Y012057D02*
X009882Y012124D01*
X009916Y012157D01*
X010049Y012157D01*
X009916Y012024D01*
X009882Y012057D01*
X009916Y012024D02*
X010049Y012024D01*
X010082Y012057D01*
X010082Y012124D01*
X010049Y012157D01*
X010482Y012024D02*
X010482Y011924D01*
X010682Y011924D01*
X010682Y012024D01*
X010649Y012057D01*
X010516Y012057D01*
X010482Y012024D01*
X010482Y011836D02*
X010682Y011703D01*
X010682Y011615D02*
X010682Y011482D01*
X010682Y011549D02*
X010482Y011549D01*
X010482Y011703D02*
X010682Y011836D01*
X010849Y011803D02*
X010849Y011936D01*
X010882Y012024D02*
X010882Y012157D01*
X010882Y012091D02*
X011082Y012091D01*
X011016Y012024D01*
X011049Y011715D02*
X010916Y011582D01*
X010882Y011615D01*
X010882Y011682D01*
X010916Y011715D01*
X011049Y011715D01*
X011082Y011682D01*
X011082Y011615D01*
X011049Y011582D01*
X010916Y011582D01*
X010982Y011494D02*
X010949Y011461D01*
X010949Y011361D01*
X010882Y011361D02*
X011082Y011361D01*
X011082Y011461D01*
X011049Y011494D01*
X010982Y011494D01*
X011482Y011515D02*
X011516Y011482D01*
X011482Y011515D02*
X011482Y011582D01*
X011516Y011615D01*
X011549Y011615D01*
X011582Y011582D01*
X011582Y011515D01*
X011616Y011482D01*
X011649Y011482D01*
X011682Y011515D01*
X011682Y011582D01*
X011649Y011615D01*
X011649Y011703D02*
X011516Y011703D01*
X011482Y011736D01*
X011482Y011803D01*
X011516Y011836D01*
X011482Y011924D02*
X011482Y012057D01*
X011482Y011924D02*
X011682Y011924D01*
X011649Y011836D02*
X011682Y011803D01*
X011682Y011736D01*
X011649Y011703D01*
X011849Y011803D02*
X011849Y011936D01*
X011916Y012024D02*
X012049Y012157D01*
X011916Y012157D01*
X011882Y012124D01*
X011882Y012057D01*
X011916Y012024D01*
X012049Y012024D01*
X012082Y012057D01*
X012082Y012124D01*
X012049Y012157D01*
X012482Y012057D02*
X012616Y012057D01*
X012682Y011991D01*
X012616Y011924D01*
X012482Y011924D01*
X012516Y011836D02*
X012649Y011836D01*
X012682Y011803D01*
X012682Y011703D01*
X012482Y011703D01*
X012482Y011803D01*
X012516Y011836D01*
X012582Y011924D02*
X012582Y012057D01*
X012849Y011936D02*
X012849Y011803D01*
X013049Y011715D02*
X012916Y011582D01*
X012882Y011582D01*
X012982Y011494D02*
X012949Y011461D01*
X012949Y011361D01*
X012882Y011361D02*
X013082Y011361D01*
X013082Y011461D01*
X013049Y011494D01*
X012982Y011494D01*
X013082Y011582D02*
X013082Y011715D01*
X013049Y011715D01*
X013016Y012024D02*
X013082Y012091D01*
X012882Y012091D01*
X012882Y012157D02*
X012882Y012024D01*
X012649Y011615D02*
X012682Y011582D01*
X012682Y011515D01*
X012649Y011482D01*
X012616Y011482D01*
X012582Y011515D01*
X012582Y011582D01*
X012549Y011615D01*
X012516Y011615D01*
X012482Y011582D01*
X012482Y011515D01*
X012516Y011482D01*
X012082Y011461D02*
X012082Y011361D01*
X011882Y011361D01*
X011949Y011361D02*
X011949Y011461D01*
X011982Y011494D01*
X012049Y011494D01*
X012082Y011461D01*
X012082Y011582D02*
X012082Y011715D01*
X012049Y011715D01*
X011916Y011582D01*
X011882Y011582D01*
X013019Y009995D02*
X013086Y009995D01*
X013119Y009962D01*
X013207Y009962D02*
X013207Y009828D01*
X013240Y009795D01*
X013307Y009795D01*
X013340Y009828D01*
X013207Y009962D01*
X013240Y009995D01*
X013307Y009995D01*
X013340Y009962D01*
X013340Y009828D01*
X013428Y009795D02*
X013561Y009795D01*
X013494Y009795D02*
X013494Y009995D01*
X013561Y009928D01*
X013649Y009962D02*
X013682Y009995D01*
X013749Y009995D01*
X013782Y009962D01*
X013782Y009828D01*
X013749Y009795D01*
X013682Y009795D01*
X013649Y009828D01*
X013119Y009795D02*
X012986Y009928D01*
X012986Y009962D01*
X013019Y009995D01*
X012986Y009795D02*
X013119Y009795D01*
X014602Y009212D02*
X014635Y009245D01*
X014702Y009245D01*
X014735Y009212D01*
X014602Y009212D02*
X014602Y009178D01*
X014735Y009045D01*
X014602Y009045D01*
X014823Y009012D02*
X014956Y009012D01*
X015044Y009045D02*
X015177Y009045D01*
X015111Y009045D02*
X015111Y009245D01*
X015177Y009178D01*
X015265Y009245D02*
X015398Y009045D01*
X015486Y009045D02*
X015619Y009045D01*
X015553Y009045D02*
X015553Y009245D01*
X015619Y009178D01*
X015928Y009178D02*
X015961Y009145D01*
X015928Y009112D01*
X015928Y009078D01*
X015961Y009045D01*
X016028Y009045D01*
X016061Y009078D01*
X015994Y009145D02*
X015961Y009145D01*
X015928Y009178D02*
X015928Y009212D01*
X015961Y009245D01*
X016028Y009245D01*
X016061Y009212D01*
X016149Y009212D02*
X016149Y009145D01*
X016182Y009112D01*
X016282Y009112D01*
X016282Y009045D02*
X016282Y009245D01*
X016182Y009245D01*
X016149Y009212D01*
X015840Y009012D02*
X015707Y009012D01*
X015774Y008845D02*
X015707Y008778D01*
X015707Y008645D01*
X015619Y008645D02*
X015486Y008845D01*
X015398Y008812D02*
X015398Y008678D01*
X015365Y008645D01*
X015298Y008645D01*
X015265Y008678D01*
X015265Y008812D02*
X015298Y008845D01*
X015365Y008845D01*
X015398Y008812D01*
X015707Y008745D02*
X015840Y008745D01*
X015840Y008778D02*
X015774Y008845D01*
X015840Y008778D02*
X015840Y008645D01*
X015928Y008678D02*
X015928Y008812D01*
X015961Y008845D01*
X016061Y008845D01*
X016061Y008645D01*
X015961Y008645D01*
X015928Y008678D01*
X016149Y008678D02*
X016182Y008645D01*
X016249Y008645D01*
X016282Y008678D01*
X016249Y008745D02*
X016182Y008745D01*
X016149Y008712D01*
X016149Y008678D01*
X016249Y008745D02*
X016282Y008778D01*
X016282Y008812D01*
X016249Y008845D01*
X016182Y008845D01*
X016149Y008812D01*
X016149Y008045D02*
X016149Y007912D01*
X016215Y007845D01*
X016282Y007912D01*
X016282Y008045D01*
X016061Y008012D02*
X016061Y007878D01*
X016028Y007845D01*
X015961Y007845D01*
X015928Y007878D01*
X015840Y007878D02*
X015807Y007845D01*
X015740Y007845D01*
X015707Y007878D01*
X015619Y007845D02*
X015486Y008045D01*
X015398Y008045D02*
X015398Y007945D01*
X015332Y007978D01*
X015298Y007978D01*
X015265Y007945D01*
X015265Y007878D01*
X015298Y007845D01*
X015365Y007845D01*
X015398Y007878D01*
X015707Y008012D02*
X015740Y008045D01*
X015807Y008045D01*
X015840Y008012D01*
X015840Y007878D01*
X015928Y008012D02*
X015961Y008045D01*
X016028Y008045D01*
X016061Y008012D01*
X015398Y008045D02*
X015265Y008045D01*
X015177Y008045D02*
X015177Y007912D01*
X015111Y007845D01*
X015044Y007912D01*
X015044Y008045D01*
X014956Y008012D02*
X014923Y008045D01*
X014856Y008045D01*
X014823Y008012D01*
X014956Y007878D01*
X014923Y007845D01*
X014856Y007845D01*
X014823Y007878D01*
X014823Y008012D01*
X014956Y008012D02*
X014956Y007878D01*
X015111Y007245D02*
X015111Y007045D01*
X015177Y007045D02*
X015044Y007045D01*
X014956Y007012D02*
X014823Y007012D01*
X014735Y007078D02*
X014735Y007212D01*
X014702Y007245D01*
X014635Y007245D01*
X014602Y007212D01*
X014735Y007078D01*
X014702Y007045D01*
X014635Y007045D01*
X014602Y007078D01*
X014602Y007212D01*
X014588Y006845D02*
X014488Y006845D01*
X014455Y006812D01*
X014455Y006678D01*
X014488Y006645D01*
X014588Y006645D01*
X014588Y006845D01*
X014676Y006845D02*
X014809Y006645D01*
X014896Y006645D02*
X014963Y006712D01*
X014930Y006712D02*
X015030Y006712D01*
X015030Y006645D02*
X015030Y006845D01*
X014930Y006845D01*
X014896Y006812D01*
X014896Y006745D01*
X014930Y006712D01*
X014809Y006845D02*
X014676Y006645D01*
X015117Y006845D02*
X015251Y006645D01*
X015338Y006678D02*
X015338Y006812D01*
X015372Y006845D01*
X015439Y006845D01*
X015472Y006812D01*
X015472Y006678D01*
X015439Y006645D01*
X015372Y006645D01*
X015338Y006678D01*
X015553Y006645D02*
X015619Y006645D01*
X015586Y006645D02*
X015586Y006845D01*
X015619Y006845D02*
X015553Y006845D01*
X015707Y006812D02*
X015707Y006678D01*
X015740Y006645D01*
X015840Y006645D01*
X015840Y006845D01*
X015740Y006845D01*
X015707Y006812D01*
X015928Y006845D02*
X015928Y006645D01*
X015994Y006712D01*
X016061Y006645D01*
X016061Y006845D01*
X016149Y006812D02*
X016182Y006845D01*
X016249Y006845D01*
X016282Y006812D01*
X016282Y006778D01*
X016249Y006745D01*
X016182Y006745D01*
X016149Y006712D01*
X016149Y006678D01*
X016182Y006645D01*
X016249Y006645D01*
X016282Y006678D01*
X016282Y007045D02*
X016282Y007245D01*
X016182Y007245D01*
X016149Y007212D01*
X016149Y007145D01*
X016182Y007112D01*
X016282Y007112D01*
X016061Y007078D02*
X016028Y007045D01*
X015961Y007045D01*
X015928Y007078D01*
X015928Y007112D01*
X015961Y007145D01*
X015994Y007145D01*
X015961Y007145D02*
X015928Y007178D01*
X015928Y007212D01*
X015961Y007245D01*
X016028Y007245D01*
X016061Y007212D01*
X015840Y007012D02*
X015707Y007012D01*
X015619Y007045D02*
X015486Y007178D01*
X015486Y007212D01*
X015519Y007245D01*
X015586Y007245D01*
X015619Y007212D01*
X015619Y007045D02*
X015486Y007045D01*
X015398Y007045D02*
X015265Y007245D01*
X015177Y007178D02*
X015111Y007245D01*
X015111Y006245D02*
X015111Y006045D01*
X015177Y006045D02*
X015044Y006045D01*
X014956Y006012D02*
X014823Y006012D01*
X014735Y006045D02*
X014602Y006045D01*
X014669Y006045D02*
X014669Y006245D01*
X014735Y006178D01*
X015111Y006245D02*
X015177Y006178D01*
X015265Y006245D02*
X015398Y006045D01*
X015486Y006078D02*
X015519Y006045D01*
X015586Y006045D01*
X015619Y006078D01*
X015553Y006145D02*
X015519Y006145D01*
X015486Y006112D01*
X015486Y006078D01*
X015519Y006145D02*
X015486Y006178D01*
X015486Y006212D01*
X015519Y006245D01*
X015586Y006245D01*
X015619Y006212D01*
X015707Y006012D02*
X015840Y006012D01*
X015928Y006078D02*
X015961Y006045D01*
X016028Y006045D01*
X016061Y006078D01*
X015994Y006145D02*
X015961Y006145D01*
X015928Y006112D01*
X015928Y006078D01*
X015961Y006145D02*
X015928Y006178D01*
X015928Y006212D01*
X015961Y006245D01*
X016028Y006245D01*
X016061Y006212D01*
X016149Y006212D02*
X016182Y006245D01*
X016282Y006245D01*
X016282Y006045D01*
X016282Y006112D02*
X016182Y006112D01*
X016149Y006145D01*
X016149Y006212D01*
X016182Y005845D02*
X016249Y005845D01*
X016282Y005812D01*
X016282Y005778D01*
X016249Y005745D01*
X016182Y005745D01*
X016149Y005712D01*
X016149Y005678D01*
X016182Y005645D01*
X016249Y005645D01*
X016282Y005678D01*
X016149Y005812D02*
X016182Y005845D01*
X016061Y005845D02*
X016061Y005645D01*
X015994Y005712D01*
X015928Y005645D01*
X015928Y005845D01*
X015840Y005812D02*
X015840Y005678D01*
X015807Y005645D01*
X015740Y005645D01*
X015707Y005678D01*
X015619Y005645D02*
X015486Y005645D01*
X015398Y005645D02*
X015398Y005845D01*
X015365Y005745D02*
X015265Y005645D01*
X015177Y005645D02*
X015044Y005845D01*
X014956Y005845D02*
X014823Y005845D01*
X014890Y005845D02*
X014890Y005645D01*
X014735Y005645D02*
X014602Y005845D01*
X014514Y005845D02*
X014414Y005845D01*
X014381Y005812D01*
X014381Y005678D01*
X014414Y005645D01*
X014514Y005645D01*
X014514Y005845D01*
X014602Y005645D02*
X014735Y005845D01*
X015265Y005845D02*
X015398Y005712D01*
X015619Y005645D02*
X015619Y005845D01*
X015707Y005812D02*
X015740Y005845D01*
X015807Y005845D01*
X015840Y005812D01*
X015840Y005245D02*
X015707Y005245D01*
X015774Y005245D02*
X015774Y005045D01*
X015619Y005045D02*
X015486Y005245D01*
X015398Y005212D02*
X015365Y005245D01*
X015298Y005245D01*
X015265Y005212D01*
X015265Y005178D01*
X015298Y005145D01*
X015265Y005112D01*
X015265Y005078D01*
X015298Y005045D01*
X015365Y005045D01*
X015398Y005078D01*
X015332Y005145D02*
X015298Y005145D01*
X015177Y005012D02*
X015044Y005012D01*
X014956Y005045D02*
X014956Y005078D01*
X014823Y005212D01*
X014823Y005245D01*
X014956Y005245D01*
X014956Y004845D02*
X014856Y004845D01*
X014823Y004812D01*
X014823Y004745D01*
X014856Y004712D01*
X014956Y004712D01*
X014890Y004712D02*
X014823Y004645D01*
X014956Y004645D02*
X014956Y004845D01*
X015044Y004845D02*
X015177Y004845D01*
X015111Y004845D02*
X015111Y004645D01*
X015265Y004678D02*
X015265Y004812D01*
X015298Y004845D01*
X015398Y004845D01*
X015398Y004645D01*
X015298Y004645D01*
X015265Y004678D01*
X015486Y004845D02*
X015619Y004645D01*
X015774Y004645D02*
X015774Y004845D01*
X015840Y004845D02*
X015707Y004845D01*
X015928Y004812D02*
X015961Y004845D01*
X016028Y004845D01*
X016061Y004812D01*
X016061Y004778D01*
X016028Y004745D01*
X015961Y004745D01*
X015928Y004712D01*
X015928Y004678D01*
X015961Y004645D01*
X016028Y004645D01*
X016061Y004678D01*
X016149Y004645D02*
X016215Y004712D01*
X016182Y004712D02*
X016282Y004712D01*
X016282Y004645D02*
X016282Y004845D01*
X016182Y004845D01*
X016149Y004812D01*
X016149Y004745D01*
X016182Y004712D01*
X016149Y005045D02*
X016215Y005112D01*
X016182Y005112D02*
X016282Y005112D01*
X016282Y005045D02*
X016282Y005245D01*
X016182Y005245D01*
X016149Y005212D01*
X016149Y005145D01*
X016182Y005112D01*
X016061Y005078D02*
X016028Y005045D01*
X015961Y005045D01*
X015928Y005078D01*
X015928Y005112D01*
X015961Y005145D01*
X016028Y005145D01*
X016061Y005178D01*
X016061Y005212D01*
X016028Y005245D01*
X015961Y005245D01*
X015928Y005212D01*
X015961Y004345D02*
X015928Y004312D01*
X015928Y004278D01*
X015961Y004245D01*
X015928Y004212D01*
X015928Y004178D01*
X015961Y004145D01*
X016028Y004145D01*
X016061Y004178D01*
X015994Y004245D02*
X015961Y004245D01*
X015961Y004345D02*
X016028Y004345D01*
X016061Y004312D01*
X016149Y004312D02*
X016182Y004345D01*
X016282Y004345D01*
X016282Y004145D01*
X016282Y004212D02*
X016182Y004212D01*
X016149Y004245D01*
X016149Y004312D01*
X015840Y004112D02*
X015707Y004112D01*
X015619Y004178D02*
X015486Y004312D01*
X015486Y004178D01*
X015519Y004145D01*
X015586Y004145D01*
X015619Y004178D01*
X015619Y004312D01*
X015586Y004345D01*
X015519Y004345D01*
X015486Y004312D01*
X015398Y004145D02*
X015265Y004345D01*
X015177Y004278D02*
X015111Y004345D01*
X015111Y004145D01*
X015177Y004145D02*
X015044Y004145D01*
X014956Y004112D02*
X014823Y004112D01*
X014735Y004178D02*
X014702Y004145D01*
X014635Y004145D01*
X014602Y004178D01*
X014602Y004212D01*
X014635Y004245D01*
X014669Y004245D01*
X014635Y004245D02*
X014602Y004278D01*
X014602Y004312D01*
X014635Y004345D01*
X014702Y004345D01*
X014735Y004312D01*
X014856Y003945D02*
X014923Y003945D01*
X014956Y003912D01*
X014956Y003878D01*
X014923Y003845D01*
X014856Y003845D01*
X014823Y003812D01*
X014823Y003778D01*
X014856Y003745D01*
X014923Y003745D01*
X014956Y003778D01*
X015111Y003745D02*
X015111Y003945D01*
X015177Y003945D02*
X015044Y003945D01*
X014856Y003945D02*
X014823Y003912D01*
X015265Y003912D02*
X015265Y003845D01*
X015298Y003812D01*
X015398Y003812D01*
X015332Y003812D02*
X015265Y003745D01*
X015398Y003745D02*
X015398Y003945D01*
X015298Y003945D01*
X015265Y003912D01*
X015486Y003945D02*
X015619Y003745D01*
X015707Y003745D02*
X015840Y003745D01*
X015840Y003945D01*
X015928Y003912D02*
X015961Y003945D01*
X016028Y003945D01*
X016061Y003912D01*
X016061Y003778D01*
X016028Y003745D01*
X015961Y003745D01*
X015928Y003778D01*
X016149Y003778D02*
X016182Y003745D01*
X016249Y003745D01*
X016282Y003778D01*
X016249Y003845D02*
X016182Y003845D01*
X016149Y003812D01*
X016149Y003778D01*
X016249Y003845D02*
X016282Y003878D01*
X016282Y003912D01*
X016249Y003945D01*
X016182Y003945D01*
X016149Y003912D01*
X016182Y003245D02*
X016149Y003212D01*
X016149Y003145D01*
X016182Y003112D01*
X016282Y003112D01*
X016282Y003045D02*
X016282Y003245D01*
X016182Y003245D01*
X016061Y003212D02*
X016028Y003245D01*
X015961Y003245D01*
X015928Y003212D01*
X015928Y003178D01*
X015961Y003145D01*
X015928Y003112D01*
X015928Y003078D01*
X015961Y003045D01*
X016028Y003045D01*
X016061Y003078D01*
X015994Y003145D02*
X015961Y003145D01*
X015840Y003012D02*
X015707Y003012D01*
X015619Y003078D02*
X015586Y003045D01*
X015519Y003045D01*
X015486Y003078D01*
X015486Y003112D01*
X015519Y003145D01*
X015619Y003145D01*
X015619Y003078D01*
X015619Y003145D02*
X015553Y003212D01*
X015486Y003245D01*
X015398Y003045D02*
X015265Y003245D01*
X015177Y003212D02*
X015144Y003245D01*
X015077Y003245D01*
X015044Y003212D01*
X015044Y003178D01*
X015077Y003145D01*
X015044Y003112D01*
X015044Y003078D01*
X015077Y003045D01*
X015144Y003045D01*
X015177Y003078D01*
X015111Y003145D02*
X015077Y003145D01*
X014956Y003012D02*
X014823Y003012D01*
X014735Y003078D02*
X014702Y003045D01*
X014635Y003045D01*
X014602Y003078D01*
X014602Y003145D01*
X014635Y003178D01*
X014669Y003178D01*
X014735Y003145D01*
X014735Y003245D01*
X014602Y003245D01*
X014635Y002845D02*
X014602Y002812D01*
X014602Y002745D01*
X014635Y002712D01*
X014735Y002712D01*
X014669Y002712D02*
X014602Y002645D01*
X014735Y002645D02*
X014735Y002845D01*
X014635Y002845D01*
X014514Y002845D02*
X014381Y002845D01*
X014448Y002845D02*
X014448Y002645D01*
X014823Y002645D02*
X014823Y002778D01*
X014890Y002845D01*
X014956Y002778D01*
X014956Y002645D01*
X015044Y002678D02*
X015044Y002845D01*
X014956Y002745D02*
X014823Y002745D01*
X015044Y002678D02*
X015077Y002645D01*
X015144Y002645D01*
X015177Y002678D01*
X015177Y002845D01*
X015265Y002845D02*
X015398Y002645D01*
X015486Y002678D02*
X015519Y002645D01*
X015586Y002645D01*
X015619Y002678D01*
X015619Y002812D01*
X015586Y002845D01*
X015519Y002845D01*
X015486Y002812D01*
X015486Y002745D02*
X015553Y002745D01*
X015486Y002745D02*
X015486Y002678D01*
X015707Y002645D02*
X015707Y002778D01*
X015774Y002845D01*
X015840Y002778D01*
X015840Y002645D01*
X015840Y002745D02*
X015707Y002745D01*
X015928Y002845D02*
X016061Y002845D01*
X015994Y002845D02*
X015994Y002645D01*
X016182Y002678D02*
X016182Y002845D01*
X016215Y002845D02*
X016149Y002845D01*
X016182Y002678D02*
X016215Y002645D01*
X016249Y002645D01*
X016282Y002678D01*
X012982Y001324D02*
X012982Y001257D01*
X012949Y001224D01*
X012816Y001224D01*
X012949Y001357D01*
X012816Y001357D01*
X012782Y001324D01*
X012782Y001257D01*
X012816Y001224D01*
X012749Y001136D02*
X012749Y001003D01*
X012782Y000915D02*
X012782Y000782D01*
X012916Y000915D01*
X012949Y000915D01*
X012982Y000882D01*
X012982Y000815D01*
X012949Y000782D01*
X012949Y000694D02*
X012882Y000694D01*
X012849Y000661D01*
X012849Y000561D01*
X012782Y000561D02*
X012982Y000561D01*
X012982Y000661D01*
X012949Y000694D01*
X012622Y000678D02*
X012422Y000678D01*
X012456Y000766D02*
X012422Y000799D01*
X012422Y000866D01*
X012456Y000899D01*
X012589Y000899D01*
X012622Y000866D01*
X012622Y000799D01*
X012589Y000766D01*
X012456Y000766D01*
X012556Y000612D02*
X012622Y000678D01*
X012556Y000612D02*
X012622Y000545D01*
X012422Y000545D01*
X011982Y000561D02*
X011982Y000661D01*
X011949Y000694D01*
X011882Y000694D01*
X011849Y000661D01*
X011849Y000561D01*
X011782Y000561D02*
X011982Y000561D01*
X011949Y000782D02*
X011982Y000815D01*
X011982Y000882D01*
X011949Y000915D01*
X011916Y000915D01*
X011782Y000782D01*
X011782Y000915D01*
X011749Y001003D02*
X011749Y001136D01*
X011782Y001224D02*
X011782Y001357D01*
X011782Y001291D02*
X011982Y001291D01*
X011916Y001224D01*
X011622Y001268D02*
X011589Y001234D01*
X011456Y001234D01*
X011422Y001268D01*
X011422Y001334D01*
X011456Y001368D01*
X011589Y001368D01*
X011622Y001334D01*
X011622Y001268D01*
X011589Y001147D02*
X011622Y001113D01*
X011622Y001047D01*
X011589Y001013D01*
X011556Y001013D01*
X011522Y001047D01*
X011522Y001113D01*
X011489Y001147D01*
X011456Y001147D01*
X011422Y001113D01*
X011422Y001047D01*
X011456Y001013D01*
X011422Y000933D02*
X011422Y000866D01*
X011422Y000899D02*
X011622Y000899D01*
X011622Y000866D02*
X011622Y000933D01*
X011622Y000778D02*
X011422Y000778D01*
X011422Y000645D02*
X011622Y000645D01*
X011556Y000712D01*
X011622Y000778D01*
X010982Y000815D02*
X010949Y000782D01*
X010982Y000815D02*
X010982Y000882D01*
X010949Y000915D01*
X010916Y000915D01*
X010782Y000782D01*
X010782Y000915D01*
X010749Y001003D02*
X010749Y001136D01*
X010782Y001224D02*
X010916Y001357D01*
X010949Y001357D01*
X010982Y001324D01*
X010982Y001257D01*
X010949Y001224D01*
X010782Y001224D02*
X010782Y001357D01*
X010622Y001320D02*
X010489Y001187D01*
X010522Y001220D02*
X010422Y001320D01*
X010422Y001187D02*
X010622Y001187D01*
X010589Y001099D02*
X010622Y001066D01*
X010622Y000999D01*
X010589Y000966D01*
X010456Y000966D01*
X010422Y000999D01*
X010422Y001066D01*
X010456Y001099D01*
X010456Y000878D02*
X010422Y000845D01*
X010422Y000778D01*
X010456Y000745D01*
X010522Y000778D02*
X010522Y000845D01*
X010489Y000878D01*
X010456Y000878D01*
X010522Y000778D02*
X010556Y000745D01*
X010589Y000745D01*
X010622Y000778D01*
X010622Y000845D01*
X010589Y000878D01*
X010849Y000661D02*
X010849Y000561D01*
X010782Y000561D02*
X010982Y000561D01*
X010982Y000661D01*
X010949Y000694D01*
X010882Y000694D01*
X010849Y000661D01*
X009982Y000661D02*
X009982Y000561D01*
X009782Y000561D01*
X009849Y000561D02*
X009849Y000661D01*
X009882Y000694D01*
X009949Y000694D01*
X009982Y000661D01*
X009949Y000782D02*
X009982Y000815D01*
X009982Y000882D01*
X009949Y000915D01*
X009916Y000915D01*
X009782Y000782D01*
X009782Y000915D01*
X009749Y001003D02*
X009749Y001136D01*
X009816Y001224D02*
X009782Y001257D01*
X009782Y001324D01*
X009816Y001357D01*
X009849Y001357D01*
X009882Y001324D01*
X009882Y001291D01*
X009882Y001324D02*
X009916Y001357D01*
X009949Y001357D01*
X009982Y001324D01*
X009982Y001257D01*
X009949Y001224D01*
X009602Y001409D02*
X009602Y000525D01*
X009522Y000578D02*
X009522Y000645D01*
X009489Y000678D01*
X009422Y000645D02*
X009389Y000678D01*
X009356Y000678D01*
X009322Y000645D01*
X009322Y000578D01*
X009356Y000545D01*
X009422Y000578D02*
X009422Y000645D01*
X009422Y000578D02*
X009456Y000545D01*
X009489Y000545D01*
X009522Y000578D01*
X009489Y000766D02*
X009456Y000766D01*
X009422Y000799D01*
X009422Y000866D01*
X009389Y000899D01*
X009356Y000899D01*
X009322Y000866D01*
X009322Y000799D01*
X009356Y000766D01*
X009489Y000766D02*
X009522Y000799D01*
X009522Y000866D01*
X009489Y000899D01*
X009522Y000987D02*
X009322Y000987D01*
X009322Y001120D01*
X009322Y001208D02*
X009322Y001341D01*
X009322Y001208D02*
X009522Y001208D01*
X009522Y001120D02*
X009522Y000987D01*
X009422Y000987D02*
X009422Y001054D01*
X008982Y001224D02*
X008982Y001357D01*
X008949Y001357D01*
X008816Y001224D01*
X008782Y001224D01*
X008749Y001136D02*
X008749Y001003D01*
X008782Y000915D02*
X008782Y000782D01*
X008916Y000915D01*
X008949Y000915D01*
X008982Y000882D01*
X008982Y000815D01*
X008949Y000782D01*
X008949Y000694D02*
X008882Y000694D01*
X008849Y000661D01*
X008849Y000561D01*
X008782Y000561D02*
X008982Y000561D01*
X008982Y000661D01*
X008949Y000694D01*
X008602Y000625D02*
X008602Y001288D01*
X008522Y001220D02*
X008322Y001220D01*
X008522Y001087D01*
X008322Y001087D01*
X008322Y000933D02*
X008522Y000933D01*
X008522Y000999D02*
X008522Y000866D01*
X008456Y000778D02*
X008322Y000778D01*
X008422Y000778D02*
X008422Y000645D01*
X008456Y000645D02*
X008322Y000645D01*
X008456Y000645D02*
X008522Y000712D01*
X008456Y000778D01*
X007982Y000815D02*
X007949Y000782D01*
X007982Y000815D02*
X007982Y000882D01*
X007949Y000915D01*
X007916Y000915D01*
X007782Y000782D01*
X007782Y000915D01*
X007749Y001003D02*
X007749Y001136D01*
X007816Y001224D02*
X007782Y001257D01*
X007782Y001324D01*
X007816Y001357D01*
X007849Y001357D01*
X007882Y001324D01*
X007882Y001224D01*
X007816Y001224D01*
X007882Y001224D02*
X007949Y001291D01*
X007982Y001357D01*
X007602Y001314D02*
X007602Y000725D01*
X007522Y000745D02*
X007522Y000812D01*
X007522Y000778D02*
X007322Y000778D01*
X007322Y000745D02*
X007322Y000812D01*
X007322Y000892D02*
X007522Y000892D01*
X007522Y000992D01*
X007489Y001026D01*
X007422Y001026D01*
X007389Y000992D01*
X007389Y000892D01*
X007389Y000959D02*
X007322Y001026D01*
X007356Y001113D02*
X007322Y001147D01*
X007322Y001213D01*
X007356Y001247D01*
X007489Y001247D01*
X007522Y001213D01*
X007522Y001147D01*
X007489Y001113D01*
X007356Y001113D01*
X007389Y001180D02*
X007322Y001247D01*
X006982Y001224D02*
X006882Y001224D01*
X006916Y001291D01*
X006916Y001324D01*
X006882Y001357D01*
X006816Y001357D01*
X006782Y001324D01*
X006782Y001257D01*
X006816Y001224D01*
X006749Y001136D02*
X006749Y001003D01*
X006782Y000915D02*
X006782Y000782D01*
X006916Y000915D01*
X006949Y000915D01*
X006982Y000882D01*
X006982Y000815D01*
X006949Y000782D01*
X006949Y000694D02*
X006882Y000694D01*
X006849Y000661D01*
X006849Y000561D01*
X006782Y000561D02*
X006982Y000561D01*
X006982Y000661D01*
X006949Y000694D01*
X006622Y000678D02*
X006589Y000645D01*
X006556Y000645D01*
X006522Y000678D01*
X006522Y000745D01*
X006489Y000778D01*
X006456Y000778D01*
X006422Y000745D01*
X006422Y000678D01*
X006456Y000645D01*
X006622Y000678D02*
X006622Y000745D01*
X006589Y000778D01*
X006589Y000866D02*
X006556Y000866D01*
X006522Y000899D01*
X006522Y000966D01*
X006489Y000999D01*
X006456Y000999D01*
X006422Y000966D01*
X006422Y000899D01*
X006456Y000866D01*
X006589Y000866D02*
X006622Y000899D01*
X006622Y000966D01*
X006589Y000999D01*
X006556Y001087D02*
X006622Y001154D01*
X006422Y001154D01*
X006422Y001220D02*
X006422Y001087D01*
X005982Y000882D02*
X005982Y000815D01*
X005949Y000782D01*
X005949Y000694D02*
X005882Y000694D01*
X005849Y000661D01*
X005849Y000561D01*
X005782Y000561D02*
X005982Y000561D01*
X005982Y000661D01*
X005949Y000694D01*
X005782Y000782D02*
X005916Y000915D01*
X005949Y000915D01*
X005982Y000882D01*
X005782Y000915D02*
X005782Y000782D01*
X005622Y000778D02*
X005589Y000745D01*
X005556Y000745D01*
X005522Y000778D01*
X005522Y000845D01*
X005489Y000878D01*
X005456Y000878D01*
X005422Y000845D01*
X005422Y000778D01*
X005456Y000745D01*
X005622Y000778D02*
X005622Y000845D01*
X005589Y000878D01*
X005589Y000966D02*
X005556Y000966D01*
X005522Y000999D01*
X005522Y001066D01*
X005489Y001099D01*
X005456Y001099D01*
X005422Y001066D01*
X005422Y000999D01*
X005456Y000966D01*
X005589Y000966D02*
X005622Y000999D01*
X005622Y001066D01*
X005589Y001099D01*
X005589Y001187D02*
X005622Y001220D01*
X005622Y001287D01*
X005589Y001320D01*
X005556Y001320D01*
X005422Y001187D01*
X005422Y001320D01*
X005782Y001324D02*
X005982Y001324D01*
X005882Y001224D01*
X005882Y001357D01*
X005749Y001136D02*
X005749Y001003D01*
X004982Y000849D02*
X004782Y000849D01*
X004782Y000915D02*
X004782Y000782D01*
X004882Y000694D02*
X004849Y000661D01*
X004849Y000561D01*
X004782Y000561D02*
X004982Y000561D01*
X004982Y000661D01*
X004949Y000694D01*
X004882Y000694D01*
X004916Y000782D02*
X004982Y000849D01*
X004749Y001003D02*
X004749Y001136D01*
X004816Y001224D02*
X004782Y001257D01*
X004782Y001324D01*
X004816Y001357D01*
X004849Y001357D01*
X004882Y001324D01*
X004882Y001224D01*
X004816Y001224D01*
X004882Y001224D02*
X004949Y001291D01*
X004982Y001357D01*
X004622Y001180D02*
X004556Y001113D01*
X004589Y001026D02*
X004622Y000992D01*
X004622Y000926D01*
X004589Y000892D01*
X004456Y000892D01*
X004422Y000926D01*
X004422Y000992D01*
X004456Y001026D01*
X004589Y001026D01*
X004622Y001180D02*
X004422Y001180D01*
X004422Y001113D02*
X004422Y001247D01*
X003982Y001224D02*
X003882Y001224D01*
X003916Y001291D01*
X003916Y001324D01*
X003882Y001357D01*
X003816Y001357D01*
X003782Y001324D01*
X003782Y001257D01*
X003816Y001224D01*
X003749Y001136D02*
X003749Y001003D01*
X003782Y000915D02*
X003782Y000782D01*
X003782Y000849D02*
X003982Y000849D01*
X003916Y000782D01*
X003949Y000694D02*
X003882Y000694D01*
X003849Y000661D01*
X003849Y000561D01*
X003782Y000561D02*
X003982Y000561D01*
X003982Y000661D01*
X003949Y000694D01*
X003622Y000745D02*
X003622Y000812D01*
X003622Y000778D02*
X003422Y000778D01*
X003422Y000745D02*
X003422Y000812D01*
X003456Y000892D02*
X003422Y000926D01*
X003422Y000992D01*
X003456Y001026D01*
X003589Y001026D01*
X003622Y000992D01*
X003622Y000926D01*
X003589Y000892D01*
X003456Y000892D01*
X003422Y001113D02*
X003556Y001247D01*
X003589Y001247D01*
X003622Y001213D01*
X003622Y001147D01*
X003589Y001113D01*
X003422Y001113D02*
X003422Y001247D01*
X003982Y001224D02*
X003982Y001357D01*
X004422Y000812D02*
X004422Y000745D01*
X004422Y000778D02*
X004622Y000778D01*
X004622Y000745D02*
X004622Y000812D01*
X006982Y001224D02*
X006982Y001357D01*
X007849Y000661D02*
X007849Y000561D01*
X007782Y000561D02*
X007982Y000561D01*
X007982Y000661D01*
X007949Y000694D01*
X007882Y000694D01*
X007849Y000661D01*
X012422Y001020D02*
X012456Y000987D01*
X012422Y001020D02*
X012422Y001087D01*
X012456Y001120D01*
X012489Y001120D01*
X012522Y001087D01*
X012522Y001020D01*
X012556Y000987D01*
X012589Y000987D01*
X012622Y001020D01*
X012622Y001087D01*
X012589Y001120D01*
X012622Y001208D02*
X012622Y001275D01*
X012622Y001241D02*
X012422Y001241D01*
X012422Y001208D02*
X012422Y001275D01*
X012949Y001357D02*
X012982Y001324D01*
X005166Y007388D02*
X005133Y007355D01*
X005066Y007355D01*
X005033Y007388D01*
X004945Y007355D02*
X004812Y007355D01*
X004878Y007355D02*
X004878Y007555D01*
X004945Y007488D01*
X005033Y007522D02*
X005066Y007555D01*
X005133Y007555D01*
X005166Y007522D01*
X005166Y007388D01*
X004724Y007388D02*
X004691Y007355D01*
X004624Y007355D01*
X004591Y007388D01*
X004591Y007522D01*
X004724Y007388D01*
X004724Y007522D01*
X004691Y007555D01*
X004624Y007555D01*
X004591Y007522D01*
X004503Y007522D02*
X004470Y007555D01*
X004403Y007555D01*
X004370Y007522D01*
X004370Y007488D01*
X004403Y007455D01*
X004370Y007422D01*
X004370Y007388D01*
X004403Y007355D01*
X004470Y007355D01*
X004503Y007388D01*
X004436Y007455D02*
X004403Y007455D01*
X009186Y008278D02*
X009219Y008245D01*
X009286Y008245D01*
X009319Y008278D01*
X009186Y008412D01*
X009186Y008278D01*
X009319Y008278D02*
X009319Y008412D01*
X009286Y008445D01*
X009219Y008445D01*
X009186Y008412D01*
X009407Y008412D02*
X009540Y008278D01*
X009507Y008245D01*
X009440Y008245D01*
X009407Y008278D01*
X009407Y008412D01*
X009440Y008445D01*
X009507Y008445D01*
X009540Y008412D01*
X009540Y008278D01*
X009628Y008245D02*
X009761Y008245D01*
X009694Y008245D02*
X009694Y008445D01*
X009761Y008378D01*
X009849Y008445D02*
X009849Y008278D01*
X009882Y008245D01*
X009949Y008245D01*
X009982Y008278D01*
X009982Y008445D01*
X014823Y008678D02*
X014856Y008645D01*
X014923Y008645D01*
X014956Y008678D01*
X014923Y008745D02*
X014856Y008745D01*
X014823Y008712D01*
X014823Y008678D01*
X014923Y008745D02*
X014956Y008778D01*
X014956Y008812D01*
X014923Y008845D01*
X014856Y008845D01*
X014823Y008812D01*
X015044Y008845D02*
X015177Y008845D01*
X015111Y008845D02*
X015111Y008645D01*
X015177Y009845D02*
X015177Y010045D01*
X015044Y009845D01*
X015044Y010045D01*
X014956Y010045D02*
X014956Y009845D01*
X014856Y009845D01*
X014823Y009878D01*
X014823Y010012D01*
X014856Y010045D01*
X014956Y010045D01*
X015265Y010012D02*
X015298Y010045D01*
X015365Y010045D01*
X015398Y010012D01*
X015398Y009878D01*
X015365Y009845D01*
X015298Y009845D01*
X015265Y009878D01*
X015265Y009945D01*
X015332Y009945D01*
X015486Y010045D02*
X015619Y009845D01*
X015707Y009878D02*
X015707Y010012D01*
X015740Y010045D01*
X015840Y010045D01*
X015840Y009845D01*
X015740Y009845D01*
X015707Y009878D01*
X015928Y009845D02*
X015928Y010045D01*
X016061Y010045D02*
X015928Y009845D01*
X016061Y009845D02*
X016061Y010045D01*
X016149Y010012D02*
X016182Y010045D01*
X016249Y010045D01*
X016282Y010012D01*
X016282Y009878D01*
X016249Y009845D01*
X016182Y009845D01*
X016149Y009878D01*
X016149Y009945D01*
X016215Y009945D01*
D15*
X016852Y011233D03*
X016915Y011295D03*
X016977Y011358D03*
X017062Y011573D03*
X016915Y011610D03*
X017000Y011825D03*
X016985Y011908D03*
X017122Y011948D03*
X016985Y012098D03*
X016985Y001598D03*
X016985Y001408D03*
X017000Y001325D03*
X017122Y001448D03*
X017062Y001073D03*
X016915Y001110D03*
X016977Y000858D03*
X016915Y000795D03*
X016852Y000733D03*
D16*
X016852Y000735D03*
X016915Y000798D03*
X016977Y000860D03*
X017062Y001075D03*
X016915Y001108D03*
X017000Y001323D03*
X016985Y001410D03*
X017122Y001445D03*
X016985Y001595D03*
X016607Y001380D03*
X016325Y001305D03*
X016135Y001203D03*
X016852Y011235D03*
X016915Y011298D03*
X016977Y011360D03*
X017062Y011575D03*
X016915Y011608D03*
X017000Y011823D03*
X016985Y011910D03*
X017122Y011945D03*
X016985Y012095D03*
X016607Y011880D03*
X016325Y011805D03*
X016135Y011703D03*
D17*
X016137Y011698D03*
X016140Y011693D03*
X016265Y011805D03*
X016547Y011805D03*
X016722Y011828D03*
X016722Y011830D03*
X016902Y011690D03*
X016915Y011605D03*
X017062Y011578D03*
X017072Y011490D03*
X017072Y011415D03*
X016977Y011363D03*
X016915Y011300D03*
X016852Y011238D03*
X017000Y011820D03*
X016985Y011913D03*
X017122Y011943D03*
X017082Y012040D03*
X016985Y012093D03*
X015500Y011810D03*
X015500Y011808D03*
X015500Y011805D03*
X015500Y011803D03*
X015500Y011713D03*
X015500Y011710D03*
X015500Y011708D03*
X015500Y011705D03*
X015500Y011703D03*
X016985Y001593D03*
X017082Y001540D03*
X017122Y001443D03*
X016985Y001413D03*
X017000Y001320D03*
X016902Y001190D03*
X016915Y001105D03*
X017062Y001078D03*
X017072Y000990D03*
X017072Y000915D03*
X016977Y000863D03*
X016915Y000800D03*
X016852Y000738D03*
X016140Y001193D03*
X016137Y001198D03*
X016265Y001305D03*
X016547Y001305D03*
X016722Y001328D03*
X016722Y001330D03*
X015500Y001310D03*
X015500Y001308D03*
X015500Y001305D03*
X015500Y001303D03*
X015500Y001213D03*
X015500Y001210D03*
X015500Y001208D03*
X015500Y001205D03*
X015500Y001203D03*
D18*
X015502Y001188D03*
X015502Y001185D03*
X015502Y001183D03*
X015502Y001180D03*
X015502Y001178D03*
X015502Y001328D03*
X015502Y001330D03*
X015502Y001333D03*
X015502Y001335D03*
X015887Y001333D03*
X015887Y001330D03*
X015887Y001328D03*
X015887Y001325D03*
X015887Y001323D03*
X015887Y001320D03*
X015995Y001198D03*
X015995Y001195D03*
X015995Y001193D03*
X015995Y001190D03*
X015995Y001188D03*
X015995Y001185D03*
X015995Y001183D03*
X015995Y001180D03*
X016140Y001188D03*
X016425Y001300D03*
X016725Y001318D03*
X016725Y001320D03*
X016712Y001150D03*
X016915Y001103D03*
X016977Y001040D03*
X017062Y001080D03*
X017000Y001143D03*
X017000Y001318D03*
X016985Y001415D03*
X017122Y001440D03*
X016985Y001590D03*
X016977Y000865D03*
X016915Y000803D03*
X016852Y000740D03*
X016852Y011240D03*
X016915Y011303D03*
X016977Y011365D03*
X016977Y011540D03*
X016915Y011603D03*
X017000Y011643D03*
X017062Y011580D03*
X017000Y011818D03*
X016985Y011915D03*
X017122Y011940D03*
X016985Y012090D03*
X016725Y011820D03*
X016725Y011818D03*
X016712Y011650D03*
X016425Y011800D03*
X016140Y011688D03*
X015995Y011688D03*
X015995Y011690D03*
X015995Y011693D03*
X015995Y011695D03*
X015995Y011698D03*
X015995Y011685D03*
X015995Y011683D03*
X015995Y011680D03*
X015887Y011820D03*
X015887Y011823D03*
X015887Y011825D03*
X015887Y011828D03*
X015887Y011830D03*
X015887Y011833D03*
X015502Y011833D03*
X015502Y011835D03*
X015502Y011830D03*
X015502Y011828D03*
X015502Y011688D03*
X015502Y011685D03*
X015502Y011683D03*
X015502Y011680D03*
X015502Y011678D03*
D19*
X015505Y011673D03*
X015762Y011650D03*
X015760Y011805D03*
X015890Y011838D03*
X016067Y011610D03*
X016152Y011655D03*
X016155Y011653D03*
X016332Y011800D03*
X016615Y011875D03*
X016727Y011810D03*
X016727Y011808D03*
X016915Y011600D03*
X016977Y011538D03*
X017062Y011583D03*
X017000Y011645D03*
X017072Y011488D03*
X017072Y011418D03*
X016977Y011368D03*
X016915Y011305D03*
X016852Y011243D03*
X017122Y011938D03*
X017122Y001438D03*
X016727Y001310D03*
X016727Y001308D03*
X016615Y001375D03*
X016332Y001300D03*
X016155Y001153D03*
X016152Y001155D03*
X016067Y001110D03*
X015762Y001150D03*
X015760Y001305D03*
X015890Y001338D03*
X015505Y001173D03*
X016852Y000743D03*
X016915Y000805D03*
X016977Y000868D03*
X017072Y000918D03*
X017072Y000988D03*
X017062Y001083D03*
X017000Y001145D03*
X016915Y001100D03*
X016977Y001038D03*
D20*
X017000Y001148D03*
X016730Y001188D03*
X016730Y001190D03*
X016730Y001193D03*
X016730Y001195D03*
X016730Y001198D03*
X016730Y001200D03*
X016730Y001203D03*
X016730Y001205D03*
X016730Y001208D03*
X016730Y001210D03*
X016730Y001213D03*
X016730Y001215D03*
X016730Y001218D03*
X016730Y001220D03*
X016730Y001223D03*
X016730Y001225D03*
X016730Y001228D03*
X016730Y001230D03*
X016730Y001233D03*
X016730Y001235D03*
X016730Y001238D03*
X016730Y001240D03*
X016730Y001243D03*
X016730Y001245D03*
X016730Y001248D03*
X016730Y001250D03*
X016730Y001253D03*
X016730Y001255D03*
X016730Y001258D03*
X016730Y001260D03*
X016730Y001263D03*
X016730Y001265D03*
X016730Y001268D03*
X016730Y001270D03*
X016730Y001273D03*
X016730Y001275D03*
X016730Y001278D03*
X016617Y001273D03*
X016617Y001270D03*
X016617Y001268D03*
X016617Y001265D03*
X016617Y001263D03*
X016617Y001260D03*
X016617Y001258D03*
X016617Y001255D03*
X016617Y001253D03*
X016617Y001250D03*
X016617Y001248D03*
X016617Y001245D03*
X016617Y001243D03*
X016617Y001240D03*
X016617Y001238D03*
X016617Y001235D03*
X016617Y001233D03*
X016617Y001230D03*
X016617Y001228D03*
X016617Y001225D03*
X016617Y001223D03*
X016617Y001220D03*
X016617Y001218D03*
X016617Y001215D03*
X016617Y001213D03*
X016617Y001210D03*
X016617Y001208D03*
X016617Y001205D03*
X016617Y001203D03*
X016617Y001200D03*
X016617Y001198D03*
X016617Y001195D03*
X016617Y001193D03*
X016617Y001190D03*
X016617Y001188D03*
X016617Y001185D03*
X016617Y001183D03*
X016617Y001180D03*
X016617Y001178D03*
X016617Y001175D03*
X016617Y001173D03*
X016617Y001170D03*
X016525Y001170D03*
X016525Y001173D03*
X016525Y001175D03*
X016525Y001178D03*
X016525Y001180D03*
X016525Y001183D03*
X016525Y001185D03*
X016525Y001188D03*
X016525Y001190D03*
X016525Y001193D03*
X016525Y001195D03*
X016525Y001198D03*
X016525Y001200D03*
X016525Y001203D03*
X016525Y001205D03*
X016525Y001208D03*
X016525Y001210D03*
X016525Y001213D03*
X016525Y001215D03*
X016525Y001218D03*
X016525Y001220D03*
X016525Y001223D03*
X016525Y001225D03*
X016525Y001228D03*
X016525Y001230D03*
X016525Y001233D03*
X016525Y001235D03*
X016525Y001238D03*
X016525Y001240D03*
X016525Y001243D03*
X016525Y001245D03*
X016525Y001248D03*
X016525Y001250D03*
X016525Y001253D03*
X016525Y001255D03*
X016525Y001258D03*
X016547Y001303D03*
X016617Y001303D03*
X016617Y001305D03*
X016617Y001308D03*
X016617Y001310D03*
X016617Y001313D03*
X016617Y001315D03*
X016617Y001318D03*
X016617Y001320D03*
X016617Y001323D03*
X016617Y001325D03*
X016617Y001328D03*
X016617Y001330D03*
X016617Y001333D03*
X016617Y001335D03*
X016617Y001338D03*
X016617Y001340D03*
X016617Y001343D03*
X016617Y001345D03*
X016617Y001348D03*
X016617Y001350D03*
X016617Y001353D03*
X016617Y001300D03*
X016617Y001298D03*
X016617Y001295D03*
X016617Y001293D03*
X016617Y001290D03*
X016430Y001278D03*
X016430Y001275D03*
X016430Y001273D03*
X016430Y001270D03*
X016430Y001268D03*
X016430Y001265D03*
X016430Y001263D03*
X016430Y001260D03*
X016430Y001258D03*
X016430Y001255D03*
X016430Y001253D03*
X016430Y001250D03*
X016430Y001248D03*
X016430Y001245D03*
X016430Y001243D03*
X016430Y001240D03*
X016430Y001238D03*
X016430Y001235D03*
X016430Y001233D03*
X016430Y001230D03*
X016430Y001228D03*
X016430Y001225D03*
X016430Y001223D03*
X016430Y001220D03*
X016430Y001218D03*
X016430Y001215D03*
X016430Y001213D03*
X016430Y001210D03*
X016430Y001208D03*
X016430Y001205D03*
X016430Y001203D03*
X016430Y001200D03*
X016430Y001198D03*
X016430Y001195D03*
X016430Y001193D03*
X016430Y001190D03*
X016430Y001188D03*
X016430Y001185D03*
X016430Y001183D03*
X016430Y001180D03*
X016430Y001178D03*
X016430Y001175D03*
X016430Y001173D03*
X016430Y001170D03*
X016335Y001170D03*
X016335Y001173D03*
X016335Y001175D03*
X016335Y001178D03*
X016335Y001180D03*
X016335Y001183D03*
X016335Y001185D03*
X016335Y001188D03*
X016335Y001190D03*
X016335Y001193D03*
X016335Y001195D03*
X016335Y001198D03*
X016335Y001200D03*
X016335Y001203D03*
X016335Y001205D03*
X016335Y001208D03*
X016335Y001210D03*
X016335Y001213D03*
X016335Y001215D03*
X016335Y001218D03*
X016335Y001220D03*
X016335Y001223D03*
X016335Y001225D03*
X016335Y001228D03*
X016335Y001230D03*
X016335Y001233D03*
X016335Y001235D03*
X016335Y001238D03*
X016335Y001240D03*
X016335Y001243D03*
X016335Y001245D03*
X016335Y001248D03*
X016335Y001250D03*
X016335Y001253D03*
X016335Y001255D03*
X016335Y001258D03*
X016335Y001260D03*
X016335Y001263D03*
X016335Y001265D03*
X016335Y001268D03*
X016335Y001270D03*
X016335Y001273D03*
X016265Y001303D03*
X016242Y001258D03*
X016242Y001255D03*
X016242Y001253D03*
X016242Y001250D03*
X016242Y001248D03*
X016242Y001245D03*
X016242Y001243D03*
X016242Y001240D03*
X016242Y001238D03*
X016242Y001235D03*
X016242Y001233D03*
X016242Y001230D03*
X016242Y001228D03*
X016242Y001225D03*
X016242Y001223D03*
X016242Y001220D03*
X016242Y001218D03*
X016242Y001215D03*
X016242Y001213D03*
X016242Y001210D03*
X016242Y001208D03*
X016242Y001205D03*
X016242Y001203D03*
X016242Y001200D03*
X016242Y001198D03*
X016242Y001195D03*
X016242Y001193D03*
X016242Y001190D03*
X016242Y001188D03*
X016242Y001185D03*
X016242Y001183D03*
X016242Y001180D03*
X016242Y001178D03*
X016242Y001175D03*
X016242Y001173D03*
X016242Y001170D03*
X016162Y001143D03*
X016162Y001140D03*
X016165Y001135D03*
X016165Y001133D03*
X016165Y001130D03*
X016165Y001128D03*
X016165Y001125D03*
X016137Y001183D03*
X016085Y001223D03*
X016082Y001225D03*
X016080Y001228D03*
X016077Y001233D03*
X016075Y001238D03*
X016075Y001240D03*
X016075Y001243D03*
X016072Y001245D03*
X016072Y001248D03*
X016072Y001250D03*
X016072Y001253D03*
X016072Y001255D03*
X016072Y001258D03*
X016072Y001260D03*
X016072Y001263D03*
X016072Y001265D03*
X016075Y001270D03*
X016075Y001273D03*
X016077Y001278D03*
X016150Y001283D03*
X016152Y001280D03*
X016155Y001275D03*
X016155Y001273D03*
X016157Y001268D03*
X016157Y001265D03*
X016057Y001135D03*
X016057Y001133D03*
X016057Y001130D03*
X015950Y001150D03*
X015895Y001185D03*
X015805Y001275D03*
X015977Y001330D03*
X015980Y001328D03*
X015980Y001325D03*
X015982Y001320D03*
X015982Y001318D03*
X015982Y001315D03*
X015550Y001363D03*
X015550Y001150D03*
X016852Y000745D03*
X017122Y001435D03*
X016852Y011245D03*
X017000Y011648D03*
X016730Y011688D03*
X016730Y011690D03*
X016730Y011693D03*
X016730Y011695D03*
X016730Y011698D03*
X016730Y011700D03*
X016730Y011703D03*
X016730Y011705D03*
X016730Y011708D03*
X016730Y011710D03*
X016730Y011713D03*
X016730Y011715D03*
X016730Y011718D03*
X016730Y011720D03*
X016730Y011723D03*
X016730Y011725D03*
X016730Y011728D03*
X016730Y011730D03*
X016730Y011733D03*
X016730Y011735D03*
X016730Y011738D03*
X016730Y011740D03*
X016730Y011743D03*
X016730Y011745D03*
X016730Y011748D03*
X016730Y011750D03*
X016730Y011753D03*
X016730Y011755D03*
X016730Y011758D03*
X016730Y011760D03*
X016730Y011763D03*
X016730Y011765D03*
X016730Y011768D03*
X016730Y011770D03*
X016730Y011773D03*
X016730Y011775D03*
X016730Y011778D03*
X016617Y011773D03*
X016617Y011770D03*
X016617Y011768D03*
X016617Y011765D03*
X016617Y011763D03*
X016617Y011760D03*
X016617Y011758D03*
X016617Y011755D03*
X016617Y011753D03*
X016617Y011750D03*
X016617Y011748D03*
X016617Y011745D03*
X016617Y011743D03*
X016617Y011740D03*
X016617Y011738D03*
X016617Y011735D03*
X016617Y011733D03*
X016617Y011730D03*
X016617Y011728D03*
X016617Y011725D03*
X016617Y011723D03*
X016617Y011720D03*
X016617Y011718D03*
X016617Y011715D03*
X016617Y011713D03*
X016617Y011710D03*
X016617Y011708D03*
X016617Y011705D03*
X016617Y011703D03*
X016617Y011700D03*
X016617Y011698D03*
X016617Y011695D03*
X016617Y011693D03*
X016617Y011690D03*
X016617Y011688D03*
X016617Y011685D03*
X016617Y011683D03*
X016617Y011680D03*
X016617Y011678D03*
X016617Y011675D03*
X016617Y011673D03*
X016617Y011670D03*
X016525Y011670D03*
X016525Y011673D03*
X016525Y011675D03*
X016525Y011678D03*
X016525Y011680D03*
X016525Y011683D03*
X016525Y011685D03*
X016525Y011688D03*
X016525Y011690D03*
X016525Y011693D03*
X016525Y011695D03*
X016525Y011698D03*
X016525Y011700D03*
X016525Y011703D03*
X016525Y011705D03*
X016525Y011708D03*
X016525Y011710D03*
X016525Y011713D03*
X016525Y011715D03*
X016525Y011718D03*
X016525Y011720D03*
X016525Y011723D03*
X016525Y011725D03*
X016525Y011728D03*
X016525Y011730D03*
X016525Y011733D03*
X016525Y011735D03*
X016525Y011738D03*
X016525Y011740D03*
X016525Y011743D03*
X016525Y011745D03*
X016525Y011748D03*
X016525Y011750D03*
X016525Y011753D03*
X016525Y011755D03*
X016525Y011758D03*
X016547Y011803D03*
X016617Y011803D03*
X016617Y011805D03*
X016617Y011808D03*
X016617Y011810D03*
X016617Y011813D03*
X016617Y011815D03*
X016617Y011818D03*
X016617Y011820D03*
X016617Y011823D03*
X016617Y011825D03*
X016617Y011828D03*
X016617Y011830D03*
X016617Y011833D03*
X016617Y011835D03*
X016617Y011838D03*
X016617Y011840D03*
X016617Y011843D03*
X016617Y011845D03*
X016617Y011848D03*
X016617Y011850D03*
X016617Y011853D03*
X016617Y011800D03*
X016617Y011798D03*
X016617Y011795D03*
X016617Y011793D03*
X016617Y011790D03*
X016430Y011778D03*
X016430Y011775D03*
X016430Y011773D03*
X016430Y011770D03*
X016430Y011768D03*
X016430Y011765D03*
X016430Y011763D03*
X016430Y011760D03*
X016430Y011758D03*
X016430Y011755D03*
X016430Y011753D03*
X016430Y011750D03*
X016430Y011748D03*
X016430Y011745D03*
X016430Y011743D03*
X016430Y011740D03*
X016430Y011738D03*
X016430Y011735D03*
X016430Y011733D03*
X016430Y011730D03*
X016430Y011728D03*
X016430Y011725D03*
X016430Y011723D03*
X016430Y011720D03*
X016430Y011718D03*
X016430Y011715D03*
X016430Y011713D03*
X016430Y011710D03*
X016430Y011708D03*
X016430Y011705D03*
X016430Y011703D03*
X016430Y011700D03*
X016430Y011698D03*
X016430Y011695D03*
X016430Y011693D03*
X016430Y011690D03*
X016430Y011688D03*
X016430Y011685D03*
X016430Y011683D03*
X016430Y011680D03*
X016430Y011678D03*
X016430Y011675D03*
X016430Y011673D03*
X016430Y011670D03*
X016335Y011670D03*
X016335Y011673D03*
X016335Y011675D03*
X016335Y011678D03*
X016335Y011680D03*
X016335Y011683D03*
X016335Y011685D03*
X016335Y011688D03*
X016335Y011690D03*
X016335Y011693D03*
X016335Y011695D03*
X016335Y011698D03*
X016335Y011700D03*
X016335Y011703D03*
X016335Y011705D03*
X016335Y011708D03*
X016335Y011710D03*
X016335Y011713D03*
X016335Y011715D03*
X016335Y011718D03*
X016335Y011720D03*
X016335Y011723D03*
X016335Y011725D03*
X016335Y011728D03*
X016335Y011730D03*
X016335Y011733D03*
X016335Y011735D03*
X016335Y011738D03*
X016335Y011740D03*
X016335Y011743D03*
X016335Y011745D03*
X016335Y011748D03*
X016335Y011750D03*
X016335Y011753D03*
X016335Y011755D03*
X016335Y011758D03*
X016335Y011760D03*
X016335Y011763D03*
X016335Y011765D03*
X016335Y011768D03*
X016335Y011770D03*
X016335Y011773D03*
X016265Y011803D03*
X016242Y011758D03*
X016242Y011755D03*
X016242Y011753D03*
X016242Y011750D03*
X016242Y011748D03*
X016242Y011745D03*
X016242Y011743D03*
X016242Y011740D03*
X016242Y011738D03*
X016242Y011735D03*
X016242Y011733D03*
X016242Y011730D03*
X016242Y011728D03*
X016242Y011725D03*
X016242Y011723D03*
X016242Y011720D03*
X016242Y011718D03*
X016242Y011715D03*
X016242Y011713D03*
X016242Y011710D03*
X016242Y011708D03*
X016242Y011705D03*
X016242Y011703D03*
X016242Y011700D03*
X016242Y011698D03*
X016242Y011695D03*
X016242Y011693D03*
X016242Y011690D03*
X016242Y011688D03*
X016242Y011685D03*
X016242Y011683D03*
X016242Y011680D03*
X016242Y011678D03*
X016242Y011675D03*
X016242Y011673D03*
X016242Y011670D03*
X016162Y011643D03*
X016162Y011640D03*
X016165Y011635D03*
X016165Y011633D03*
X016165Y011630D03*
X016165Y011628D03*
X016165Y011625D03*
X016137Y011683D03*
X016085Y011723D03*
X016082Y011725D03*
X016080Y011728D03*
X016077Y011733D03*
X016075Y011738D03*
X016075Y011740D03*
X016075Y011743D03*
X016072Y011745D03*
X016072Y011748D03*
X016072Y011750D03*
X016072Y011753D03*
X016072Y011755D03*
X016072Y011758D03*
X016072Y011760D03*
X016072Y011763D03*
X016072Y011765D03*
X016075Y011770D03*
X016075Y011773D03*
X016077Y011778D03*
X016150Y011783D03*
X016152Y011780D03*
X016155Y011775D03*
X016155Y011773D03*
X016157Y011768D03*
X016157Y011765D03*
X016057Y011635D03*
X016057Y011633D03*
X016057Y011630D03*
X015950Y011650D03*
X015895Y011685D03*
X015805Y011775D03*
X015977Y011830D03*
X015980Y011828D03*
X015980Y011825D03*
X015982Y011820D03*
X015982Y011818D03*
X015982Y011815D03*
X015550Y011863D03*
X015550Y011650D03*
X017122Y011935D03*
D21*
X017122Y011933D03*
X017060Y011870D03*
X016925Y011863D03*
X017082Y012035D03*
X016902Y011695D03*
X017000Y011650D03*
X017072Y011485D03*
X017072Y011420D03*
X016852Y011248D03*
X016727Y011678D03*
X016727Y011680D03*
X016617Y011668D03*
X016525Y011668D03*
X016430Y011668D03*
X016335Y011668D03*
X016242Y011668D03*
X016160Y011613D03*
X016060Y011643D03*
X016147Y011723D03*
X016157Y011743D03*
X016142Y011790D03*
X016245Y011770D03*
X016245Y011768D03*
X016247Y011773D03*
X016332Y011775D03*
X016432Y011795D03*
X016527Y011768D03*
X016530Y011773D03*
X016615Y011775D03*
X015982Y011800D03*
X015982Y011803D03*
X015967Y011840D03*
X015895Y011843D03*
X015812Y011760D03*
X015815Y011753D03*
X015815Y011750D03*
X015815Y011748D03*
X015817Y011743D03*
X015817Y011740D03*
X015817Y011738D03*
X015817Y011735D03*
X015817Y011733D03*
X015817Y011730D03*
X015817Y011728D03*
X015817Y011725D03*
X015817Y011723D03*
X015817Y011720D03*
X015817Y011718D03*
X015817Y011715D03*
X015817Y011713D03*
X015815Y011708D03*
X015815Y011705D03*
X015815Y011703D03*
X015812Y011695D03*
X015810Y011688D03*
X015797Y011670D03*
X015710Y011695D03*
X015707Y011703D03*
X015707Y011705D03*
X015707Y011708D03*
X015705Y011713D03*
X015705Y011715D03*
X015705Y011718D03*
X015705Y011720D03*
X015705Y011723D03*
X015705Y011725D03*
X015705Y011728D03*
X015705Y011730D03*
X015705Y011733D03*
X015705Y011735D03*
X015705Y011738D03*
X015705Y011740D03*
X015705Y011743D03*
X015707Y011748D03*
X015707Y011750D03*
X015707Y011753D03*
X015710Y011760D03*
X015635Y011775D03*
X015632Y011788D03*
X015630Y011795D03*
X015627Y011803D03*
X015625Y011808D03*
X015622Y011813D03*
X015635Y011738D03*
X015632Y011725D03*
X015630Y011718D03*
X015627Y011710D03*
X015625Y011705D03*
X015890Y011705D03*
X015890Y011703D03*
X015890Y011700D03*
X015900Y011678D03*
X015902Y011675D03*
X017082Y001535D03*
X017122Y001433D03*
X017060Y001370D03*
X016925Y001363D03*
X016902Y001195D03*
X017000Y001150D03*
X016727Y001178D03*
X016727Y001180D03*
X016617Y001168D03*
X016525Y001168D03*
X016430Y001168D03*
X016335Y001168D03*
X016242Y001168D03*
X016160Y001113D03*
X016060Y001143D03*
X016147Y001223D03*
X016157Y001243D03*
X016142Y001290D03*
X016245Y001270D03*
X016245Y001268D03*
X016247Y001273D03*
X016332Y001275D03*
X016432Y001295D03*
X016527Y001268D03*
X016530Y001273D03*
X016615Y001275D03*
X017072Y000985D03*
X017072Y000920D03*
X016852Y000748D03*
X015982Y001300D03*
X015982Y001303D03*
X015967Y001340D03*
X015895Y001343D03*
X015812Y001260D03*
X015815Y001253D03*
X015815Y001250D03*
X015815Y001248D03*
X015817Y001243D03*
X015817Y001240D03*
X015817Y001238D03*
X015817Y001235D03*
X015817Y001233D03*
X015817Y001230D03*
X015817Y001228D03*
X015817Y001225D03*
X015817Y001223D03*
X015817Y001220D03*
X015817Y001218D03*
X015817Y001215D03*
X015817Y001213D03*
X015815Y001208D03*
X015815Y001205D03*
X015815Y001203D03*
X015812Y001195D03*
X015810Y001188D03*
X015797Y001170D03*
X015710Y001195D03*
X015707Y001203D03*
X015707Y001205D03*
X015707Y001208D03*
X015705Y001213D03*
X015705Y001215D03*
X015705Y001218D03*
X015705Y001220D03*
X015705Y001223D03*
X015705Y001225D03*
X015705Y001228D03*
X015705Y001230D03*
X015705Y001233D03*
X015705Y001235D03*
X015705Y001238D03*
X015705Y001240D03*
X015705Y001243D03*
X015707Y001248D03*
X015707Y001250D03*
X015707Y001253D03*
X015710Y001260D03*
X015635Y001275D03*
X015632Y001288D03*
X015630Y001295D03*
X015627Y001303D03*
X015625Y001308D03*
X015622Y001313D03*
X015635Y001238D03*
X015632Y001225D03*
X015630Y001218D03*
X015627Y001210D03*
X015625Y001205D03*
X015890Y001205D03*
X015890Y001203D03*
X015890Y001200D03*
X015900Y001178D03*
X015902Y001175D03*
D22*
X015892Y001215D03*
X015977Y001290D03*
X015980Y001293D03*
X015980Y001295D03*
X016250Y001275D03*
X016340Y001295D03*
X016532Y001275D03*
X016622Y001370D03*
X016710Y001153D03*
X016925Y001365D03*
X016997Y001305D03*
X017060Y001368D03*
X017122Y001430D03*
X016925Y001640D03*
X016062Y001145D03*
X015615Y001190D03*
X015610Y001185D03*
X015607Y001183D03*
X015605Y001180D03*
X015605Y001333D03*
X015602Y001335D03*
X016852Y000750D03*
X016852Y011250D03*
X016710Y011653D03*
X016532Y011775D03*
X016622Y011870D03*
X016340Y011795D03*
X016250Y011775D03*
X016062Y011645D03*
X015977Y011790D03*
X015980Y011793D03*
X015980Y011795D03*
X015892Y011715D03*
X015615Y011690D03*
X015610Y011685D03*
X015607Y011683D03*
X015605Y011680D03*
X015605Y011833D03*
X015602Y011835D03*
X016925Y011865D03*
X016997Y011805D03*
X017060Y011868D03*
X017122Y011930D03*
X016925Y012140D03*
D23*
X016925Y012138D03*
X016987Y012075D03*
X016970Y012030D03*
X016970Y012028D03*
X016970Y012025D03*
X016970Y012023D03*
X016970Y012020D03*
X016967Y012015D03*
X016967Y012013D03*
X016967Y012010D03*
X016967Y012008D03*
X016967Y012005D03*
X016967Y012003D03*
X016967Y012000D03*
X016967Y011998D03*
X016967Y011995D03*
X016967Y011993D03*
X016967Y011990D03*
X016970Y011985D03*
X016970Y011983D03*
X016970Y011980D03*
X016970Y011978D03*
X016970Y011975D03*
X016987Y011930D03*
X016925Y011868D03*
X016887Y011950D03*
X016885Y011955D03*
X016885Y011958D03*
X016885Y011960D03*
X016885Y011963D03*
X016882Y011968D03*
X016882Y011970D03*
X016882Y011973D03*
X016882Y011975D03*
X016882Y011978D03*
X016880Y011983D03*
X016880Y011985D03*
X016880Y011988D03*
X016880Y011990D03*
X016880Y011993D03*
X016880Y011995D03*
X016880Y011998D03*
X016880Y012000D03*
X016880Y012003D03*
X016880Y012005D03*
X016880Y012008D03*
X016880Y012010D03*
X016880Y012013D03*
X016880Y012015D03*
X016880Y012018D03*
X016880Y012020D03*
X016880Y012023D03*
X016882Y012028D03*
X016882Y012030D03*
X016882Y012033D03*
X016882Y012035D03*
X016882Y012038D03*
X016885Y012045D03*
X016885Y012048D03*
X016885Y012050D03*
X016887Y012055D03*
X016797Y012050D03*
X016797Y012048D03*
X016797Y012045D03*
X016797Y012043D03*
X016797Y012040D03*
X016797Y012038D03*
X016797Y012035D03*
X016795Y012028D03*
X016795Y012025D03*
X016795Y012023D03*
X016795Y012020D03*
X016795Y012018D03*
X016795Y012015D03*
X016795Y012013D03*
X016795Y012010D03*
X016795Y012008D03*
X016795Y012005D03*
X016795Y012003D03*
X016795Y012000D03*
X016795Y011998D03*
X016795Y011995D03*
X016795Y011993D03*
X016795Y011990D03*
X016795Y011988D03*
X016795Y011985D03*
X016795Y011983D03*
X016795Y011980D03*
X016795Y011978D03*
X016795Y011975D03*
X016797Y011960D03*
X016797Y011958D03*
X016797Y011955D03*
X016797Y011953D03*
X016997Y011803D03*
X017015Y011758D03*
X017015Y011755D03*
X017015Y011753D03*
X017015Y011750D03*
X017017Y011745D03*
X017017Y011743D03*
X017017Y011740D03*
X017017Y011738D03*
X017020Y011735D03*
X017020Y011733D03*
X017020Y011725D03*
X017017Y011720D03*
X017017Y011718D03*
X017017Y011715D03*
X017017Y011713D03*
X017015Y011708D03*
X017015Y011705D03*
X017015Y011703D03*
X016997Y011658D03*
X016902Y011698D03*
X016722Y011673D03*
X016787Y011503D03*
X016787Y011500D03*
X016875Y011493D03*
X016875Y011490D03*
X016875Y011488D03*
X016872Y011478D03*
X016872Y011475D03*
X016872Y011473D03*
X016877Y011503D03*
X016872Y011433D03*
X016872Y011430D03*
X016875Y011423D03*
X016875Y011420D03*
X016875Y011418D03*
X016875Y011415D03*
X016875Y011413D03*
X016877Y011405D03*
X016877Y011403D03*
X016962Y011423D03*
X016962Y011425D03*
X016960Y011433D03*
X016960Y011435D03*
X016960Y011438D03*
X016957Y011443D03*
X016957Y011445D03*
X016957Y011448D03*
X016957Y011450D03*
X016957Y011453D03*
X016957Y011455D03*
X016957Y011458D03*
X016957Y011460D03*
X016957Y011463D03*
X016960Y011470D03*
X016960Y011473D03*
X016962Y011480D03*
X016962Y011483D03*
X017072Y011483D03*
X017072Y011423D03*
X017100Y011680D03*
X017100Y011683D03*
X017102Y011693D03*
X017102Y011695D03*
X017105Y011708D03*
X017105Y011710D03*
X017105Y011713D03*
X017105Y011715D03*
X017105Y011718D03*
X017105Y011720D03*
X017105Y011723D03*
X017105Y011725D03*
X017105Y011728D03*
X017105Y011730D03*
X017105Y011733D03*
X017105Y011735D03*
X017105Y011738D03*
X017105Y011740D03*
X017105Y011743D03*
X017105Y011745D03*
X017105Y011748D03*
X017105Y011750D03*
X017102Y011763D03*
X017102Y011765D03*
X017100Y011775D03*
X017100Y011778D03*
X017185Y011795D03*
X017187Y011783D03*
X017187Y011780D03*
X017190Y011775D03*
X017190Y011773D03*
X017190Y011770D03*
X017190Y011768D03*
X017190Y011765D03*
X017190Y011763D03*
X017192Y011755D03*
X017192Y011753D03*
X017192Y011750D03*
X017192Y011748D03*
X017192Y011745D03*
X017192Y011743D03*
X017192Y011740D03*
X017192Y011738D03*
X017192Y011735D03*
X017192Y011733D03*
X017192Y011730D03*
X017192Y011728D03*
X017192Y011725D03*
X017192Y011723D03*
X017192Y011720D03*
X017192Y011718D03*
X017192Y011715D03*
X017192Y011713D03*
X017192Y011710D03*
X017192Y011708D03*
X017192Y011705D03*
X017192Y011703D03*
X017190Y011688D03*
X017190Y011685D03*
X017190Y011683D03*
X017187Y011678D03*
X017187Y011675D03*
X017185Y011663D03*
X017060Y011865D03*
X017122Y011928D03*
X017082Y011973D03*
X017082Y012033D03*
X016535Y011778D03*
X016342Y011793D03*
X016327Y011778D03*
X016252Y011778D03*
X016115Y011803D03*
X016117Y011708D03*
X016065Y011648D03*
X015912Y011670D03*
X015895Y011720D03*
X015897Y011723D03*
X015975Y011788D03*
X015760Y011803D03*
X015762Y011653D03*
X015597Y011675D03*
X015595Y011840D03*
X016787Y011403D03*
X016852Y011253D03*
X016925Y001638D03*
X016987Y001575D03*
X016970Y001530D03*
X016970Y001528D03*
X016970Y001525D03*
X016970Y001523D03*
X016970Y001520D03*
X016967Y001515D03*
X016967Y001513D03*
X016967Y001510D03*
X016967Y001508D03*
X016967Y001505D03*
X016967Y001503D03*
X016967Y001500D03*
X016967Y001498D03*
X016967Y001495D03*
X016967Y001493D03*
X016967Y001490D03*
X016970Y001485D03*
X016970Y001483D03*
X016970Y001480D03*
X016970Y001478D03*
X016970Y001475D03*
X016987Y001430D03*
X016925Y001368D03*
X016887Y001450D03*
X016885Y001455D03*
X016885Y001458D03*
X016885Y001460D03*
X016885Y001463D03*
X016882Y001468D03*
X016882Y001470D03*
X016882Y001473D03*
X016882Y001475D03*
X016882Y001478D03*
X016880Y001483D03*
X016880Y001485D03*
X016880Y001488D03*
X016880Y001490D03*
X016880Y001493D03*
X016880Y001495D03*
X016880Y001498D03*
X016880Y001500D03*
X016880Y001503D03*
X016880Y001505D03*
X016880Y001508D03*
X016880Y001510D03*
X016880Y001513D03*
X016880Y001515D03*
X016880Y001518D03*
X016880Y001520D03*
X016880Y001523D03*
X016882Y001528D03*
X016882Y001530D03*
X016882Y001533D03*
X016882Y001535D03*
X016882Y001538D03*
X016885Y001545D03*
X016885Y001548D03*
X016885Y001550D03*
X016887Y001555D03*
X016797Y001550D03*
X016797Y001548D03*
X016797Y001545D03*
X016797Y001543D03*
X016797Y001540D03*
X016797Y001538D03*
X016797Y001535D03*
X016795Y001528D03*
X016795Y001525D03*
X016795Y001523D03*
X016795Y001520D03*
X016795Y001518D03*
X016795Y001515D03*
X016795Y001513D03*
X016795Y001510D03*
X016795Y001508D03*
X016795Y001505D03*
X016795Y001503D03*
X016795Y001500D03*
X016795Y001498D03*
X016795Y001495D03*
X016795Y001493D03*
X016795Y001490D03*
X016795Y001488D03*
X016795Y001485D03*
X016795Y001483D03*
X016795Y001480D03*
X016795Y001478D03*
X016795Y001475D03*
X016797Y001460D03*
X016797Y001458D03*
X016797Y001455D03*
X016797Y001453D03*
X016997Y001303D03*
X017015Y001258D03*
X017015Y001255D03*
X017015Y001253D03*
X017015Y001250D03*
X017017Y001245D03*
X017017Y001243D03*
X017017Y001240D03*
X017017Y001238D03*
X017020Y001235D03*
X017020Y001233D03*
X017020Y001225D03*
X017017Y001220D03*
X017017Y001218D03*
X017017Y001215D03*
X017017Y001213D03*
X017015Y001208D03*
X017015Y001205D03*
X017015Y001203D03*
X016997Y001158D03*
X016902Y001198D03*
X016722Y001173D03*
X016535Y001278D03*
X016342Y001293D03*
X016327Y001278D03*
X016252Y001278D03*
X016115Y001303D03*
X016117Y001208D03*
X016065Y001148D03*
X015912Y001170D03*
X015895Y001220D03*
X015897Y001223D03*
X015975Y001288D03*
X015760Y001303D03*
X015762Y001153D03*
X015597Y001175D03*
X015595Y001340D03*
X016787Y001003D03*
X016787Y001000D03*
X016875Y000993D03*
X016875Y000990D03*
X016875Y000988D03*
X016872Y000978D03*
X016872Y000975D03*
X016872Y000973D03*
X016877Y001003D03*
X016872Y000933D03*
X016872Y000930D03*
X016875Y000923D03*
X016875Y000920D03*
X016875Y000918D03*
X016875Y000915D03*
X016875Y000913D03*
X016877Y000905D03*
X016877Y000903D03*
X016962Y000923D03*
X016962Y000925D03*
X016960Y000933D03*
X016960Y000935D03*
X016960Y000938D03*
X016957Y000943D03*
X016957Y000945D03*
X016957Y000948D03*
X016957Y000950D03*
X016957Y000953D03*
X016957Y000955D03*
X016957Y000958D03*
X016957Y000960D03*
X016957Y000963D03*
X016960Y000970D03*
X016960Y000973D03*
X016962Y000980D03*
X016962Y000983D03*
X017072Y000983D03*
X017072Y000923D03*
X017100Y001180D03*
X017100Y001183D03*
X017102Y001193D03*
X017102Y001195D03*
X017105Y001208D03*
X017105Y001210D03*
X017105Y001213D03*
X017105Y001215D03*
X017105Y001218D03*
X017105Y001220D03*
X017105Y001223D03*
X017105Y001225D03*
X017105Y001228D03*
X017105Y001230D03*
X017105Y001233D03*
X017105Y001235D03*
X017105Y001238D03*
X017105Y001240D03*
X017105Y001243D03*
X017105Y001245D03*
X017105Y001248D03*
X017105Y001250D03*
X017102Y001263D03*
X017102Y001265D03*
X017100Y001275D03*
X017100Y001278D03*
X017185Y001295D03*
X017187Y001283D03*
X017187Y001280D03*
X017190Y001275D03*
X017190Y001273D03*
X017190Y001270D03*
X017190Y001268D03*
X017190Y001265D03*
X017190Y001263D03*
X017192Y001255D03*
X017192Y001253D03*
X017192Y001250D03*
X017192Y001248D03*
X017192Y001245D03*
X017192Y001243D03*
X017192Y001240D03*
X017192Y001238D03*
X017192Y001235D03*
X017192Y001233D03*
X017192Y001230D03*
X017192Y001228D03*
X017192Y001225D03*
X017192Y001223D03*
X017192Y001220D03*
X017192Y001218D03*
X017192Y001215D03*
X017192Y001213D03*
X017192Y001210D03*
X017192Y001208D03*
X017192Y001205D03*
X017192Y001203D03*
X017190Y001188D03*
X017190Y001185D03*
X017190Y001183D03*
X017187Y001178D03*
X017187Y001175D03*
X017185Y001163D03*
X017060Y001365D03*
X017122Y001428D03*
X017082Y001473D03*
X017082Y001533D03*
X016787Y000903D03*
X016852Y000753D03*
D24*
X016852Y000755D03*
X016917Y000820D03*
X016897Y000855D03*
X016895Y000860D03*
X016892Y000865D03*
X016890Y000868D03*
X016890Y000870D03*
X016887Y000873D03*
X016887Y000875D03*
X016885Y000880D03*
X016885Y000883D03*
X016967Y000910D03*
X016970Y000905D03*
X016975Y000895D03*
X016980Y000883D03*
X017072Y000925D03*
X017072Y000980D03*
X017122Y001035D03*
X017157Y001093D03*
X017165Y001108D03*
X017167Y001110D03*
X017167Y001113D03*
X017170Y001115D03*
X017170Y001118D03*
X017172Y001123D03*
X017172Y001125D03*
X017175Y001128D03*
X017175Y001130D03*
X017177Y001135D03*
X017177Y001138D03*
X017095Y001165D03*
X017092Y001160D03*
X017092Y001158D03*
X017090Y001155D03*
X017090Y001153D03*
X017087Y001148D03*
X017085Y001143D03*
X017082Y001135D03*
X017060Y001098D03*
X016997Y001160D03*
X017007Y001183D03*
X017010Y001188D03*
X017010Y001270D03*
X017007Y001275D03*
X017007Y001278D03*
X017005Y001280D03*
X016997Y001298D03*
X017080Y001325D03*
X017085Y001315D03*
X017087Y001310D03*
X017090Y001308D03*
X017090Y001305D03*
X017090Y001303D03*
X017092Y001300D03*
X017092Y001298D03*
X017095Y001293D03*
X017097Y001285D03*
X017060Y001363D03*
X017122Y001425D03*
X017082Y001475D03*
X017082Y001530D03*
X016982Y001558D03*
X016980Y001553D03*
X016977Y001548D03*
X016975Y001543D03*
X016975Y001463D03*
X016977Y001458D03*
X016980Y001453D03*
X016902Y001413D03*
X016900Y001415D03*
X016900Y001418D03*
X016897Y001420D03*
X016897Y001423D03*
X016895Y001428D03*
X016892Y001433D03*
X016905Y001408D03*
X016925Y001370D03*
X016820Y001383D03*
X016817Y001388D03*
X016817Y001390D03*
X016815Y001393D03*
X016815Y001395D03*
X016815Y001398D03*
X016812Y001400D03*
X016812Y001403D03*
X016810Y001405D03*
X016810Y001408D03*
X016810Y001410D03*
X016807Y001413D03*
X016807Y001415D03*
X016807Y001418D03*
X016805Y001425D03*
X016800Y001443D03*
X016800Y001445D03*
X016800Y001558D03*
X016800Y001560D03*
X016800Y001563D03*
X016802Y001570D03*
X016805Y001578D03*
X016805Y001580D03*
X016805Y001583D03*
X016807Y001585D03*
X016807Y001588D03*
X016807Y001590D03*
X016810Y001593D03*
X016810Y001595D03*
X016812Y001600D03*
X016812Y001603D03*
X016815Y001610D03*
X016817Y001615D03*
X016897Y001585D03*
X016897Y001583D03*
X016900Y001588D03*
X016900Y001590D03*
X016902Y001593D03*
X016905Y001598D03*
X016895Y001578D03*
X016895Y001575D03*
X016925Y001635D03*
X017157Y001365D03*
X017165Y001350D03*
X017167Y001348D03*
X017167Y001345D03*
X017170Y001343D03*
X017170Y001340D03*
X017172Y001335D03*
X017172Y001333D03*
X017175Y001330D03*
X017175Y001328D03*
X017177Y001320D03*
X017182Y001305D03*
X016902Y001200D03*
X016917Y001085D03*
X016897Y001050D03*
X016895Y001048D03*
X016895Y001045D03*
X016892Y001043D03*
X016892Y001040D03*
X016890Y001038D03*
X016890Y001035D03*
X016887Y001033D03*
X016887Y001030D03*
X016885Y001025D03*
X016882Y001018D03*
X016797Y001040D03*
X016797Y001043D03*
X016800Y001050D03*
X016802Y001055D03*
X016805Y001060D03*
X016805Y001063D03*
X016805Y001065D03*
X016807Y001068D03*
X016810Y001073D03*
X016795Y001033D03*
X016792Y001028D03*
X016792Y001025D03*
X016785Y000920D03*
X016785Y000918D03*
X016785Y000915D03*
X016785Y000913D03*
X016790Y000890D03*
X016790Y000888D03*
X016792Y000880D03*
X016792Y000878D03*
X016795Y000875D03*
X016795Y000873D03*
X016795Y000870D03*
X016797Y000865D03*
X016797Y000863D03*
X016797Y000860D03*
X016800Y000855D03*
X016805Y000843D03*
X016967Y000995D03*
X016970Y001000D03*
X016972Y001005D03*
X016975Y001010D03*
X016980Y001023D03*
X016550Y001298D03*
X016440Y001290D03*
X016440Y001288D03*
X016440Y001285D03*
X016440Y001283D03*
X016440Y001280D03*
X016345Y001290D03*
X016267Y001298D03*
X016070Y001150D03*
X015900Y001228D03*
X016852Y011255D03*
X016917Y011320D03*
X016897Y011355D03*
X016895Y011360D03*
X016892Y011365D03*
X016890Y011368D03*
X016890Y011370D03*
X016887Y011373D03*
X016887Y011375D03*
X016885Y011380D03*
X016885Y011383D03*
X016967Y011410D03*
X016970Y011405D03*
X016975Y011395D03*
X016980Y011383D03*
X017072Y011425D03*
X017072Y011480D03*
X017122Y011535D03*
X017157Y011593D03*
X017165Y011608D03*
X017167Y011610D03*
X017167Y011613D03*
X017170Y011615D03*
X017170Y011618D03*
X017172Y011623D03*
X017172Y011625D03*
X017175Y011628D03*
X017175Y011630D03*
X017177Y011635D03*
X017177Y011638D03*
X017095Y011665D03*
X017092Y011660D03*
X017092Y011658D03*
X017090Y011655D03*
X017090Y011653D03*
X017087Y011648D03*
X017085Y011643D03*
X017082Y011635D03*
X017060Y011598D03*
X016997Y011660D03*
X017007Y011683D03*
X017010Y011688D03*
X017010Y011770D03*
X017007Y011775D03*
X017007Y011778D03*
X017005Y011780D03*
X016997Y011798D03*
X017080Y011825D03*
X017085Y011815D03*
X017087Y011810D03*
X017090Y011808D03*
X017090Y011805D03*
X017090Y011803D03*
X017092Y011800D03*
X017092Y011798D03*
X017095Y011793D03*
X017097Y011785D03*
X017060Y011863D03*
X017122Y011925D03*
X017082Y011975D03*
X017082Y012030D03*
X016982Y012058D03*
X016980Y012053D03*
X016977Y012048D03*
X016975Y012043D03*
X016975Y011963D03*
X016977Y011958D03*
X016980Y011953D03*
X016902Y011913D03*
X016900Y011915D03*
X016900Y011918D03*
X016897Y011920D03*
X016897Y011923D03*
X016895Y011928D03*
X016892Y011933D03*
X016905Y011908D03*
X016925Y011870D03*
X016820Y011883D03*
X016817Y011888D03*
X016817Y011890D03*
X016815Y011893D03*
X016815Y011895D03*
X016815Y011898D03*
X016812Y011900D03*
X016812Y011903D03*
X016810Y011905D03*
X016810Y011908D03*
X016810Y011910D03*
X016807Y011913D03*
X016807Y011915D03*
X016807Y011918D03*
X016805Y011925D03*
X016800Y011943D03*
X016800Y011945D03*
X016800Y012058D03*
X016800Y012060D03*
X016800Y012063D03*
X016802Y012070D03*
X016805Y012078D03*
X016805Y012080D03*
X016805Y012083D03*
X016807Y012085D03*
X016807Y012088D03*
X016807Y012090D03*
X016810Y012093D03*
X016810Y012095D03*
X016812Y012100D03*
X016812Y012103D03*
X016815Y012110D03*
X016817Y012115D03*
X016897Y012085D03*
X016897Y012083D03*
X016900Y012088D03*
X016900Y012090D03*
X016902Y012093D03*
X016905Y012098D03*
X016895Y012078D03*
X016895Y012075D03*
X016925Y012135D03*
X017157Y011865D03*
X017165Y011850D03*
X017167Y011848D03*
X017167Y011845D03*
X017170Y011843D03*
X017170Y011840D03*
X017172Y011835D03*
X017172Y011833D03*
X017175Y011830D03*
X017175Y011828D03*
X017177Y011820D03*
X017182Y011805D03*
X016902Y011700D03*
X016917Y011585D03*
X016897Y011550D03*
X016895Y011548D03*
X016895Y011545D03*
X016892Y011543D03*
X016892Y011540D03*
X016890Y011538D03*
X016890Y011535D03*
X016887Y011533D03*
X016887Y011530D03*
X016885Y011525D03*
X016882Y011518D03*
X016797Y011540D03*
X016797Y011543D03*
X016800Y011550D03*
X016802Y011555D03*
X016805Y011560D03*
X016805Y011563D03*
X016805Y011565D03*
X016807Y011568D03*
X016810Y011573D03*
X016795Y011533D03*
X016792Y011528D03*
X016792Y011525D03*
X016785Y011420D03*
X016785Y011418D03*
X016785Y011415D03*
X016785Y011413D03*
X016790Y011390D03*
X016790Y011388D03*
X016792Y011380D03*
X016792Y011378D03*
X016795Y011375D03*
X016795Y011373D03*
X016795Y011370D03*
X016797Y011365D03*
X016797Y011363D03*
X016797Y011360D03*
X016800Y011355D03*
X016805Y011343D03*
X016967Y011495D03*
X016970Y011500D03*
X016972Y011505D03*
X016975Y011510D03*
X016980Y011523D03*
X016550Y011798D03*
X016440Y011790D03*
X016440Y011788D03*
X016440Y011785D03*
X016440Y011783D03*
X016440Y011780D03*
X016345Y011790D03*
X016267Y011798D03*
X016070Y011650D03*
X015900Y011728D03*
D25*
X015901Y011730D03*
X015968Y011780D03*
X015928Y011860D03*
X015588Y011843D03*
X016121Y011588D03*
X016628Y011855D03*
X016628Y011858D03*
X016628Y011860D03*
X016628Y011863D03*
X016628Y011865D03*
X016818Y011885D03*
X016821Y011880D03*
X016823Y011878D03*
X016823Y011875D03*
X016826Y011873D03*
X016826Y011870D03*
X016828Y011868D03*
X016828Y011865D03*
X016831Y011863D03*
X016863Y011808D03*
X016903Y011755D03*
X017001Y011788D03*
X017003Y011783D03*
X017081Y011823D03*
X017083Y011820D03*
X017083Y011818D03*
X017086Y011813D03*
X017078Y011828D03*
X017076Y011833D03*
X017153Y011873D03*
X017156Y011868D03*
X017158Y011863D03*
X017161Y011860D03*
X017161Y011858D03*
X017163Y011855D03*
X017163Y011853D03*
X017121Y011923D03*
X016988Y011935D03*
X016988Y011938D03*
X016983Y011945D03*
X016981Y011948D03*
X016981Y011950D03*
X016908Y011903D03*
X016906Y011905D03*
X016908Y011900D03*
X016911Y011898D03*
X016911Y011895D03*
X016913Y011893D03*
X016903Y011910D03*
X016926Y011873D03*
X016981Y012055D03*
X016983Y012060D03*
X016988Y012068D03*
X016988Y012070D03*
X016911Y012108D03*
X016911Y012110D03*
X016908Y012105D03*
X016908Y012103D03*
X016906Y012100D03*
X016903Y012095D03*
X016926Y012133D03*
X016863Y012198D03*
X016828Y012138D03*
X016826Y012133D03*
X016823Y012128D03*
X016821Y012123D03*
X016818Y012120D03*
X016818Y012118D03*
X016816Y012113D03*
X016813Y012108D03*
X016813Y012105D03*
X016853Y011648D03*
X016818Y011590D03*
X016818Y011588D03*
X016816Y011585D03*
X016813Y011583D03*
X016813Y011580D03*
X016811Y011578D03*
X016811Y011575D03*
X016808Y011570D03*
X016803Y011558D03*
X016801Y011553D03*
X016898Y011553D03*
X016901Y011558D03*
X016976Y011513D03*
X016973Y011508D03*
X016971Y011503D03*
X016971Y011403D03*
X016973Y011400D03*
X016973Y011398D03*
X016976Y011393D03*
X016978Y011390D03*
X016978Y011388D03*
X016978Y011385D03*
X016903Y011345D03*
X016901Y011348D03*
X016901Y011350D03*
X016898Y011353D03*
X016896Y011358D03*
X016893Y011363D03*
X016811Y011330D03*
X016811Y011328D03*
X016808Y011333D03*
X016808Y011335D03*
X016806Y011338D03*
X016806Y011340D03*
X016803Y011345D03*
X016803Y011348D03*
X016801Y011350D03*
X016801Y011353D03*
X016798Y011358D03*
X016818Y011315D03*
X016853Y011258D03*
X016706Y011655D03*
X016996Y011663D03*
X017001Y011670D03*
X017003Y011675D03*
X017003Y011678D03*
X017006Y011680D03*
X017083Y011640D03*
X017083Y011638D03*
X017081Y011633D03*
X017078Y011630D03*
X017076Y011625D03*
X017086Y011645D03*
X017088Y011650D03*
X017163Y011605D03*
X017163Y011603D03*
X017161Y011600D03*
X017161Y011598D03*
X017158Y011595D03*
X017156Y011590D03*
X017153Y011588D03*
X016863Y001698D03*
X016828Y001638D03*
X016826Y001633D03*
X016823Y001628D03*
X016821Y001623D03*
X016818Y001620D03*
X016818Y001618D03*
X016816Y001613D03*
X016813Y001608D03*
X016813Y001605D03*
X016903Y001595D03*
X016906Y001600D03*
X016908Y001603D03*
X016908Y001605D03*
X016911Y001608D03*
X016911Y001610D03*
X016926Y001633D03*
X016988Y001570D03*
X016988Y001568D03*
X016983Y001560D03*
X016981Y001555D03*
X016981Y001450D03*
X016981Y001448D03*
X016983Y001445D03*
X016988Y001438D03*
X016988Y001435D03*
X016911Y001398D03*
X016911Y001395D03*
X016913Y001393D03*
X016908Y001400D03*
X016908Y001403D03*
X016906Y001405D03*
X016903Y001410D03*
X016926Y001373D03*
X016863Y001308D03*
X016831Y001363D03*
X016828Y001365D03*
X016828Y001368D03*
X016826Y001370D03*
X016826Y001373D03*
X016823Y001375D03*
X016823Y001378D03*
X016821Y001380D03*
X016818Y001385D03*
X016903Y001255D03*
X017001Y001288D03*
X017003Y001283D03*
X017081Y001323D03*
X017083Y001320D03*
X017083Y001318D03*
X017086Y001313D03*
X017078Y001328D03*
X017076Y001333D03*
X017153Y001373D03*
X017156Y001368D03*
X017158Y001363D03*
X017161Y001360D03*
X017161Y001358D03*
X017163Y001355D03*
X017163Y001353D03*
X017121Y001423D03*
X017006Y001180D03*
X017003Y001178D03*
X017003Y001175D03*
X017001Y001170D03*
X016996Y001163D03*
X017076Y001125D03*
X017078Y001130D03*
X017081Y001133D03*
X017083Y001138D03*
X017083Y001140D03*
X017086Y001145D03*
X017088Y001150D03*
X017163Y001105D03*
X017163Y001103D03*
X017161Y001100D03*
X017161Y001098D03*
X017158Y001095D03*
X017156Y001090D03*
X017153Y001088D03*
X016976Y001013D03*
X016973Y001008D03*
X016971Y001003D03*
X016898Y001053D03*
X016901Y001058D03*
X016818Y001088D03*
X016818Y001090D03*
X016816Y001085D03*
X016813Y001083D03*
X016813Y001080D03*
X016811Y001078D03*
X016811Y001075D03*
X016808Y001070D03*
X016803Y001058D03*
X016801Y001053D03*
X016853Y001148D03*
X016706Y001155D03*
X016628Y001355D03*
X016628Y001358D03*
X016628Y001360D03*
X016628Y001363D03*
X016628Y001365D03*
X016971Y000903D03*
X016973Y000900D03*
X016973Y000898D03*
X016976Y000893D03*
X016978Y000890D03*
X016978Y000888D03*
X016978Y000885D03*
X016903Y000845D03*
X016901Y000848D03*
X016901Y000850D03*
X016898Y000853D03*
X016896Y000858D03*
X016893Y000863D03*
X016811Y000830D03*
X016811Y000828D03*
X016808Y000833D03*
X016808Y000835D03*
X016806Y000838D03*
X016806Y000840D03*
X016803Y000845D03*
X016803Y000848D03*
X016801Y000850D03*
X016801Y000853D03*
X016798Y000858D03*
X016818Y000815D03*
X016853Y000758D03*
X016121Y001088D03*
X015901Y001230D03*
X015968Y001280D03*
X015928Y001360D03*
X015588Y001343D03*
D26*
X015548Y001360D03*
X015966Y001278D03*
X015951Y001153D03*
X016113Y001300D03*
X016268Y001295D03*
X016551Y001295D03*
X016838Y001350D03*
X016841Y001345D03*
X016846Y001338D03*
X016848Y001335D03*
X016853Y001328D03*
X016856Y001325D03*
X016863Y001313D03*
X016903Y001253D03*
X016903Y001205D03*
X016853Y001143D03*
X016843Y001128D03*
X016838Y001120D03*
X016836Y001118D03*
X016833Y001115D03*
X016833Y001113D03*
X016831Y001110D03*
X016828Y001108D03*
X016826Y001103D03*
X016906Y001065D03*
X016908Y001068D03*
X016911Y001070D03*
X016913Y001075D03*
X016916Y001078D03*
X016916Y001080D03*
X017061Y001103D03*
X017061Y001105D03*
X017066Y001113D03*
X017068Y001115D03*
X017071Y001118D03*
X017136Y001060D03*
X017138Y001063D03*
X017141Y001065D03*
X017133Y001055D03*
X017131Y001053D03*
X017123Y001040D03*
X017148Y001078D03*
X017071Y000975D03*
X017073Y000930D03*
X016916Y000828D03*
X016916Y000825D03*
X016913Y000830D03*
X016911Y000835D03*
X016908Y000838D03*
X016831Y000795D03*
X016828Y000798D03*
X016826Y000800D03*
X016826Y000803D03*
X016823Y000805D03*
X016833Y000790D03*
X016853Y000760D03*
X017071Y001340D03*
X017068Y001343D03*
X017066Y001345D03*
X017061Y001355D03*
X017131Y001405D03*
X017133Y001403D03*
X017136Y001398D03*
X017138Y001395D03*
X017141Y001393D03*
X017146Y001385D03*
X017123Y001418D03*
X017081Y001525D03*
X016923Y001625D03*
X016923Y001628D03*
X016921Y001623D03*
X016918Y001620D03*
X016841Y001658D03*
X016841Y001660D03*
X016843Y001663D03*
X016838Y001655D03*
X016836Y001650D03*
X016863Y001693D03*
X016918Y001385D03*
X016921Y001383D03*
X016923Y001380D03*
X016923Y001378D03*
X016853Y011260D03*
X016833Y011290D03*
X016831Y011295D03*
X016828Y011298D03*
X016826Y011300D03*
X016826Y011303D03*
X016823Y011305D03*
X016908Y011338D03*
X016911Y011335D03*
X016913Y011330D03*
X016916Y011328D03*
X016916Y011325D03*
X017073Y011430D03*
X017071Y011475D03*
X017123Y011540D03*
X017131Y011553D03*
X017133Y011555D03*
X017136Y011560D03*
X017138Y011563D03*
X017141Y011565D03*
X017148Y011578D03*
X017071Y011618D03*
X017068Y011615D03*
X017066Y011613D03*
X017061Y011605D03*
X017061Y011603D03*
X016916Y011580D03*
X016916Y011578D03*
X016913Y011575D03*
X016911Y011570D03*
X016908Y011568D03*
X016906Y011565D03*
X016833Y011613D03*
X016833Y011615D03*
X016836Y011618D03*
X016838Y011620D03*
X016843Y011628D03*
X016853Y011643D03*
X016831Y011610D03*
X016828Y011608D03*
X016826Y011603D03*
X016903Y011705D03*
X016903Y011753D03*
X016863Y011813D03*
X016856Y011825D03*
X016853Y011828D03*
X016848Y011835D03*
X016846Y011838D03*
X016841Y011845D03*
X016838Y011850D03*
X016918Y011885D03*
X016921Y011883D03*
X016923Y011880D03*
X016923Y011878D03*
X017061Y011855D03*
X017066Y011845D03*
X017068Y011843D03*
X017071Y011840D03*
X017136Y011898D03*
X017138Y011895D03*
X017141Y011893D03*
X017146Y011885D03*
X017133Y011903D03*
X017131Y011905D03*
X017123Y011918D03*
X017081Y012025D03*
X016923Y012125D03*
X016923Y012128D03*
X016921Y012123D03*
X016918Y012120D03*
X016841Y012158D03*
X016841Y012160D03*
X016843Y012163D03*
X016838Y012155D03*
X016836Y012150D03*
X016863Y012193D03*
X016551Y011795D03*
X016268Y011795D03*
X016113Y011800D03*
X015966Y011778D03*
X015951Y011653D03*
X015548Y011860D03*
D27*
X015550Y011653D03*
X015762Y011655D03*
X015760Y011800D03*
X015907Y011735D03*
X015962Y011775D03*
X016117Y011710D03*
X016840Y011623D03*
X016842Y011625D03*
X016845Y011630D03*
X016847Y011633D03*
X016850Y011635D03*
X016852Y011640D03*
X016902Y011708D03*
X016862Y011815D03*
X016860Y011820D03*
X016857Y011823D03*
X016852Y011830D03*
X016850Y011833D03*
X017062Y011850D03*
X017062Y011853D03*
X017065Y011848D03*
X017135Y011900D03*
X017130Y011908D03*
X017127Y011910D03*
X017125Y011913D03*
X017125Y011915D03*
X017082Y011980D03*
X017082Y011983D03*
X017082Y012023D03*
X016855Y012178D03*
X016852Y012175D03*
X016850Y012170D03*
X016847Y012168D03*
X016845Y012165D03*
X016862Y012190D03*
X017065Y011610D03*
X017062Y011608D03*
X017135Y011558D03*
X017130Y011550D03*
X017127Y011548D03*
X017125Y011545D03*
X017125Y011543D03*
X017072Y011473D03*
X017072Y011433D03*
X016912Y011333D03*
X016840Y011283D03*
X016837Y011285D03*
X016835Y011288D03*
X016832Y011293D03*
X016842Y011278D03*
X016845Y011275D03*
X016852Y011263D03*
X016912Y011573D03*
X016862Y001690D03*
X016855Y001678D03*
X016852Y001675D03*
X016850Y001670D03*
X016847Y001668D03*
X016845Y001665D03*
X017082Y001523D03*
X017082Y001483D03*
X017082Y001480D03*
X017125Y001415D03*
X017125Y001413D03*
X017127Y001410D03*
X017130Y001408D03*
X017135Y001400D03*
X017062Y001353D03*
X017062Y001350D03*
X017065Y001348D03*
X016902Y001208D03*
X016852Y001140D03*
X016850Y001135D03*
X016847Y001133D03*
X016845Y001130D03*
X016842Y001125D03*
X016840Y001123D03*
X016912Y001073D03*
X017062Y001108D03*
X017065Y001110D03*
X017135Y001058D03*
X017130Y001050D03*
X017127Y001048D03*
X017125Y001045D03*
X017125Y001043D03*
X017072Y000973D03*
X017072Y000933D03*
X016912Y000833D03*
X016840Y000783D03*
X016837Y000785D03*
X016835Y000788D03*
X016832Y000793D03*
X016842Y000778D03*
X016845Y000775D03*
X016852Y000763D03*
X016117Y001210D03*
X015962Y001275D03*
X015907Y001235D03*
X015760Y001300D03*
X015762Y001155D03*
X015550Y001153D03*
X016850Y001333D03*
X016852Y001330D03*
X016857Y001323D03*
X016860Y001320D03*
X016862Y001315D03*
D28*
X016861Y001318D03*
X016903Y001250D03*
X016903Y001248D03*
X016851Y001138D03*
X016841Y000780D03*
X016846Y000773D03*
X016848Y000770D03*
X016851Y000768D03*
X016851Y000765D03*
X016121Y001178D03*
X016076Y001153D03*
X016061Y001280D03*
X015958Y001273D03*
X015911Y001238D03*
X016851Y001673D03*
X016856Y001680D03*
X016858Y001683D03*
X016861Y001685D03*
X016861Y001688D03*
X016851Y011265D03*
X016851Y011268D03*
X016848Y011270D03*
X016846Y011273D03*
X016841Y011280D03*
X016851Y011638D03*
X016903Y011748D03*
X016903Y011750D03*
X016861Y011818D03*
X016851Y012173D03*
X016856Y012180D03*
X016858Y012183D03*
X016861Y012185D03*
X016861Y012188D03*
X016061Y011780D03*
X015958Y011773D03*
X015911Y011738D03*
X016076Y011653D03*
X016121Y011678D03*
D29*
X016156Y011650D03*
X016158Y011648D03*
X016161Y011645D03*
X016163Y011638D03*
X016121Y011585D03*
X016073Y011605D03*
X016071Y011608D03*
X016066Y011613D03*
X016063Y011615D03*
X016061Y011618D03*
X016061Y011620D03*
X016058Y011623D03*
X016058Y011625D03*
X016058Y011628D03*
X015991Y011673D03*
X016078Y011730D03*
X016076Y011735D03*
X016073Y011768D03*
X016076Y011775D03*
X015931Y011863D03*
X015891Y011840D03*
X015506Y011840D03*
X016428Y011838D03*
X016428Y011865D03*
X016428Y011798D03*
X016728Y011803D03*
X016728Y011805D03*
X016863Y011795D03*
X016923Y011858D03*
X016998Y011813D03*
X017061Y011875D03*
X016986Y011920D03*
X017081Y011968D03*
X017081Y012038D03*
X016986Y012085D03*
X016923Y012148D03*
X016863Y012210D03*
X016901Y011693D03*
X016853Y011660D03*
X016916Y011598D03*
X016978Y011535D03*
X017061Y011585D03*
X017123Y011523D03*
X016978Y011370D03*
X016916Y011308D03*
X016863Y001710D03*
X016923Y001648D03*
X016986Y001585D03*
X017081Y001538D03*
X017081Y001468D03*
X017061Y001375D03*
X016986Y001420D03*
X016923Y001358D03*
X016863Y001295D03*
X016901Y001193D03*
X016853Y001160D03*
X016916Y001098D03*
X016978Y001035D03*
X017061Y001085D03*
X017123Y001023D03*
X016978Y000870D03*
X016916Y000808D03*
X016998Y001313D03*
X016728Y001305D03*
X016728Y001303D03*
X016428Y001298D03*
X016428Y001338D03*
X016428Y001365D03*
X016158Y001148D03*
X016156Y001150D03*
X016161Y001145D03*
X016163Y001138D03*
X016121Y001085D03*
X016073Y001105D03*
X016071Y001108D03*
X016066Y001113D03*
X016063Y001115D03*
X016061Y001118D03*
X016061Y001120D03*
X016058Y001123D03*
X016058Y001125D03*
X016058Y001128D03*
X015991Y001173D03*
X016078Y001230D03*
X016076Y001235D03*
X016073Y001268D03*
X016076Y001275D03*
X015931Y001363D03*
X015891Y001340D03*
X015506Y001340D03*
D30*
X015587Y001170D03*
X015905Y001233D03*
X016820Y001093D03*
X016822Y001095D03*
X016822Y001098D03*
X016825Y001100D03*
X016827Y001105D03*
X016855Y001145D03*
X016902Y001203D03*
X016997Y001165D03*
X017000Y001168D03*
X017002Y001173D03*
X017077Y001128D03*
X017075Y001123D03*
X017072Y001120D03*
X017060Y001100D03*
X017122Y001038D03*
X017142Y001068D03*
X017145Y001070D03*
X017145Y001073D03*
X017147Y001075D03*
X017150Y001080D03*
X017152Y001083D03*
X017152Y001085D03*
X017072Y000978D03*
X017072Y000928D03*
X016980Y001018D03*
X016980Y001020D03*
X016977Y001015D03*
X016905Y001063D03*
X016902Y001060D03*
X016900Y001055D03*
X016917Y001083D03*
X017002Y001285D03*
X017000Y001290D03*
X016997Y001293D03*
X016997Y001295D03*
X017072Y001338D03*
X017075Y001335D03*
X017077Y001330D03*
X017060Y001358D03*
X017060Y001360D03*
X017122Y001420D03*
X017142Y001390D03*
X017145Y001388D03*
X017147Y001383D03*
X017150Y001380D03*
X017150Y001378D03*
X017152Y001375D03*
X017155Y001370D03*
X017082Y001478D03*
X017082Y001528D03*
X016987Y001565D03*
X016985Y001563D03*
X016915Y001613D03*
X016915Y001615D03*
X016917Y001618D03*
X016925Y001630D03*
X016865Y001695D03*
X016837Y001653D03*
X016835Y001648D03*
X016832Y001645D03*
X016832Y001643D03*
X016830Y001640D03*
X016827Y001635D03*
X016825Y001630D03*
X016822Y001625D03*
X016985Y001443D03*
X016987Y001440D03*
X016917Y001388D03*
X016915Y001390D03*
X016925Y001375D03*
X016845Y001340D03*
X016842Y001343D03*
X016840Y001348D03*
X016837Y001353D03*
X016835Y001355D03*
X016835Y001358D03*
X016832Y001360D03*
X016865Y001310D03*
X016905Y000843D03*
X016907Y000840D03*
X016917Y000823D03*
X016822Y000810D03*
X016822Y000808D03*
X016820Y000813D03*
X016817Y000818D03*
X016815Y000820D03*
X016815Y000823D03*
X016812Y000825D03*
X016822Y011308D03*
X016822Y011310D03*
X016820Y011313D03*
X016817Y011318D03*
X016815Y011320D03*
X016815Y011323D03*
X016812Y011325D03*
X016905Y011343D03*
X016907Y011340D03*
X016917Y011323D03*
X017072Y011428D03*
X017072Y011478D03*
X017122Y011538D03*
X017142Y011568D03*
X017145Y011570D03*
X017145Y011573D03*
X017147Y011575D03*
X017150Y011580D03*
X017152Y011583D03*
X017152Y011585D03*
X017075Y011623D03*
X017072Y011620D03*
X017077Y011628D03*
X017060Y011600D03*
X016997Y011665D03*
X017000Y011668D03*
X017002Y011673D03*
X016902Y011703D03*
X016855Y011645D03*
X016827Y011605D03*
X016825Y011600D03*
X016822Y011598D03*
X016822Y011595D03*
X016820Y011593D03*
X016900Y011555D03*
X016902Y011560D03*
X016905Y011563D03*
X016917Y011583D03*
X016980Y011520D03*
X016980Y011518D03*
X016977Y011515D03*
X017002Y011785D03*
X017000Y011790D03*
X016997Y011793D03*
X016997Y011795D03*
X017072Y011838D03*
X017075Y011835D03*
X017077Y011830D03*
X017060Y011858D03*
X017060Y011860D03*
X017122Y011920D03*
X017142Y011890D03*
X017145Y011888D03*
X017147Y011883D03*
X017150Y011880D03*
X017150Y011878D03*
X017152Y011875D03*
X017155Y011870D03*
X017082Y011978D03*
X017082Y012028D03*
X016987Y012065D03*
X016985Y012063D03*
X016915Y012113D03*
X016915Y012115D03*
X016917Y012118D03*
X016925Y012130D03*
X016865Y012195D03*
X016837Y012153D03*
X016835Y012148D03*
X016832Y012145D03*
X016832Y012143D03*
X016830Y012140D03*
X016827Y012135D03*
X016825Y012130D03*
X016822Y012125D03*
X016985Y011943D03*
X016987Y011940D03*
X016917Y011888D03*
X016915Y011890D03*
X016925Y011875D03*
X016845Y011840D03*
X016842Y011843D03*
X016840Y011848D03*
X016837Y011853D03*
X016835Y011855D03*
X016835Y011858D03*
X016832Y011860D03*
X016865Y011810D03*
X015905Y011733D03*
X015587Y011670D03*
D31*
X015508Y011670D03*
X015706Y011710D03*
X015708Y011700D03*
X015708Y011698D03*
X015711Y011693D03*
X015711Y011690D03*
X015713Y011688D03*
X015713Y011685D03*
X015716Y011683D03*
X015716Y011680D03*
X015718Y011678D03*
X015721Y011675D03*
X015723Y011673D03*
X015726Y011670D03*
X015798Y011673D03*
X015801Y011675D03*
X015803Y011678D03*
X015806Y011680D03*
X015806Y011683D03*
X015808Y011685D03*
X015811Y011690D03*
X015811Y011693D03*
X015813Y011698D03*
X015813Y011700D03*
X015816Y011710D03*
X015816Y011745D03*
X015813Y011755D03*
X015813Y011758D03*
X015811Y011763D03*
X015811Y011765D03*
X015808Y011768D03*
X015808Y011770D03*
X015806Y011773D03*
X015803Y011778D03*
X015801Y011780D03*
X015798Y011783D03*
X015796Y011785D03*
X015723Y011783D03*
X015721Y011780D03*
X015718Y011778D03*
X015716Y011775D03*
X015716Y011773D03*
X015713Y011770D03*
X015713Y011768D03*
X015711Y011765D03*
X015711Y011763D03*
X015708Y011758D03*
X015708Y011755D03*
X015706Y011745D03*
X015891Y011698D03*
X015891Y011695D03*
X015891Y011693D03*
X015893Y011690D03*
X015893Y011688D03*
X015896Y011683D03*
X015898Y011680D03*
X015983Y011805D03*
X015983Y011808D03*
X015983Y011810D03*
X015983Y011813D03*
X015981Y011823D03*
X015976Y011833D03*
X015973Y011835D03*
X015971Y011838D03*
X016088Y011720D03*
X016121Y011705D03*
X016148Y011725D03*
X016151Y011728D03*
X016153Y011730D03*
X016153Y011733D03*
X016156Y011735D03*
X016156Y011738D03*
X016156Y011740D03*
X016158Y011745D03*
X016158Y011748D03*
X016158Y011750D03*
X016158Y011753D03*
X016158Y011755D03*
X016158Y011758D03*
X016158Y011760D03*
X016158Y011763D03*
X016156Y011770D03*
X016153Y011778D03*
X016148Y011785D03*
X016146Y011788D03*
X016243Y011765D03*
X016243Y011763D03*
X016243Y011760D03*
X016336Y011798D03*
X016428Y011840D03*
X016428Y011843D03*
X016428Y011860D03*
X016428Y011863D03*
X016528Y011770D03*
X016526Y011765D03*
X016526Y011763D03*
X016526Y011760D03*
X016618Y011873D03*
X016731Y011800D03*
X016728Y011685D03*
X016728Y011683D03*
X016853Y011658D03*
X016916Y011595D03*
X016978Y011533D03*
X017061Y011588D03*
X017123Y011525D03*
X016978Y011373D03*
X016916Y011310D03*
X016903Y011763D03*
X016863Y011798D03*
X016923Y011860D03*
X016986Y011923D03*
X017061Y011873D03*
X016998Y011810D03*
X016986Y012083D03*
X016923Y012145D03*
X016863Y012208D03*
X016163Y011623D03*
X016163Y011620D03*
X016163Y011618D03*
X016161Y011615D03*
X016078Y011603D03*
X016058Y011638D03*
X016058Y011640D03*
X016863Y001708D03*
X016923Y001645D03*
X016986Y001583D03*
X016986Y001423D03*
X016923Y001360D03*
X016863Y001298D03*
X016903Y001263D03*
X016998Y001310D03*
X017061Y001373D03*
X016853Y001158D03*
X016916Y001095D03*
X016978Y001033D03*
X017061Y001088D03*
X017123Y001025D03*
X016978Y000873D03*
X016916Y000810D03*
X016728Y001183D03*
X016728Y001185D03*
X016731Y001300D03*
X016618Y001373D03*
X016528Y001270D03*
X016526Y001265D03*
X016526Y001263D03*
X016526Y001260D03*
X016428Y001340D03*
X016428Y001343D03*
X016428Y001360D03*
X016428Y001363D03*
X016336Y001298D03*
X016243Y001265D03*
X016243Y001263D03*
X016243Y001260D03*
X016158Y001260D03*
X016158Y001263D03*
X016158Y001258D03*
X016158Y001255D03*
X016158Y001253D03*
X016158Y001250D03*
X016158Y001248D03*
X016158Y001245D03*
X016156Y001240D03*
X016156Y001238D03*
X016156Y001235D03*
X016153Y001233D03*
X016153Y001230D03*
X016151Y001228D03*
X016148Y001225D03*
X016121Y001205D03*
X016088Y001220D03*
X016156Y001270D03*
X016153Y001278D03*
X016148Y001285D03*
X016146Y001288D03*
X015983Y001305D03*
X015983Y001308D03*
X015983Y001310D03*
X015983Y001313D03*
X015981Y001323D03*
X015976Y001333D03*
X015973Y001335D03*
X015971Y001338D03*
X015891Y001198D03*
X015891Y001195D03*
X015891Y001193D03*
X015893Y001190D03*
X015893Y001188D03*
X015896Y001183D03*
X015898Y001180D03*
X015813Y001198D03*
X015813Y001200D03*
X015811Y001193D03*
X015811Y001190D03*
X015808Y001185D03*
X015806Y001183D03*
X015806Y001180D03*
X015803Y001178D03*
X015801Y001175D03*
X015798Y001173D03*
X015816Y001210D03*
X015816Y001245D03*
X015813Y001255D03*
X015813Y001258D03*
X015811Y001263D03*
X015811Y001265D03*
X015808Y001268D03*
X015808Y001270D03*
X015806Y001273D03*
X015803Y001278D03*
X015801Y001280D03*
X015798Y001283D03*
X015796Y001285D03*
X015723Y001283D03*
X015721Y001280D03*
X015718Y001278D03*
X015716Y001275D03*
X015716Y001273D03*
X015713Y001270D03*
X015713Y001268D03*
X015711Y001265D03*
X015711Y001263D03*
X015708Y001258D03*
X015708Y001255D03*
X015706Y001245D03*
X015706Y001210D03*
X015708Y001200D03*
X015708Y001198D03*
X015711Y001193D03*
X015711Y001190D03*
X015713Y001188D03*
X015713Y001185D03*
X015716Y001183D03*
X015716Y001180D03*
X015718Y001178D03*
X015721Y001175D03*
X015723Y001173D03*
X015726Y001170D03*
X015508Y001170D03*
X016058Y001140D03*
X016058Y001138D03*
X016078Y001103D03*
X016161Y001115D03*
X016163Y001118D03*
X016163Y001120D03*
X016163Y001123D03*
D32*
X016158Y001110D03*
X016156Y001108D03*
X016153Y001105D03*
X016143Y001220D03*
X015986Y001170D03*
X015906Y001173D03*
X015891Y001208D03*
X015891Y001210D03*
X015891Y001213D03*
X015791Y001168D03*
X015731Y001168D03*
X015628Y001213D03*
X015628Y001215D03*
X015631Y001220D03*
X015631Y001223D03*
X015633Y001228D03*
X015633Y001230D03*
X015633Y001233D03*
X015633Y001235D03*
X015636Y001240D03*
X015636Y001243D03*
X015636Y001245D03*
X015636Y001248D03*
X015636Y001250D03*
X015636Y001253D03*
X015636Y001255D03*
X015636Y001258D03*
X015636Y001260D03*
X015636Y001263D03*
X015636Y001265D03*
X015636Y001268D03*
X015636Y001270D03*
X015636Y001273D03*
X015633Y001278D03*
X015633Y001280D03*
X015633Y001283D03*
X015633Y001285D03*
X015631Y001290D03*
X015631Y001293D03*
X015628Y001298D03*
X015628Y001300D03*
X015626Y001305D03*
X015623Y001310D03*
X015621Y001315D03*
X015618Y001318D03*
X015618Y001320D03*
X015616Y001323D03*
X015613Y001325D03*
X015611Y001328D03*
X015608Y001330D03*
X015511Y001343D03*
X015626Y001208D03*
X015623Y001203D03*
X015621Y001200D03*
X015621Y001198D03*
X015618Y001195D03*
X015616Y001193D03*
X015613Y001188D03*
X015726Y001285D03*
X015731Y001288D03*
X015791Y001288D03*
X015981Y001298D03*
X016428Y001345D03*
X016428Y001348D03*
X016428Y001350D03*
X016428Y001353D03*
X016428Y001355D03*
X016428Y001358D03*
X016733Y001298D03*
X016726Y001175D03*
X016853Y001155D03*
X016916Y001093D03*
X016978Y001030D03*
X017061Y001090D03*
X017123Y001028D03*
X016998Y001153D03*
X016998Y001308D03*
X016986Y001425D03*
X017081Y001470D03*
X016986Y001580D03*
X016923Y001643D03*
X016863Y001705D03*
X016863Y001300D03*
X016978Y000875D03*
X016916Y000813D03*
X016916Y011313D03*
X016978Y011375D03*
X016978Y011530D03*
X016916Y011593D03*
X016853Y011655D03*
X016726Y011675D03*
X016733Y011798D03*
X016863Y011800D03*
X016998Y011808D03*
X016986Y011925D03*
X017081Y011970D03*
X016986Y012080D03*
X016923Y012143D03*
X016863Y012205D03*
X016428Y011858D03*
X016428Y011855D03*
X016428Y011853D03*
X016428Y011850D03*
X016428Y011848D03*
X016428Y011845D03*
X016143Y011720D03*
X016158Y011610D03*
X016156Y011608D03*
X016153Y011605D03*
X015986Y011670D03*
X015906Y011673D03*
X015891Y011708D03*
X015891Y011710D03*
X015891Y011713D03*
X015791Y011668D03*
X015731Y011668D03*
X015628Y011713D03*
X015628Y011715D03*
X015631Y011720D03*
X015631Y011723D03*
X015633Y011728D03*
X015633Y011730D03*
X015633Y011733D03*
X015633Y011735D03*
X015636Y011740D03*
X015636Y011743D03*
X015636Y011745D03*
X015636Y011748D03*
X015636Y011750D03*
X015636Y011753D03*
X015636Y011755D03*
X015636Y011758D03*
X015636Y011760D03*
X015636Y011763D03*
X015636Y011765D03*
X015636Y011768D03*
X015636Y011770D03*
X015636Y011773D03*
X015633Y011778D03*
X015633Y011780D03*
X015633Y011783D03*
X015633Y011785D03*
X015631Y011790D03*
X015631Y011793D03*
X015628Y011798D03*
X015628Y011800D03*
X015626Y011805D03*
X015623Y011810D03*
X015621Y011815D03*
X015618Y011818D03*
X015618Y011820D03*
X015616Y011823D03*
X015613Y011825D03*
X015611Y011828D03*
X015608Y011830D03*
X015511Y011843D03*
X015626Y011708D03*
X015623Y011703D03*
X015621Y011700D03*
X015621Y011698D03*
X015618Y011695D03*
X015616Y011693D03*
X015613Y011688D03*
X015726Y011785D03*
X015731Y011788D03*
X015791Y011788D03*
X015981Y011798D03*
X016998Y011653D03*
X017061Y011590D03*
X017123Y011528D03*
D33*
X017123Y011530D03*
X017061Y011593D03*
X016998Y011655D03*
X017016Y011710D03*
X017018Y011723D03*
X017018Y011728D03*
X017018Y011730D03*
X017016Y011748D03*
X016903Y011760D03*
X016863Y011803D03*
X016853Y011653D03*
X016916Y011590D03*
X016978Y011528D03*
X016961Y011478D03*
X016961Y011475D03*
X016961Y011430D03*
X016961Y011428D03*
X016978Y011378D03*
X016916Y011315D03*
X016871Y011435D03*
X016871Y011438D03*
X016871Y011440D03*
X016871Y011443D03*
X016871Y011445D03*
X016871Y011448D03*
X016871Y011450D03*
X016871Y011453D03*
X016871Y011455D03*
X016871Y011458D03*
X016871Y011460D03*
X016871Y011463D03*
X016871Y011465D03*
X016871Y011468D03*
X016871Y011470D03*
X017188Y011680D03*
X017188Y011778D03*
X016986Y011928D03*
X016986Y012078D03*
X016863Y012203D03*
X016548Y011800D03*
X016436Y011793D03*
X016266Y011800D03*
X016151Y011603D03*
X015893Y011718D03*
X015963Y011843D03*
X015598Y011838D03*
X015601Y011678D03*
X016863Y001703D03*
X016986Y001578D03*
X016986Y001428D03*
X016863Y001303D03*
X016903Y001260D03*
X017016Y001248D03*
X017018Y001230D03*
X017018Y001228D03*
X017018Y001223D03*
X017016Y001210D03*
X016998Y001155D03*
X017061Y001093D03*
X017123Y001030D03*
X016978Y001028D03*
X016961Y000978D03*
X016961Y000975D03*
X016961Y000930D03*
X016961Y000928D03*
X016978Y000878D03*
X016916Y000815D03*
X016871Y000935D03*
X016871Y000938D03*
X016871Y000940D03*
X016871Y000943D03*
X016871Y000945D03*
X016871Y000948D03*
X016871Y000950D03*
X016871Y000953D03*
X016871Y000955D03*
X016871Y000958D03*
X016871Y000960D03*
X016871Y000963D03*
X016871Y000965D03*
X016871Y000968D03*
X016871Y000970D03*
X016916Y001090D03*
X016853Y001153D03*
X016548Y001300D03*
X016436Y001293D03*
X016266Y001300D03*
X015963Y001343D03*
X015893Y001218D03*
X015601Y001178D03*
X015598Y001338D03*
X016151Y001103D03*
X017188Y001180D03*
X017188Y001278D03*
D34*
X017186Y001285D03*
X017186Y001288D03*
X017186Y001290D03*
X017186Y001293D03*
X017183Y001298D03*
X017183Y001300D03*
X017183Y001303D03*
X017181Y001308D03*
X017181Y001310D03*
X017178Y001313D03*
X017178Y001315D03*
X017178Y001318D03*
X017176Y001323D03*
X017176Y001325D03*
X017171Y001338D03*
X017191Y001260D03*
X017191Y001258D03*
X017191Y001200D03*
X017191Y001198D03*
X017191Y001195D03*
X017191Y001193D03*
X017191Y001190D03*
X017186Y001173D03*
X017186Y001170D03*
X017186Y001168D03*
X017186Y001165D03*
X017183Y001160D03*
X017183Y001158D03*
X017183Y001155D03*
X017181Y001153D03*
X017181Y001150D03*
X017181Y001148D03*
X017178Y001145D03*
X017178Y001143D03*
X017178Y001140D03*
X017176Y001133D03*
X017171Y001120D03*
X017093Y001163D03*
X017096Y001168D03*
X017096Y001170D03*
X017096Y001173D03*
X017098Y001175D03*
X017098Y001178D03*
X017101Y001185D03*
X017101Y001188D03*
X017101Y001190D03*
X017103Y001198D03*
X017103Y001200D03*
X017103Y001203D03*
X017103Y001205D03*
X017103Y001253D03*
X017103Y001255D03*
X017103Y001258D03*
X017103Y001260D03*
X017101Y001268D03*
X017101Y001270D03*
X017101Y001273D03*
X017098Y001280D03*
X017098Y001283D03*
X017096Y001288D03*
X017096Y001290D03*
X017093Y001295D03*
X017013Y001263D03*
X017011Y001265D03*
X017011Y001268D03*
X017008Y001273D03*
X017013Y001260D03*
X016996Y001300D03*
X017013Y001200D03*
X017013Y001198D03*
X017013Y001195D03*
X017011Y001193D03*
X017011Y001190D03*
X017008Y001185D03*
X017061Y001095D03*
X017123Y001033D03*
X016978Y001025D03*
X016968Y000998D03*
X016966Y000993D03*
X016966Y000990D03*
X016963Y000988D03*
X016963Y000985D03*
X016958Y000968D03*
X016958Y000965D03*
X016958Y000940D03*
X016963Y000920D03*
X016963Y000918D03*
X016966Y000915D03*
X016966Y000913D03*
X016968Y000908D03*
X016978Y000880D03*
X016916Y000818D03*
X016886Y000878D03*
X016883Y000885D03*
X016883Y000888D03*
X016881Y000890D03*
X016881Y000893D03*
X016878Y000895D03*
X016878Y000898D03*
X016878Y000900D03*
X016876Y000908D03*
X016876Y000910D03*
X016873Y000925D03*
X016873Y000928D03*
X016873Y000980D03*
X016873Y000983D03*
X016873Y000985D03*
X016876Y000995D03*
X016876Y000998D03*
X016876Y001000D03*
X016878Y001005D03*
X016878Y001008D03*
X016878Y001010D03*
X016881Y001013D03*
X016881Y001015D03*
X016883Y001020D03*
X016883Y001023D03*
X016886Y001028D03*
X016916Y001088D03*
X016853Y001150D03*
X016798Y001048D03*
X016798Y001045D03*
X016796Y001038D03*
X016796Y001035D03*
X016793Y001030D03*
X016791Y001023D03*
X016791Y001020D03*
X016791Y001018D03*
X016788Y001015D03*
X016788Y001013D03*
X016788Y001010D03*
X016788Y001008D03*
X016788Y001005D03*
X016786Y000998D03*
X016786Y000995D03*
X016786Y000993D03*
X016786Y000990D03*
X016786Y000988D03*
X016786Y000985D03*
X016783Y000983D03*
X016783Y000980D03*
X016783Y000978D03*
X016783Y000975D03*
X016783Y000973D03*
X016783Y000970D03*
X016783Y000968D03*
X016783Y000965D03*
X016783Y000963D03*
X016783Y000960D03*
X016783Y000958D03*
X016783Y000955D03*
X016783Y000953D03*
X016783Y000950D03*
X016783Y000948D03*
X016783Y000945D03*
X016783Y000943D03*
X016783Y000940D03*
X016783Y000938D03*
X016783Y000935D03*
X016783Y000933D03*
X016783Y000930D03*
X016783Y000928D03*
X016783Y000925D03*
X016783Y000923D03*
X016786Y000910D03*
X016786Y000908D03*
X016786Y000905D03*
X016788Y000900D03*
X016788Y000898D03*
X016788Y000895D03*
X016788Y000893D03*
X016791Y000885D03*
X016791Y000883D03*
X016796Y000868D03*
X016903Y001258D03*
X016863Y001305D03*
X016896Y001425D03*
X016893Y001430D03*
X016891Y001435D03*
X016891Y001438D03*
X016891Y001440D03*
X016888Y001443D03*
X016888Y001445D03*
X016888Y001448D03*
X016886Y001453D03*
X016883Y001465D03*
X016881Y001480D03*
X016881Y001525D03*
X016883Y001540D03*
X016883Y001543D03*
X016886Y001553D03*
X016888Y001558D03*
X016888Y001560D03*
X016888Y001563D03*
X016891Y001565D03*
X016891Y001568D03*
X016891Y001570D03*
X016893Y001573D03*
X016896Y001580D03*
X016811Y001598D03*
X016803Y001575D03*
X016803Y001573D03*
X016801Y001568D03*
X016801Y001565D03*
X016798Y001555D03*
X016798Y001553D03*
X016796Y001533D03*
X016796Y001530D03*
X016796Y001473D03*
X016796Y001470D03*
X016796Y001468D03*
X016796Y001465D03*
X016796Y001463D03*
X016798Y001450D03*
X016798Y001448D03*
X016801Y001440D03*
X016801Y001438D03*
X016801Y001435D03*
X016803Y001433D03*
X016803Y001430D03*
X016803Y001428D03*
X016806Y001423D03*
X016806Y001420D03*
X016971Y001470D03*
X016971Y001473D03*
X016973Y001468D03*
X016973Y001465D03*
X016976Y001460D03*
X016978Y001455D03*
X016988Y001433D03*
X016968Y001488D03*
X016968Y001518D03*
X016971Y001533D03*
X016971Y001535D03*
X016973Y001538D03*
X016973Y001540D03*
X016976Y001545D03*
X016978Y001550D03*
X016988Y001573D03*
X016863Y001700D03*
X016626Y001368D03*
X016608Y001278D03*
X016128Y001180D03*
X015973Y001285D03*
X015971Y001283D03*
X015898Y001225D03*
X015593Y001173D03*
X016916Y011318D03*
X016886Y011378D03*
X016883Y011385D03*
X016883Y011388D03*
X016881Y011390D03*
X016881Y011393D03*
X016878Y011395D03*
X016878Y011398D03*
X016878Y011400D03*
X016876Y011408D03*
X016876Y011410D03*
X016873Y011425D03*
X016873Y011428D03*
X016873Y011480D03*
X016873Y011483D03*
X016873Y011485D03*
X016876Y011495D03*
X016876Y011498D03*
X016876Y011500D03*
X016878Y011505D03*
X016878Y011508D03*
X016878Y011510D03*
X016881Y011513D03*
X016881Y011515D03*
X016883Y011520D03*
X016883Y011523D03*
X016886Y011528D03*
X016916Y011588D03*
X016853Y011650D03*
X016798Y011548D03*
X016798Y011545D03*
X016796Y011538D03*
X016796Y011535D03*
X016793Y011530D03*
X016791Y011523D03*
X016791Y011520D03*
X016791Y011518D03*
X016788Y011515D03*
X016788Y011513D03*
X016788Y011510D03*
X016788Y011508D03*
X016788Y011505D03*
X016786Y011498D03*
X016786Y011495D03*
X016786Y011493D03*
X016786Y011490D03*
X016786Y011488D03*
X016786Y011485D03*
X016783Y011483D03*
X016783Y011480D03*
X016783Y011478D03*
X016783Y011475D03*
X016783Y011473D03*
X016783Y011470D03*
X016783Y011468D03*
X016783Y011465D03*
X016783Y011463D03*
X016783Y011460D03*
X016783Y011458D03*
X016783Y011455D03*
X016783Y011453D03*
X016783Y011450D03*
X016783Y011448D03*
X016783Y011445D03*
X016783Y011443D03*
X016783Y011440D03*
X016783Y011438D03*
X016783Y011435D03*
X016783Y011433D03*
X016783Y011430D03*
X016783Y011428D03*
X016783Y011425D03*
X016783Y011423D03*
X016786Y011410D03*
X016786Y011408D03*
X016786Y011405D03*
X016788Y011400D03*
X016788Y011398D03*
X016788Y011395D03*
X016788Y011393D03*
X016791Y011385D03*
X016791Y011383D03*
X016796Y011368D03*
X016963Y011418D03*
X016963Y011420D03*
X016966Y011415D03*
X016966Y011413D03*
X016968Y011408D03*
X016978Y011380D03*
X016958Y011440D03*
X016958Y011465D03*
X016958Y011468D03*
X016963Y011485D03*
X016963Y011488D03*
X016966Y011490D03*
X016966Y011493D03*
X016968Y011498D03*
X016978Y011525D03*
X017061Y011595D03*
X017093Y011663D03*
X017096Y011668D03*
X017096Y011670D03*
X017096Y011673D03*
X017098Y011675D03*
X017098Y011678D03*
X017101Y011685D03*
X017101Y011688D03*
X017101Y011690D03*
X017103Y011698D03*
X017103Y011700D03*
X017103Y011703D03*
X017103Y011705D03*
X017103Y011753D03*
X017103Y011755D03*
X017103Y011758D03*
X017103Y011760D03*
X017101Y011768D03*
X017101Y011770D03*
X017101Y011773D03*
X017098Y011780D03*
X017098Y011783D03*
X017096Y011788D03*
X017096Y011790D03*
X017093Y011795D03*
X017013Y011763D03*
X017011Y011765D03*
X017011Y011768D03*
X017008Y011773D03*
X017013Y011760D03*
X016996Y011800D03*
X017013Y011700D03*
X017013Y011698D03*
X017013Y011695D03*
X017011Y011693D03*
X017011Y011690D03*
X017008Y011685D03*
X016903Y011758D03*
X016863Y011805D03*
X016896Y011925D03*
X016893Y011930D03*
X016891Y011935D03*
X016891Y011938D03*
X016891Y011940D03*
X016888Y011943D03*
X016888Y011945D03*
X016888Y011948D03*
X016886Y011953D03*
X016883Y011965D03*
X016881Y011980D03*
X016881Y012025D03*
X016883Y012040D03*
X016883Y012043D03*
X016886Y012053D03*
X016888Y012058D03*
X016888Y012060D03*
X016888Y012063D03*
X016891Y012065D03*
X016891Y012068D03*
X016891Y012070D03*
X016893Y012073D03*
X016896Y012080D03*
X016811Y012098D03*
X016803Y012075D03*
X016803Y012073D03*
X016801Y012068D03*
X016801Y012065D03*
X016798Y012055D03*
X016798Y012053D03*
X016796Y012033D03*
X016796Y012030D03*
X016796Y011973D03*
X016796Y011970D03*
X016796Y011968D03*
X016796Y011965D03*
X016796Y011963D03*
X016798Y011950D03*
X016798Y011948D03*
X016801Y011940D03*
X016801Y011938D03*
X016801Y011935D03*
X016803Y011933D03*
X016803Y011930D03*
X016803Y011928D03*
X016806Y011923D03*
X016806Y011920D03*
X016971Y011970D03*
X016971Y011973D03*
X016973Y011968D03*
X016973Y011965D03*
X016976Y011960D03*
X016978Y011955D03*
X016988Y011933D03*
X016968Y011988D03*
X016968Y012018D03*
X016971Y012033D03*
X016971Y012035D03*
X016973Y012038D03*
X016973Y012040D03*
X016976Y012045D03*
X016978Y012050D03*
X016988Y012073D03*
X016863Y012200D03*
X016626Y011868D03*
X016608Y011778D03*
X016128Y011680D03*
X015973Y011785D03*
X015971Y011783D03*
X015898Y011725D03*
X015593Y011673D03*
X017123Y011533D03*
X017171Y011620D03*
X017176Y011633D03*
X017178Y011640D03*
X017178Y011643D03*
X017178Y011645D03*
X017181Y011648D03*
X017181Y011650D03*
X017181Y011653D03*
X017183Y011655D03*
X017183Y011658D03*
X017183Y011660D03*
X017186Y011665D03*
X017186Y011668D03*
X017186Y011670D03*
X017186Y011673D03*
X017191Y011690D03*
X017191Y011693D03*
X017191Y011695D03*
X017191Y011698D03*
X017191Y011700D03*
X017191Y011758D03*
X017191Y011760D03*
X017186Y011785D03*
X017186Y011788D03*
X017186Y011790D03*
X017186Y011793D03*
X017183Y011798D03*
X017183Y011800D03*
X017183Y011803D03*
X017181Y011808D03*
X017181Y011810D03*
X017178Y011813D03*
X017178Y011815D03*
X017178Y011818D03*
X017176Y011823D03*
X017176Y011825D03*
X017171Y011838D03*
D35*
X016916Y011613D03*
X016668Y011673D03*
X016976Y011355D03*
X016668Y001173D03*
X016916Y001113D03*
X016976Y000855D03*
D36*
X017072Y000935D03*
X017072Y000938D03*
X017072Y000940D03*
X017072Y000965D03*
X017072Y000968D03*
X017072Y000970D03*
X016902Y001210D03*
X016705Y001158D03*
X016522Y001165D03*
X016552Y001293D03*
X016270Y001293D03*
X016240Y001165D03*
X016062Y001283D03*
X015915Y001240D03*
X017082Y001485D03*
X017082Y001488D03*
X017082Y001520D03*
X017072Y011435D03*
X017072Y011438D03*
X017072Y011440D03*
X017072Y011465D03*
X017072Y011468D03*
X017072Y011470D03*
X016902Y011710D03*
X016705Y011658D03*
X016522Y011665D03*
X016552Y011793D03*
X016270Y011793D03*
X016240Y011665D03*
X016062Y011783D03*
X015915Y011740D03*
X017082Y011985D03*
X017082Y011988D03*
X017082Y012020D03*
D37*
X017081Y012018D03*
X017081Y012015D03*
X017081Y011990D03*
X016903Y011745D03*
X016903Y011743D03*
X016903Y011740D03*
X016903Y011738D03*
X016903Y011720D03*
X016903Y011718D03*
X016903Y011715D03*
X016903Y011713D03*
X016618Y011665D03*
X016618Y011663D03*
X016618Y011660D03*
X016618Y011658D03*
X016618Y011655D03*
X016618Y011653D03*
X016523Y011653D03*
X016523Y011655D03*
X016523Y011658D03*
X016523Y011660D03*
X016523Y011663D03*
X016336Y011663D03*
X016336Y011665D03*
X016336Y011660D03*
X016336Y011658D03*
X016336Y011655D03*
X016336Y011653D03*
X016241Y011653D03*
X016241Y011655D03*
X016241Y011658D03*
X016241Y011660D03*
X016241Y011663D03*
X016121Y011590D03*
X016063Y011785D03*
X015956Y011770D03*
X017073Y011463D03*
X017073Y011445D03*
X017073Y011443D03*
X017081Y001518D03*
X017081Y001515D03*
X017081Y001490D03*
X016903Y001245D03*
X016903Y001243D03*
X016903Y001240D03*
X016903Y001238D03*
X016903Y001220D03*
X016903Y001218D03*
X016903Y001215D03*
X016903Y001213D03*
X016618Y001165D03*
X016618Y001163D03*
X016618Y001160D03*
X016618Y001158D03*
X016618Y001155D03*
X016618Y001153D03*
X016523Y001153D03*
X016523Y001155D03*
X016523Y001158D03*
X016523Y001160D03*
X016523Y001163D03*
X016336Y001163D03*
X016336Y001165D03*
X016336Y001160D03*
X016336Y001158D03*
X016336Y001155D03*
X016336Y001153D03*
X016241Y001153D03*
X016241Y001155D03*
X016241Y001158D03*
X016241Y001160D03*
X016241Y001163D03*
X016121Y001090D03*
X015956Y001270D03*
X016063Y001285D03*
X017073Y000963D03*
X017073Y000945D03*
X017073Y000943D03*
D38*
X017072Y000948D03*
X017072Y000958D03*
X017072Y000960D03*
X016705Y001160D03*
X016705Y001163D03*
X016430Y001165D03*
X016117Y001213D03*
X016112Y001298D03*
X016065Y001288D03*
X015952Y001268D03*
X015917Y001243D03*
X015927Y001358D03*
X015760Y001298D03*
X015762Y001158D03*
X017082Y001493D03*
X017082Y001495D03*
X017082Y001498D03*
X017082Y001510D03*
X017082Y001513D03*
X017072Y011448D03*
X017072Y011458D03*
X017072Y011460D03*
X016705Y011660D03*
X016705Y011663D03*
X016430Y011665D03*
X016117Y011713D03*
X016112Y011798D03*
X016065Y011788D03*
X015952Y011768D03*
X015917Y011743D03*
X015927Y011858D03*
X015760Y011798D03*
X015762Y011658D03*
X017082Y011993D03*
X017082Y011995D03*
X017082Y011998D03*
X017082Y012010D03*
X017082Y012013D03*
D39*
X017081Y012008D03*
X017081Y012005D03*
X016903Y011735D03*
X016903Y011733D03*
X016903Y011725D03*
X016903Y011723D03*
X016706Y011668D03*
X016706Y011665D03*
X016553Y011790D03*
X016428Y011663D03*
X016428Y011660D03*
X016428Y011658D03*
X016428Y011655D03*
X016428Y011653D03*
X016271Y011790D03*
X016116Y011675D03*
X015948Y011765D03*
X015921Y011745D03*
X017071Y011455D03*
X017073Y011450D03*
X017081Y001508D03*
X017081Y001505D03*
X016903Y001235D03*
X016903Y001233D03*
X016903Y001225D03*
X016903Y001223D03*
X016706Y001168D03*
X016706Y001165D03*
X016553Y001290D03*
X016428Y001163D03*
X016428Y001160D03*
X016428Y001158D03*
X016428Y001155D03*
X016428Y001153D03*
X016271Y001290D03*
X016116Y001175D03*
X015948Y001265D03*
X015921Y001245D03*
X017071Y000955D03*
X017073Y000950D03*
D40*
X017072Y000953D03*
X016902Y001228D03*
X016902Y001230D03*
X016707Y001170D03*
X017082Y001500D03*
X017082Y001503D03*
X016117Y001215D03*
X016085Y001155D03*
X016067Y001290D03*
X015945Y001263D03*
X015927Y001250D03*
X015925Y001248D03*
X017072Y011453D03*
X016902Y011728D03*
X016902Y011730D03*
X016707Y011670D03*
X017082Y012000D03*
X017082Y012003D03*
X016117Y011715D03*
X016085Y011655D03*
X016067Y011790D03*
X015945Y011763D03*
X015927Y011750D03*
X015925Y011748D03*
D41*
X016853Y011673D03*
X016863Y011783D03*
X016923Y011845D03*
X017061Y011888D03*
X017001Y011633D03*
X017123Y011510D03*
X016923Y012160D03*
X016863Y012223D03*
X016863Y001723D03*
X016923Y001660D03*
X017061Y001388D03*
X016923Y001345D03*
X016863Y001283D03*
X016853Y001173D03*
X017001Y001133D03*
X017123Y001010D03*
D42*
X017123Y001013D03*
X016976Y001048D03*
X017001Y001135D03*
X016853Y001170D03*
X016863Y001285D03*
X016923Y001348D03*
X017061Y001385D03*
X016923Y001658D03*
X016863Y001720D03*
X016428Y001373D03*
X016428Y001330D03*
X017123Y011513D03*
X016976Y011548D03*
X017001Y011635D03*
X016853Y011670D03*
X016863Y011785D03*
X016923Y011848D03*
X017061Y011885D03*
X016923Y012158D03*
X016863Y012220D03*
X016428Y011873D03*
X016428Y011830D03*
D43*
X016421Y011803D03*
X016138Y011695D03*
X016136Y011700D03*
X015886Y011803D03*
X016721Y011833D03*
X016721Y011835D03*
X016863Y011788D03*
X016903Y011768D03*
X016923Y011850D03*
X017061Y011883D03*
X017001Y011638D03*
X016976Y011545D03*
X017123Y011515D03*
X016853Y011668D03*
X016923Y012155D03*
X016863Y012218D03*
X016863Y001718D03*
X016923Y001655D03*
X016923Y001350D03*
X016903Y001268D03*
X016863Y001288D03*
X016853Y001168D03*
X017001Y001138D03*
X016976Y001045D03*
X017123Y001015D03*
X017061Y001383D03*
X016721Y001335D03*
X016721Y001333D03*
X016421Y001303D03*
X016138Y001195D03*
X016136Y001200D03*
X015886Y001303D03*
D44*
X015886Y001305D03*
X015886Y001308D03*
X015886Y001310D03*
X015886Y001313D03*
X015886Y001315D03*
X015886Y001318D03*
X015996Y001213D03*
X015996Y001210D03*
X015996Y001208D03*
X015996Y001205D03*
X015996Y001203D03*
X015996Y001200D03*
X016141Y001190D03*
X016328Y001303D03*
X016428Y001333D03*
X016428Y001370D03*
X016611Y001378D03*
X016723Y001325D03*
X016723Y001323D03*
X016863Y001290D03*
X016923Y001353D03*
X017061Y001380D03*
X017081Y001465D03*
X016923Y001653D03*
X016863Y001715D03*
X016853Y001165D03*
X017001Y001140D03*
X016976Y001043D03*
X017123Y001018D03*
X015501Y001190D03*
X015501Y001193D03*
X015501Y001195D03*
X015501Y001198D03*
X015501Y001200D03*
X015501Y001313D03*
X015501Y001315D03*
X015501Y001318D03*
X015501Y001320D03*
X015501Y001323D03*
X015501Y001325D03*
X017123Y011518D03*
X016976Y011543D03*
X017001Y011640D03*
X016853Y011665D03*
X016863Y011790D03*
X016923Y011853D03*
X017061Y011880D03*
X017081Y011965D03*
X016923Y012153D03*
X016863Y012215D03*
X016611Y011878D03*
X016723Y011825D03*
X016723Y011823D03*
X016428Y011833D03*
X016428Y011870D03*
X016328Y011803D03*
X016141Y011690D03*
X015996Y011700D03*
X015996Y011703D03*
X015996Y011705D03*
X015996Y011708D03*
X015996Y011710D03*
X015996Y011713D03*
X015886Y011805D03*
X015886Y011808D03*
X015886Y011810D03*
X015886Y011813D03*
X015886Y011815D03*
X015886Y011818D03*
X015501Y011818D03*
X015501Y011820D03*
X015501Y011823D03*
X015501Y011825D03*
X015501Y011815D03*
X015501Y011813D03*
X015501Y011700D03*
X015501Y011698D03*
X015501Y011695D03*
X015501Y011693D03*
X015501Y011690D03*
D45*
X015503Y011675D03*
X015503Y011838D03*
X015888Y011835D03*
X016113Y011805D03*
X016141Y011685D03*
X015993Y011678D03*
X015993Y011675D03*
X016428Y011835D03*
X016428Y011868D03*
X016726Y011815D03*
X016726Y011813D03*
X016863Y011793D03*
X016903Y011765D03*
X016923Y011855D03*
X016998Y011815D03*
X017061Y011878D03*
X016986Y011918D03*
X016986Y012088D03*
X016923Y012150D03*
X016863Y012213D03*
X016853Y011663D03*
X017123Y011520D03*
X016863Y001713D03*
X016923Y001650D03*
X016986Y001588D03*
X016986Y001418D03*
X017061Y001378D03*
X016998Y001315D03*
X016923Y001355D03*
X016863Y001293D03*
X016903Y001265D03*
X016853Y001163D03*
X016726Y001313D03*
X016726Y001315D03*
X016428Y001335D03*
X016428Y001368D03*
X016141Y001185D03*
X016113Y001305D03*
X015993Y001178D03*
X015993Y001175D03*
X015888Y001335D03*
X015503Y001338D03*
X015503Y001175D03*
X017123Y001020D03*
D46*
X017062Y001070D03*
X016977Y001050D03*
X016985Y001405D03*
X017122Y001450D03*
X016985Y001600D03*
X016977Y011550D03*
X017062Y011570D03*
X016985Y011905D03*
X017122Y011950D03*
X016985Y012100D03*
D47*
X016112Y011673D03*
X016120Y011593D03*
X015760Y011795D03*
X015547Y011858D03*
X015547Y011655D03*
X015547Y001358D03*
X015547Y001155D03*
X015760Y001295D03*
X016112Y001173D03*
X016120Y001093D03*
D48*
X016118Y001095D03*
X016108Y001170D03*
X015761Y001163D03*
X015761Y001293D03*
X016118Y011595D03*
X016108Y011670D03*
X015761Y011663D03*
X015761Y011793D03*
D49*
X015926Y011850D03*
X016101Y011663D03*
X016118Y011598D03*
X015926Y001350D03*
X016101Y001163D03*
X016118Y001098D03*
D50*
X016117Y001100D03*
X015952Y001163D03*
X015930Y001345D03*
X016117Y011600D03*
X015952Y011663D03*
X015930Y011845D03*
D51*
X015941Y011760D03*
X015938Y011758D03*
X015933Y011755D03*
X015931Y011753D03*
X015953Y011655D03*
X015761Y011660D03*
X015941Y001260D03*
X015938Y001258D03*
X015933Y001255D03*
X015931Y001253D03*
X015953Y001155D03*
X015761Y001160D03*
D52*
X015948Y001168D03*
X016103Y001158D03*
X015548Y001163D03*
X015548Y011663D03*
X015948Y011668D03*
X016103Y011658D03*
D53*
X015955Y011658D03*
X016715Y011793D03*
X016715Y001293D03*
X015955Y001158D03*
D54*
X016105Y001165D03*
X015547Y001158D03*
X016717Y001280D03*
X016717Y001283D03*
X016717Y001285D03*
X016717Y001288D03*
X016717Y001290D03*
X016105Y011665D03*
X015547Y011658D03*
X016717Y011780D03*
X016717Y011783D03*
X016717Y011785D03*
X016717Y011788D03*
X016717Y011790D03*
D55*
X016100Y011660D03*
X015955Y011660D03*
X015927Y011848D03*
X015927Y001348D03*
X015955Y001160D03*
X016100Y001160D03*
D56*
X015546Y001160D03*
X015546Y001353D03*
X015546Y011660D03*
X015546Y011853D03*
D57*
X015547Y011850D03*
X015950Y011665D03*
X015547Y001350D03*
X015950Y001165D03*
D58*
X016106Y001168D03*
X015926Y001353D03*
X015761Y001290D03*
X015761Y001165D03*
X015546Y001355D03*
X015761Y011665D03*
X015761Y011790D03*
X015926Y011853D03*
X016106Y011668D03*
X015546Y011855D03*
D59*
X015550Y011848D03*
X015550Y011665D03*
X016575Y011788D03*
X015550Y001348D03*
X015550Y001165D03*
X016575Y001288D03*
D60*
X016572Y001280D03*
X015552Y001345D03*
X015552Y001168D03*
X015552Y011668D03*
X015552Y011845D03*
X016572Y011780D03*
D61*
X016712Y011795D03*
X016117Y011718D03*
X016712Y001295D03*
X016117Y001218D03*
D62*
X016300Y001280D03*
X016300Y011780D03*
D63*
X016573Y011783D03*
X016573Y011785D03*
X016573Y001285D03*
X016573Y001283D03*
D64*
X016301Y001283D03*
X016301Y001285D03*
X016301Y011783D03*
X016301Y011785D03*
D65*
X016302Y011788D03*
X016302Y001288D03*
D66*
X016092Y001293D03*
X016092Y011793D03*
D67*
X016091Y011795D03*
X016091Y001295D03*
D68*
X015926Y001355D03*
X015926Y011855D03*
D69*
X016925Y012163D03*
X016925Y001663D03*
D70*
X013102Y003545D03*
X012852Y003295D03*
X012602Y003045D03*
X013442Y004405D03*
X012852Y004555D03*
X013192Y005415D03*
X013132Y005745D03*
X013682Y005905D03*
X013132Y006505D03*
D71*
X013132Y006495D03*
X013682Y005895D03*
X013132Y005755D03*
X013192Y005405D03*
X012852Y004545D03*
X013442Y004415D03*
X013102Y003555D03*
X012852Y003305D03*
X012602Y003055D03*
X009732Y004925D03*
X010492Y005335D03*
X011622Y005635D03*
D72*
X011382Y005335D03*
X012082Y005425D03*
X012082Y005435D03*
X012802Y004875D03*
X012852Y004535D03*
X013442Y004425D03*
X013482Y004075D03*
X013482Y003775D03*
X013102Y003565D03*
X012852Y003315D03*
X012602Y003065D03*
X009752Y004885D03*
X009742Y004905D03*
X010252Y005335D03*
X013132Y005765D03*
X013682Y005885D03*
X013522Y006275D03*
X013132Y006485D03*
X013192Y005395D03*
X007192Y005355D03*
X007192Y005345D03*
X007192Y005335D03*
X007192Y005325D03*
X007192Y004965D03*
X007192Y004955D03*
X007192Y004945D03*
X007192Y004935D03*
X007192Y004925D03*
D73*
X007202Y004865D03*
X007202Y004855D03*
X007202Y004845D03*
X007202Y004835D03*
X007202Y004825D03*
X007202Y005425D03*
X007202Y005435D03*
X007202Y005445D03*
X007202Y005455D03*
X008742Y005445D03*
X008742Y005435D03*
X008742Y005425D03*
X008742Y005415D03*
X008742Y005405D03*
X008742Y005395D03*
X009172Y004905D03*
X009172Y004895D03*
X009172Y004885D03*
X009172Y004875D03*
X009172Y004865D03*
X009172Y004855D03*
X009172Y004845D03*
X009172Y004835D03*
X009752Y004865D03*
X010892Y005315D03*
X012092Y005385D03*
X012092Y005395D03*
X012042Y004715D03*
X012852Y004525D03*
X013102Y004275D03*
X013442Y004435D03*
X013192Y004685D03*
X013192Y005385D03*
X013132Y005775D03*
X013682Y005875D03*
X013132Y006475D03*
X013102Y003575D03*
X012852Y003325D03*
X012602Y003075D03*
D74*
X012602Y003085D03*
X012852Y003335D03*
X013102Y003585D03*
X013482Y003785D03*
X013482Y004065D03*
X013102Y004265D03*
X012852Y004515D03*
X013192Y004695D03*
X013442Y004445D03*
X012102Y005345D03*
X012102Y005355D03*
X011652Y005615D03*
X010522Y005315D03*
X009812Y004725D03*
X009802Y004735D03*
X009462Y004555D03*
X008752Y005465D03*
X008232Y005335D03*
X008242Y004715D03*
X007212Y004805D03*
X013682Y005865D03*
D75*
X013682Y005855D03*
X012112Y005225D03*
X012112Y005215D03*
X012112Y005205D03*
X012112Y005195D03*
X012112Y005185D03*
X012112Y005175D03*
X012112Y005165D03*
X012112Y005155D03*
X012112Y005145D03*
X012112Y005135D03*
X012112Y005125D03*
X012112Y005115D03*
X012112Y005105D03*
X012112Y005095D03*
X012112Y005085D03*
X012112Y005075D03*
X012112Y005065D03*
X012112Y005055D03*
X012112Y005045D03*
X012112Y005035D03*
X012112Y005025D03*
X012112Y005015D03*
X012112Y005005D03*
X012112Y004995D03*
X012112Y004985D03*
X012112Y004975D03*
X012112Y004965D03*
X012112Y004955D03*
X012112Y004945D03*
X012112Y004935D03*
X012112Y004925D03*
X012112Y004915D03*
X012112Y004905D03*
X012112Y004895D03*
X012112Y004885D03*
X012112Y004875D03*
X012112Y004865D03*
X011662Y004865D03*
X011662Y004875D03*
X011662Y004885D03*
X011662Y004895D03*
X011662Y004905D03*
X011662Y004915D03*
X011662Y004925D03*
X011662Y004935D03*
X011662Y004945D03*
X011662Y004955D03*
X011662Y004965D03*
X011662Y004975D03*
X011662Y004985D03*
X011662Y004995D03*
X011662Y005005D03*
X011662Y005015D03*
X011662Y005025D03*
X011662Y005035D03*
X011662Y005045D03*
X011662Y005055D03*
X011662Y005065D03*
X011662Y005075D03*
X011662Y005085D03*
X011662Y005095D03*
X011662Y005105D03*
X011662Y005115D03*
X011662Y005125D03*
X011662Y005135D03*
X011662Y005145D03*
X011662Y005155D03*
X011662Y005165D03*
X011662Y005175D03*
X011662Y005185D03*
X011662Y005195D03*
X011662Y005205D03*
X011662Y005275D03*
X011662Y005285D03*
X011662Y005295D03*
X011662Y005305D03*
X011662Y005315D03*
X011662Y005325D03*
X011662Y005335D03*
X011662Y005345D03*
X011662Y005355D03*
X011662Y005365D03*
X011662Y005375D03*
X011662Y005385D03*
X011662Y005395D03*
X011662Y005405D03*
X011662Y005415D03*
X011662Y005425D03*
X011662Y005435D03*
X011662Y005445D03*
X011662Y005455D03*
X011662Y005465D03*
X011662Y005475D03*
X011662Y005485D03*
X011662Y005495D03*
X011662Y005505D03*
X011662Y005515D03*
X011662Y005525D03*
X011382Y005325D03*
X011292Y005145D03*
X011292Y005135D03*
X011292Y005125D03*
X011292Y005115D03*
X011292Y005105D03*
X011292Y005095D03*
X011292Y005085D03*
X011292Y005075D03*
X011292Y005065D03*
X011292Y005055D03*
X011292Y005045D03*
X011292Y005035D03*
X011292Y005025D03*
X011292Y005015D03*
X011292Y005005D03*
X011292Y004995D03*
X011292Y004985D03*
X011292Y004975D03*
X011292Y004965D03*
X011292Y004955D03*
X011292Y004945D03*
X011292Y004935D03*
X011292Y004925D03*
X011292Y004915D03*
X011292Y004905D03*
X011292Y004895D03*
X011292Y004885D03*
X011292Y004875D03*
X011292Y004865D03*
X011292Y004855D03*
X011292Y004845D03*
X011292Y004835D03*
X011292Y004825D03*
X011292Y004815D03*
X011292Y004805D03*
X011292Y004795D03*
X011662Y004795D03*
X011662Y004805D03*
X011662Y004815D03*
X011662Y004825D03*
X011662Y004835D03*
X011662Y004845D03*
X011662Y004855D03*
X010912Y004855D03*
X010912Y004865D03*
X010912Y004875D03*
X010912Y004885D03*
X010912Y004895D03*
X010912Y004905D03*
X010912Y004915D03*
X010912Y004925D03*
X010912Y004935D03*
X010912Y004945D03*
X010912Y004955D03*
X010912Y004965D03*
X010912Y004975D03*
X010912Y004985D03*
X010912Y004995D03*
X010912Y005005D03*
X010912Y005015D03*
X010912Y005025D03*
X010912Y005035D03*
X010912Y005045D03*
X010912Y005055D03*
X010912Y005065D03*
X010912Y005075D03*
X010912Y005085D03*
X010912Y005095D03*
X010912Y005105D03*
X010912Y005115D03*
X010912Y005125D03*
X010912Y005135D03*
X010912Y005145D03*
X010912Y005155D03*
X010912Y005165D03*
X010912Y005175D03*
X010912Y005185D03*
X010912Y005195D03*
X010912Y005205D03*
X010912Y005215D03*
X010912Y005225D03*
X010532Y005205D03*
X010532Y005195D03*
X010532Y005185D03*
X010532Y005175D03*
X010532Y005165D03*
X010532Y005155D03*
X010532Y005145D03*
X010532Y005135D03*
X010532Y005125D03*
X010532Y005115D03*
X010532Y005105D03*
X010532Y005095D03*
X010532Y005085D03*
X010532Y005075D03*
X010532Y005065D03*
X010532Y005055D03*
X010532Y005045D03*
X010532Y005035D03*
X010532Y005025D03*
X010532Y005015D03*
X010532Y005005D03*
X010532Y004995D03*
X010532Y004985D03*
X010532Y004975D03*
X010532Y004965D03*
X010532Y004955D03*
X010532Y004945D03*
X010532Y004935D03*
X010532Y004925D03*
X010532Y004915D03*
X010532Y004905D03*
X010532Y004895D03*
X010532Y004885D03*
X010532Y004875D03*
X010532Y004865D03*
X010532Y004855D03*
X010532Y004845D03*
X010532Y004835D03*
X010532Y004825D03*
X010532Y004815D03*
X010532Y004805D03*
X010532Y004795D03*
X010162Y004795D03*
X010162Y004805D03*
X010162Y004815D03*
X010162Y004825D03*
X010162Y004835D03*
X010162Y004845D03*
X010162Y004855D03*
X010162Y004865D03*
X010162Y004875D03*
X010162Y004885D03*
X010162Y004895D03*
X010162Y004905D03*
X010162Y004915D03*
X010162Y004925D03*
X010162Y004935D03*
X010162Y004945D03*
X010162Y004955D03*
X010162Y004965D03*
X010162Y004975D03*
X010162Y004985D03*
X010162Y004995D03*
X010162Y005005D03*
X010162Y005015D03*
X010162Y005025D03*
X010162Y005035D03*
X010162Y005045D03*
X010162Y005055D03*
X010162Y005065D03*
X010162Y005075D03*
X010162Y005085D03*
X010162Y005095D03*
X010162Y005105D03*
X010162Y005115D03*
X010162Y005125D03*
X010162Y005135D03*
X010162Y005145D03*
X010252Y005325D03*
X009822Y005185D03*
X009822Y005175D03*
X009812Y005205D03*
X009812Y005215D03*
X009802Y005235D03*
X009792Y005245D03*
X009502Y005225D03*
X009492Y005205D03*
X009492Y005195D03*
X009482Y005175D03*
X009482Y005165D03*
X009482Y005155D03*
X009482Y005145D03*
X009482Y005135D03*
X009482Y005125D03*
X009482Y005115D03*
X009482Y005105D03*
X009482Y005095D03*
X009492Y005085D03*
X009492Y005075D03*
X009492Y005065D03*
X009502Y005045D03*
X009512Y005025D03*
X009522Y005015D03*
X009532Y005005D03*
X009742Y004845D03*
X009842Y004685D03*
X009842Y004675D03*
X009852Y004655D03*
X009852Y004645D03*
X009852Y004635D03*
X009852Y004625D03*
X009852Y004615D03*
X009422Y004635D03*
X009422Y004645D03*
X009422Y004655D03*
X008992Y004715D03*
X008772Y004855D03*
X008412Y005215D03*
X009102Y005435D03*
X009112Y005425D03*
X009112Y005415D03*
X009122Y005395D03*
X009122Y005385D03*
X009122Y005375D03*
X007392Y005565D03*
X007392Y004715D03*
X010912Y004795D03*
X010912Y004805D03*
X010912Y004815D03*
X010912Y004825D03*
X010912Y004835D03*
X010912Y004845D03*
X013192Y004705D03*
X012602Y003095D03*
D76*
X012602Y003105D03*
X013482Y003795D03*
X013482Y004055D03*
X013192Y004715D03*
X012802Y004895D03*
X012102Y004835D03*
X012102Y004825D03*
X011662Y004785D03*
X011292Y004785D03*
X010912Y004785D03*
X010532Y004785D03*
X010162Y004785D03*
X009832Y004565D03*
X009432Y004685D03*
X009782Y005005D03*
X009822Y005085D03*
X009762Y005275D03*
X010172Y005195D03*
X010172Y005185D03*
X010182Y005205D03*
X010522Y005215D03*
X010922Y005295D03*
X011302Y005185D03*
X011312Y005205D03*
X011652Y005215D03*
X012892Y005565D03*
X013432Y005595D03*
X013682Y005845D03*
X013522Y006255D03*
X009122Y005325D03*
X009122Y005315D03*
X009062Y005475D03*
X008772Y005485D03*
X008442Y005155D03*
X008452Y005125D03*
X008452Y005115D03*
X008452Y005105D03*
X008462Y005085D03*
X008462Y005075D03*
X008462Y005065D03*
X008462Y005055D03*
X008462Y005045D03*
X008462Y005035D03*
X008462Y005025D03*
X008462Y005015D03*
X008462Y005005D03*
X008462Y004995D03*
X008462Y004985D03*
X008462Y004975D03*
X008462Y004965D03*
X008452Y004945D03*
X008452Y004935D03*
X008452Y004925D03*
X008442Y004895D03*
X008432Y004865D03*
X008382Y004795D03*
X008032Y004895D03*
X008022Y004925D03*
X008022Y004935D03*
X008022Y004945D03*
X008012Y004965D03*
X008012Y004975D03*
X008012Y004985D03*
X008012Y004995D03*
X008012Y005005D03*
X008012Y005015D03*
X008012Y005025D03*
X008012Y005035D03*
X008012Y005045D03*
X008012Y005055D03*
X008012Y005065D03*
X008012Y005075D03*
X008012Y005085D03*
X008022Y005105D03*
X008022Y005115D03*
X008022Y005125D03*
X008032Y005155D03*
X007732Y005215D03*
X007722Y005265D03*
X007712Y005295D03*
X007702Y005325D03*
X007692Y005345D03*
X007682Y005365D03*
X007732Y005065D03*
X007722Y005015D03*
X007712Y004985D03*
X007702Y004955D03*
X007692Y004935D03*
X008752Y004935D03*
X008752Y004925D03*
X008752Y004915D03*
X008792Y004825D03*
X008802Y004815D03*
D77*
X008762Y004975D03*
X009102Y005275D03*
X009112Y005285D03*
X009112Y005295D03*
X009442Y004695D03*
X010192Y005215D03*
X010552Y005295D03*
X011322Y005215D03*
X011682Y005595D03*
X012032Y004725D03*
X012892Y005575D03*
X013182Y005335D03*
X013432Y005585D03*
X013682Y005835D03*
X012892Y006675D03*
X012602Y003115D03*
X007652Y004875D03*
X007632Y004855D03*
X007622Y004845D03*
X007612Y004835D03*
X007612Y005445D03*
X007602Y005455D03*
D78*
X007572Y005475D03*
X008232Y005325D03*
X008772Y004995D03*
X008782Y005005D03*
X008842Y004795D03*
X009452Y004705D03*
X009662Y004945D03*
X009652Y005325D03*
X010202Y005225D03*
X010502Y005225D03*
X010562Y005285D03*
X011332Y005225D03*
X012082Y004805D03*
X012802Y004905D03*
X013182Y004745D03*
X013252Y004925D03*
X013252Y004935D03*
X013252Y004945D03*
X013262Y004965D03*
X013262Y004975D03*
X013262Y004985D03*
X013262Y004995D03*
X013272Y005015D03*
X013272Y005045D03*
X013272Y005055D03*
X013262Y005065D03*
X013262Y005075D03*
X013262Y005085D03*
X013262Y005095D03*
X013252Y005115D03*
X013252Y005125D03*
X013252Y005135D03*
X013252Y005145D03*
X013182Y005325D03*
X013432Y005575D03*
X013682Y005825D03*
X013522Y006005D03*
X013522Y006245D03*
X013142Y006415D03*
X013072Y006235D03*
X013072Y006225D03*
X013072Y006215D03*
X013072Y006205D03*
X013072Y006195D03*
X013062Y006175D03*
X013062Y006165D03*
X013062Y006155D03*
X013062Y006145D03*
X013062Y006135D03*
X013062Y006125D03*
X013062Y006115D03*
X013062Y006105D03*
X013062Y006095D03*
X013062Y006085D03*
X013062Y006075D03*
X013072Y006055D03*
X013072Y006045D03*
X013072Y006035D03*
X013072Y006025D03*
X013072Y006015D03*
X013142Y005835D03*
X012892Y005585D03*
X012742Y005915D03*
X012732Y005935D03*
X012732Y005945D03*
X012732Y005955D03*
X012732Y005965D03*
X012722Y005985D03*
X012722Y005995D03*
X012722Y006005D03*
X012722Y006015D03*
X012722Y006025D03*
X012712Y006045D03*
X012712Y006055D03*
X012712Y006065D03*
X012712Y006075D03*
X012712Y006085D03*
X012712Y006095D03*
X012712Y006105D03*
X012712Y006115D03*
X012712Y006125D03*
X012712Y006135D03*
X012712Y006145D03*
X012712Y006155D03*
X012712Y006165D03*
X012712Y006175D03*
X012712Y006185D03*
X012712Y006195D03*
X012712Y006205D03*
X012722Y006225D03*
X012722Y006235D03*
X012722Y006245D03*
X012722Y006255D03*
X012722Y006265D03*
X012732Y006295D03*
X012732Y006305D03*
X012732Y006315D03*
X012742Y006335D03*
X012382Y006315D03*
X012382Y006305D03*
X012382Y006295D03*
X012382Y006285D03*
X012382Y006275D03*
X012382Y006265D03*
X012382Y006255D03*
X012372Y006225D03*
X012372Y006215D03*
X012372Y006205D03*
X012372Y006195D03*
X012372Y006185D03*
X012372Y006175D03*
X012372Y006165D03*
X012372Y006155D03*
X012372Y006145D03*
X012372Y006135D03*
X012372Y006125D03*
X012372Y006115D03*
X012372Y006105D03*
X012372Y006095D03*
X012372Y006085D03*
X012372Y006075D03*
X012372Y006065D03*
X012372Y006055D03*
X012372Y006045D03*
X012372Y006035D03*
X012372Y006025D03*
X012372Y006015D03*
X012382Y005955D03*
X012382Y005945D03*
X012382Y005935D03*
X012382Y005925D03*
X012892Y006665D03*
X013592Y005225D03*
X013592Y005215D03*
X013602Y005175D03*
X013602Y005165D03*
X013612Y005115D03*
X013612Y005105D03*
X013612Y005095D03*
X013612Y005085D03*
X013612Y005075D03*
X013612Y005065D03*
X013612Y005055D03*
X013612Y005045D03*
X013612Y005035D03*
X013612Y005025D03*
X013612Y005015D03*
X013612Y005005D03*
X013612Y004995D03*
X013612Y004985D03*
X013612Y004975D03*
X013612Y004965D03*
X013612Y004955D03*
X013612Y004945D03*
X013602Y004895D03*
X013602Y004885D03*
X013592Y004845D03*
X013592Y004835D03*
X013932Y004765D03*
X013942Y004815D03*
X013942Y004825D03*
X013952Y004845D03*
X013952Y004855D03*
X013952Y004865D03*
X013962Y004925D03*
X013962Y004935D03*
X013962Y004945D03*
X013962Y004955D03*
X013962Y004965D03*
X013962Y004975D03*
X013962Y004985D03*
X013962Y004995D03*
X013962Y005005D03*
X013962Y005015D03*
X013962Y005025D03*
X013962Y005035D03*
X013962Y005045D03*
X013962Y005055D03*
X013962Y005065D03*
X013962Y005075D03*
X013962Y005085D03*
X013962Y005095D03*
X013962Y005105D03*
X013962Y005115D03*
X013962Y005125D03*
X013962Y005135D03*
X013952Y005165D03*
X013952Y005175D03*
X013952Y005185D03*
X013952Y005195D03*
X013952Y005205D03*
X013952Y005215D03*
X013942Y005235D03*
X013942Y005245D03*
X013932Y005295D03*
X012702Y004125D03*
X012692Y004085D03*
X012692Y004075D03*
X012692Y004065D03*
X012682Y004025D03*
X012682Y004015D03*
X012682Y004005D03*
X012682Y003845D03*
X012682Y003835D03*
X012692Y003805D03*
X012692Y003795D03*
X012692Y003785D03*
X012692Y003775D03*
X012692Y003765D03*
X012702Y003735D03*
X012702Y003725D03*
X013042Y003805D03*
X013042Y003815D03*
X013032Y003845D03*
X013032Y003855D03*
X013032Y003865D03*
X013022Y003885D03*
X013022Y003895D03*
X013022Y003905D03*
X013022Y003915D03*
X013022Y003925D03*
X013022Y003935D03*
X013022Y003945D03*
X013022Y003955D03*
X013022Y003965D03*
X013032Y003995D03*
X013032Y004005D03*
X013042Y004035D03*
X013042Y004045D03*
X013482Y004045D03*
X013482Y003805D03*
X012602Y003125D03*
X012342Y003725D03*
X012342Y004115D03*
X012342Y004125D03*
X009092Y005265D03*
X008242Y004725D03*
X007582Y004815D03*
D79*
X008792Y005025D03*
X009472Y004715D03*
X010262Y005305D03*
X010572Y005275D03*
X010952Y005275D03*
X010952Y005265D03*
X010952Y005255D03*
X010952Y005245D03*
X010952Y005235D03*
X011392Y005305D03*
X012432Y005735D03*
X012432Y005745D03*
X012432Y005755D03*
X012422Y005765D03*
X012422Y005775D03*
X012422Y005785D03*
X012412Y005815D03*
X012392Y005885D03*
X012392Y005895D03*
X012442Y005725D03*
X012442Y005715D03*
X012452Y005705D03*
X012452Y005695D03*
X012452Y005685D03*
X012462Y005675D03*
X012462Y005665D03*
X012472Y005645D03*
X012782Y005795D03*
X012782Y005805D03*
X012772Y005825D03*
X012762Y005845D03*
X012792Y005785D03*
X012792Y005775D03*
X012802Y005765D03*
X012812Y005745D03*
X013112Y005925D03*
X013102Y005945D03*
X013092Y005965D03*
X013092Y006285D03*
X013102Y006305D03*
X013112Y006325D03*
X013122Y006345D03*
X012802Y006485D03*
X012792Y006475D03*
X012792Y006465D03*
X012782Y006455D03*
X012782Y006445D03*
X012772Y006425D03*
X012772Y006415D03*
X012812Y006505D03*
X012892Y006655D03*
X012462Y006575D03*
X012452Y006555D03*
X012442Y006525D03*
X012442Y006515D03*
X012432Y006495D03*
X012432Y006485D03*
X012422Y006475D03*
X012422Y006465D03*
X012422Y006455D03*
X012412Y006445D03*
X012412Y006435D03*
X012412Y006425D03*
X012402Y006395D03*
X012392Y006365D03*
X012392Y006355D03*
X012392Y006345D03*
X012892Y005595D03*
X013182Y005305D03*
X013212Y005235D03*
X013222Y005225D03*
X013222Y005215D03*
X013232Y005195D03*
X013232Y004865D03*
X013222Y004845D03*
X013182Y004755D03*
X013432Y004505D03*
X013522Y004655D03*
X013532Y004685D03*
X013542Y004705D03*
X013552Y004725D03*
X013552Y004735D03*
X013562Y004745D03*
X013562Y004755D03*
X013572Y004775D03*
X013872Y004585D03*
X013872Y004575D03*
X013862Y004565D03*
X013862Y004555D03*
X013852Y004545D03*
X013822Y004485D03*
X013882Y004605D03*
X013882Y004615D03*
X013892Y004625D03*
X013892Y004635D03*
X013902Y004655D03*
X013902Y004665D03*
X013682Y004255D03*
X013482Y004035D03*
X013482Y003815D03*
X013112Y003645D03*
X013092Y003695D03*
X013072Y003735D03*
X013062Y003755D03*
X012752Y003595D03*
X012752Y003585D03*
X012762Y003575D03*
X012772Y003555D03*
X012782Y003535D03*
X012742Y003605D03*
X012742Y003615D03*
X012732Y003635D03*
X012732Y003645D03*
X012382Y003575D03*
X012382Y003565D03*
X012382Y003555D03*
X012392Y003535D03*
X012412Y003485D03*
X012372Y003595D03*
X012372Y003605D03*
X012372Y003615D03*
X012362Y003625D03*
X012362Y003635D03*
X012352Y003665D03*
X012352Y003675D03*
X012332Y003765D03*
X012332Y003775D03*
X012332Y003785D03*
X012332Y003795D03*
X012722Y004185D03*
X012732Y004215D03*
X012742Y004235D03*
X012742Y004245D03*
X012752Y004255D03*
X012752Y004265D03*
X012762Y004275D03*
X012762Y004285D03*
X012772Y004295D03*
X012772Y004305D03*
X012782Y004315D03*
X013112Y004205D03*
X013092Y004155D03*
X013082Y004135D03*
X013072Y004115D03*
X013062Y004095D03*
X012862Y004455D03*
X012432Y004405D03*
X012422Y004385D03*
X012412Y004375D03*
X012412Y004365D03*
X012412Y004355D03*
X012402Y004335D03*
X012392Y004315D03*
X012382Y004285D03*
X012382Y004275D03*
X012372Y004245D03*
X012362Y004225D03*
X012362Y004215D03*
X012802Y004915D03*
X013582Y005255D03*
X013572Y005285D03*
X013562Y005305D03*
X013562Y005315D03*
X013552Y005325D03*
X013552Y005335D03*
X013552Y005345D03*
X013542Y005355D03*
X013532Y005375D03*
X013512Y005415D03*
X013432Y005565D03*
X013682Y005815D03*
X013522Y006015D03*
X013522Y006235D03*
X013822Y005575D03*
X013852Y005515D03*
X013862Y005505D03*
X013862Y005495D03*
X013872Y005485D03*
X013872Y005475D03*
X013882Y005455D03*
X013882Y005445D03*
X013892Y005435D03*
X013892Y005425D03*
X013902Y005395D03*
X013922Y005335D03*
X012862Y003395D03*
X012602Y003135D03*
D80*
X012607Y003145D03*
X012467Y003375D03*
X012437Y003425D03*
X012437Y003435D03*
X012427Y003445D03*
X012427Y003455D03*
X012417Y003465D03*
X012417Y003475D03*
X012407Y003495D03*
X012407Y003505D03*
X012397Y003515D03*
X012397Y003525D03*
X012387Y003545D03*
X012767Y003565D03*
X012777Y003545D03*
X012787Y003525D03*
X012797Y003515D03*
X012797Y003505D03*
X012807Y003495D03*
X013107Y003655D03*
X013107Y003665D03*
X013107Y003675D03*
X013097Y003685D03*
X013087Y003705D03*
X013087Y003715D03*
X013077Y003725D03*
X013077Y004125D03*
X013087Y004145D03*
X013097Y004165D03*
X012787Y004325D03*
X012797Y004345D03*
X012467Y004465D03*
X012467Y004475D03*
X012457Y004455D03*
X012447Y004445D03*
X012447Y004435D03*
X012437Y004425D03*
X012437Y004415D03*
X012427Y004395D03*
X012407Y004345D03*
X012397Y004325D03*
X012607Y004705D03*
X013177Y004765D03*
X013197Y004795D03*
X013207Y004815D03*
X013207Y004825D03*
X013217Y004835D03*
X013497Y004615D03*
X013507Y004635D03*
X013517Y004645D03*
X013527Y004665D03*
X013527Y004675D03*
X013537Y004695D03*
X013547Y004715D03*
X013847Y004535D03*
X013847Y004525D03*
X013837Y004515D03*
X013837Y004505D03*
X013827Y004495D03*
X013817Y004475D03*
X013807Y004465D03*
X012807Y005135D03*
X012647Y005345D03*
X012517Y005565D03*
X012507Y005575D03*
X012507Y005585D03*
X012497Y005595D03*
X012497Y005605D03*
X012487Y005615D03*
X012487Y005625D03*
X012477Y005635D03*
X012467Y005655D03*
X012807Y005755D03*
X012817Y005735D03*
X012827Y005725D03*
X012827Y005715D03*
X012837Y005705D03*
X012837Y005695D03*
X012847Y005685D03*
X012897Y005605D03*
X013147Y005855D03*
X013147Y005865D03*
X013127Y005895D03*
X013117Y005905D03*
X013117Y005915D03*
X013117Y006335D03*
X013127Y006355D03*
X013147Y006385D03*
X013147Y006395D03*
X012837Y006545D03*
X012837Y006555D03*
X012827Y006535D03*
X012827Y006525D03*
X012817Y006515D03*
X012807Y006495D03*
X012897Y006645D03*
X012647Y006905D03*
X012507Y006665D03*
X012497Y006645D03*
X012487Y006625D03*
X012477Y006605D03*
X012467Y006595D03*
X012467Y006585D03*
X012457Y006565D03*
X012447Y006545D03*
X012447Y006535D03*
X013677Y005805D03*
X013807Y005605D03*
X013817Y005585D03*
X013827Y005565D03*
X013837Y005555D03*
X013837Y005545D03*
X013847Y005535D03*
X013847Y005525D03*
X013527Y005395D03*
X013527Y005385D03*
X013517Y005405D03*
X013507Y005425D03*
X013497Y005445D03*
X013537Y005365D03*
X013207Y005245D03*
X013197Y005265D03*
X012017Y004735D03*
X011707Y005535D03*
X011707Y005545D03*
X011707Y005555D03*
X011707Y005565D03*
X011707Y005575D03*
X009677Y004465D03*
X008797Y005035D03*
X009067Y005235D03*
X008907Y005555D03*
X007547Y005485D03*
D81*
X007387Y005555D03*
X008997Y004725D03*
X009057Y005225D03*
X009647Y005315D03*
X010267Y005295D03*
X011397Y005295D03*
X012547Y005515D03*
X012557Y005495D03*
X012577Y005465D03*
X012587Y005455D03*
X012607Y005425D03*
X012617Y005415D03*
X012647Y005365D03*
X012807Y005125D03*
X012807Y004935D03*
X012607Y004685D03*
X012567Y004625D03*
X012547Y004595D03*
X012537Y004585D03*
X012527Y004575D03*
X012527Y004565D03*
X012517Y004555D03*
X012507Y004545D03*
X012497Y004525D03*
X012817Y004375D03*
X012827Y004385D03*
X012837Y004395D03*
X012847Y004415D03*
X012857Y004425D03*
X012857Y004435D03*
X013437Y004525D03*
X013437Y004535D03*
X013457Y004565D03*
X013467Y004575D03*
X013477Y004585D03*
X013737Y004355D03*
X013747Y004365D03*
X013757Y004375D03*
X013727Y004335D03*
X013717Y004325D03*
X013687Y004275D03*
X013787Y004425D03*
X013477Y004015D03*
X013487Y003835D03*
X012837Y003455D03*
X012827Y003465D03*
X012847Y003435D03*
X012857Y003425D03*
X012857Y003415D03*
X012527Y003275D03*
X012517Y003295D03*
X012507Y003305D03*
X012497Y003315D03*
X012497Y003325D03*
X012487Y003335D03*
X012607Y003155D03*
X013477Y005475D03*
X013467Y005485D03*
X013457Y005495D03*
X013437Y005535D03*
X013717Y005735D03*
X013727Y005725D03*
X013737Y005705D03*
X013747Y005695D03*
X013757Y005685D03*
X013777Y005655D03*
X013687Y005785D03*
X013517Y006215D03*
X012887Y006615D03*
X012887Y006625D03*
X012877Y006605D03*
X012867Y006595D03*
X012557Y006745D03*
X012557Y006755D03*
X012567Y006765D03*
X012547Y006735D03*
X012537Y006715D03*
X012647Y006885D03*
X012867Y005655D03*
X012877Y005645D03*
X012887Y005635D03*
X012887Y005625D03*
D82*
X012602Y005435D03*
X012592Y005445D03*
X012622Y005405D03*
X012632Y005395D03*
X012642Y005375D03*
X012802Y004945D03*
X012602Y004675D03*
X012592Y004655D03*
X012582Y004645D03*
X012572Y004635D03*
X012562Y004615D03*
X012552Y004605D03*
X012842Y004405D03*
X013442Y004545D03*
X013452Y004555D03*
X013732Y004345D03*
X013712Y004315D03*
X013702Y004305D03*
X013692Y004295D03*
X013692Y004285D03*
X013482Y004005D03*
X013482Y003845D03*
X012842Y003445D03*
X012552Y003245D03*
X012542Y003255D03*
X012532Y003265D03*
X012522Y003285D03*
X012562Y003225D03*
X012572Y003215D03*
X012602Y003165D03*
X009662Y004955D03*
X009042Y005215D03*
X008822Y005055D03*
X008232Y005315D03*
X008242Y004735D03*
X007392Y004725D03*
X012572Y006775D03*
X012582Y006785D03*
X012592Y006795D03*
X012602Y006815D03*
X012612Y006825D03*
X012642Y006875D03*
X013522Y006205D03*
X013522Y006045D03*
X013522Y006035D03*
X013692Y005775D03*
X013692Y005765D03*
X013702Y005755D03*
X013712Y005745D03*
X013732Y005715D03*
X013442Y005525D03*
X013442Y005515D03*
X013452Y005505D03*
D83*
X012807Y005115D03*
X012807Y005105D03*
X012637Y005385D03*
X012597Y004665D03*
X012557Y003235D03*
X012577Y003205D03*
X012587Y003195D03*
X012597Y003185D03*
X012597Y003175D03*
X009677Y004825D03*
X009497Y004725D03*
X009027Y005205D03*
X008837Y005065D03*
X009437Y005235D03*
X012597Y006805D03*
X012617Y006835D03*
X012627Y006845D03*
X012637Y006855D03*
X012637Y006865D03*
D84*
X012647Y006955D03*
X012887Y006705D03*
X013137Y006455D03*
X013517Y006265D03*
X013517Y005985D03*
X013137Y005795D03*
X013437Y005615D03*
X013187Y005365D03*
X012887Y005545D03*
X012647Y005295D03*
X012797Y004885D03*
X012607Y004755D03*
X012857Y004505D03*
X013107Y004255D03*
X013437Y004455D03*
X013687Y004205D03*
X013107Y003595D03*
X012857Y003345D03*
X012107Y005325D03*
X012107Y005335D03*
X010907Y005305D03*
X010907Y005465D03*
X010907Y005575D03*
X009817Y004715D03*
X009827Y004705D03*
X009837Y004695D03*
X009847Y004665D03*
X009677Y004455D03*
X009487Y004535D03*
X009477Y004545D03*
X009457Y004565D03*
X009447Y004575D03*
X009437Y004585D03*
X009437Y004595D03*
X009427Y004605D03*
X009427Y004615D03*
X009427Y004625D03*
X009157Y004805D03*
X009507Y005035D03*
X009497Y005055D03*
X009487Y005185D03*
X009497Y005215D03*
X008917Y005565D03*
X008757Y005475D03*
X007217Y005475D03*
D85*
X007542Y004795D03*
X008812Y005045D03*
X012472Y004485D03*
X012482Y004495D03*
X012482Y004505D03*
X012492Y004515D03*
X012502Y004535D03*
X012612Y004695D03*
X012802Y004925D03*
X013182Y004775D03*
X013192Y004785D03*
X013202Y004805D03*
X013482Y004595D03*
X013492Y004605D03*
X013502Y004625D03*
X013432Y004515D03*
X013682Y004265D03*
X013762Y004385D03*
X013772Y004395D03*
X013772Y004405D03*
X013782Y004415D03*
X013792Y004435D03*
X013802Y004445D03*
X013802Y004455D03*
X013482Y004025D03*
X013482Y003825D03*
X013112Y004185D03*
X013112Y004195D03*
X013102Y004175D03*
X012812Y004365D03*
X012802Y004355D03*
X012792Y004335D03*
X012862Y004445D03*
X013202Y005255D03*
X013192Y005275D03*
X013182Y005285D03*
X013182Y005295D03*
X013482Y005465D03*
X013492Y005455D03*
X013502Y005435D03*
X013432Y005545D03*
X013432Y005555D03*
X013682Y005795D03*
X013762Y005675D03*
X013772Y005665D03*
X013782Y005645D03*
X013792Y005635D03*
X013792Y005625D03*
X013802Y005615D03*
X013812Y005595D03*
X013142Y005875D03*
X013132Y005885D03*
X012862Y005665D03*
X012852Y005675D03*
X012892Y005615D03*
X012572Y005475D03*
X012562Y005485D03*
X012552Y005505D03*
X012542Y005525D03*
X012532Y005535D03*
X012532Y005545D03*
X012522Y005555D03*
X012652Y005355D03*
X013522Y006025D03*
X013522Y006225D03*
X013142Y006375D03*
X013132Y006365D03*
X012852Y006565D03*
X012852Y006575D03*
X012862Y006585D03*
X012892Y006635D03*
X012652Y006895D03*
X012542Y006725D03*
X012532Y006705D03*
X012522Y006695D03*
X012522Y006685D03*
X012512Y006675D03*
X012502Y006655D03*
X012492Y006635D03*
X012482Y006615D03*
X012812Y003485D03*
X012822Y003475D03*
X012862Y003405D03*
X012482Y003355D03*
X012482Y003345D03*
X012472Y003365D03*
X012462Y003385D03*
X012452Y003395D03*
X012452Y003405D03*
X012442Y003415D03*
D86*
X012857Y003355D03*
X013107Y003605D03*
X013107Y004245D03*
X012857Y004495D03*
X012607Y004745D03*
X012807Y005165D03*
X012647Y005305D03*
X012887Y005555D03*
X013137Y005805D03*
X013437Y005605D03*
X013187Y005355D03*
X012117Y005315D03*
X012107Y004855D03*
X012107Y004845D03*
X011297Y005155D03*
X011297Y005165D03*
X011297Y005175D03*
X011307Y005195D03*
X010907Y005475D03*
X010907Y005485D03*
X010907Y005555D03*
X010907Y005565D03*
X010537Y005305D03*
X010167Y005175D03*
X010167Y005165D03*
X010167Y005155D03*
X009827Y005155D03*
X009827Y005165D03*
X009827Y005145D03*
X009827Y005135D03*
X009827Y005125D03*
X009827Y005115D03*
X009827Y005105D03*
X009827Y005095D03*
X009817Y005075D03*
X009817Y005065D03*
X009817Y005055D03*
X009807Y005045D03*
X009807Y005035D03*
X009797Y005025D03*
X009787Y005015D03*
X009677Y004935D03*
X009547Y004995D03*
X009817Y005195D03*
X009807Y005225D03*
X009787Y005255D03*
X009777Y005265D03*
X009127Y005335D03*
X009127Y005345D03*
X009127Y005355D03*
X009127Y005365D03*
X009117Y005405D03*
X009097Y005445D03*
X009087Y005455D03*
X009077Y005465D03*
X008447Y005145D03*
X008447Y005135D03*
X008437Y005165D03*
X008437Y005175D03*
X008427Y005185D03*
X008427Y005195D03*
X008417Y005205D03*
X008407Y005225D03*
X008397Y005235D03*
X008387Y005245D03*
X008377Y005255D03*
X008457Y005095D03*
X008457Y004955D03*
X008447Y004915D03*
X008447Y004905D03*
X008437Y004885D03*
X008437Y004875D03*
X008427Y004855D03*
X008417Y004845D03*
X008417Y004835D03*
X008407Y004825D03*
X008397Y004815D03*
X008387Y004805D03*
X008097Y004795D03*
X008087Y004805D03*
X008077Y004815D03*
X008067Y004825D03*
X008057Y004835D03*
X008057Y004845D03*
X008047Y004855D03*
X008047Y004865D03*
X008037Y004875D03*
X008037Y004885D03*
X008027Y004905D03*
X008027Y004915D03*
X008017Y004955D03*
X008017Y005095D03*
X008027Y005135D03*
X008027Y005145D03*
X008037Y005165D03*
X008037Y005175D03*
X008047Y005185D03*
X008047Y005195D03*
X008057Y005205D03*
X008057Y005215D03*
X008067Y005225D03*
X008077Y005235D03*
X008087Y005245D03*
X008757Y004905D03*
X008757Y004895D03*
X008757Y004885D03*
X008767Y004875D03*
X008767Y004865D03*
X008777Y004845D03*
X008787Y004835D03*
X009427Y004675D03*
X009427Y004665D03*
X009507Y004525D03*
X009837Y004575D03*
X009847Y004585D03*
X009847Y004595D03*
X009847Y004605D03*
X011667Y005605D03*
X012887Y006695D03*
X012647Y006945D03*
X013137Y006445D03*
X013437Y004465D03*
X013687Y004215D03*
X007227Y004795D03*
D87*
X007647Y004865D03*
X007657Y004885D03*
X007667Y004895D03*
X007677Y004905D03*
X007677Y004915D03*
X007687Y004925D03*
X007697Y004945D03*
X007707Y004965D03*
X007707Y004975D03*
X007717Y004995D03*
X007717Y005005D03*
X007727Y005025D03*
X007727Y005035D03*
X007727Y005045D03*
X007727Y005055D03*
X007737Y005075D03*
X007737Y005085D03*
X007737Y005095D03*
X007737Y005105D03*
X007737Y005115D03*
X007737Y005125D03*
X007737Y005135D03*
X007737Y005145D03*
X007737Y005155D03*
X007737Y005165D03*
X007737Y005175D03*
X007737Y005185D03*
X007737Y005195D03*
X007737Y005205D03*
X007727Y005225D03*
X007727Y005235D03*
X007727Y005245D03*
X007727Y005255D03*
X007717Y005275D03*
X007717Y005285D03*
X007707Y005305D03*
X007707Y005315D03*
X007697Y005335D03*
X007687Y005355D03*
X007677Y005375D03*
X007667Y005385D03*
X007667Y005395D03*
X007657Y005405D03*
X007647Y005415D03*
X007637Y005425D03*
X007627Y005435D03*
X007237Y005485D03*
X008097Y005255D03*
X008117Y005265D03*
X008357Y005265D03*
X008757Y004965D03*
X008757Y004955D03*
X008757Y004945D03*
X008817Y004805D03*
X009137Y004795D03*
X009117Y005305D03*
X009767Y004995D03*
X009827Y004555D03*
X009817Y004545D03*
X009807Y004535D03*
X010907Y005495D03*
X010907Y005505D03*
X010907Y005515D03*
X010907Y005525D03*
X010907Y005535D03*
X010907Y005545D03*
X012127Y005305D03*
X012647Y005315D03*
X013187Y005345D03*
X013137Y005815D03*
X013517Y005995D03*
X013137Y006435D03*
X012887Y006685D03*
X012647Y006935D03*
X012097Y004815D03*
X012607Y004735D03*
X012857Y004485D03*
X013107Y004235D03*
X013437Y004475D03*
X013187Y004725D03*
X013687Y004225D03*
X013107Y003615D03*
X012857Y003365D03*
X008357Y004785D03*
X008117Y004785D03*
D88*
X007597Y004825D03*
X007587Y005465D03*
X008767Y004985D03*
X009047Y005485D03*
X010257Y005315D03*
X010937Y005285D03*
X011387Y005315D03*
X012647Y005325D03*
X012807Y005155D03*
X013257Y005105D03*
X013267Y005035D03*
X013267Y005025D03*
X013267Y005005D03*
X013257Y004955D03*
X013187Y004735D03*
X013437Y004485D03*
X013687Y004235D03*
X013107Y004225D03*
X013037Y004025D03*
X013037Y004015D03*
X013037Y003835D03*
X013037Y003825D03*
X013107Y003625D03*
X012857Y003375D03*
X012677Y003855D03*
X012677Y003865D03*
X012677Y003875D03*
X012677Y003885D03*
X012677Y003895D03*
X012677Y003905D03*
X012677Y003915D03*
X012677Y003925D03*
X012677Y003935D03*
X012677Y003945D03*
X012677Y003955D03*
X012677Y003965D03*
X012677Y003975D03*
X012677Y003985D03*
X012677Y003995D03*
X012857Y004475D03*
X012607Y004725D03*
X013947Y004835D03*
X013947Y005225D03*
X013137Y005825D03*
X013137Y006425D03*
X012647Y006925D03*
X009797Y004525D03*
D89*
X009707Y004835D03*
X009087Y005255D03*
X009077Y005245D03*
X008787Y005015D03*
X007567Y004805D03*
X011627Y005225D03*
X011697Y005585D03*
X012407Y005825D03*
X012407Y005835D03*
X012407Y005845D03*
X012397Y005855D03*
X012397Y005865D03*
X012397Y005875D03*
X012387Y005905D03*
X012387Y005915D03*
X012377Y005965D03*
X012377Y005975D03*
X012377Y005985D03*
X012377Y005995D03*
X012377Y006005D03*
X012377Y006235D03*
X012377Y006245D03*
X012387Y006325D03*
X012387Y006335D03*
X012397Y006375D03*
X012397Y006385D03*
X012407Y006405D03*
X012407Y006415D03*
X012437Y006505D03*
X012747Y006365D03*
X012747Y006355D03*
X012747Y006345D03*
X012737Y006325D03*
X012727Y006285D03*
X012727Y006275D03*
X012717Y006215D03*
X012717Y006035D03*
X012727Y005975D03*
X012737Y005925D03*
X012747Y005905D03*
X012747Y005895D03*
X012747Y005885D03*
X012757Y005875D03*
X012757Y005865D03*
X012757Y005855D03*
X012767Y005835D03*
X012777Y005815D03*
X013087Y005975D03*
X013087Y005985D03*
X013077Y005995D03*
X013077Y006005D03*
X013097Y005955D03*
X013107Y005935D03*
X013147Y005845D03*
X013067Y006065D03*
X013067Y006185D03*
X013077Y006245D03*
X013077Y006255D03*
X013087Y006265D03*
X013087Y006275D03*
X013097Y006295D03*
X013107Y006315D03*
X013147Y006405D03*
X012777Y006435D03*
X012767Y006405D03*
X012757Y006395D03*
X012757Y006385D03*
X012757Y006375D03*
X012647Y006915D03*
X012417Y005805D03*
X012417Y005795D03*
X012647Y005335D03*
X012807Y005145D03*
X013177Y005315D03*
X013227Y005205D03*
X013237Y005185D03*
X013237Y005175D03*
X013247Y005165D03*
X013247Y005155D03*
X013247Y004915D03*
X013247Y004905D03*
X013247Y004895D03*
X013237Y004885D03*
X013237Y004875D03*
X013227Y004855D03*
X013567Y004765D03*
X013577Y004785D03*
X013577Y004795D03*
X013577Y004805D03*
X013587Y004815D03*
X013587Y004825D03*
X013597Y004855D03*
X013597Y004865D03*
X013597Y004875D03*
X013607Y004905D03*
X013607Y004915D03*
X013607Y004925D03*
X013607Y004935D03*
X013607Y005125D03*
X013607Y005135D03*
X013607Y005145D03*
X013607Y005155D03*
X013597Y005185D03*
X013597Y005195D03*
X013597Y005205D03*
X013587Y005235D03*
X013587Y005245D03*
X013577Y005265D03*
X013577Y005275D03*
X013567Y005295D03*
X013907Y005365D03*
X013907Y005375D03*
X013907Y005385D03*
X013897Y005405D03*
X013897Y005415D03*
X013877Y005465D03*
X013917Y005355D03*
X013917Y005345D03*
X013927Y005325D03*
X013927Y005315D03*
X013927Y005305D03*
X013937Y005285D03*
X013937Y005275D03*
X013937Y005265D03*
X013937Y005255D03*
X013957Y005155D03*
X013957Y005145D03*
X013957Y004915D03*
X013957Y004905D03*
X013957Y004895D03*
X013957Y004885D03*
X013957Y004875D03*
X013937Y004805D03*
X013937Y004795D03*
X013937Y004785D03*
X013937Y004775D03*
X013927Y004755D03*
X013927Y004745D03*
X013927Y004735D03*
X013917Y004725D03*
X013917Y004715D03*
X013917Y004705D03*
X013907Y004695D03*
X013907Y004685D03*
X013907Y004675D03*
X013897Y004645D03*
X013877Y004595D03*
X013687Y004245D03*
X013437Y004495D03*
X013107Y004215D03*
X013067Y004105D03*
X013057Y004085D03*
X013057Y004075D03*
X013047Y004065D03*
X013047Y004055D03*
X013027Y003985D03*
X013027Y003975D03*
X013027Y003875D03*
X013047Y003795D03*
X013047Y003785D03*
X013057Y003775D03*
X013057Y003765D03*
X013067Y003745D03*
X013107Y003635D03*
X012857Y003385D03*
X012737Y003625D03*
X012727Y003655D03*
X012727Y003665D03*
X012717Y003675D03*
X012717Y003685D03*
X012707Y003695D03*
X012707Y003705D03*
X012707Y003715D03*
X012697Y003745D03*
X012697Y003755D03*
X012687Y003815D03*
X012687Y003825D03*
X012687Y004035D03*
X012687Y004045D03*
X012687Y004055D03*
X012697Y004095D03*
X012697Y004105D03*
X012697Y004115D03*
X012707Y004135D03*
X012707Y004145D03*
X012707Y004155D03*
X012717Y004165D03*
X012717Y004175D03*
X012727Y004195D03*
X012727Y004205D03*
X012737Y004225D03*
X012387Y004295D03*
X012387Y004305D03*
X012377Y004265D03*
X012377Y004255D03*
X012367Y004235D03*
X012357Y004205D03*
X012357Y004195D03*
X012357Y004185D03*
X012347Y004175D03*
X012347Y004165D03*
X012347Y004155D03*
X012347Y004145D03*
X012347Y004135D03*
X012337Y004105D03*
X012337Y004095D03*
X012337Y004085D03*
X012337Y004075D03*
X012337Y004065D03*
X012337Y004055D03*
X012327Y004045D03*
X012327Y004035D03*
X012327Y004025D03*
X012327Y004015D03*
X012327Y004005D03*
X012327Y003995D03*
X012327Y003985D03*
X012327Y003975D03*
X012327Y003965D03*
X012327Y003955D03*
X012327Y003945D03*
X012327Y003935D03*
X012327Y003925D03*
X012327Y003915D03*
X012327Y003905D03*
X012327Y003895D03*
X012327Y003885D03*
X012327Y003875D03*
X012327Y003865D03*
X012327Y003855D03*
X012327Y003845D03*
X012327Y003835D03*
X012327Y003825D03*
X012327Y003815D03*
X012327Y003805D03*
X012337Y003755D03*
X012337Y003745D03*
X012337Y003735D03*
X012347Y003715D03*
X012347Y003705D03*
X012347Y003695D03*
X012347Y003685D03*
X012357Y003655D03*
X012357Y003645D03*
X012377Y003585D03*
X012857Y004465D03*
X012607Y004715D03*
D90*
X012857Y004565D03*
X011867Y004805D03*
X013097Y003535D03*
D91*
X013482Y003855D03*
X013482Y003865D03*
X013482Y003875D03*
X013482Y003975D03*
X013482Y003985D03*
X013482Y003995D03*
X012802Y004955D03*
X012012Y004745D03*
X011282Y004775D03*
X011402Y005285D03*
X010272Y005285D03*
X010152Y004775D03*
X009442Y005245D03*
X008852Y005075D03*
X013522Y006055D03*
X013522Y006065D03*
X013522Y006195D03*
D92*
X013517Y006185D03*
X013517Y006175D03*
X013517Y006075D03*
X012807Y005095D03*
X012807Y005085D03*
X012807Y005075D03*
X012807Y005065D03*
X012807Y004995D03*
X012807Y004985D03*
X012807Y004975D03*
X012807Y004965D03*
X011667Y004775D03*
X011667Y004765D03*
X011667Y004755D03*
X011667Y004745D03*
X011667Y004735D03*
X011667Y004725D03*
X011287Y004725D03*
X011287Y004735D03*
X011287Y004745D03*
X011287Y004755D03*
X011287Y004765D03*
X010537Y004765D03*
X010537Y004775D03*
X010537Y004755D03*
X010537Y004745D03*
X010537Y004735D03*
X010537Y004725D03*
X010157Y004725D03*
X010157Y004735D03*
X010157Y004745D03*
X010157Y004755D03*
X010157Y004765D03*
X009677Y004475D03*
X009017Y005195D03*
X009447Y005255D03*
X013487Y003965D03*
X013487Y003895D03*
X013487Y003885D03*
D93*
X013482Y003905D03*
X013482Y003945D03*
X013482Y003955D03*
X012012Y004755D03*
X012012Y004765D03*
X010912Y004775D03*
X009662Y004965D03*
X009642Y005305D03*
X009452Y005265D03*
X009002Y005185D03*
X008862Y005085D03*
X008902Y005545D03*
X008232Y005305D03*
X008242Y004745D03*
X013522Y006085D03*
X013522Y006095D03*
X013522Y006105D03*
X013522Y006155D03*
X013522Y006165D03*
D94*
X013517Y006145D03*
X013517Y006135D03*
X012807Y005055D03*
X012807Y005045D03*
X012807Y005015D03*
X012807Y005005D03*
X012017Y004785D03*
X012017Y004775D03*
X011407Y005275D03*
X010907Y004765D03*
X010907Y004755D03*
X010907Y004745D03*
X010907Y004735D03*
X010907Y004725D03*
X010277Y005275D03*
X009657Y004815D03*
X008987Y005175D03*
X008877Y005095D03*
X013477Y003935D03*
X013487Y003915D03*
D95*
X013482Y003925D03*
X012022Y004795D03*
X012802Y005025D03*
X012802Y005035D03*
X013522Y006115D03*
X013522Y006125D03*
X009662Y004975D03*
X009532Y004735D03*
X008972Y005165D03*
X008902Y005115D03*
X008892Y005105D03*
X009462Y005275D03*
D96*
X012607Y004805D03*
X013197Y004645D03*
X013687Y004155D03*
X012647Y005245D03*
X012887Y005495D03*
X013437Y005665D03*
X012887Y006755D03*
X012647Y007005D03*
D97*
X012647Y006995D03*
X012887Y006745D03*
X013437Y005655D03*
X012887Y005505D03*
X012647Y005255D03*
X012607Y004795D03*
X013197Y004655D03*
X013097Y004305D03*
X013687Y004165D03*
X010907Y005435D03*
X010907Y005605D03*
D98*
X010877Y005325D03*
X012077Y005445D03*
X012077Y005455D03*
X012647Y005265D03*
X012807Y005185D03*
X012887Y005515D03*
X013437Y005645D03*
X012607Y004785D03*
X013197Y004665D03*
X013097Y004295D03*
X013687Y004175D03*
X012887Y006735D03*
X012647Y006985D03*
X009737Y004915D03*
X009747Y004895D03*
X008737Y005325D03*
D99*
X008737Y005335D03*
X008737Y005345D03*
X008737Y005355D03*
X008737Y005365D03*
X008737Y005375D03*
X008737Y005385D03*
X009177Y004965D03*
X009177Y004955D03*
X009177Y004945D03*
X009177Y004935D03*
X009177Y004925D03*
X009177Y004915D03*
X009757Y004875D03*
X010507Y005325D03*
X010907Y005445D03*
X010907Y005595D03*
X011637Y005625D03*
X012087Y005415D03*
X012087Y005405D03*
X012647Y005275D03*
X012887Y005525D03*
X013437Y005635D03*
X013517Y005975D03*
X012887Y006725D03*
X012647Y006975D03*
X012607Y004775D03*
X013197Y004675D03*
X013097Y004285D03*
X013687Y004185D03*
X007197Y004875D03*
X007197Y004885D03*
X007197Y004895D03*
X007197Y004905D03*
X007197Y004915D03*
X007197Y005365D03*
X007197Y005375D03*
X007197Y005385D03*
X007197Y005395D03*
X007197Y005405D03*
X007197Y005415D03*
D100*
X007207Y005465D03*
X007207Y004815D03*
X008747Y005455D03*
X009167Y004825D03*
X009167Y004815D03*
X009757Y004855D03*
X009647Y005335D03*
X010907Y005455D03*
X010907Y005585D03*
X012097Y005375D03*
X012097Y005365D03*
X012647Y005285D03*
X012807Y005175D03*
X013187Y005375D03*
X012887Y005535D03*
X013137Y005785D03*
X013437Y005625D03*
X013137Y006465D03*
X012887Y006715D03*
X012647Y006965D03*
X012607Y004765D03*
X013687Y004195D03*
D101*
X013442Y004395D03*
X013102Y004315D03*
X013132Y005735D03*
X013682Y005915D03*
X013132Y006515D03*
D102*
X009642Y004805D03*
X009672Y004485D03*
X008232Y005295D03*
X007382Y005545D03*
X007382Y004735D03*
D103*
X008237Y004765D03*
X008237Y005285D03*
X009627Y004795D03*
X009667Y004495D03*
D104*
X009667Y004505D03*
X009597Y004765D03*
X008897Y005515D03*
D105*
X008912Y005495D03*
X009002Y004765D03*
X009662Y004515D03*
D106*
X009007Y004735D03*
X008917Y005125D03*
X008927Y005135D03*
X008947Y005145D03*
X008957Y005155D03*
X008237Y004755D03*
D107*
X008987Y004785D03*
X009607Y004745D03*
X007387Y004765D03*
D108*
X009012Y004745D03*
X012052Y005285D03*
D109*
X012062Y005275D03*
X012062Y005265D03*
X012062Y005255D03*
X012062Y005245D03*
X012062Y005235D03*
X009612Y004775D03*
X007382Y004745D03*
D110*
X008902Y005505D03*
X009012Y004755D03*
X009592Y004755D03*
D111*
X007377Y004755D03*
X007377Y005525D03*
D112*
X007382Y005515D03*
X008992Y004775D03*
D113*
X009617Y004785D03*
X008897Y005525D03*
X008237Y005275D03*
X008237Y004775D03*
X007377Y005535D03*
D114*
X007392Y005505D03*
X007392Y004775D03*
X011492Y005265D03*
D115*
X011482Y005235D03*
X007402Y005495D03*
X007402Y004785D03*
D116*
X009662Y004985D03*
X012042Y005295D03*
D117*
X010392Y005235D03*
D118*
X011487Y005245D03*
X011487Y005255D03*
D119*
X010397Y005255D03*
X010397Y005245D03*
D120*
X010402Y005265D03*
D121*
X009562Y005285D03*
D122*
X009557Y005295D03*
D123*
X008897Y005535D03*
D124*
X012892Y006765D03*
D125*
X017358Y011675D02*
X017360Y011714D01*
X017366Y011753D01*
X017376Y011791D01*
X017389Y011828D01*
X017406Y011863D01*
X017426Y011897D01*
X017450Y011928D01*
X017477Y011957D01*
X017506Y011983D01*
X017538Y012006D01*
X017572Y012026D01*
X017608Y012042D01*
X017645Y012054D01*
X017684Y012063D01*
X017723Y012068D01*
X017762Y012069D01*
X017801Y012066D01*
X017840Y012059D01*
X017877Y012048D01*
X017914Y012034D01*
X017949Y012016D01*
X017982Y011995D01*
X018013Y011970D01*
X018041Y011943D01*
X018066Y011913D01*
X018088Y011880D01*
X018107Y011846D01*
X018122Y011810D01*
X018134Y011772D01*
X018142Y011734D01*
X018146Y011695D01*
X018146Y011655D01*
X018142Y011616D01*
X018134Y011578D01*
X018122Y011540D01*
X018107Y011504D01*
X018088Y011470D01*
X018066Y011437D01*
X018041Y011407D01*
X018013Y011380D01*
X017982Y011355D01*
X017949Y011334D01*
X017914Y011316D01*
X017877Y011302D01*
X017840Y011291D01*
X017801Y011284D01*
X017762Y011281D01*
X017723Y011282D01*
X017684Y011287D01*
X017645Y011296D01*
X017608Y011308D01*
X017572Y011324D01*
X017538Y011344D01*
X017506Y011367D01*
X017477Y011393D01*
X017450Y011422D01*
X017426Y011453D01*
X017406Y011487D01*
X017389Y011522D01*
X017376Y011559D01*
X017366Y011597D01*
X017360Y011636D01*
X017358Y011675D01*
X017358Y001175D02*
X017360Y001214D01*
X017366Y001253D01*
X017376Y001291D01*
X017389Y001328D01*
X017406Y001363D01*
X017426Y001397D01*
X017450Y001428D01*
X017477Y001457D01*
X017506Y001483D01*
X017538Y001506D01*
X017572Y001526D01*
X017608Y001542D01*
X017645Y001554D01*
X017684Y001563D01*
X017723Y001568D01*
X017762Y001569D01*
X017801Y001566D01*
X017840Y001559D01*
X017877Y001548D01*
X017914Y001534D01*
X017949Y001516D01*
X017982Y001495D01*
X018013Y001470D01*
X018041Y001443D01*
X018066Y001413D01*
X018088Y001380D01*
X018107Y001346D01*
X018122Y001310D01*
X018134Y001272D01*
X018142Y001234D01*
X018146Y001195D01*
X018146Y001155D01*
X018142Y001116D01*
X018134Y001078D01*
X018122Y001040D01*
X018107Y001004D01*
X018088Y000970D01*
X018066Y000937D01*
X018041Y000907D01*
X018013Y000880D01*
X017982Y000855D01*
X017949Y000834D01*
X017914Y000816D01*
X017877Y000802D01*
X017840Y000791D01*
X017801Y000784D01*
X017762Y000781D01*
X017723Y000782D01*
X017684Y000787D01*
X017645Y000796D01*
X017608Y000808D01*
X017572Y000824D01*
X017538Y000844D01*
X017506Y000867D01*
X017477Y000893D01*
X017450Y000922D01*
X017426Y000953D01*
X017406Y000987D01*
X017389Y001022D01*
X017376Y001059D01*
X017366Y001097D01*
X017360Y001136D01*
X017358Y001175D01*
X001358Y001175D02*
X001360Y001214D01*
X001366Y001253D01*
X001376Y001291D01*
X001389Y001328D01*
X001406Y001363D01*
X001426Y001397D01*
X001450Y001428D01*
X001477Y001457D01*
X001506Y001483D01*
X001538Y001506D01*
X001572Y001526D01*
X001608Y001542D01*
X001645Y001554D01*
X001684Y001563D01*
X001723Y001568D01*
X001762Y001569D01*
X001801Y001566D01*
X001840Y001559D01*
X001877Y001548D01*
X001914Y001534D01*
X001949Y001516D01*
X001982Y001495D01*
X002013Y001470D01*
X002041Y001443D01*
X002066Y001413D01*
X002088Y001380D01*
X002107Y001346D01*
X002122Y001310D01*
X002134Y001272D01*
X002142Y001234D01*
X002146Y001195D01*
X002146Y001155D01*
X002142Y001116D01*
X002134Y001078D01*
X002122Y001040D01*
X002107Y001004D01*
X002088Y000970D01*
X002066Y000937D01*
X002041Y000907D01*
X002013Y000880D01*
X001982Y000855D01*
X001949Y000834D01*
X001914Y000816D01*
X001877Y000802D01*
X001840Y000791D01*
X001801Y000784D01*
X001762Y000781D01*
X001723Y000782D01*
X001684Y000787D01*
X001645Y000796D01*
X001608Y000808D01*
X001572Y000824D01*
X001538Y000844D01*
X001506Y000867D01*
X001477Y000893D01*
X001450Y000922D01*
X001426Y000953D01*
X001406Y000987D01*
X001389Y001022D01*
X001376Y001059D01*
X001366Y001097D01*
X001360Y001136D01*
X001358Y001175D01*
X001358Y011675D02*
X001360Y011714D01*
X001366Y011753D01*
X001376Y011791D01*
X001389Y011828D01*
X001406Y011863D01*
X001426Y011897D01*
X001450Y011928D01*
X001477Y011957D01*
X001506Y011983D01*
X001538Y012006D01*
X001572Y012026D01*
X001608Y012042D01*
X001645Y012054D01*
X001684Y012063D01*
X001723Y012068D01*
X001762Y012069D01*
X001801Y012066D01*
X001840Y012059D01*
X001877Y012048D01*
X001914Y012034D01*
X001949Y012016D01*
X001982Y011995D01*
X002013Y011970D01*
X002041Y011943D01*
X002066Y011913D01*
X002088Y011880D01*
X002107Y011846D01*
X002122Y011810D01*
X002134Y011772D01*
X002142Y011734D01*
X002146Y011695D01*
X002146Y011655D01*
X002142Y011616D01*
X002134Y011578D01*
X002122Y011540D01*
X002107Y011504D01*
X002088Y011470D01*
X002066Y011437D01*
X002041Y011407D01*
X002013Y011380D01*
X001982Y011355D01*
X001949Y011334D01*
X001914Y011316D01*
X001877Y011302D01*
X001840Y011291D01*
X001801Y011284D01*
X001762Y011281D01*
X001723Y011282D01*
X001684Y011287D01*
X001645Y011296D01*
X001608Y011308D01*
X001572Y011324D01*
X001538Y011344D01*
X001506Y011367D01*
X001477Y011393D01*
X001450Y011422D01*
X001426Y011453D01*
X001406Y011487D01*
X001389Y011522D01*
X001376Y011559D01*
X001366Y011597D01*
X001360Y011636D01*
X001358Y011675D01*
M02*
