G75*
%MOIN*%
%OFA0B0*%
%FSLAX24Y24*%
%IPPOS*%
%LPD*%
%AMOC8*
5,1,8,0,0,1.08239X$1,22.5*
%
%ADD10C,0.0630*%
%ADD11R,0.0640X0.0640*%
%ADD12OC8,0.0640*%
%ADD13R,0.0740X0.0740*%
%ADD14OC8,0.0740*%
%ADD15R,0.0394X0.0492*%
%ADD16C,0.0088*%
%ADD17R,0.0433X0.0748*%
%ADD18R,0.0870X0.0240*%
%ADD19C,0.0100*%
%ADD20C,0.0340*%
%ADD21C,0.0240*%
%ADD22C,0.0160*%
%ADD23C,0.0320*%
%ADD24C,0.0120*%
D10*
X002502Y008231D03*
X002502Y009019D03*
D11*
X003902Y001925D03*
D12*
X004902Y001925D03*
X005902Y001925D03*
X006902Y001925D03*
X007902Y001925D03*
X008902Y001925D03*
X009902Y001925D03*
X010902Y001925D03*
X011902Y001925D03*
X012902Y001925D03*
X013902Y001925D03*
X014902Y001925D03*
X014902Y010925D03*
X013902Y010925D03*
X012902Y010925D03*
X011902Y010925D03*
X010902Y010925D03*
X009902Y010925D03*
X008902Y010925D03*
X007902Y010925D03*
X006902Y010925D03*
X005902Y010925D03*
X004902Y010925D03*
X003902Y010925D03*
D13*
X017802Y002925D03*
D14*
X016802Y002925D03*
X016802Y003925D03*
X017802Y003925D03*
X017802Y004925D03*
X016802Y004925D03*
X016802Y005925D03*
X017802Y005925D03*
X017802Y006925D03*
X016802Y006925D03*
X016802Y007925D03*
X017802Y007925D03*
X017802Y008925D03*
X016802Y008925D03*
X016802Y009925D03*
X017802Y009925D03*
D15*
X008197Y009425D03*
X007607Y009425D03*
D16*
X006871Y009294D02*
X006871Y009556D01*
X007133Y009556D01*
X007133Y009294D01*
X006871Y009294D01*
X006871Y009381D02*
X007133Y009381D01*
X007133Y009468D02*
X006871Y009468D01*
X006871Y009555D02*
X007133Y009555D01*
X006871Y008956D02*
X006871Y008694D01*
X006871Y008956D02*
X007133Y008956D01*
X007133Y008694D01*
X006871Y008694D01*
X006871Y008781D02*
X007133Y008781D01*
X007133Y008868D02*
X006871Y008868D01*
X006871Y008955D02*
X007133Y008955D01*
X008771Y008956D02*
X008771Y008694D01*
X008771Y008956D02*
X009033Y008956D01*
X009033Y008694D01*
X008771Y008694D01*
X008771Y008781D02*
X009033Y008781D01*
X009033Y008868D02*
X008771Y008868D01*
X008771Y008955D02*
X009033Y008955D01*
X008771Y009294D02*
X008771Y009556D01*
X009033Y009556D01*
X009033Y009294D01*
X008771Y009294D01*
X008771Y009381D02*
X009033Y009381D01*
X009033Y009468D02*
X008771Y009468D01*
X008771Y009555D02*
X009033Y009555D01*
X006333Y007294D02*
X006071Y007294D01*
X006071Y007556D01*
X006333Y007556D01*
X006333Y007294D01*
X006333Y007381D02*
X006071Y007381D01*
X006071Y007468D02*
X006333Y007468D01*
X006333Y007555D02*
X006071Y007555D01*
X005733Y007294D02*
X005471Y007294D01*
X005471Y007556D01*
X005733Y007556D01*
X005733Y007294D01*
X005733Y007381D02*
X005471Y007381D01*
X005471Y007468D02*
X005733Y007468D01*
X005733Y007555D02*
X005471Y007555D01*
X013171Y008694D02*
X013171Y008956D01*
X013433Y008956D01*
X013433Y008694D01*
X013171Y008694D01*
X013171Y008781D02*
X013433Y008781D01*
X013433Y008868D02*
X013171Y008868D01*
X013171Y008955D02*
X013433Y008955D01*
X013171Y009294D02*
X013171Y009556D01*
X013433Y009556D01*
X013433Y009294D01*
X013171Y009294D01*
X013171Y009381D02*
X013433Y009381D01*
X013433Y009468D02*
X013171Y009468D01*
X013171Y009555D02*
X013433Y009555D01*
D17*
X005855Y009753D03*
X004949Y009753D03*
X004949Y008297D03*
X005855Y008297D03*
D18*
X010272Y008675D03*
X010272Y009175D03*
X010272Y009675D03*
X010272Y010175D03*
X012332Y010175D03*
X012332Y009675D03*
X012332Y009175D03*
X012332Y008675D03*
D19*
X011848Y008945D02*
X011835Y008945D01*
X011747Y008857D01*
X011747Y008535D01*
X010826Y008535D01*
X010827Y008539D01*
X010827Y008665D01*
X010282Y008665D01*
X010282Y008685D01*
X010262Y008685D01*
X010262Y008665D01*
X009717Y008665D01*
X009717Y008539D01*
X009718Y008535D01*
X009331Y008535D01*
X009306Y008559D01*
X009192Y008607D01*
X009172Y008607D01*
X009186Y008631D01*
X009197Y008672D01*
X009197Y008787D01*
X008940Y008787D01*
X008940Y008863D01*
X009197Y008863D01*
X009197Y008978D01*
X009186Y009019D01*
X009164Y009057D01*
X009134Y009087D01*
X009112Y009100D01*
X009114Y009100D01*
X009227Y009213D01*
X009227Y009637D01*
X009132Y009732D01*
X009132Y010020D01*
X008797Y010355D01*
X007797Y010355D01*
X007372Y010780D01*
X007372Y011120D01*
X007177Y011315D01*
X007628Y011315D01*
X007432Y011120D01*
X007432Y010730D01*
X007708Y010455D01*
X008097Y010455D01*
X008372Y010730D01*
X008372Y011120D01*
X008177Y011315D01*
X008628Y011315D01*
X008432Y011120D01*
X008432Y010730D01*
X008708Y010455D01*
X009097Y010455D01*
X009372Y010730D01*
X009372Y011120D01*
X009177Y011315D01*
X009628Y011315D01*
X009432Y011120D01*
X009432Y010730D01*
X009708Y010455D01*
X010097Y010455D01*
X010372Y010730D01*
X010372Y011120D01*
X010177Y011315D01*
X010628Y011315D01*
X010432Y011120D01*
X010432Y010730D01*
X010708Y010455D01*
X010802Y010455D01*
X010802Y010370D01*
X010781Y010391D01*
X010754Y010407D01*
X010723Y010415D01*
X010282Y010415D01*
X010282Y010185D01*
X010262Y010185D01*
X010262Y010165D01*
X009717Y010165D01*
X009717Y010039D01*
X009725Y010009D01*
X009741Y009981D01*
X009764Y009959D01*
X009791Y009943D01*
X009821Y009935D01*
X010262Y009935D01*
X010262Y010165D01*
X010282Y010165D01*
X010282Y009935D01*
X010701Y009935D01*
X010693Y009915D01*
X010282Y009915D01*
X010282Y009685D01*
X010262Y009685D01*
X010262Y009665D01*
X009717Y009665D01*
X009717Y009539D01*
X009725Y009509D01*
X009741Y009481D01*
X009764Y009459D01*
X009791Y009443D01*
X009821Y009435D01*
X010262Y009435D01*
X010262Y009665D01*
X010282Y009665D01*
X010282Y009435D01*
X010723Y009435D01*
X010754Y009443D01*
X010781Y009459D01*
X010803Y009481D01*
X010819Y009509D01*
X010827Y009539D01*
X010827Y009551D01*
X010939Y009505D01*
X011066Y009505D01*
X011183Y009554D01*
X011273Y009644D01*
X011322Y009761D01*
X011322Y009889D01*
X011273Y010006D01*
X011202Y010078D01*
X011202Y010560D01*
X011372Y010730D01*
X011372Y011120D01*
X011177Y011315D01*
X011628Y011315D01*
X011432Y011120D01*
X011432Y010738D01*
X011402Y010708D01*
X011402Y011315D01*
X011302Y011315D02*
X011302Y011190D01*
X011267Y011225D02*
X011538Y011225D01*
X011502Y011190D02*
X011502Y011315D01*
X011602Y011315D02*
X011602Y011290D01*
X011438Y011125D02*
X011367Y011125D01*
X011372Y011025D02*
X011432Y011025D01*
X011432Y010925D02*
X011372Y010925D01*
X011372Y010825D02*
X011432Y010825D01*
X011419Y010725D02*
X011367Y010725D01*
X011402Y010708D02*
X011402Y009642D01*
X011402Y008535D01*
X011302Y008535D02*
X011302Y009713D01*
X011307Y009725D02*
X011402Y009725D01*
X011402Y009642D02*
X011519Y009525D01*
X011114Y009525D01*
X011102Y009520D02*
X011102Y008535D01*
X011002Y008535D02*
X011002Y009505D01*
X010902Y009520D02*
X010902Y008535D01*
X010827Y008625D02*
X011747Y008625D01*
X011747Y008725D02*
X010827Y008725D01*
X010827Y008685D02*
X010827Y008811D01*
X010819Y008841D01*
X010803Y008869D01*
X010781Y008891D01*
X010754Y008907D01*
X010723Y008915D01*
X010282Y008915D01*
X010282Y008685D01*
X010827Y008685D01*
X010802Y008685D02*
X010802Y008665D01*
X010702Y008665D02*
X010702Y008685D01*
X010602Y008685D02*
X010602Y008665D01*
X010502Y008665D02*
X010502Y008685D01*
X010402Y008685D02*
X010402Y008665D01*
X010302Y008665D02*
X010302Y008685D01*
X010262Y008685D02*
X010262Y008915D01*
X009821Y008915D01*
X009791Y008907D01*
X009764Y008891D01*
X009741Y008869D01*
X009725Y008841D01*
X009717Y008811D01*
X009717Y008685D01*
X010262Y008685D01*
X010262Y008725D02*
X010282Y008725D01*
X010202Y008685D02*
X010202Y008665D01*
X010102Y008665D02*
X010102Y008685D01*
X010002Y008685D02*
X010002Y008665D01*
X009902Y008665D02*
X009902Y008685D01*
X009802Y008685D02*
X009802Y008665D01*
X009717Y008625D02*
X009183Y008625D01*
X009202Y008603D02*
X009202Y009188D01*
X009227Y009225D02*
X009717Y009225D01*
X009717Y009185D02*
X009717Y009311D01*
X009725Y009341D01*
X009741Y009369D01*
X009764Y009391D01*
X009791Y009407D01*
X009821Y009415D01*
X010262Y009415D01*
X010262Y009185D01*
X010262Y009165D01*
X009717Y009165D01*
X009717Y009039D01*
X009725Y009009D01*
X009741Y008981D01*
X009764Y008959D01*
X009791Y008943D01*
X009821Y008935D01*
X010262Y008935D01*
X010262Y009165D01*
X010282Y009165D01*
X010282Y008935D01*
X010723Y008935D01*
X010754Y008943D01*
X010781Y008959D01*
X010803Y008981D01*
X010819Y009009D01*
X010827Y009039D01*
X010827Y009165D01*
X010282Y009165D01*
X010282Y009185D01*
X010262Y009185D01*
X009717Y009185D01*
X009717Y009125D02*
X009139Y009125D01*
X009183Y009025D02*
X009721Y009025D01*
X009802Y008940D02*
X009802Y008910D01*
X009902Y008915D02*
X009902Y008935D01*
X010002Y008935D02*
X010002Y008915D01*
X010102Y008915D02*
X010102Y008935D01*
X010202Y008935D02*
X010202Y008915D01*
X010302Y008915D02*
X010302Y008935D01*
X010282Y009025D02*
X010262Y009025D01*
X010262Y009125D02*
X010282Y009125D01*
X010302Y009165D02*
X010302Y009185D01*
X010282Y009185D02*
X010827Y009185D01*
X010827Y009311D01*
X010819Y009341D01*
X010803Y009369D01*
X010781Y009391D01*
X010754Y009407D01*
X010723Y009415D01*
X010282Y009415D01*
X010282Y009185D01*
X010282Y009225D02*
X010262Y009225D01*
X010202Y009185D02*
X010202Y009165D01*
X010102Y009165D02*
X010102Y009185D01*
X010002Y009185D02*
X010002Y009165D01*
X009902Y009165D02*
X009902Y009185D01*
X009802Y009185D02*
X009802Y009165D01*
X009721Y009325D02*
X009227Y009325D01*
X009227Y009425D02*
X011815Y009425D01*
X011802Y009438D02*
X011802Y009370D01*
X011801Y009369D02*
X011785Y009341D01*
X011777Y009311D01*
X011777Y009185D01*
X012322Y009185D01*
X012322Y009165D01*
X011777Y009165D01*
X011777Y009039D01*
X011785Y009009D01*
X011801Y008981D01*
X011824Y008959D01*
X011848Y008945D01*
X011815Y008925D02*
X009197Y008925D01*
X009102Y008863D02*
X009102Y008787D01*
X009002Y008787D02*
X009002Y008863D01*
X008940Y008825D02*
X009721Y008825D01*
X009717Y008725D02*
X009197Y008725D01*
X009302Y008561D02*
X009302Y010660D01*
X009267Y010625D02*
X009538Y010625D01*
X009502Y010660D02*
X009502Y008535D01*
X009402Y008535D02*
X009402Y011315D01*
X009302Y011315D02*
X009302Y011190D01*
X009267Y011225D02*
X009538Y011225D01*
X009502Y011190D02*
X009502Y011315D01*
X009602Y011315D02*
X009602Y011290D01*
X009438Y011125D02*
X009367Y011125D01*
X009372Y011025D02*
X009432Y011025D01*
X009432Y010925D02*
X009372Y010925D01*
X009372Y010825D02*
X009432Y010825D01*
X009438Y010725D02*
X009367Y010725D01*
X009202Y010560D02*
X009202Y009662D01*
X009227Y009625D02*
X009717Y009625D01*
X009717Y009685D02*
X010262Y009685D01*
X010262Y009915D01*
X009821Y009915D01*
X009791Y009907D01*
X009764Y009891D01*
X009741Y009869D01*
X009725Y009841D01*
X009717Y009811D01*
X009717Y009685D01*
X009717Y009725D02*
X009139Y009725D01*
X009132Y009825D02*
X009721Y009825D01*
X009802Y009910D02*
X009802Y009940D01*
X009902Y009935D02*
X009902Y009915D01*
X010002Y009915D02*
X010002Y009935D01*
X010102Y009935D02*
X010102Y009915D01*
X010202Y009915D02*
X010202Y009935D01*
X010302Y009935D02*
X010302Y009915D01*
X010282Y009825D02*
X010262Y009825D01*
X010262Y009725D02*
X010282Y009725D01*
X010202Y009685D02*
X010202Y009665D01*
X010262Y009625D02*
X010282Y009625D01*
X010282Y009525D02*
X010262Y009525D01*
X010302Y009435D02*
X010302Y009415D01*
X010282Y009325D02*
X010262Y009325D01*
X010202Y009415D02*
X010202Y009435D01*
X010102Y009435D02*
X010102Y009415D01*
X010002Y009415D02*
X010002Y009435D01*
X009902Y009435D02*
X009902Y009415D01*
X009802Y009410D02*
X009802Y009440D01*
X009721Y009525D02*
X009227Y009525D01*
X009132Y009925D02*
X010697Y009925D01*
X010602Y009915D02*
X010602Y009935D01*
X010502Y009935D02*
X010502Y009915D01*
X010402Y009915D02*
X010402Y009935D01*
X010282Y010025D02*
X010262Y010025D01*
X010262Y010125D02*
X010282Y010125D01*
X010262Y010185D02*
X009717Y010185D01*
X009717Y010311D01*
X009725Y010341D01*
X009741Y010369D01*
X009764Y010391D01*
X009791Y010407D01*
X009821Y010415D01*
X010262Y010415D01*
X010262Y010185D01*
X010262Y010225D02*
X010282Y010225D01*
X010202Y010185D02*
X010202Y010165D01*
X010102Y010165D02*
X010102Y010185D01*
X010002Y010185D02*
X010002Y010165D01*
X009902Y010165D02*
X009902Y010185D01*
X009802Y010185D02*
X009802Y010165D01*
X009717Y010125D02*
X009027Y010125D01*
X009002Y010150D02*
X009002Y010455D01*
X008902Y010455D02*
X008902Y010250D01*
X008927Y010225D02*
X009717Y010225D01*
X009721Y010325D02*
X008827Y010325D01*
X008802Y010350D02*
X008802Y010455D01*
X008702Y010460D02*
X008702Y010355D01*
X008602Y010355D02*
X008602Y010560D01*
X008638Y010525D02*
X008167Y010525D01*
X008202Y010560D02*
X008202Y010355D01*
X008102Y010355D02*
X008102Y010460D01*
X008002Y010455D02*
X008002Y010355D01*
X007902Y010355D02*
X007902Y010455D01*
X007802Y010455D02*
X007802Y010355D01*
X007727Y010425D02*
X010802Y010425D01*
X010702Y010415D02*
X010702Y010460D01*
X010638Y010525D02*
X010167Y010525D01*
X010202Y010560D02*
X010202Y010415D01*
X010102Y010415D02*
X010102Y010460D01*
X010002Y010455D02*
X010002Y010415D01*
X009902Y010415D02*
X009902Y010455D01*
X009802Y010455D02*
X009802Y010410D01*
X009702Y010460D02*
X009702Y008535D01*
X009602Y008535D02*
X009602Y010560D01*
X009638Y010525D02*
X009167Y010525D01*
X009102Y010460D02*
X009102Y010050D01*
X009127Y010025D02*
X009721Y010025D01*
X009802Y009685D02*
X009802Y009665D01*
X009902Y009665D02*
X009902Y009685D01*
X010002Y009685D02*
X010002Y009665D01*
X010102Y009665D02*
X010102Y009685D01*
X010402Y009435D02*
X010402Y009415D01*
X010502Y009415D02*
X010502Y009435D01*
X010602Y009435D02*
X010602Y009415D01*
X010702Y009415D02*
X010702Y009435D01*
X010802Y009480D02*
X010802Y009370D01*
X010823Y009325D02*
X011781Y009325D01*
X011801Y009369D02*
X011824Y009391D01*
X011848Y009405D01*
X011835Y009405D01*
X011765Y009475D01*
X011569Y009475D01*
X011519Y009525D01*
X011502Y009542D02*
X011502Y008535D01*
X011602Y008535D02*
X011602Y009475D01*
X011702Y009475D02*
X011702Y008535D01*
X011747Y008825D02*
X010823Y008825D01*
X010802Y008870D02*
X010802Y008980D01*
X010823Y009025D02*
X011781Y009025D01*
X011802Y008980D02*
X011802Y008912D01*
X011777Y009125D02*
X010827Y009125D01*
X010802Y009165D02*
X010802Y009185D01*
X010827Y009225D02*
X011777Y009225D01*
X011802Y009185D02*
X011802Y009165D01*
X011902Y009165D02*
X011902Y009185D01*
X012002Y009185D02*
X012002Y009165D01*
X012102Y009165D02*
X012102Y009185D01*
X012202Y009185D02*
X012202Y009165D01*
X012302Y009165D02*
X012302Y009185D01*
X012342Y009185D02*
X012887Y009185D01*
X012887Y009311D01*
X012879Y009341D01*
X012863Y009369D01*
X012841Y009391D01*
X012817Y009405D01*
X012829Y009405D01*
X012917Y009493D01*
X012917Y009857D01*
X012849Y009925D01*
X013719Y009925D01*
X013902Y009742D01*
X013902Y009278D01*
X013831Y009206D01*
X013782Y009089D01*
X013782Y008961D01*
X013831Y008844D01*
X013921Y008754D01*
X014039Y008705D01*
X014166Y008705D01*
X014283Y008754D01*
X014373Y008844D01*
X014422Y008961D01*
X014422Y009089D01*
X014373Y009206D01*
X014302Y009278D01*
X014302Y009908D01*
X014185Y010025D01*
X015732Y010025D01*
X015732Y009925D02*
X014285Y009925D01*
X014302Y009825D02*
X015732Y009825D01*
X015732Y009725D02*
X014302Y009725D01*
X014302Y009625D02*
X015732Y009625D01*
X015732Y009525D02*
X014302Y009525D01*
X014302Y009425D02*
X015732Y009425D01*
X015732Y009325D02*
X014302Y009325D01*
X014302Y009278D02*
X014302Y010660D01*
X014267Y010625D02*
X014580Y010625D01*
X014602Y010603D02*
X014602Y008535D01*
X014502Y008535D02*
X014502Y010703D01*
X014480Y010725D02*
X014367Y010725D01*
X014372Y010730D02*
X014372Y011120D01*
X014172Y011320D01*
X014172Y011442D01*
X014173Y011444D01*
X014222Y011561D01*
X014222Y011689D01*
X014173Y011806D01*
X014083Y011896D01*
X013966Y011945D01*
X013839Y011945D01*
X013814Y011935D01*
X003402Y011935D01*
X003402Y012245D01*
X016302Y012245D01*
X016302Y011237D01*
X016273Y011306D01*
X016183Y011396D01*
X016066Y011445D01*
X015939Y011445D01*
X015821Y011396D01*
X015731Y011306D01*
X015682Y011189D01*
X015682Y011061D01*
X015731Y010944D01*
X015732Y010942D01*
X015732Y008771D01*
X015773Y008672D01*
X015910Y008535D01*
X013572Y008535D01*
X013572Y008558D01*
X013627Y008613D01*
X013627Y009037D01*
X013514Y009150D01*
X013512Y009150D01*
X013534Y009163D01*
X013564Y009193D01*
X013586Y009231D01*
X013597Y009272D01*
X013597Y009387D01*
X013340Y009387D01*
X013340Y009463D01*
X013265Y009463D01*
X013265Y009720D01*
X013149Y009720D01*
X013108Y009709D01*
X013070Y009687D01*
X013040Y009657D01*
X013018Y009619D01*
X013007Y009578D01*
X013007Y009463D01*
X013265Y009463D01*
X013265Y009387D01*
X013007Y009387D01*
X013007Y009272D01*
X013018Y009231D01*
X013040Y009193D01*
X013070Y009163D01*
X013092Y009150D01*
X013091Y009150D01*
X013036Y009095D01*
X012948Y009095D01*
X012887Y009070D01*
X012887Y009165D01*
X012342Y009165D01*
X012342Y009185D01*
X012402Y009185D02*
X012402Y009165D01*
X012502Y009165D02*
X012502Y009185D01*
X012602Y009185D02*
X012602Y009165D01*
X012702Y009165D02*
X012702Y009185D01*
X012802Y009185D02*
X012802Y009165D01*
X012887Y009125D02*
X013066Y009125D01*
X013002Y009095D02*
X013002Y009925D01*
X012902Y009925D02*
X012902Y009872D01*
X012917Y009825D02*
X013819Y009825D01*
X013802Y009842D02*
X013802Y009137D01*
X013797Y009125D02*
X013539Y009125D01*
X013602Y009062D02*
X013602Y009925D01*
X013502Y009925D02*
X013502Y009706D01*
X013497Y009709D02*
X013534Y009687D01*
X013564Y009657D01*
X013586Y009619D01*
X013597Y009578D01*
X013597Y009463D01*
X013340Y009463D01*
X013340Y009720D01*
X013455Y009720D01*
X013497Y009709D01*
X013402Y009720D02*
X013402Y009925D01*
X013302Y009925D02*
X013302Y009463D01*
X013265Y009425D02*
X012849Y009425D01*
X012902Y009478D02*
X012902Y009076D01*
X012887Y009225D02*
X013022Y009225D01*
X013007Y009325D02*
X012883Y009325D01*
X012917Y009525D02*
X013007Y009525D01*
X013022Y009625D02*
X012917Y009625D01*
X012917Y009725D02*
X013902Y009725D01*
X013902Y009625D02*
X013583Y009625D01*
X013597Y009525D02*
X013902Y009525D01*
X013902Y009425D02*
X013340Y009425D01*
X013402Y009387D02*
X013402Y009463D01*
X013340Y009525D02*
X013265Y009525D01*
X013202Y009463D02*
X013202Y009387D01*
X013102Y009387D02*
X013102Y009463D01*
X013265Y009625D02*
X013340Y009625D01*
X013202Y009720D02*
X013202Y009925D01*
X013102Y009925D02*
X013102Y009706D01*
X012902Y010125D02*
X012382Y010125D01*
X012332Y010175D01*
X011815Y010425D02*
X011802Y010425D01*
X011802Y010412D02*
X011802Y010455D01*
X012097Y010455D01*
X012372Y010730D01*
X012372Y011120D01*
X012177Y011315D01*
X012628Y011315D01*
X012432Y011120D01*
X012432Y010730D01*
X012702Y010460D01*
X012702Y010445D01*
X011835Y010445D01*
X011802Y010412D01*
X011802Y010455D01*
X011902Y010445D02*
X011902Y010455D01*
X012002Y010445D02*
X012002Y010455D01*
X012102Y010445D02*
X012102Y010460D01*
X012167Y010525D02*
X012638Y010525D01*
X012602Y010560D02*
X012602Y010445D01*
X012502Y010445D02*
X012502Y010660D01*
X012538Y010625D02*
X012267Y010625D01*
X012302Y010660D02*
X012302Y010445D01*
X012202Y010445D02*
X012202Y010560D01*
X012402Y010445D02*
X012402Y011315D01*
X012302Y011315D02*
X012302Y011190D01*
X012267Y011225D02*
X012538Y011225D01*
X012502Y011190D02*
X012502Y011315D01*
X012602Y011315D02*
X012602Y011290D01*
X012438Y011125D02*
X012367Y011125D01*
X012372Y011025D02*
X012432Y011025D01*
X012432Y010925D02*
X012372Y010925D01*
X012372Y010825D02*
X012432Y010825D01*
X012438Y010725D02*
X012367Y010725D01*
X011902Y010925D02*
X011602Y010625D01*
X011602Y009725D01*
X011652Y009675D01*
X012332Y009675D01*
X011815Y009925D02*
X011802Y009925D01*
X011802Y009912D02*
X011802Y009938D01*
X011815Y009925D01*
X011802Y009912D01*
X011802Y009938D01*
X011402Y009925D02*
X011307Y009925D01*
X011302Y009937D02*
X011302Y010660D01*
X011267Y010625D02*
X011402Y010625D01*
X011402Y010525D02*
X011202Y010525D01*
X011202Y010560D02*
X011202Y010078D01*
X011202Y010125D02*
X011402Y010125D01*
X011402Y010225D02*
X011202Y010225D01*
X011202Y010325D02*
X011402Y010325D01*
X011402Y010425D02*
X011202Y010425D01*
X011255Y010025D02*
X011402Y010025D01*
X011402Y009825D02*
X011322Y009825D01*
X011255Y009625D02*
X011419Y009625D01*
X011202Y009572D02*
X011202Y008535D01*
X010702Y008915D02*
X010702Y008935D01*
X010602Y008935D02*
X010602Y008915D01*
X010502Y008915D02*
X010502Y008935D01*
X010402Y008935D02*
X010402Y008915D01*
X010282Y008825D02*
X010262Y008825D01*
X010402Y009165D02*
X010402Y009185D01*
X010502Y009185D02*
X010502Y009165D01*
X010602Y009165D02*
X010602Y009185D01*
X010702Y009185D02*
X010702Y009165D01*
X010823Y009525D02*
X010890Y009525D01*
X011002Y009825D02*
X011002Y010825D01*
X010902Y010925D01*
X010538Y010625D02*
X010267Y010625D01*
X010302Y010660D02*
X010302Y010415D01*
X010282Y010325D02*
X010262Y010325D01*
X010402Y010415D02*
X010402Y011315D01*
X010302Y011315D02*
X010302Y011190D01*
X010267Y011225D02*
X010538Y011225D01*
X010502Y011190D02*
X010502Y011315D01*
X010602Y011315D02*
X010602Y011290D01*
X010438Y011125D02*
X010367Y011125D01*
X010372Y011025D02*
X010432Y011025D01*
X010432Y010925D02*
X010372Y010925D01*
X010372Y010825D02*
X010432Y010825D01*
X010438Y010725D02*
X010367Y010725D01*
X010502Y010660D02*
X010502Y010415D01*
X010602Y010415D02*
X010602Y010560D01*
X010202Y011290D02*
X010202Y011315D01*
X010202Y011935D02*
X010202Y012245D01*
X010102Y012245D02*
X010102Y011935D01*
X010002Y011935D02*
X010002Y012245D01*
X009902Y012245D02*
X009902Y011935D01*
X009802Y011935D02*
X009802Y012245D01*
X009702Y012245D02*
X009702Y011935D01*
X009602Y011935D02*
X009602Y012245D01*
X009502Y012245D02*
X009502Y011935D01*
X009402Y011935D02*
X009402Y012245D01*
X009302Y012245D02*
X009302Y011935D01*
X009202Y011935D02*
X009202Y012245D01*
X009102Y012245D02*
X009102Y011935D01*
X009002Y011935D02*
X009002Y012245D01*
X008902Y012245D02*
X008902Y011935D01*
X008802Y011935D02*
X008802Y012245D01*
X008702Y012245D02*
X008702Y011935D01*
X008602Y011935D02*
X008602Y012245D01*
X008502Y012245D02*
X008502Y011935D01*
X008402Y011935D02*
X008402Y012245D01*
X008302Y012245D02*
X008302Y011935D01*
X008202Y011935D02*
X008202Y012245D01*
X008102Y012245D02*
X008102Y011935D01*
X008002Y011935D02*
X008002Y012245D01*
X007902Y012245D02*
X007902Y011935D01*
X007802Y011935D02*
X007802Y012245D01*
X007702Y012245D02*
X007702Y011935D01*
X007602Y011935D02*
X007602Y012245D01*
X007502Y012245D02*
X007502Y011935D01*
X007402Y011935D02*
X007402Y012245D01*
X007302Y012245D02*
X007302Y011935D01*
X007202Y011935D02*
X007202Y012245D01*
X007102Y012245D02*
X007102Y011935D01*
X007002Y011935D02*
X007002Y012245D01*
X006902Y012245D02*
X006902Y011935D01*
X006802Y011935D02*
X006802Y012245D01*
X006702Y012245D02*
X006702Y011935D01*
X006602Y011935D02*
X006602Y012245D01*
X006502Y012245D02*
X006502Y011935D01*
X006402Y011935D02*
X006402Y012245D01*
X006302Y012245D02*
X006302Y011935D01*
X006202Y011935D02*
X006202Y012245D01*
X006102Y012245D02*
X006102Y011935D01*
X006002Y011935D02*
X006002Y012245D01*
X005902Y012245D02*
X005902Y011935D01*
X005802Y011935D02*
X005802Y012245D01*
X005702Y012245D02*
X005702Y011935D01*
X005602Y011935D02*
X005602Y012245D01*
X005502Y012245D02*
X005502Y011935D01*
X005402Y011935D02*
X005402Y012245D01*
X005302Y012245D02*
X005302Y011935D01*
X005202Y011935D02*
X005202Y012245D01*
X005102Y012245D02*
X005102Y011935D01*
X005002Y011935D02*
X005002Y012245D01*
X004902Y012245D02*
X004902Y011935D01*
X004802Y011935D02*
X004802Y012245D01*
X004702Y012245D02*
X004702Y011935D01*
X004602Y011935D02*
X004602Y012245D01*
X004502Y012245D02*
X004502Y011935D01*
X004402Y011935D02*
X004402Y012245D01*
X004302Y012245D02*
X004302Y011935D01*
X004202Y011935D02*
X004202Y012245D01*
X004102Y012245D02*
X004102Y011935D01*
X004002Y011935D02*
X004002Y012245D01*
X003902Y012245D02*
X003902Y011935D01*
X003802Y011935D02*
X003802Y012245D01*
X003702Y012245D02*
X003702Y011935D01*
X003602Y011935D02*
X003602Y012245D01*
X003502Y012245D02*
X003502Y011935D01*
X003402Y011935D02*
X003402Y012245D01*
X003402Y012225D02*
X016302Y012225D01*
X016302Y012125D02*
X003402Y012125D01*
X003402Y012025D02*
X016302Y012025D01*
X016302Y011925D02*
X014014Y011925D01*
X014002Y011930D02*
X014002Y012245D01*
X013902Y012245D02*
X013902Y011945D01*
X013802Y011935D02*
X013802Y012245D01*
X013702Y012245D02*
X013702Y011935D01*
X013602Y011935D02*
X013602Y012245D01*
X013502Y012245D02*
X013502Y011935D01*
X013402Y011935D02*
X013402Y012245D01*
X013302Y012245D02*
X013302Y011935D01*
X013202Y011935D02*
X013202Y012245D01*
X013102Y012245D02*
X013102Y011935D01*
X013002Y011935D02*
X013002Y012245D01*
X012902Y012245D02*
X012902Y011935D01*
X012802Y011935D02*
X012802Y012245D01*
X012702Y012245D02*
X012702Y011935D01*
X012602Y011935D02*
X012602Y012245D01*
X012502Y012245D02*
X012502Y011935D01*
X012402Y011935D02*
X012402Y012245D01*
X012302Y012245D02*
X012302Y011935D01*
X012202Y011935D02*
X012202Y012245D01*
X012102Y012245D02*
X012102Y011935D01*
X012002Y011935D02*
X012002Y012245D01*
X011902Y012245D02*
X011902Y011935D01*
X011802Y011935D02*
X011802Y012245D01*
X011702Y012245D02*
X011702Y011935D01*
X011602Y011935D02*
X011602Y012245D01*
X011502Y012245D02*
X011502Y011935D01*
X011402Y011935D02*
X011402Y012245D01*
X011302Y012245D02*
X011302Y011935D01*
X011202Y011935D02*
X011202Y012245D01*
X011102Y012245D02*
X011102Y011935D01*
X011002Y011935D02*
X011002Y012245D01*
X010902Y012245D02*
X010902Y011935D01*
X010802Y011935D02*
X010802Y012245D01*
X010702Y012245D02*
X010702Y011935D01*
X010602Y011935D02*
X010602Y012245D01*
X010502Y012245D02*
X010502Y011935D01*
X010402Y011935D02*
X010402Y012245D01*
X010302Y012245D02*
X010302Y011935D01*
X011202Y011315D02*
X011202Y011290D01*
X012202Y011290D02*
X012202Y011315D01*
X012902Y010925D02*
X012902Y010125D01*
X013802Y010125D01*
X014102Y009825D01*
X014102Y009025D01*
X014422Y009025D02*
X015732Y009025D01*
X015732Y008925D02*
X014407Y008925D01*
X014402Y008913D02*
X014402Y008535D01*
X014302Y008535D02*
X014302Y008772D01*
X014355Y008825D02*
X015732Y008825D01*
X015751Y008725D02*
X014214Y008725D01*
X014202Y008720D02*
X014202Y008535D01*
X014102Y008535D02*
X014102Y008705D01*
X014002Y008720D02*
X014002Y008535D01*
X013902Y008535D02*
X013902Y008772D01*
X013850Y008825D02*
X013627Y008825D01*
X013627Y008725D02*
X013990Y008725D01*
X013802Y008913D02*
X013802Y008535D01*
X013702Y008535D02*
X013702Y009925D01*
X014085Y010125D02*
X015732Y010125D01*
X015732Y010225D02*
X013985Y010225D01*
X014002Y010208D02*
X014002Y010455D01*
X014097Y010455D02*
X013708Y010455D01*
X013432Y010730D01*
X013432Y011120D01*
X013628Y011315D01*
X013177Y011315D01*
X013372Y011120D01*
X013372Y010730D01*
X013102Y010460D01*
X013102Y010325D01*
X015732Y010325D01*
X015732Y010425D02*
X013102Y010425D01*
X013102Y010460D02*
X013102Y010325D01*
X013885Y010325D01*
X014185Y010025D01*
X014202Y010008D02*
X014202Y010560D01*
X014167Y010525D02*
X014680Y010525D01*
X014702Y010503D02*
X014702Y008535D01*
X014802Y008535D02*
X014802Y010485D01*
X014852Y010485D02*
X014720Y010485D01*
X014462Y010743D01*
X014462Y010875D01*
X014852Y010875D01*
X014852Y010975D01*
X014462Y010975D01*
X014462Y011107D01*
X014720Y011365D01*
X014852Y011365D01*
X014852Y010975D01*
X014952Y010975D01*
X014952Y011365D01*
X015084Y011365D01*
X015342Y011107D01*
X015342Y010975D01*
X014952Y010975D01*
X014952Y010875D01*
X014952Y010485D01*
X015084Y010485D01*
X015342Y010743D01*
X015342Y010875D01*
X014952Y010875D01*
X014852Y010875D01*
X014852Y010485D01*
X014852Y010525D02*
X014952Y010525D01*
X015002Y010485D02*
X015002Y008535D01*
X014902Y008535D02*
X014902Y010875D01*
X014852Y010825D02*
X014952Y010825D01*
X015002Y010875D02*
X015002Y010975D01*
X014952Y010925D02*
X015732Y010925D01*
X015702Y011013D02*
X015702Y008535D01*
X015602Y008535D02*
X015602Y012245D01*
X015502Y012245D02*
X015502Y008535D01*
X015402Y008535D02*
X015402Y012245D01*
X015302Y012245D02*
X015302Y011147D01*
X015324Y011125D02*
X015682Y011125D01*
X015697Y011025D02*
X015342Y011025D01*
X015302Y010975D02*
X015302Y010875D01*
X015342Y010825D02*
X015732Y010825D01*
X015732Y010725D02*
X015324Y010725D01*
X015302Y010703D02*
X015302Y008535D01*
X015202Y008535D02*
X015202Y010603D01*
X015224Y010625D02*
X015732Y010625D01*
X015732Y010525D02*
X015124Y010525D01*
X015102Y010503D02*
X015102Y008535D01*
X015802Y008535D02*
X015802Y008643D01*
X015820Y008625D02*
X013627Y008625D01*
X013602Y008588D02*
X013602Y008535D01*
X013627Y008925D02*
X013797Y008925D01*
X013782Y009025D02*
X013627Y009025D01*
X013583Y009225D02*
X013850Y009225D01*
X013902Y009325D02*
X013597Y009325D01*
X013502Y009387D02*
X013502Y009463D01*
X014355Y009225D02*
X015732Y009225D01*
X015732Y009125D02*
X014407Y009125D01*
X014402Y009137D02*
X014402Y012245D01*
X014302Y012245D02*
X014302Y011190D01*
X014267Y011225D02*
X014580Y011225D01*
X014602Y011247D02*
X014602Y012245D01*
X014502Y012245D02*
X014502Y011147D01*
X014480Y011125D02*
X014367Y011125D01*
X014372Y011025D02*
X014462Y011025D01*
X014502Y010975D02*
X014502Y010875D01*
X014462Y010825D02*
X014372Y010825D01*
X014372Y010730D02*
X014097Y010455D01*
X014102Y010460D02*
X014102Y010108D01*
X013902Y010308D02*
X013902Y010455D01*
X013802Y010455D02*
X013802Y010325D01*
X013702Y010325D02*
X013702Y010460D01*
X013638Y010525D02*
X013167Y010525D01*
X013202Y010560D02*
X013202Y010325D01*
X013302Y010325D02*
X013302Y010660D01*
X013267Y010625D02*
X013538Y010625D01*
X013502Y010660D02*
X013502Y010325D01*
X013402Y010325D02*
X013402Y011315D01*
X013302Y011315D02*
X013302Y011190D01*
X013267Y011225D02*
X013538Y011225D01*
X013502Y011190D02*
X013502Y011315D01*
X013602Y011315D02*
X013602Y011290D01*
X013438Y011125D02*
X013367Y011125D01*
X013372Y011025D02*
X013432Y011025D01*
X013432Y010925D02*
X013372Y010925D01*
X013372Y010825D02*
X013432Y010825D01*
X013438Y010725D02*
X013367Y010725D01*
X013602Y010560D02*
X013602Y010325D01*
X014372Y010925D02*
X014852Y010925D01*
X014802Y010875D02*
X014802Y010975D01*
X014852Y011025D02*
X014952Y011025D01*
X014902Y010975D02*
X014902Y012245D01*
X014802Y012245D02*
X014802Y011365D01*
X014852Y011325D02*
X014952Y011325D01*
X015002Y011365D02*
X015002Y012245D01*
X015102Y012245D02*
X015102Y011347D01*
X015124Y011325D02*
X015750Y011325D01*
X015802Y011378D02*
X015802Y012245D01*
X015702Y012245D02*
X015702Y011237D01*
X015697Y011225D02*
X015224Y011225D01*
X015202Y011247D02*
X015202Y012245D01*
X014702Y012245D02*
X014702Y011347D01*
X014680Y011325D02*
X014172Y011325D01*
X014202Y011290D02*
X014202Y011513D01*
X014207Y011525D02*
X016302Y011525D01*
X016302Y011425D02*
X016114Y011425D01*
X016102Y011430D02*
X016102Y012245D01*
X016002Y012245D02*
X016002Y011445D01*
X015902Y011430D02*
X015902Y012245D01*
X016202Y012245D02*
X016202Y011378D01*
X016255Y011325D02*
X016302Y011325D01*
X016302Y011013D02*
X016302Y009160D01*
X016282Y009140D01*
X016282Y008927D01*
X016272Y008937D01*
X016272Y010942D01*
X016273Y010944D01*
X016302Y011013D01*
X016302Y010925D02*
X016272Y010925D01*
X016272Y010825D02*
X016302Y010825D01*
X016302Y010725D02*
X016272Y010725D01*
X016272Y010625D02*
X016302Y010625D01*
X016302Y010525D02*
X016272Y010525D01*
X016272Y010425D02*
X016302Y010425D01*
X016302Y010325D02*
X016272Y010325D01*
X016272Y010225D02*
X016302Y010225D01*
X016302Y010125D02*
X016272Y010125D01*
X016272Y010025D02*
X016302Y010025D01*
X016302Y009925D02*
X016272Y009925D01*
X016272Y009825D02*
X016302Y009825D01*
X016302Y009725D02*
X016272Y009725D01*
X016272Y009625D02*
X016302Y009625D01*
X016302Y009525D02*
X016272Y009525D01*
X016272Y009425D02*
X016302Y009425D01*
X016302Y009325D02*
X016272Y009325D01*
X016272Y009225D02*
X016302Y009225D01*
X016282Y009125D02*
X016272Y009125D01*
X016272Y009025D02*
X016282Y009025D01*
X016802Y008925D02*
X017302Y008425D01*
X017302Y007525D01*
X017202Y007425D01*
X016202Y007425D01*
X016002Y007225D01*
X016255Y007025D02*
X016282Y007025D01*
X016255Y007025D01*
X016273Y007044D01*
X016282Y007065D01*
X016282Y007025D01*
X016302Y006625D02*
X016302Y006160D01*
X016282Y006140D01*
X016282Y006125D01*
X013985Y006125D01*
X013985Y006125D01*
X016282Y006125D01*
X016202Y006125D02*
X016202Y006625D01*
X016102Y006625D02*
X016102Y006125D01*
X016002Y006125D02*
X016002Y006625D01*
X015902Y006625D02*
X015902Y006125D01*
X015802Y006125D02*
X015802Y006625D01*
X015702Y006625D02*
X015702Y006125D01*
X015602Y006125D02*
X015602Y006625D01*
X015502Y006625D02*
X015502Y006125D01*
X015402Y006125D02*
X015402Y006625D01*
X015302Y006625D02*
X015302Y006125D01*
X015202Y006125D02*
X015202Y006625D01*
X015102Y006625D02*
X015102Y006125D01*
X015002Y006125D02*
X015002Y006625D01*
X014902Y006625D02*
X014902Y006125D01*
X014802Y006125D02*
X014802Y006625D01*
X014702Y006625D02*
X014702Y006125D01*
X014602Y006125D02*
X014602Y006625D01*
X014502Y006625D02*
X014502Y006125D01*
X014402Y006125D02*
X014402Y006625D01*
X014302Y006625D02*
X014302Y006125D01*
X014202Y006125D02*
X014202Y006625D01*
X014102Y006625D02*
X014102Y006125D01*
X014002Y006125D02*
X014002Y006142D01*
X013985Y006125D02*
X014102Y006242D01*
X014102Y006625D01*
X016302Y006625D01*
X016302Y006525D02*
X014102Y006525D01*
X014102Y006425D02*
X016302Y006425D01*
X016302Y006325D02*
X014102Y006325D01*
X014085Y006225D02*
X016302Y006225D01*
X016802Y005925D02*
X013802Y005925D01*
X013502Y005625D01*
X012402Y005625D01*
X012202Y005825D01*
X012522Y005825D02*
X012522Y005889D01*
X012507Y005925D01*
X012882Y005925D01*
X012882Y005861D01*
X012897Y005825D01*
X012522Y005825D01*
X012897Y005825D01*
X012802Y005825D02*
X012802Y005925D01*
X012702Y005925D02*
X012702Y005825D01*
X012602Y005825D02*
X012602Y005925D01*
X012902Y006125D02*
X013102Y006325D01*
X013402Y006325D01*
X013502Y006425D01*
X013390Y006725D02*
X013307Y006725D01*
X013302Y006737D02*
X013302Y006925D01*
X013202Y006925D02*
X013202Y006878D01*
X013183Y006896D02*
X013114Y006925D01*
X013819Y006925D01*
X013802Y006908D01*
X013802Y006925D01*
X013802Y006908D02*
X013702Y006808D01*
X013702Y006925D01*
X013602Y006925D02*
X013602Y006730D01*
X013614Y006725D02*
X013702Y006725D01*
X013683Y006696D02*
X013702Y006678D01*
X013702Y006808D01*
X013719Y006825D02*
X013255Y006825D01*
X013273Y006806D02*
X013183Y006896D01*
X013273Y006806D02*
X013320Y006695D01*
X013321Y006696D01*
X013439Y006745D01*
X013566Y006745D01*
X013683Y006696D01*
X013502Y006745D02*
X013502Y006925D01*
X013402Y006925D02*
X013402Y006730D01*
X013002Y006625D02*
X012702Y006325D01*
X009602Y006325D01*
X009502Y006225D01*
X008002Y006225D01*
X007702Y005925D01*
X006402Y004725D01*
X005102Y004725D01*
X005355Y004925D02*
X006324Y004925D01*
X005355Y004925D01*
X005283Y004996D01*
X005214Y005025D01*
X005283Y005054D01*
X005355Y005125D01*
X006541Y005125D01*
X006324Y004925D01*
X006302Y004925D02*
X006302Y005125D01*
X006202Y005125D02*
X006202Y004925D01*
X006102Y004925D02*
X006102Y005125D01*
X006002Y005125D02*
X006002Y004925D01*
X005902Y004925D02*
X005902Y005125D01*
X005802Y005125D02*
X005802Y004925D01*
X005702Y004925D02*
X005702Y005125D01*
X005602Y005125D02*
X005602Y004925D01*
X005502Y004925D02*
X005502Y005125D01*
X005402Y005125D02*
X005402Y004925D01*
X005302Y004978D02*
X005302Y005072D01*
X005214Y005025D02*
X006432Y005025D01*
X006402Y004997D02*
X006402Y005125D01*
X006502Y005125D02*
X006502Y005089D01*
X006602Y005325D02*
X007702Y006425D01*
X009302Y006425D01*
X009402Y006525D01*
X012302Y006525D01*
X012602Y006825D01*
X012602Y007325D02*
X012602Y007915D01*
X012502Y007915D02*
X012502Y007325D01*
X012402Y007325D02*
X012402Y007915D01*
X012302Y007915D02*
X012302Y007325D01*
X012202Y007325D02*
X012202Y007915D01*
X012102Y007915D02*
X012102Y007325D01*
X012055Y007325D02*
X011983Y007396D01*
X011866Y007445D01*
X011739Y007445D01*
X011621Y007396D01*
X011531Y007306D01*
X011482Y007189D01*
X011482Y007061D01*
X011531Y006944D01*
X011540Y006935D01*
X009311Y006935D01*
X009322Y006961D01*
X009322Y007089D01*
X009273Y007206D01*
X009272Y007208D01*
X009272Y007915D01*
X013464Y007915D01*
X015914Y007915D01*
X015939Y007905D01*
X016066Y007905D01*
X016183Y007954D01*
X016273Y008044D01*
X016282Y008064D01*
X016282Y008063D01*
X016282Y007710D01*
X016302Y007690D01*
X016302Y007625D01*
X009272Y007625D01*
X009272Y007525D02*
X015890Y007525D01*
X015902Y007530D02*
X015902Y007915D01*
X015802Y007915D02*
X015802Y007478D01*
X015821Y007496D02*
X015731Y007406D01*
X015682Y007289D01*
X015682Y007161D01*
X015731Y007044D01*
X015750Y007025D01*
X015207Y007025D01*
X015750Y007025D01*
X015702Y007025D02*
X015702Y007113D01*
X015697Y007125D02*
X015222Y007125D01*
X015222Y007061D02*
X015222Y007189D01*
X015173Y007306D01*
X015083Y007396D01*
X014966Y007445D01*
X014839Y007445D01*
X014721Y007396D01*
X014650Y007325D01*
X012055Y007325D01*
X014650Y007325D01*
X014602Y007325D02*
X014602Y007915D01*
X014502Y007915D02*
X014502Y007325D01*
X014402Y007325D02*
X014402Y007915D01*
X014302Y007915D02*
X014302Y007325D01*
X014202Y007325D02*
X014202Y007915D01*
X014102Y007915D02*
X014102Y007325D01*
X014002Y007325D02*
X014002Y007915D01*
X013902Y007915D02*
X013902Y007325D01*
X013802Y007325D02*
X013802Y007915D01*
X013702Y007915D02*
X013702Y007325D01*
X013602Y007325D02*
X013602Y007915D01*
X013502Y007915D02*
X013502Y007325D01*
X013402Y007325D02*
X013402Y007915D01*
X013302Y007915D02*
X013302Y007325D01*
X013202Y007325D02*
X013202Y007915D01*
X013102Y007915D02*
X013102Y007325D01*
X013002Y007325D02*
X013002Y007915D01*
X012902Y007915D02*
X012902Y007325D01*
X012802Y007325D02*
X012802Y007915D01*
X012702Y007915D02*
X012702Y007325D01*
X012002Y007378D02*
X012002Y007915D01*
X011902Y007915D02*
X011902Y007430D01*
X011914Y007425D02*
X014790Y007425D01*
X014802Y007430D02*
X014802Y007915D01*
X014702Y007915D02*
X014702Y007378D01*
X014902Y007445D02*
X014902Y007915D01*
X015002Y007915D02*
X015002Y007430D01*
X015014Y007425D02*
X015750Y007425D01*
X015702Y007337D02*
X015702Y007915D01*
X015602Y007915D02*
X015602Y007025D01*
X015502Y007025D02*
X015502Y007915D01*
X015402Y007915D02*
X015402Y007025D01*
X015302Y007025D02*
X015302Y007915D01*
X015202Y007915D02*
X015202Y007237D01*
X015207Y007225D02*
X015682Y007225D01*
X015697Y007325D02*
X015155Y007325D01*
X015102Y007378D02*
X015102Y007915D01*
X015821Y007496D02*
X015939Y007545D01*
X016039Y007545D01*
X016119Y007625D01*
X016302Y007625D01*
X016202Y007625D02*
X016202Y007972D01*
X016255Y008025D02*
X016282Y008025D01*
X016282Y007925D02*
X016114Y007925D01*
X016102Y007920D02*
X016102Y007608D01*
X016002Y007545D02*
X016002Y007905D01*
X016282Y007825D02*
X009272Y007825D01*
X009302Y007915D02*
X009302Y007137D01*
X009307Y007125D02*
X011482Y007125D01*
X011497Y007025D02*
X009322Y007025D01*
X009402Y006935D02*
X009402Y007915D01*
X009502Y007915D02*
X009502Y006935D01*
X009602Y006935D02*
X009602Y007915D01*
X009702Y007915D02*
X009702Y006935D01*
X009802Y006935D02*
X009802Y007915D01*
X009902Y007915D02*
X009902Y006935D01*
X010002Y006935D02*
X010002Y007915D01*
X010102Y007915D02*
X010102Y006935D01*
X010202Y006935D02*
X010202Y007915D01*
X010302Y007915D02*
X010302Y006935D01*
X010402Y006935D02*
X010402Y007915D01*
X010502Y007915D02*
X010502Y006935D01*
X010602Y006935D02*
X010602Y007915D01*
X010702Y007915D02*
X010702Y006935D01*
X010802Y006935D02*
X010802Y007915D01*
X010902Y007915D02*
X010902Y006935D01*
X011002Y006935D02*
X011002Y007915D01*
X011102Y007915D02*
X011102Y006935D01*
X011202Y006935D02*
X011202Y007915D01*
X011302Y007915D02*
X011302Y006935D01*
X011402Y006935D02*
X011402Y007915D01*
X011502Y007915D02*
X011502Y007237D01*
X011497Y007225D02*
X009272Y007225D01*
X009272Y007325D02*
X011550Y007325D01*
X011602Y007378D02*
X011602Y007915D01*
X011702Y007915D02*
X011702Y007430D01*
X011690Y007425D02*
X009272Y007425D01*
X009272Y007725D02*
X016282Y007725D01*
X015222Y007061D02*
X015207Y007025D01*
X014902Y007125D02*
X011802Y007125D01*
X011502Y007013D02*
X011502Y006935D01*
X011802Y007445D02*
X011802Y007915D01*
X013902Y006725D02*
X014002Y006825D01*
X016702Y006825D01*
X016802Y006925D01*
X017802Y005925D02*
X017302Y005425D01*
X017302Y004525D01*
X017202Y004425D01*
X016502Y004425D01*
X016102Y003925D01*
X015202Y003925D01*
X014882Y003925D02*
X014614Y003925D01*
X014602Y003930D02*
X014602Y004320D01*
X014614Y004325D02*
X016166Y004325D01*
X016202Y004370D02*
X016202Y004820D01*
X016214Y004825D02*
X016282Y004825D01*
X016282Y004853D02*
X016282Y004710D01*
X016302Y004690D01*
X016302Y004495D01*
X016006Y004125D01*
X015455Y004125D01*
X015383Y004196D01*
X015266Y004245D01*
X015139Y004245D01*
X015021Y004196D01*
X014931Y004106D01*
X014882Y003989D01*
X014882Y003861D01*
X014897Y003825D01*
X014755Y003825D01*
X014683Y003896D01*
X014566Y003945D01*
X014439Y003945D01*
X014402Y003930D01*
X014402Y004242D01*
X014465Y004305D01*
X014566Y004305D01*
X014683Y004354D01*
X014773Y004444D01*
X014822Y004561D01*
X014822Y004689D01*
X014773Y004806D01*
X014730Y004850D01*
X014839Y004805D01*
X014966Y004805D01*
X015083Y004854D01*
X015155Y004925D01*
X015850Y004925D01*
X015921Y004854D01*
X016039Y004805D01*
X016166Y004805D01*
X016282Y004853D01*
X016282Y004725D02*
X014807Y004725D01*
X014802Y004737D02*
X014802Y004820D01*
X014790Y004825D02*
X014755Y004825D01*
X014675Y004900D02*
X014566Y004945D01*
X014439Y004945D01*
X014321Y004896D01*
X014252Y004828D01*
X014183Y004896D01*
X014066Y004945D01*
X013939Y004945D01*
X013911Y004933D01*
X013922Y004961D01*
X013922Y005089D01*
X013873Y005206D01*
X013820Y005260D01*
X013902Y005342D01*
X013985Y005425D01*
X014790Y005425D01*
X014721Y005396D01*
X014631Y005306D01*
X014582Y005189D01*
X014582Y005061D01*
X014631Y004944D01*
X014675Y004900D01*
X014650Y004925D02*
X014614Y004925D01*
X014602Y004930D02*
X014602Y005013D01*
X014597Y005025D02*
X013922Y005025D01*
X013907Y005125D02*
X014582Y005125D01*
X014597Y005225D02*
X013855Y005225D01*
X013902Y005137D02*
X013902Y005342D01*
X013885Y005325D02*
X014650Y005325D01*
X014702Y005378D02*
X014702Y005425D01*
X014602Y005425D02*
X014602Y005237D01*
X014502Y005425D02*
X014502Y004945D01*
X014402Y004930D02*
X014402Y005425D01*
X014302Y005425D02*
X014302Y004878D01*
X014202Y004878D02*
X014202Y005425D01*
X014102Y005425D02*
X014102Y004930D01*
X014114Y004925D02*
X014390Y004925D01*
X014502Y004625D02*
X014202Y004325D01*
X014202Y002925D01*
X014402Y002725D01*
X016202Y002725D01*
X016602Y002325D01*
X018302Y002325D01*
X018302Y008425D01*
X017802Y008925D01*
X015902Y008543D02*
X015902Y008535D01*
X013902Y006725D02*
X013902Y006325D01*
X013502Y005925D01*
X013202Y005925D01*
X012902Y006125D02*
X009802Y006125D01*
X009702Y006025D01*
X008202Y006025D01*
X006302Y004125D01*
X005102Y004125D01*
X005355Y004325D02*
X006219Y004325D01*
X006419Y004524D01*
X006398Y004525D01*
X005355Y004525D01*
X005283Y004454D01*
X005214Y004425D01*
X006319Y004425D01*
X006302Y004408D02*
X006302Y004525D01*
X006202Y004525D02*
X006202Y004325D01*
X006219Y004325D02*
X005355Y004325D01*
X005283Y004396D01*
X005214Y004425D01*
X005302Y004378D02*
X005302Y004472D01*
X005402Y004525D02*
X005402Y004325D01*
X005502Y004325D02*
X005502Y004525D01*
X005602Y004525D02*
X005602Y004325D01*
X005702Y004325D02*
X005702Y004525D01*
X005802Y004525D02*
X005802Y004325D01*
X005902Y004325D02*
X005902Y004525D01*
X006002Y004525D02*
X006002Y004325D01*
X006102Y004325D02*
X006102Y004525D01*
X006402Y004508D02*
X006402Y004525D01*
X006685Y004225D02*
X013502Y004225D01*
X013502Y004325D02*
X006785Y004325D01*
X006802Y004342D02*
X006802Y003330D01*
X006814Y003325D02*
X010850Y003325D01*
X010831Y003344D02*
X010921Y003254D01*
X010990Y003225D01*
X006955Y003225D01*
X006973Y003206D02*
X006883Y003296D01*
X006766Y003345D01*
X006639Y003345D01*
X006521Y003296D01*
X006431Y003206D01*
X006426Y003195D01*
X003402Y003195D01*
X003402Y005915D01*
X003402Y003195D01*
X003402Y003225D02*
X006450Y003225D01*
X006402Y003195D02*
X006402Y003942D01*
X006385Y003925D02*
X007950Y003925D01*
X007931Y003906D02*
X007882Y003789D01*
X007882Y003661D01*
X007931Y003544D01*
X008021Y003454D01*
X008139Y003405D01*
X008266Y003405D01*
X008383Y003454D01*
X008473Y003544D01*
X008522Y003661D01*
X008522Y003789D01*
X008473Y003906D01*
X008383Y003996D01*
X008266Y004045D01*
X008139Y004045D01*
X008021Y003996D01*
X007931Y003906D01*
X007902Y003837D02*
X007902Y004905D01*
X007839Y004905D02*
X007966Y004905D01*
X008083Y004954D01*
X008173Y005044D01*
X008222Y005161D01*
X008222Y005289D01*
X008173Y005406D01*
X008083Y005496D01*
X007994Y005534D01*
X008285Y005825D01*
X009785Y005825D01*
X011690Y005825D01*
X011702Y005830D02*
X011702Y005925D01*
X011739Y005845D02*
X011621Y005796D01*
X011531Y005706D01*
X011482Y005589D01*
X011482Y005461D01*
X011531Y005344D01*
X011621Y005254D01*
X011739Y005205D01*
X011866Y005205D01*
X011914Y005225D01*
X013350Y005225D01*
X013331Y005206D01*
X013282Y005089D01*
X013282Y004961D01*
X013331Y004844D01*
X013421Y004754D01*
X013502Y004720D01*
X013502Y003878D01*
X013431Y003806D01*
X013382Y003689D01*
X013382Y003561D01*
X013394Y003533D01*
X013366Y003545D01*
X013239Y003545D01*
X013121Y003496D01*
X013050Y003425D01*
X012985Y003425D01*
X012964Y003446D01*
X012983Y003454D01*
X013073Y003544D01*
X013122Y003661D01*
X013122Y003789D01*
X013073Y003906D01*
X012983Y003996D01*
X012866Y004045D01*
X012739Y004045D01*
X012621Y003996D01*
X012550Y003925D01*
X011349Y003925D01*
X011318Y003941D01*
X011270Y003925D01*
X008455Y003925D01*
X008402Y003978D02*
X008402Y005825D01*
X008302Y005825D02*
X008302Y004030D01*
X008314Y004025D02*
X012690Y004025D01*
X012702Y004030D02*
X012702Y005225D01*
X012602Y005225D02*
X012602Y003978D01*
X012550Y003925D02*
X011349Y003925D01*
X011302Y003936D02*
X011302Y005925D01*
X011202Y005925D02*
X011202Y003908D01*
X011194Y003900D02*
X011160Y003889D01*
X011139Y003845D01*
X011039Y003845D01*
X010921Y003796D01*
X010831Y003706D01*
X010782Y003589D01*
X010782Y003461D01*
X010831Y003344D01*
X010802Y003413D02*
X010802Y003037D01*
X010797Y003025D02*
X008055Y003025D01*
X008073Y003006D02*
X007983Y003096D01*
X007866Y003145D01*
X007739Y003145D01*
X007621Y003096D01*
X007550Y003025D01*
X007022Y003025D01*
X007022Y003089D01*
X006973Y003206D01*
X007002Y003137D02*
X007002Y004542D01*
X006985Y004525D02*
X013502Y004525D01*
X013502Y004425D02*
X006885Y004425D01*
X006902Y004442D02*
X006902Y003278D01*
X007007Y003125D02*
X007690Y003125D01*
X007702Y003130D02*
X007702Y004972D01*
X007721Y004954D02*
X007839Y004905D01*
X007802Y004920D02*
X007802Y003145D01*
X007902Y003130D02*
X007902Y003613D01*
X007897Y003625D02*
X003402Y003625D01*
X003402Y003525D02*
X007950Y003525D01*
X008002Y003472D02*
X008002Y003078D01*
X007914Y003125D02*
X010850Y003125D01*
X010831Y003106D02*
X010782Y002989D01*
X010782Y002861D01*
X010797Y002825D01*
X008122Y002825D01*
X008122Y002889D01*
X008073Y003006D01*
X008102Y002937D02*
X008102Y003420D01*
X008090Y003425D02*
X003402Y003425D01*
X003402Y003325D02*
X006590Y003325D01*
X006602Y003330D02*
X006602Y004142D01*
X006585Y004125D02*
X013502Y004125D01*
X013502Y004025D02*
X012914Y004025D01*
X012902Y004030D02*
X012902Y005225D01*
X012802Y005225D02*
X012802Y004045D01*
X013002Y003978D02*
X013002Y005225D01*
X013102Y005225D02*
X013102Y003837D01*
X013107Y003825D02*
X013450Y003825D01*
X013402Y003737D02*
X013402Y004772D01*
X013350Y004825D02*
X007285Y004825D01*
X007302Y004842D02*
X007302Y003025D01*
X007202Y003025D02*
X007202Y004742D01*
X007185Y004725D02*
X013490Y004725D01*
X013502Y004625D02*
X007085Y004625D01*
X007102Y004642D02*
X007102Y003025D01*
X007022Y003025D02*
X007550Y003025D01*
X007502Y003025D02*
X007502Y005042D01*
X007485Y005025D02*
X007650Y005025D01*
X007631Y005044D02*
X007721Y004954D01*
X007790Y004925D02*
X007385Y004925D01*
X007402Y004942D02*
X007402Y003025D01*
X007602Y003078D02*
X007602Y005113D01*
X007597Y005125D02*
X007585Y005125D01*
X007594Y005134D02*
X007631Y005044D01*
X007594Y005134D02*
X006385Y003925D01*
X005355Y003925D01*
X005283Y003854D01*
X005166Y003805D01*
X005039Y003805D01*
X004921Y003854D01*
X004831Y003944D01*
X004782Y004061D01*
X004782Y004189D01*
X004831Y004306D01*
X004921Y004396D01*
X004990Y004425D01*
X003402Y004425D01*
X003402Y004325D02*
X004850Y004325D01*
X004902Y004378D02*
X004902Y004472D01*
X004921Y004454D02*
X004990Y004425D01*
X004921Y004454D02*
X004831Y004544D01*
X004782Y004661D01*
X004782Y004789D01*
X004831Y004906D01*
X004921Y004996D01*
X004990Y005025D01*
X003402Y005025D01*
X003402Y004925D02*
X004850Y004925D01*
X004902Y004978D02*
X004902Y005072D01*
X004921Y005054D02*
X004990Y005025D01*
X004921Y005054D02*
X004831Y005144D01*
X004782Y005261D01*
X004782Y005389D01*
X004831Y005506D01*
X004900Y005575D01*
X004831Y005644D01*
X004782Y005761D01*
X004782Y005889D01*
X004793Y005915D01*
X003402Y005915D01*
X003402Y005825D02*
X004782Y005825D01*
X004797Y005725D02*
X003402Y005725D01*
X003402Y005625D02*
X004850Y005625D01*
X004850Y005525D02*
X003402Y005525D01*
X003402Y005425D02*
X004797Y005425D01*
X004802Y005437D02*
X004802Y005713D01*
X004702Y005915D02*
X004702Y003195D01*
X004602Y003195D02*
X004602Y005915D01*
X004502Y005915D02*
X004502Y003195D01*
X004402Y003195D02*
X004402Y005915D01*
X004302Y005915D02*
X004302Y003195D01*
X004202Y003195D02*
X004202Y005915D01*
X004102Y005915D02*
X004102Y003195D01*
X004002Y003195D02*
X004002Y005915D01*
X003902Y005915D02*
X003902Y003195D01*
X003802Y003195D02*
X003802Y005915D01*
X003702Y005915D02*
X003702Y003195D01*
X003602Y003195D02*
X003602Y005915D01*
X003502Y005915D02*
X003502Y003195D01*
X003402Y003725D02*
X007882Y003725D01*
X007897Y003825D02*
X005214Y003825D01*
X005202Y003820D02*
X005202Y003195D01*
X005102Y003195D02*
X005102Y003805D01*
X005002Y003820D02*
X005002Y003195D01*
X004902Y003195D02*
X004902Y003872D01*
X004850Y003925D02*
X003402Y003925D01*
X003402Y003825D02*
X004990Y003825D01*
X004802Y004013D02*
X004802Y003195D01*
X005302Y003195D02*
X005302Y003872D01*
X005402Y003925D02*
X005402Y003195D01*
X005502Y003195D02*
X005502Y003925D01*
X005602Y003925D02*
X005602Y003195D01*
X005702Y003195D02*
X005702Y003925D01*
X005802Y003925D02*
X005802Y003195D01*
X005902Y003195D02*
X005902Y003925D01*
X006002Y003925D02*
X006002Y003195D01*
X006102Y003195D02*
X006102Y003925D01*
X006202Y003925D02*
X006202Y003195D01*
X006302Y003195D02*
X006302Y003925D01*
X006485Y004025D02*
X008090Y004025D01*
X008102Y004030D02*
X008102Y004972D01*
X008155Y005025D02*
X013282Y005025D01*
X013297Y004925D02*
X008014Y004925D01*
X008002Y004920D02*
X008002Y003978D01*
X008202Y004045D02*
X008202Y005113D01*
X008207Y005125D02*
X013297Y005125D01*
X013302Y005137D02*
X013302Y005225D01*
X013202Y005225D02*
X013202Y003530D01*
X013190Y003525D02*
X013055Y003525D01*
X013102Y003478D02*
X013102Y003613D01*
X013107Y003625D02*
X013382Y003625D01*
X013397Y003725D02*
X013122Y003725D01*
X013055Y003925D02*
X013502Y003925D01*
X013702Y003625D02*
X013702Y004925D01*
X013602Y005025D01*
X013302Y004913D02*
X013302Y003545D01*
X013050Y003425D02*
X012985Y003425D01*
X013002Y003425D02*
X013002Y003472D01*
X012902Y003225D02*
X012702Y003425D01*
X011602Y003425D01*
X011102Y002925D01*
X011422Y002925D02*
X011619Y002925D01*
X011602Y002908D02*
X011602Y003142D01*
X011585Y003125D02*
X011819Y003125D01*
X011802Y003108D02*
X011802Y003225D01*
X011702Y003225D02*
X011702Y003008D01*
X011719Y003025D02*
X011485Y003025D01*
X011502Y003042D02*
X011502Y002825D01*
X011519Y002825D02*
X011407Y002825D01*
X011519Y002825D01*
X011919Y003225D01*
X011685Y003225D01*
X011422Y002962D01*
X011422Y002861D01*
X011407Y002825D01*
X011602Y002625D02*
X008102Y002625D01*
X008002Y002525D01*
X007002Y002525D01*
X006902Y002425D01*
X006002Y002425D01*
X005902Y002325D01*
X005902Y001925D01*
X006372Y001925D02*
X006432Y001925D01*
X006432Y002025D02*
X006372Y002025D01*
X006372Y002120D02*
X006267Y002225D01*
X006538Y002225D01*
X006432Y002120D01*
X006432Y001730D01*
X006708Y001455D01*
X007097Y001455D01*
X007372Y001730D01*
X007372Y002120D01*
X007167Y002325D01*
X007638Y002325D01*
X007432Y002120D01*
X007432Y001730D01*
X007708Y001455D01*
X008097Y001455D01*
X008372Y001730D01*
X008372Y002120D01*
X008126Y002366D01*
X008185Y002425D01*
X009719Y002425D01*
X009702Y002408D01*
X009702Y002425D01*
X009702Y002408D02*
X009702Y002390D01*
X009432Y002120D01*
X009432Y001730D01*
X009708Y001455D01*
X010097Y001455D01*
X010372Y001730D01*
X010372Y002120D01*
X010267Y002225D01*
X010538Y002225D01*
X010432Y002120D01*
X010432Y001730D01*
X010708Y001455D01*
X011089Y001455D01*
X011149Y001395D01*
X003614Y001395D01*
X003572Y001437D01*
X003572Y001455D01*
X004284Y001455D01*
X004372Y001543D01*
X004372Y002307D01*
X004284Y002395D01*
X003572Y002395D01*
X003572Y002655D01*
X004749Y002655D01*
X004702Y002608D01*
X004702Y002655D01*
X004719Y002625D02*
X003572Y002625D01*
X003602Y002655D02*
X003602Y002395D01*
X003572Y002425D02*
X004702Y002425D01*
X004702Y002390D02*
X004432Y002120D01*
X004432Y001730D01*
X004708Y001455D01*
X005097Y001455D01*
X005372Y001730D01*
X005372Y002120D01*
X005102Y002390D01*
X005102Y002425D01*
X005719Y002425D01*
X005702Y002408D01*
X005702Y002425D01*
X005702Y002408D02*
X005702Y002390D01*
X005432Y002120D01*
X005432Y001730D01*
X005708Y001455D01*
X006097Y001455D01*
X006372Y001730D01*
X006372Y002120D01*
X006367Y002125D02*
X006438Y002125D01*
X006502Y002190D02*
X006502Y002225D01*
X006402Y002225D02*
X006402Y001395D01*
X006302Y001395D02*
X006302Y001660D01*
X006267Y001625D02*
X006538Y001625D01*
X006502Y001660D02*
X006502Y001395D01*
X006602Y001395D02*
X006602Y001560D01*
X006638Y001525D02*
X006167Y001525D01*
X006202Y001560D02*
X006202Y001395D01*
X006102Y001395D02*
X006102Y001460D01*
X006002Y001455D02*
X006002Y001395D01*
X005902Y001395D02*
X005902Y001455D01*
X005802Y001455D02*
X005802Y001395D01*
X005702Y001395D02*
X005702Y001460D01*
X005638Y001525D02*
X005167Y001525D01*
X005202Y001560D02*
X005202Y001395D01*
X005102Y001395D02*
X005102Y001460D01*
X005002Y001455D02*
X005002Y001395D01*
X004902Y001395D02*
X004902Y001455D01*
X004802Y001455D02*
X004802Y001395D01*
X004702Y001395D02*
X004702Y001460D01*
X004638Y001525D02*
X004354Y001525D01*
X004302Y001473D02*
X004302Y001395D01*
X004202Y001395D02*
X004202Y001455D01*
X004102Y001455D02*
X004102Y001395D01*
X004002Y001395D02*
X004002Y001455D01*
X003902Y001455D02*
X003902Y001395D01*
X003802Y001395D02*
X003802Y001455D01*
X003702Y001455D02*
X003702Y001395D01*
X003602Y001407D02*
X003602Y001455D01*
X003584Y001425D02*
X011119Y001425D01*
X011102Y001442D02*
X011102Y001395D01*
X011002Y001395D02*
X011002Y001455D01*
X010902Y001455D02*
X010902Y001395D01*
X010802Y001395D02*
X010802Y001455D01*
X010702Y001460D02*
X010702Y001395D01*
X010602Y001395D02*
X010602Y001560D01*
X010638Y001525D02*
X010167Y001525D01*
X010202Y001560D02*
X010202Y001395D01*
X010102Y001395D02*
X010102Y001460D01*
X010002Y001455D02*
X010002Y001395D01*
X009902Y001395D02*
X009902Y001455D01*
X009802Y001455D02*
X009802Y001395D01*
X009702Y001395D02*
X009702Y001460D01*
X009638Y001525D02*
X009167Y001525D01*
X009202Y001560D02*
X009202Y001395D01*
X009102Y001395D02*
X009102Y001460D01*
X009097Y001455D02*
X009372Y001730D01*
X009372Y002120D01*
X009097Y002395D01*
X008708Y002395D01*
X008432Y002120D01*
X008432Y001730D01*
X008708Y001455D01*
X009097Y001455D01*
X009002Y001455D02*
X009002Y001395D01*
X008902Y001395D02*
X008902Y001455D01*
X008802Y001455D02*
X008802Y001395D01*
X008702Y001395D02*
X008702Y001460D01*
X008638Y001525D02*
X008167Y001525D01*
X008202Y001560D02*
X008202Y001395D01*
X008102Y001395D02*
X008102Y001460D01*
X008002Y001455D02*
X008002Y001395D01*
X007902Y001395D02*
X007902Y001455D01*
X007802Y001455D02*
X007802Y001395D01*
X007702Y001395D02*
X007702Y001460D01*
X007638Y001525D02*
X007167Y001525D01*
X007202Y001560D02*
X007202Y001395D01*
X007102Y001395D02*
X007102Y001460D01*
X007002Y001455D02*
X007002Y001395D01*
X006902Y001395D02*
X006902Y001455D01*
X006802Y001455D02*
X006802Y001395D01*
X006702Y001395D02*
X006702Y001460D01*
X006438Y001725D02*
X006367Y001725D01*
X006372Y001825D02*
X006432Y001825D01*
X006302Y002190D02*
X006302Y002225D01*
X006802Y002625D02*
X005002Y002625D01*
X004902Y002525D01*
X004902Y001925D01*
X005372Y001925D02*
X005432Y001925D01*
X005432Y002025D02*
X005372Y002025D01*
X005367Y002125D02*
X005438Y002125D01*
X005502Y002190D02*
X005502Y002425D01*
X005402Y002425D02*
X005402Y001395D01*
X005302Y001395D02*
X005302Y001660D01*
X005267Y001625D02*
X005538Y001625D01*
X005502Y001660D02*
X005502Y001395D01*
X005602Y001395D02*
X005602Y001560D01*
X005438Y001725D02*
X005367Y001725D01*
X005372Y001825D02*
X005432Y001825D01*
X005302Y002190D02*
X005302Y002425D01*
X005202Y002425D02*
X005202Y002290D01*
X005167Y002325D02*
X005638Y002325D01*
X005602Y002290D02*
X005602Y002425D01*
X005538Y002225D02*
X005267Y002225D01*
X005102Y002390D02*
X005102Y002425D01*
X004702Y002390D02*
X004702Y002608D01*
X004702Y002525D02*
X003572Y002525D01*
X003702Y002395D02*
X003702Y002655D01*
X003802Y002655D02*
X003802Y002395D01*
X003902Y002395D02*
X003902Y002655D01*
X004002Y002655D02*
X004002Y002395D01*
X004102Y002395D02*
X004102Y002655D01*
X004202Y002655D02*
X004202Y002395D01*
X004302Y002377D02*
X004302Y002655D01*
X004402Y002655D02*
X004402Y001395D01*
X004502Y001395D02*
X004502Y001660D01*
X004538Y001625D02*
X004372Y001625D01*
X004372Y001725D02*
X004438Y001725D01*
X004432Y001825D02*
X004372Y001825D01*
X004372Y001925D02*
X004432Y001925D01*
X004432Y002025D02*
X004372Y002025D01*
X004372Y002125D02*
X004438Y002125D01*
X004502Y002190D02*
X004502Y002655D01*
X004602Y002655D02*
X004602Y002290D01*
X004638Y002325D02*
X004354Y002325D01*
X004372Y002225D02*
X004538Y002225D01*
X004602Y001560D02*
X004602Y001395D01*
X004602Y000855D02*
X004602Y000605D01*
X004502Y000605D02*
X004502Y000855D01*
X004402Y000855D02*
X004402Y000605D01*
X004302Y000605D02*
X004302Y000855D01*
X004202Y000855D02*
X004202Y000605D01*
X004102Y000605D02*
X004102Y000855D01*
X004002Y000855D02*
X004002Y000605D01*
X003902Y000605D02*
X003902Y000855D01*
X003802Y000855D02*
X003802Y000605D01*
X003702Y000605D02*
X003702Y000855D01*
X003602Y000855D02*
X003602Y000605D01*
X003502Y000605D02*
X003502Y000855D01*
X003448Y000855D02*
X013956Y000855D01*
X014055Y000896D01*
X014131Y000972D01*
X014172Y001071D01*
X014172Y001179D01*
X014172Y001530D01*
X014372Y001730D01*
X014372Y002120D01*
X014211Y002281D01*
X014273Y002344D01*
X014322Y002461D01*
X014322Y002525D01*
X016119Y002525D01*
X016302Y002342D01*
X016302Y000605D01*
X003402Y000605D01*
X003402Y000874D01*
X003448Y000855D01*
X003402Y000874D02*
X003402Y000605D01*
X003402Y000625D02*
X016302Y000625D01*
X016302Y000725D02*
X003402Y000725D01*
X003402Y000825D02*
X016302Y000825D01*
X016302Y000925D02*
X014084Y000925D01*
X014102Y000943D02*
X014102Y000605D01*
X014002Y000605D02*
X014002Y000874D01*
X013902Y000855D02*
X013902Y000605D01*
X013802Y000605D02*
X013802Y000855D01*
X013702Y000855D02*
X013702Y000605D01*
X013602Y000605D02*
X013602Y000855D01*
X013502Y000855D02*
X013502Y000605D01*
X013402Y000605D02*
X013402Y000855D01*
X013302Y000855D02*
X013302Y000605D01*
X013202Y000605D02*
X013202Y000855D01*
X013102Y000855D02*
X013102Y000605D01*
X013002Y000605D02*
X013002Y000855D01*
X012902Y000855D02*
X012902Y000605D01*
X012802Y000605D02*
X012802Y000855D01*
X012702Y000855D02*
X012702Y000605D01*
X012602Y000605D02*
X012602Y000855D01*
X012502Y000855D02*
X012502Y000605D01*
X012402Y000605D02*
X012402Y000855D01*
X012302Y000855D02*
X012302Y000605D01*
X012202Y000605D02*
X012202Y000855D01*
X012102Y000855D02*
X012102Y000605D01*
X012002Y000605D02*
X012002Y000855D01*
X011902Y000855D02*
X011902Y000605D01*
X011802Y000605D02*
X011802Y000855D01*
X011702Y000855D02*
X011702Y000605D01*
X011602Y000605D02*
X011602Y000855D01*
X011502Y000855D02*
X011502Y000605D01*
X011402Y000605D02*
X011402Y000855D01*
X011302Y000855D02*
X011302Y000605D01*
X011202Y000605D02*
X011202Y000855D01*
X011102Y000855D02*
X011102Y000605D01*
X011002Y000605D02*
X011002Y000855D01*
X010902Y000855D02*
X010902Y000605D01*
X010802Y000605D02*
X010802Y000855D01*
X010702Y000855D02*
X010702Y000605D01*
X010602Y000605D02*
X010602Y000855D01*
X010502Y000855D02*
X010502Y000605D01*
X010402Y000605D02*
X010402Y000855D01*
X010302Y000855D02*
X010302Y000605D01*
X010202Y000605D02*
X010202Y000855D01*
X010102Y000855D02*
X010102Y000605D01*
X010002Y000605D02*
X010002Y000855D01*
X009902Y000855D02*
X009902Y000605D01*
X009802Y000605D02*
X009802Y000855D01*
X009702Y000855D02*
X009702Y000605D01*
X009602Y000605D02*
X009602Y000855D01*
X009502Y000855D02*
X009502Y000605D01*
X009402Y000605D02*
X009402Y000855D01*
X009302Y000855D02*
X009302Y000605D01*
X009202Y000605D02*
X009202Y000855D01*
X009102Y000855D02*
X009102Y000605D01*
X009002Y000605D02*
X009002Y000855D01*
X008902Y000855D02*
X008902Y000605D01*
X008802Y000605D02*
X008802Y000855D01*
X008702Y000855D02*
X008702Y000605D01*
X008602Y000605D02*
X008602Y000855D01*
X008502Y000855D02*
X008502Y000605D01*
X008402Y000605D02*
X008402Y000855D01*
X008302Y000855D02*
X008302Y000605D01*
X008202Y000605D02*
X008202Y000855D01*
X008102Y000855D02*
X008102Y000605D01*
X008002Y000605D02*
X008002Y000855D01*
X007902Y000855D02*
X007902Y000605D01*
X007802Y000605D02*
X007802Y000855D01*
X007702Y000855D02*
X007702Y000605D01*
X007602Y000605D02*
X007602Y000855D01*
X007502Y000855D02*
X007502Y000605D01*
X007402Y000605D02*
X007402Y000855D01*
X007302Y000855D02*
X007302Y000605D01*
X007202Y000605D02*
X007202Y000855D01*
X007102Y000855D02*
X007102Y000605D01*
X007002Y000605D02*
X007002Y000855D01*
X006902Y000855D02*
X006902Y000605D01*
X006802Y000605D02*
X006802Y000855D01*
X006702Y000855D02*
X006702Y000605D01*
X006602Y000605D02*
X006602Y000855D01*
X006502Y000855D02*
X006502Y000605D01*
X006402Y000605D02*
X006402Y000855D01*
X006302Y000855D02*
X006302Y000605D01*
X006202Y000605D02*
X006202Y000855D01*
X006102Y000855D02*
X006102Y000605D01*
X006002Y000605D02*
X006002Y000855D01*
X005902Y000855D02*
X005902Y000605D01*
X005802Y000605D02*
X005802Y000855D01*
X005702Y000855D02*
X005702Y000605D01*
X005602Y000605D02*
X005602Y000855D01*
X005502Y000855D02*
X005502Y000605D01*
X005402Y000605D02*
X005402Y000855D01*
X005302Y000855D02*
X005302Y000605D01*
X005202Y000605D02*
X005202Y000855D01*
X005102Y000855D02*
X005102Y000605D01*
X005002Y000605D02*
X005002Y000855D01*
X004902Y000855D02*
X004902Y000605D01*
X004802Y000605D02*
X004802Y000855D01*
X004702Y000855D02*
X004702Y000605D01*
X007302Y001395D02*
X007302Y001660D01*
X007267Y001625D02*
X007538Y001625D01*
X007502Y001660D02*
X007502Y001395D01*
X007402Y001395D02*
X007402Y002325D01*
X007302Y002325D02*
X007302Y002190D01*
X007267Y002225D02*
X007538Y002225D01*
X007502Y002190D02*
X007502Y002325D01*
X007602Y002325D02*
X007602Y002290D01*
X007438Y002125D02*
X007367Y002125D01*
X007372Y002025D02*
X007432Y002025D01*
X007432Y001925D02*
X007372Y001925D01*
X007372Y001825D02*
X007432Y001825D01*
X007438Y001725D02*
X007367Y001725D01*
X007602Y001560D02*
X007602Y001395D01*
X008302Y001395D02*
X008302Y001660D01*
X008267Y001625D02*
X008538Y001625D01*
X008502Y001660D02*
X008502Y001395D01*
X008402Y001395D02*
X008402Y002425D01*
X008302Y002425D02*
X008302Y002190D01*
X008267Y002225D02*
X008538Y002225D01*
X008502Y002190D02*
X008502Y002425D01*
X008602Y002425D02*
X008602Y002290D01*
X008638Y002325D02*
X008167Y002325D01*
X008202Y002290D02*
X008202Y002425D01*
X008367Y002125D02*
X008438Y002125D01*
X008432Y002025D02*
X008372Y002025D01*
X008372Y001925D02*
X008432Y001925D01*
X008432Y001825D02*
X008372Y001825D01*
X008367Y001725D02*
X008438Y001725D01*
X008602Y001560D02*
X008602Y001395D01*
X009302Y001395D02*
X009302Y001660D01*
X009267Y001625D02*
X009538Y001625D01*
X009502Y001660D02*
X009502Y001395D01*
X009402Y001395D02*
X009402Y002425D01*
X009302Y002425D02*
X009302Y002190D01*
X009267Y002225D02*
X009538Y002225D01*
X009502Y002190D02*
X009502Y002425D01*
X009602Y002425D02*
X009602Y002290D01*
X009638Y002325D02*
X009167Y002325D01*
X009202Y002290D02*
X009202Y002425D01*
X009102Y002425D02*
X009102Y002390D01*
X009002Y002395D02*
X009002Y002425D01*
X008902Y002425D02*
X008902Y002395D01*
X008802Y002395D02*
X008802Y002425D01*
X008702Y002425D02*
X008702Y002390D01*
X009367Y002125D02*
X009438Y002125D01*
X009432Y002025D02*
X009372Y002025D01*
X009372Y001925D02*
X009432Y001925D01*
X009432Y001825D02*
X009372Y001825D01*
X009367Y001725D02*
X009438Y001725D01*
X009602Y001560D02*
X009602Y001395D01*
X010302Y001395D02*
X010302Y001660D01*
X010267Y001625D02*
X010538Y001625D01*
X010502Y001660D02*
X010502Y001395D01*
X010402Y001395D02*
X010402Y002225D01*
X010302Y002225D02*
X010302Y002190D01*
X010367Y002125D02*
X010438Y002125D01*
X010502Y002190D02*
X010502Y002225D01*
X010432Y002025D02*
X010372Y002025D01*
X010372Y001925D02*
X010432Y001925D01*
X010432Y001825D02*
X010372Y001825D01*
X010367Y001725D02*
X010438Y001725D01*
X010902Y001925D02*
X011402Y001425D01*
X012202Y001425D01*
X012402Y001625D01*
X012402Y002325D01*
X012902Y002625D02*
X012902Y002925D01*
X012602Y003225D01*
X012202Y003225D01*
X011602Y002625D01*
X011902Y002425D02*
X010002Y002425D01*
X009902Y002325D01*
X009902Y001925D01*
X009902Y002825D02*
X009902Y005925D01*
X009885Y005925D02*
X011897Y005925D01*
X011882Y005889D01*
X011882Y005838D01*
X011866Y005845D01*
X011739Y005845D01*
X011802Y005845D02*
X011802Y005925D01*
X011602Y005925D02*
X011602Y005778D01*
X011550Y005725D02*
X008185Y005725D01*
X008202Y005742D02*
X008202Y005337D01*
X008207Y005325D02*
X011550Y005325D01*
X011602Y005272D02*
X011602Y003925D01*
X011502Y003925D02*
X011502Y005413D01*
X011497Y005425D02*
X008155Y005425D01*
X008102Y005478D02*
X008102Y005642D01*
X008085Y005625D02*
X011497Y005625D01*
X011502Y005637D02*
X011502Y005925D01*
X011402Y005925D02*
X011402Y003925D01*
X011270Y003925D02*
X011219Y003925D01*
X011194Y003900D01*
X011102Y003845D02*
X011102Y005925D01*
X011002Y005925D02*
X011002Y003830D01*
X010990Y003825D02*
X008507Y003825D01*
X008502Y003837D02*
X008502Y005825D01*
X008602Y005825D02*
X008602Y002825D01*
X008502Y002825D02*
X008502Y003613D01*
X008507Y003625D02*
X010797Y003625D01*
X010802Y003637D02*
X010802Y005925D01*
X010702Y005925D02*
X010702Y002825D01*
X010797Y002825D02*
X008122Y002825D01*
X008202Y002825D02*
X008202Y003405D01*
X008302Y003420D02*
X008302Y002825D01*
X008402Y002825D02*
X008402Y003472D01*
X008455Y003525D02*
X010782Y003525D01*
X010797Y003425D02*
X008314Y003425D01*
X008522Y003725D02*
X010850Y003725D01*
X010902Y003778D02*
X010902Y005925D01*
X010602Y005925D02*
X010602Y002825D01*
X010502Y002825D02*
X010502Y005925D01*
X010402Y005925D02*
X010402Y002825D01*
X010302Y002825D02*
X010302Y005925D01*
X010202Y005925D02*
X010202Y002825D01*
X010102Y002825D02*
X010102Y005925D01*
X010002Y005925D02*
X010002Y002825D01*
X009802Y002825D02*
X009802Y005842D01*
X009785Y005825D02*
X009885Y005925D01*
X009702Y005825D02*
X009702Y002825D01*
X009602Y002825D02*
X009602Y005825D01*
X009502Y005825D02*
X009502Y002825D01*
X009402Y002825D02*
X009402Y005825D01*
X009302Y005825D02*
X009302Y002825D01*
X009202Y002825D02*
X009202Y005825D01*
X009102Y005825D02*
X009102Y002825D01*
X009002Y002825D02*
X009002Y005825D01*
X008902Y005825D02*
X008902Y002825D01*
X008802Y002825D02*
X008802Y005825D01*
X008702Y005825D02*
X008702Y002825D01*
X008107Y002925D02*
X010782Y002925D01*
X010831Y003106D02*
X010921Y003196D01*
X010990Y003225D01*
X010902Y003178D02*
X010902Y003272D01*
X011102Y003525D02*
X011202Y003525D01*
X011302Y003725D01*
X012802Y003725D01*
X012502Y003925D02*
X012502Y005225D01*
X012402Y005225D02*
X012402Y003925D01*
X012302Y003925D02*
X012302Y005225D01*
X012202Y005225D02*
X012202Y003925D01*
X012102Y003925D02*
X012102Y005225D01*
X012002Y005225D02*
X012002Y003925D01*
X011902Y003925D02*
X011902Y005220D01*
X011802Y005205D02*
X011802Y003925D01*
X011702Y003925D02*
X011702Y005220D01*
X011690Y005225D02*
X008222Y005225D01*
X008014Y005525D02*
X011482Y005525D01*
X011802Y005525D02*
X011902Y005425D01*
X013702Y005425D01*
X013902Y005625D01*
X016102Y005625D01*
X015900Y005375D02*
X015850Y005325D01*
X015155Y005325D01*
X015083Y005396D01*
X015014Y005425D01*
X015850Y005425D01*
X015900Y005375D01*
X015850Y005325D02*
X015155Y005325D01*
X015202Y005325D02*
X015202Y005425D01*
X015102Y005425D02*
X015102Y005378D01*
X015302Y005425D02*
X015302Y005325D01*
X015402Y005325D02*
X015402Y005425D01*
X015502Y005425D02*
X015502Y005325D01*
X015602Y005325D02*
X015602Y005425D01*
X015702Y005425D02*
X015702Y005325D01*
X015802Y005325D02*
X015802Y005425D01*
X016102Y005125D02*
X014902Y005125D01*
X015102Y004872D02*
X015102Y004230D01*
X015090Y004225D02*
X014402Y004225D01*
X014402Y004242D02*
X014402Y003930D01*
X014402Y004025D02*
X014897Y004025D01*
X014902Y004037D02*
X014902Y004805D01*
X015002Y004820D02*
X015002Y004178D01*
X014950Y004125D02*
X014402Y004125D01*
X014502Y003945D02*
X014502Y004305D01*
X014702Y004372D02*
X014702Y003878D01*
X014755Y003825D02*
X014897Y003825D01*
X014802Y003825D02*
X014802Y004513D01*
X014807Y004525D02*
X016302Y004525D01*
X016302Y004625D02*
X014822Y004625D01*
X015014Y004825D02*
X015990Y004825D01*
X016002Y004820D02*
X016002Y004125D01*
X016006Y004125D02*
X015455Y004125D01*
X015502Y004125D02*
X015502Y004925D01*
X015402Y004925D02*
X015402Y004178D01*
X015314Y004225D02*
X016086Y004225D01*
X016102Y004245D02*
X016102Y004805D01*
X015902Y004872D02*
X015902Y004125D01*
X015802Y004125D02*
X015802Y004925D01*
X015702Y004925D02*
X015702Y004125D01*
X015602Y004125D02*
X015602Y004925D01*
X015302Y004925D02*
X015302Y004230D01*
X015202Y004245D02*
X015202Y004925D01*
X014755Y004425D02*
X016246Y004425D01*
X016802Y003925D02*
X016602Y003625D01*
X014502Y003625D01*
X014727Y003398D02*
X014682Y003289D01*
X014682Y003161D01*
X014731Y003044D01*
X014821Y002954D01*
X014890Y002925D01*
X014485Y002925D01*
X014402Y003008D01*
X014402Y003320D01*
X014439Y003305D01*
X014566Y003305D01*
X014683Y003354D01*
X014727Y003398D01*
X014702Y003372D02*
X014702Y003337D01*
X014697Y003325D02*
X014614Y003325D01*
X014602Y003320D02*
X014602Y002925D01*
X014502Y002925D02*
X014502Y003305D01*
X014402Y003320D02*
X014402Y003008D01*
X014402Y003025D02*
X014750Y003025D01*
X014802Y002972D02*
X014802Y002925D01*
X014890Y002925D02*
X014485Y002925D01*
X014702Y002925D02*
X014702Y003113D01*
X014697Y003125D02*
X014402Y003125D01*
X014402Y003225D02*
X014682Y003225D01*
X015002Y003225D02*
X016302Y003225D01*
X016502Y003425D01*
X017302Y003425D01*
X017802Y003925D01*
X016219Y003425D02*
X016219Y003425D01*
X015255Y003425D01*
X015255Y003425D01*
X016219Y003425D01*
X016202Y003425D02*
X016202Y003425D01*
X016102Y003425D02*
X016102Y003425D01*
X016002Y003425D02*
X016002Y003425D01*
X015902Y003425D02*
X015902Y003425D01*
X015802Y003425D02*
X015802Y003425D01*
X015702Y003425D02*
X015702Y003425D01*
X015602Y003425D02*
X015602Y003425D01*
X015502Y003425D02*
X015502Y003425D01*
X015402Y003425D02*
X015402Y003425D01*
X015302Y003425D02*
X015302Y003425D01*
X015302Y003025D02*
X015302Y002925D01*
X015202Y002925D02*
X015202Y002972D01*
X015183Y002954D02*
X015255Y003025D01*
X016282Y003025D01*
X016282Y002925D01*
X015114Y002925D01*
X015183Y002954D01*
X015114Y002925D02*
X016282Y002925D01*
X016202Y002925D02*
X016202Y003025D01*
X016102Y003025D02*
X016102Y002925D01*
X016002Y002925D02*
X016002Y003025D01*
X015902Y003025D02*
X015902Y002925D01*
X015802Y002925D02*
X015802Y003025D01*
X015702Y003025D02*
X015702Y002925D01*
X015602Y002925D02*
X015602Y003025D01*
X015502Y003025D02*
X015502Y002925D01*
X015402Y002925D02*
X015402Y003025D01*
X015402Y002525D02*
X015402Y000605D01*
X015302Y000605D02*
X015302Y001703D01*
X015324Y001725D02*
X016302Y001725D01*
X016302Y001625D02*
X015224Y001625D01*
X015202Y001603D02*
X015202Y000605D01*
X015102Y000605D02*
X015102Y001503D01*
X015084Y001485D02*
X015342Y001743D01*
X015342Y001875D01*
X014952Y001875D01*
X014952Y001485D01*
X015084Y001485D01*
X015124Y001525D02*
X016302Y001525D01*
X016302Y001425D02*
X014172Y001425D01*
X014172Y001525D02*
X014680Y001525D01*
X014702Y001503D02*
X014702Y000605D01*
X014602Y000605D02*
X014602Y001603D01*
X014580Y001625D02*
X014267Y001625D01*
X014302Y001660D02*
X014302Y000605D01*
X014202Y000605D02*
X014202Y001560D01*
X014367Y001725D02*
X014480Y001725D01*
X014462Y001743D02*
X014720Y001485D01*
X014852Y001485D01*
X014852Y001875D01*
X014462Y001875D01*
X014462Y001743D01*
X014502Y001703D02*
X014502Y000605D01*
X014402Y000605D02*
X014402Y002525D01*
X014502Y002525D02*
X014502Y002147D01*
X014480Y002125D02*
X014367Y002125D01*
X014302Y002190D02*
X014302Y002413D01*
X014307Y002425D02*
X016219Y002425D01*
X016202Y002442D02*
X016202Y000605D01*
X016102Y000605D02*
X016102Y002525D01*
X016002Y002525D02*
X016002Y000605D01*
X015902Y000605D02*
X015902Y002525D01*
X015802Y002525D02*
X015802Y000605D01*
X015702Y000605D02*
X015702Y002525D01*
X015602Y002525D02*
X015602Y000605D01*
X015502Y000605D02*
X015502Y002525D01*
X015302Y002525D02*
X015302Y002147D01*
X015324Y002125D02*
X016302Y002125D01*
X016302Y002025D02*
X015342Y002025D01*
X015342Y001975D02*
X015342Y002107D01*
X015084Y002365D01*
X014952Y002365D01*
X014952Y001975D01*
X014852Y001975D01*
X014852Y001875D01*
X014952Y001875D01*
X014952Y001975D01*
X015342Y001975D01*
X015302Y001975D02*
X015302Y001875D01*
X015342Y001825D02*
X016302Y001825D01*
X016302Y001925D02*
X014952Y001925D01*
X014902Y001975D02*
X014902Y002525D01*
X014802Y002525D02*
X014802Y002365D01*
X014852Y002365D02*
X014720Y002365D01*
X014462Y002107D01*
X014462Y001975D01*
X014852Y001975D01*
X014852Y002365D01*
X014852Y002325D02*
X014952Y002325D01*
X015002Y002365D02*
X015002Y002525D01*
X015102Y002525D02*
X015102Y002347D01*
X015124Y002325D02*
X016302Y002325D01*
X016302Y002225D02*
X015224Y002225D01*
X015202Y002247D02*
X015202Y002525D01*
X014952Y002225D02*
X014852Y002225D01*
X014852Y002125D02*
X014952Y002125D01*
X014952Y002025D02*
X014852Y002025D01*
X014802Y001975D02*
X014802Y001875D01*
X014852Y001925D02*
X014372Y001925D01*
X014372Y002025D02*
X014462Y002025D01*
X014502Y001975D02*
X014502Y001875D01*
X014462Y001825D02*
X014372Y001825D01*
X014602Y001875D02*
X014602Y001975D01*
X014702Y001975D02*
X014702Y001875D01*
X014852Y001825D02*
X014952Y001825D01*
X014902Y001875D02*
X014902Y000605D01*
X014802Y000605D02*
X014802Y001485D01*
X014852Y001525D02*
X014952Y001525D01*
X015002Y001485D02*
X015002Y000605D01*
X014153Y001025D02*
X016302Y001025D01*
X016302Y001125D02*
X014172Y001125D01*
X014172Y001225D02*
X016302Y001225D01*
X016302Y001325D02*
X014172Y001325D01*
X013632Y001395D02*
X012455Y001395D01*
X012602Y001542D01*
X012602Y001560D01*
X012602Y001395D01*
X012502Y001395D02*
X012502Y001442D01*
X012485Y001425D02*
X013632Y001425D01*
X013632Y001395D02*
X013632Y001530D01*
X013432Y001730D01*
X013432Y002120D01*
X013708Y002395D01*
X013710Y002395D01*
X013682Y002461D01*
X013682Y002589D01*
X013731Y002706D01*
X013802Y002778D01*
X013802Y003320D01*
X013766Y003305D01*
X013639Y003305D01*
X013611Y003317D01*
X013622Y003289D01*
X013622Y003161D01*
X013573Y003044D01*
X013483Y002954D01*
X013366Y002905D01*
X013239Y002905D01*
X013121Y002954D01*
X013102Y002972D01*
X013102Y002878D01*
X013102Y002972D01*
X013102Y002925D02*
X013190Y002925D01*
X013202Y002920D02*
X013202Y002737D01*
X013207Y002725D02*
X013750Y002725D01*
X013702Y002637D02*
X013702Y003305D01*
X013622Y003225D02*
X013802Y003225D01*
X013802Y003125D02*
X013607Y003125D01*
X013602Y003113D02*
X013602Y002290D01*
X013638Y002325D02*
X013167Y002325D01*
X013202Y002290D02*
X013202Y002513D01*
X013207Y002525D02*
X013682Y002525D01*
X013697Y002425D02*
X013155Y002425D01*
X013173Y002444D02*
X013222Y002561D01*
X013222Y002689D01*
X013173Y002806D01*
X013102Y002878D01*
X013155Y002825D02*
X013802Y002825D01*
X013802Y002925D02*
X013414Y002925D01*
X013402Y002920D02*
X013402Y001395D01*
X013302Y001395D02*
X013302Y001660D01*
X013267Y001625D02*
X013538Y001625D01*
X013502Y001660D02*
X013502Y001395D01*
X013602Y001395D02*
X013602Y001560D01*
X013632Y001525D02*
X013167Y001525D01*
X013202Y001560D02*
X013202Y001395D01*
X013102Y001395D02*
X013102Y001460D01*
X013097Y001455D02*
X013372Y001730D01*
X013372Y002120D01*
X013111Y002381D01*
X013173Y002444D01*
X013222Y002625D02*
X013697Y002625D01*
X014002Y002525D02*
X014002Y004625D01*
X014002Y004945D02*
X014002Y005425D01*
X013302Y003225D02*
X012902Y003225D01*
X013302Y002905D02*
X013302Y002190D01*
X013267Y002225D02*
X013538Y002225D01*
X013502Y002190D02*
X013502Y002972D01*
X013555Y003025D02*
X013802Y003025D01*
X014602Y002525D02*
X014602Y002247D01*
X014580Y002225D02*
X014267Y002225D01*
X014255Y002325D02*
X014680Y002325D01*
X014702Y002347D02*
X014702Y002525D01*
X015002Y001975D02*
X015002Y001875D01*
X015102Y001875D02*
X015102Y001975D01*
X015202Y001975D02*
X015202Y001875D01*
X014952Y001725D02*
X014852Y001725D01*
X014852Y001625D02*
X014952Y001625D01*
X013702Y002390D02*
X013702Y002413D01*
X013438Y002125D02*
X013367Y002125D01*
X013372Y002025D02*
X013432Y002025D01*
X013432Y001925D02*
X013372Y001925D01*
X013372Y001825D02*
X013432Y001825D01*
X013438Y001725D02*
X013367Y001725D01*
X013097Y001455D02*
X012708Y001455D01*
X012602Y001560D01*
X012585Y001525D02*
X012638Y001525D01*
X012702Y001460D02*
X012702Y001395D01*
X012802Y001395D02*
X012802Y001455D01*
X012902Y001455D02*
X012902Y001395D01*
X013002Y001395D02*
X013002Y001455D01*
X011902Y002425D02*
X012402Y002825D01*
X011902Y003208D02*
X011902Y003225D01*
X011538Y002225D02*
X011267Y002225D01*
X011372Y002120D01*
X011372Y001738D01*
X011485Y001625D01*
X011538Y001625D01*
X011485Y001625D01*
X011502Y001625D02*
X011502Y001660D01*
X011538Y001625D02*
X011432Y001730D01*
X011432Y002120D01*
X011538Y002225D01*
X011502Y002225D02*
X011502Y002190D01*
X011438Y002125D02*
X011367Y002125D01*
X011302Y002190D02*
X011302Y002225D01*
X011402Y002225D02*
X011402Y001708D01*
X011385Y001725D02*
X011438Y001725D01*
X011432Y001825D02*
X011372Y001825D01*
X011372Y001925D02*
X011432Y001925D01*
X011432Y002025D02*
X011372Y002025D01*
X007802Y002825D02*
X007002Y002825D01*
X006802Y002625D01*
X007202Y002325D02*
X007202Y002290D01*
X006502Y003278D02*
X006502Y004042D01*
X006702Y004242D02*
X006702Y003345D01*
X004797Y004025D02*
X003402Y004025D01*
X003402Y004125D02*
X004782Y004125D01*
X004797Y004225D02*
X003402Y004225D01*
X003402Y004525D02*
X004850Y004525D01*
X004802Y004613D02*
X004802Y004237D01*
X004797Y004625D02*
X003402Y004625D01*
X003402Y004725D02*
X004782Y004725D01*
X004797Y004825D02*
X003402Y004825D01*
X003402Y005125D02*
X004850Y005125D01*
X004802Y005213D02*
X004802Y004837D01*
X004797Y005225D02*
X003402Y005225D01*
X003402Y005325D02*
X004782Y005325D01*
X005102Y005325D02*
X006602Y005325D01*
X006519Y005525D02*
X005355Y005525D01*
X006519Y005525D01*
X006609Y005615D01*
X005345Y005615D01*
X005305Y005575D01*
X005355Y005525D01*
X005402Y005525D02*
X005402Y005615D01*
X005502Y005615D02*
X005502Y005525D01*
X005602Y005525D02*
X005602Y005615D01*
X005702Y005615D02*
X005702Y005525D01*
X005802Y005525D02*
X005802Y005615D01*
X005902Y005615D02*
X005902Y005525D01*
X006002Y005525D02*
X006002Y005615D01*
X006102Y005615D02*
X006102Y005525D01*
X006202Y005525D02*
X006202Y005615D01*
X006302Y005615D02*
X006302Y005525D01*
X006402Y005525D02*
X006402Y005615D01*
X006502Y005615D02*
X006502Y005525D01*
X006602Y005608D02*
X006602Y005615D01*
X006922Y006242D02*
X006922Y006289D01*
X006873Y006406D01*
X006783Y006496D01*
X006666Y006545D01*
X006539Y006545D01*
X006514Y006535D01*
X005388Y006535D01*
X005433Y006554D01*
X005523Y006644D01*
X005572Y006761D01*
X005572Y006889D01*
X005523Y007006D01*
X005433Y007096D01*
X005424Y007100D01*
X005814Y007100D01*
X005927Y007213D01*
X005927Y007215D01*
X005940Y007193D01*
X005970Y007163D01*
X006008Y007141D01*
X006049Y007130D01*
X006165Y007130D01*
X006165Y007387D01*
X006240Y007387D01*
X006240Y007130D01*
X006355Y007130D01*
X006397Y007141D01*
X006434Y007163D01*
X006464Y007193D01*
X006486Y007231D01*
X006497Y007272D01*
X006497Y007387D01*
X006240Y007387D01*
X006240Y007463D01*
X006165Y007463D01*
X006165Y007720D01*
X006049Y007720D01*
X006008Y007709D01*
X005970Y007687D01*
X005940Y007657D01*
X005927Y007635D01*
X005927Y007637D01*
X005814Y007750D01*
X005391Y007750D01*
X005297Y007656D01*
X005180Y007773D01*
X005228Y007773D01*
X005316Y007861D01*
X005316Y008067D01*
X005488Y008067D01*
X005488Y007861D01*
X005576Y007773D01*
X006134Y007773D01*
X006221Y007861D01*
X006221Y007987D01*
X008732Y007987D01*
X008732Y007208D01*
X008731Y007206D01*
X008682Y007089D01*
X008682Y006961D01*
X008731Y006844D01*
X008740Y006835D01*
X007515Y006835D01*
X006922Y006242D01*
X006907Y006325D02*
X007005Y006325D01*
X007002Y006322D02*
X007002Y007987D01*
X006902Y007987D02*
X006902Y006337D01*
X006855Y006425D02*
X007105Y006425D01*
X007102Y006422D02*
X007102Y007987D01*
X007202Y007987D02*
X007202Y006522D01*
X007205Y006525D02*
X006714Y006525D01*
X006702Y006530D02*
X006702Y007987D01*
X006602Y007987D02*
X006602Y006545D01*
X006502Y006535D02*
X006502Y007987D01*
X006402Y007987D02*
X006402Y007706D01*
X006397Y007709D02*
X006355Y007720D01*
X006240Y007720D01*
X006240Y007463D01*
X006497Y007463D01*
X006497Y007578D01*
X006486Y007619D01*
X006464Y007657D01*
X006434Y007687D01*
X006397Y007709D01*
X006302Y007720D02*
X006302Y007987D01*
X006221Y007925D02*
X008732Y007925D01*
X008702Y007987D02*
X008702Y007137D01*
X008697Y007125D02*
X005839Y007125D01*
X005802Y007100D02*
X005802Y006535D01*
X005702Y006535D02*
X005702Y007100D01*
X005602Y007100D02*
X005602Y006535D01*
X005502Y006535D02*
X005502Y006622D01*
X005505Y006625D02*
X007305Y006625D01*
X007302Y006622D02*
X007302Y007987D01*
X007402Y007987D02*
X007402Y006722D01*
X007405Y006725D02*
X005557Y006725D01*
X005572Y006825D02*
X007505Y006825D01*
X007502Y006822D02*
X007502Y007987D01*
X007602Y007987D02*
X007602Y006835D01*
X007702Y006835D02*
X007702Y007987D01*
X007802Y007987D02*
X007802Y006835D01*
X007902Y006835D02*
X007902Y007987D01*
X008002Y007987D02*
X008002Y006835D01*
X008102Y006835D02*
X008102Y007987D01*
X008202Y007987D02*
X008202Y006835D01*
X008302Y006835D02*
X008302Y007987D01*
X008402Y007987D02*
X008402Y006835D01*
X008502Y006835D02*
X008502Y007987D01*
X008602Y007987D02*
X008602Y006835D01*
X008702Y006835D02*
X008702Y006913D01*
X008697Y006925D02*
X005557Y006925D01*
X005505Y007025D02*
X008682Y007025D01*
X008732Y007225D02*
X006483Y007225D01*
X006497Y007325D02*
X008732Y007325D01*
X008732Y007425D02*
X006240Y007425D01*
X006202Y007463D02*
X006202Y007841D01*
X006186Y007825D02*
X008732Y007825D01*
X008732Y007725D02*
X005839Y007725D01*
X005802Y007750D02*
X005802Y007773D01*
X005702Y007773D02*
X005702Y007750D01*
X005602Y007750D02*
X005602Y007773D01*
X005524Y007825D02*
X005280Y007825D01*
X005302Y007847D02*
X005302Y007662D01*
X005366Y007725D02*
X005227Y007725D01*
X005202Y007750D02*
X005202Y007773D01*
X005316Y007925D02*
X005488Y007925D01*
X005502Y007847D02*
X005502Y007750D01*
X005402Y007750D02*
X005402Y008067D01*
X005316Y008025D02*
X005488Y008025D01*
X005902Y007773D02*
X005902Y007662D01*
X006002Y007706D02*
X006002Y007773D01*
X006102Y007773D02*
X006102Y007720D01*
X006165Y007625D02*
X006240Y007625D01*
X006240Y007525D02*
X006165Y007525D01*
X006202Y007387D02*
X006202Y006535D01*
X006102Y006535D02*
X006102Y007130D01*
X006002Y007144D02*
X006002Y006535D01*
X005902Y006535D02*
X005902Y007188D01*
X006165Y007225D02*
X006240Y007225D01*
X006240Y007325D02*
X006165Y007325D01*
X006302Y007387D02*
X006302Y007463D01*
X006402Y007463D02*
X006402Y007387D01*
X006497Y007525D02*
X008732Y007525D01*
X008732Y007625D02*
X006483Y007625D01*
X006802Y007987D02*
X006802Y006478D01*
X006402Y006535D02*
X006402Y007144D01*
X006302Y007130D02*
X006302Y006535D01*
X005502Y007028D02*
X005502Y007100D01*
X005367Y007124D02*
X005296Y007195D01*
X005107Y007195D01*
X004972Y007330D01*
X004719Y007582D01*
X004719Y007773D01*
X004671Y007773D01*
X004583Y007861D01*
X004583Y008733D01*
X004599Y008749D01*
X004272Y008749D01*
X004272Y007208D01*
X004273Y007206D01*
X004322Y007089D01*
X004322Y006961D01*
X004273Y006844D01*
X004255Y006825D01*
X004932Y006825D01*
X004255Y006825D01*
X004302Y006825D02*
X004302Y006913D01*
X004307Y006925D02*
X004947Y006925D01*
X004932Y006889D02*
X004932Y006825D01*
X004902Y006825D02*
X004902Y007400D01*
X004877Y007425D02*
X004272Y007425D01*
X004272Y007325D02*
X004977Y007325D01*
X005002Y007300D02*
X005002Y007028D01*
X005000Y007025D02*
X004322Y007025D01*
X004307Y007125D02*
X005140Y007125D01*
X005102Y007109D02*
X005102Y007200D01*
X005077Y007225D02*
X004272Y007225D01*
X004302Y007137D02*
X004302Y008749D01*
X004272Y008725D02*
X004583Y008725D01*
X004502Y008749D02*
X004502Y006825D01*
X004402Y006825D02*
X004402Y008749D01*
X004272Y008625D02*
X004583Y008625D01*
X004583Y008525D02*
X004272Y008525D01*
X004272Y008425D02*
X004583Y008425D01*
X004583Y008325D02*
X004272Y008325D01*
X004272Y008225D02*
X004583Y008225D01*
X004583Y008125D02*
X004272Y008125D01*
X004272Y008025D02*
X004583Y008025D01*
X004583Y007925D02*
X004272Y007925D01*
X004272Y007825D02*
X004618Y007825D01*
X004602Y007841D02*
X004602Y006825D01*
X004702Y006825D02*
X004702Y007773D01*
X004719Y007725D02*
X004272Y007725D01*
X004272Y007625D02*
X004719Y007625D01*
X004777Y007525D02*
X004272Y007525D01*
X004802Y007500D02*
X004802Y006825D01*
X004932Y006889D02*
X004981Y007006D01*
X005071Y007096D01*
X005189Y007145D01*
X005316Y007145D01*
X005367Y007124D01*
X005366Y007125D02*
X005364Y007125D01*
X005302Y007145D02*
X005302Y007188D01*
X005202Y007195D02*
X005202Y007145D01*
X005252Y006825D02*
X005052Y006625D01*
X003802Y006625D01*
X003702Y006725D01*
X003702Y009825D01*
X003802Y009925D01*
X003802Y010025D01*
X004122Y010025D02*
X004613Y010025D01*
X004613Y009925D02*
X004107Y009925D01*
X004102Y009913D02*
X004102Y009289D01*
X004048Y009289D02*
X003949Y009248D01*
X003902Y009201D01*
X003902Y009720D01*
X003902Y009201D01*
X003902Y009225D02*
X003927Y009225D01*
X004002Y009270D02*
X004002Y009772D01*
X003983Y009754D02*
X004073Y009844D01*
X004122Y009961D01*
X004122Y010089D01*
X004073Y010206D01*
X003983Y010296D01*
X003866Y010345D01*
X003739Y010345D01*
X003621Y010296D01*
X003612Y010288D01*
X003612Y010550D01*
X003708Y010455D01*
X004097Y010455D01*
X004372Y010730D01*
X004372Y011120D01*
X004177Y011315D01*
X004628Y011315D01*
X004432Y011120D01*
X004432Y010730D01*
X004708Y010455D01*
X004828Y010455D01*
X005036Y010247D01*
X004999Y010247D01*
X004999Y009803D01*
X004899Y009803D01*
X004899Y009703D01*
X004613Y009703D01*
X004613Y009364D01*
X004621Y009333D01*
X004637Y009306D01*
X004654Y009289D01*
X004048Y009289D01*
X003902Y009325D02*
X004626Y009325D01*
X004602Y009289D02*
X004602Y010560D01*
X004638Y010525D02*
X004167Y010525D01*
X004202Y010560D02*
X004202Y009289D01*
X004302Y009289D02*
X004302Y010660D01*
X004267Y010625D02*
X004538Y010625D01*
X004502Y010660D02*
X004502Y009289D01*
X004402Y009289D02*
X004402Y011315D01*
X004302Y011315D02*
X004302Y011190D01*
X004267Y011225D02*
X004538Y011225D01*
X004502Y011190D02*
X004502Y011315D01*
X004602Y011315D02*
X004602Y011290D01*
X004438Y011125D02*
X004367Y011125D01*
X004372Y011025D02*
X004432Y011025D01*
X004432Y010925D02*
X004372Y010925D01*
X004372Y010825D02*
X004432Y010825D01*
X004438Y010725D02*
X004367Y010725D01*
X004102Y010460D02*
X004102Y010137D01*
X004107Y010125D02*
X004613Y010125D01*
X004613Y010143D02*
X004613Y009803D01*
X004899Y009803D01*
X004899Y010247D01*
X004717Y010247D01*
X004687Y010239D01*
X004659Y010223D01*
X004637Y010201D01*
X004621Y010174D01*
X004613Y010143D01*
X004662Y010225D02*
X004055Y010225D01*
X004002Y010278D02*
X004002Y010455D01*
X003902Y010455D02*
X003902Y010330D01*
X003914Y010325D02*
X004958Y010325D01*
X005002Y010281D02*
X005002Y010247D01*
X004999Y010225D02*
X004899Y010225D01*
X004802Y010247D02*
X004802Y010455D01*
X004858Y010425D02*
X003612Y010425D01*
X003702Y010460D02*
X003702Y010330D01*
X003690Y010325D02*
X003612Y010325D01*
X003802Y010345D02*
X003802Y010455D01*
X003638Y010525D02*
X003612Y010525D01*
X004055Y009825D02*
X004613Y009825D01*
X004702Y009803D02*
X004702Y009703D01*
X004802Y009703D02*
X004802Y009803D01*
X004899Y009825D02*
X004999Y009825D01*
X004999Y009803D02*
X005286Y009803D01*
X005286Y009997D01*
X005488Y009795D01*
X005488Y009317D01*
X005576Y009229D01*
X006134Y009229D01*
X006221Y009317D01*
X006221Y010189D01*
X006134Y010277D01*
X005656Y010277D01*
X005288Y010646D01*
X005372Y010730D01*
X005372Y011120D01*
X005177Y011315D01*
X005628Y011315D01*
X005432Y011120D01*
X005432Y010730D01*
X005708Y010455D01*
X006047Y010455D01*
X006272Y010230D01*
X006272Y009530D01*
X006407Y009395D01*
X006607Y009195D01*
X006696Y009195D01*
X006791Y009100D01*
X006792Y009100D01*
X006770Y009087D01*
X006740Y009057D01*
X006718Y009019D01*
X006707Y008978D01*
X006707Y008863D01*
X006965Y008863D01*
X006965Y008787D01*
X006707Y008787D01*
X006707Y008672D01*
X006718Y008631D01*
X006732Y008607D01*
X006221Y008607D01*
X006221Y008733D01*
X006134Y008821D01*
X005576Y008821D01*
X005488Y008733D01*
X005488Y008527D01*
X005316Y008527D01*
X005316Y008733D01*
X005292Y008756D01*
X005373Y008837D01*
X005422Y008955D01*
X005422Y009082D01*
X005373Y009200D01*
X005283Y009290D01*
X005257Y009301D01*
X005262Y009306D01*
X005278Y009333D01*
X005286Y009364D01*
X005286Y009703D01*
X004999Y009703D01*
X004999Y009803D01*
X005002Y009803D02*
X005002Y009703D01*
X004999Y009725D02*
X005488Y009725D01*
X005488Y009625D02*
X005286Y009625D01*
X005286Y009525D02*
X005488Y009525D01*
X005488Y009425D02*
X005286Y009425D01*
X005273Y009325D02*
X005488Y009325D01*
X005502Y009303D02*
X005502Y008747D01*
X005488Y008725D02*
X005316Y008725D01*
X005302Y008747D02*
X005302Y008766D01*
X005361Y008825D02*
X006965Y008825D01*
X006902Y008787D02*
X006902Y008863D01*
X006802Y008863D02*
X006802Y008787D01*
X006707Y008725D02*
X006221Y008725D01*
X006202Y008752D02*
X006202Y009298D01*
X006221Y009325D02*
X006477Y009325D01*
X006502Y009300D02*
X006502Y008607D01*
X006402Y008607D02*
X006402Y009400D01*
X006377Y009425D02*
X006221Y009425D01*
X006221Y009525D02*
X006277Y009525D01*
X006302Y009500D02*
X006302Y008607D01*
X006221Y008625D02*
X006722Y008625D01*
X006702Y008607D02*
X006702Y009188D01*
X006766Y009125D02*
X005405Y009125D01*
X005402Y009131D02*
X005402Y009881D01*
X005358Y009925D02*
X005286Y009925D01*
X005302Y009981D02*
X005302Y009271D01*
X005348Y009225D02*
X006577Y009225D01*
X006602Y009200D02*
X006602Y008607D01*
X007040Y008787D02*
X007040Y008863D01*
X007297Y008863D01*
X007297Y008978D01*
X007286Y009019D01*
X007264Y009057D01*
X007234Y009087D01*
X007212Y009100D01*
X007214Y009100D01*
X007260Y009146D01*
X007260Y009117D01*
X007348Y009029D01*
X007866Y009029D01*
X007902Y009065D01*
X007902Y008607D01*
X007802Y008607D02*
X007802Y009029D01*
X007702Y009029D02*
X007702Y008607D01*
X007602Y008607D02*
X007602Y009029D01*
X007502Y009029D02*
X007502Y008607D01*
X007402Y008607D02*
X007402Y009029D01*
X007302Y009075D02*
X007302Y008607D01*
X007283Y008625D02*
X008622Y008625D01*
X008618Y008631D02*
X008632Y008607D01*
X007272Y008607D01*
X007286Y008631D01*
X007297Y008672D01*
X007297Y008787D01*
X007040Y008787D01*
X007040Y008825D02*
X008865Y008825D01*
X008865Y008863D02*
X008865Y008787D01*
X008607Y008787D01*
X008607Y008672D01*
X008618Y008631D01*
X008602Y008607D02*
X008602Y009188D01*
X008596Y009195D02*
X008691Y009100D01*
X008692Y009100D01*
X008670Y009087D01*
X008640Y009057D01*
X008618Y009019D01*
X008607Y008978D01*
X008607Y008863D01*
X008865Y008863D01*
X008802Y008863D02*
X008802Y008787D01*
X008702Y008787D02*
X008702Y008863D01*
X008607Y008925D02*
X007297Y008925D01*
X007283Y009025D02*
X008622Y009025D01*
X008666Y009125D02*
X008544Y009125D01*
X008544Y009117D02*
X008544Y009195D01*
X008596Y009195D01*
X008544Y009117D02*
X008456Y009029D01*
X007938Y009029D01*
X007902Y009065D01*
X008002Y009029D02*
X008002Y008607D01*
X008102Y008607D02*
X008102Y009029D01*
X008202Y009029D02*
X008202Y008607D01*
X008302Y008607D02*
X008302Y009029D01*
X008402Y009029D02*
X008402Y008607D01*
X008502Y008607D02*
X008502Y009075D01*
X008607Y008725D02*
X007297Y008725D01*
X007202Y008787D02*
X007202Y008863D01*
X007102Y008863D02*
X007102Y008787D01*
X007239Y009125D02*
X007260Y009125D01*
X006722Y009025D02*
X005422Y009025D01*
X005410Y008925D02*
X006707Y008925D01*
X006102Y008821D02*
X006102Y009229D01*
X006002Y009229D02*
X006002Y008821D01*
X005902Y008821D02*
X005902Y009229D01*
X005802Y009229D02*
X005802Y008821D01*
X005702Y008821D02*
X005702Y009229D01*
X005602Y009229D02*
X005602Y008821D01*
X005402Y008907D02*
X005402Y008527D01*
X005316Y008625D02*
X005488Y008625D01*
X004613Y009425D02*
X003902Y009425D01*
X003902Y009525D02*
X004613Y009525D01*
X004613Y009625D02*
X003902Y009625D01*
X003902Y009720D02*
X003983Y009754D01*
X003914Y009725D02*
X004899Y009725D01*
X004902Y009803D02*
X004902Y010381D01*
X004702Y010460D02*
X004702Y010243D01*
X004899Y010125D02*
X004999Y010125D01*
X004999Y010025D02*
X004899Y010025D01*
X004899Y009925D02*
X004999Y009925D01*
X005102Y009803D02*
X005102Y009703D01*
X005202Y009703D02*
X005202Y009803D01*
X005286Y009825D02*
X005458Y009825D01*
X005702Y010277D02*
X005702Y010460D01*
X005638Y010525D02*
X005409Y010525D01*
X005402Y010531D02*
X005402Y011315D01*
X005302Y011315D02*
X005302Y011190D01*
X005267Y011225D02*
X005538Y011225D01*
X005502Y011190D02*
X005502Y011315D01*
X005602Y011315D02*
X005602Y011290D01*
X005438Y011125D02*
X005367Y011125D01*
X005372Y011025D02*
X005432Y011025D01*
X005432Y010925D02*
X005372Y010925D01*
X005372Y010825D02*
X005432Y010825D01*
X005438Y010725D02*
X005367Y010725D01*
X005302Y010660D02*
X005302Y010631D01*
X005309Y010625D02*
X005538Y010625D01*
X005502Y010660D02*
X005502Y010431D01*
X005509Y010425D02*
X006077Y010425D01*
X006102Y010400D02*
X006102Y010277D01*
X006177Y010325D02*
X005609Y010325D01*
X005602Y010331D02*
X005602Y010560D01*
X005802Y010455D02*
X005802Y010277D01*
X005902Y010277D02*
X005902Y010455D01*
X006002Y010455D02*
X006002Y010277D01*
X006186Y010225D02*
X006272Y010225D01*
X006202Y010209D02*
X006202Y010300D01*
X006221Y010125D02*
X006272Y010125D01*
X006272Y010025D02*
X006221Y010025D01*
X006221Y009925D02*
X006272Y009925D01*
X006272Y009825D02*
X006221Y009825D01*
X006221Y009725D02*
X006272Y009725D01*
X006272Y009625D02*
X006221Y009625D01*
X006732Y009720D02*
X006732Y010420D01*
X006372Y010780D01*
X006372Y011120D01*
X006177Y011315D01*
X006628Y011315D01*
X006432Y011120D01*
X006432Y010730D01*
X006708Y010455D01*
X007047Y010455D01*
X007607Y009895D01*
X008607Y009895D01*
X008672Y009830D01*
X008672Y009732D01*
X008596Y009655D01*
X008544Y009655D01*
X008544Y009733D01*
X008456Y009821D01*
X007938Y009821D01*
X007902Y009785D01*
X007902Y009895D01*
X007866Y009821D02*
X007902Y009785D01*
X007866Y009821D02*
X007348Y009821D01*
X007260Y009733D01*
X007260Y009704D01*
X007214Y009750D01*
X006791Y009750D01*
X006747Y009706D01*
X006732Y009720D01*
X006732Y009725D02*
X006766Y009725D01*
X006802Y009750D02*
X006802Y010455D01*
X006727Y010425D02*
X007077Y010425D01*
X007102Y010400D02*
X007102Y009750D01*
X007002Y009750D02*
X007002Y010455D01*
X006902Y010455D02*
X006902Y009750D01*
X006732Y009825D02*
X008672Y009825D01*
X008602Y009895D02*
X008602Y009662D01*
X008544Y009725D02*
X008666Y009725D01*
X008502Y009775D02*
X008502Y009895D01*
X008402Y009895D02*
X008402Y009821D01*
X008302Y009821D02*
X008302Y009895D01*
X008202Y009895D02*
X008202Y009821D01*
X008102Y009821D02*
X008102Y009895D01*
X008002Y009895D02*
X008002Y009821D01*
X007802Y009821D02*
X007802Y009895D01*
X007702Y009895D02*
X007702Y009821D01*
X007602Y009821D02*
X007602Y009900D01*
X007577Y009925D02*
X006732Y009925D01*
X006732Y010025D02*
X007477Y010025D01*
X007502Y010000D02*
X007502Y009821D01*
X007402Y009821D02*
X007402Y010100D01*
X007377Y010125D02*
X006732Y010125D01*
X006732Y010225D02*
X007277Y010225D01*
X007302Y010200D02*
X007302Y009775D01*
X007260Y009725D02*
X007239Y009725D01*
X007202Y009750D02*
X007202Y010300D01*
X007177Y010325D02*
X006732Y010325D01*
X006702Y010450D02*
X006702Y010460D01*
X006638Y010525D02*
X006627Y010525D01*
X006602Y010550D02*
X006602Y010560D01*
X006538Y010625D02*
X006527Y010625D01*
X006502Y010650D02*
X006502Y010660D01*
X006438Y010725D02*
X006427Y010725D01*
X006402Y010750D02*
X006402Y011315D01*
X006302Y011315D02*
X006302Y011190D01*
X006267Y011225D02*
X006538Y011225D01*
X006502Y011190D02*
X006502Y011315D01*
X006602Y011315D02*
X006602Y011290D01*
X006438Y011125D02*
X006367Y011125D01*
X006372Y011025D02*
X006432Y011025D01*
X006432Y010925D02*
X006372Y010925D01*
X006372Y010825D02*
X006432Y010825D01*
X006202Y011290D02*
X006202Y011315D01*
X007202Y011290D02*
X007202Y011315D01*
X007302Y011315D02*
X007302Y011190D01*
X007267Y011225D02*
X007538Y011225D01*
X007502Y011190D02*
X007502Y011315D01*
X007402Y011315D02*
X007402Y010750D01*
X007427Y010725D02*
X007438Y010725D01*
X007502Y010660D02*
X007502Y010650D01*
X007527Y010625D02*
X007538Y010625D01*
X007602Y010560D02*
X007602Y010550D01*
X007627Y010525D02*
X007638Y010525D01*
X007702Y010460D02*
X007702Y010450D01*
X007432Y010825D02*
X007372Y010825D01*
X007372Y010925D02*
X007432Y010925D01*
X007432Y011025D02*
X007372Y011025D01*
X007367Y011125D02*
X007438Y011125D01*
X007602Y011290D02*
X007602Y011315D01*
X008202Y011290D02*
X008202Y011315D01*
X008302Y011315D02*
X008302Y011190D01*
X008267Y011225D02*
X008538Y011225D01*
X008502Y011190D02*
X008502Y011315D01*
X008402Y011315D02*
X008402Y010355D01*
X008302Y010355D02*
X008302Y010660D01*
X008267Y010625D02*
X008538Y010625D01*
X008502Y010660D02*
X008502Y010355D01*
X008438Y010725D02*
X008367Y010725D01*
X008372Y010825D02*
X008432Y010825D01*
X008432Y010925D02*
X008372Y010925D01*
X008372Y011025D02*
X008432Y011025D01*
X008438Y011125D02*
X008367Y011125D01*
X008602Y011290D02*
X008602Y011315D01*
X009202Y011290D02*
X009202Y011315D01*
X013202Y011290D02*
X013202Y011315D01*
X014172Y011425D02*
X015890Y011425D01*
X016302Y011625D02*
X014222Y011625D01*
X014207Y011725D02*
X016302Y011725D01*
X016302Y011825D02*
X014155Y011825D01*
X014102Y011878D02*
X014102Y012245D01*
X014202Y012245D02*
X014202Y011737D01*
X014852Y011225D02*
X014952Y011225D01*
X014952Y011125D02*
X014852Y011125D01*
X014702Y010975D02*
X014702Y010875D01*
X014602Y010875D02*
X014602Y010975D01*
X014852Y010725D02*
X014952Y010725D01*
X014952Y010625D02*
X014852Y010625D01*
X015102Y010875D02*
X015102Y010975D01*
X015202Y010975D02*
X015202Y010875D01*
X017302Y010625D02*
X018102Y010625D01*
X008002Y005542D02*
X008002Y005530D01*
X005402Y006535D02*
X005402Y006541D01*
X005202Y011290D02*
X005202Y011315D01*
X004202Y011290D02*
X004202Y011315D01*
D20*
X003802Y010025D03*
X004202Y009525D03*
X005102Y009019D03*
X002802Y009725D03*
X004002Y007025D03*
X002902Y006325D03*
X005102Y005825D03*
X005102Y005325D03*
X005102Y004725D03*
X005102Y004125D03*
X006702Y003025D03*
X007802Y002825D03*
X008202Y003725D03*
X007402Y004425D03*
X007902Y005225D03*
X008802Y004625D03*
X011002Y004625D03*
X011802Y005525D03*
X012202Y005825D03*
X013202Y005925D03*
X013502Y006425D03*
X013002Y006625D03*
X012602Y006825D03*
X012102Y006825D03*
X011802Y007125D03*
X009002Y007025D03*
X007302Y006825D03*
X006602Y006225D03*
X005252Y006825D03*
X003302Y003425D03*
X002902Y003425D03*
X004002Y000725D03*
X011102Y002925D03*
X011102Y003525D03*
X012402Y002825D03*
X012902Y002625D03*
X012402Y002325D03*
X013302Y003225D03*
X013702Y003625D03*
X014502Y003625D03*
X015002Y003225D03*
X015202Y003925D03*
X014502Y004625D03*
X014002Y004625D03*
X013602Y005025D03*
X013002Y004925D03*
X012802Y003725D03*
X014002Y002525D03*
X014902Y005125D03*
X016102Y005125D03*
X016102Y005625D03*
X014902Y007125D03*
X016002Y007225D03*
X016002Y008225D03*
X014902Y008825D03*
X014102Y009025D03*
X016002Y011125D03*
X017302Y010625D03*
X018102Y010625D03*
X014902Y012025D03*
X013902Y011625D03*
X011002Y009825D03*
D21*
X002902Y003425D02*
X002902Y000725D01*
X004002Y000725D01*
X014902Y000725D01*
X014902Y001925D01*
X013902Y001925D02*
X013902Y001125D01*
X003502Y001125D01*
X003302Y001325D01*
X003302Y002825D01*
X003402Y002925D01*
X006502Y002925D01*
X006702Y003025D01*
X007802Y003425D02*
X008002Y003225D01*
X008402Y003225D01*
X008702Y003525D01*
X008702Y004325D01*
X008602Y004425D01*
X007402Y004425D01*
X008702Y004425D02*
X008702Y004325D01*
X008702Y004425D02*
X008802Y004525D01*
X008802Y004625D01*
X011002Y004625D01*
X012891Y004625D01*
X012991Y004725D01*
X012991Y004914D01*
X013002Y004925D01*
X009002Y007025D02*
X009002Y008225D01*
X009552Y008675D02*
X009402Y008825D01*
X008902Y008825D01*
X009552Y008675D02*
X010272Y008675D01*
X010272Y009175D01*
X012332Y009175D01*
X012752Y009175D01*
X013002Y009425D01*
X013302Y009425D01*
X013602Y009425D01*
X013702Y009325D01*
X013702Y008725D01*
X013802Y008625D01*
X014702Y008625D01*
X014902Y008825D01*
X014902Y010925D01*
X014902Y011525D01*
X016802Y011525D01*
X016802Y009925D01*
X017802Y009925D01*
X016402Y008425D02*
X016002Y008825D01*
X016002Y011125D01*
X014902Y011525D02*
X014902Y012025D01*
X014902Y012125D01*
X002902Y012125D01*
X002802Y012025D01*
X002802Y009725D01*
X002702Y009625D01*
X002002Y009625D01*
X001902Y009525D01*
X001902Y008225D01*
X001909Y008231D01*
X002502Y008231D01*
X001902Y008225D02*
X001902Y007325D01*
X002902Y006325D01*
X002902Y003425D01*
X003302Y003425D02*
X007802Y003425D01*
X008702Y004425D02*
X008702Y004525D01*
X008802Y004625D01*
X004002Y007025D02*
X004002Y008919D01*
X004102Y009019D01*
X005102Y009019D01*
X004721Y009525D02*
X004949Y009753D01*
X004721Y009525D02*
X004202Y009525D01*
X010272Y009675D02*
X010272Y009175D01*
X010272Y009675D02*
X010272Y010175D01*
X012332Y008675D02*
X012852Y008675D01*
X013002Y008825D01*
X013302Y008825D01*
X013302Y008325D01*
X013402Y008225D01*
X016402Y008325D02*
X016802Y007925D01*
X016402Y008325D02*
X016402Y008425D01*
X013902Y010925D02*
X013902Y011625D01*
D22*
X009202Y008225D02*
X009131Y008297D01*
X008902Y008825D02*
X007202Y008825D01*
X007102Y008925D01*
X005702Y008925D01*
X005402Y009225D01*
X005402Y009625D01*
X005274Y009753D01*
X004949Y009753D01*
X005855Y009753D02*
X004902Y010706D01*
X004902Y010925D01*
X005902Y010925D02*
X006502Y010325D01*
X006502Y009625D01*
X006702Y009425D01*
X007607Y009425D01*
X007002Y009425D01*
X007002Y008825D02*
X007202Y008825D01*
X008197Y009425D02*
X008902Y009425D01*
X008902Y009925D01*
X008702Y010125D01*
X007702Y010125D01*
X006902Y010925D01*
X005855Y008297D02*
X004949Y008297D01*
X004949Y007678D01*
X005202Y007425D01*
X005602Y007425D01*
X006202Y007425D02*
X006202Y006825D01*
X007302Y006825D01*
D23*
X006602Y006225D02*
X003302Y006225D01*
X003302Y011525D01*
X003402Y011625D01*
X013902Y011625D01*
X009131Y008297D02*
X005855Y008297D01*
X009002Y008225D02*
X009202Y008225D01*
X013402Y008225D01*
X016002Y008225D01*
D24*
X012102Y006825D02*
X012002Y006825D01*
X011902Y006725D01*
X009202Y006725D01*
X009102Y006625D01*
X007602Y006625D01*
X006802Y005825D01*
X005102Y005825D01*
M02*
